<svg width="32" height="32" viewBox="0 0 32 32" fill="none" xmlns="http://www.w3.org/2000/svg">
<path d="M26.4778 24.7655L18.8943 12.8916V6.91668H19.8592C20.1205 6.91668 20.3469 6.82165 20.5376 6.632C20.7288 6.44246 20.8242 6.21777 20.8242 5.95821C20.8242 5.69865 20.7288 5.47407 20.5376 5.28442C20.3469 5.09477 20.1205 5 19.8592 5H12.1406C11.8791 5 11.653 5.09477 11.4621 5.28447C11.2711 5.47407 11.1757 5.6987 11.1757 5.95826C11.1757 6.21782 11.2711 6.44251 11.4621 6.63205C11.6532 6.8217 11.8793 6.91674 12.1406 6.91674H13.1054V12.8914L5.52228 24.7654C4.95961 25.6541 4.85152 26.4155 5.19828 27.0491C5.54504 27.683 6.25113 28 7.31638 28H24.6839C25.749 28 26.455 27.683 26.8016 27.0491C27.1485 26.4155 27.0404 25.6544 26.4778 24.7655ZM10.6331 20.3332L14.7336 13.9094L15.0351 13.4451V12.8912V6.91653H16.9646V12.8912V13.4451L17.266 13.9094L21.3668 20.3332H10.6331Z" fill="white"/>
</svg>
