<svg width="35" height="28" viewBox="0 0 35 28" fill="none" xmlns="http://www.w3.org/2000/svg">
<path d="M32.1613 7.94401L30.0053 11.1868C31.045 13.2606 31.5541 15.5599 31.4868 17.8787C31.4195 20.1976 30.7779 22.4635 29.6197 24.4734H5.32508C3.81967 21.8619 3.19588 18.8347 3.54618 15.8407C3.89648 12.8468 5.20222 10.0454 7.26984 7.85185C9.33745 5.65833 12.0569 4.18946 15.0249 3.663C17.993 3.13654 21.0517 3.58051 23.7476 4.92909L26.9904 2.77308C23.6888 0.656009 19.7727 -0.292657 15.8683 0.0788288C11.9639 0.450314 8.29695 2.12049 5.4539 4.82219C2.61086 7.52389 0.75602 11.101 0.186089 14.9814C-0.383843 18.8618 0.364062 22.8212 2.31017 26.2263C2.61606 26.7561 3.05529 27.1967 3.5842 27.5042C4.11311 27.8117 4.71329 27.9755 5.32508 27.9792H29.6021C30.2199 27.9816 30.8273 27.8208 31.3629 27.513C31.8985 27.2052 32.3432 26.7613 32.6521 26.2263C34.2671 23.4286 35.0777 20.239 34.9941 17.0097C34.9106 13.7804 33.9363 10.637 32.1788 7.92648L32.1613 7.94401Z" fill="#343C46"/>
<path d="M15.0011 19.9336C15.3267 20.2596 15.7133 20.5182 16.1389 20.6946C16.5645 20.871 17.0207 20.9618 17.4814 20.9618C17.9421 20.9618 18.3983 20.871 18.8239 20.6946C19.2495 20.5182 19.6361 20.2596 19.9617 19.9336L29.8829 5.05188L15.0011 14.973C14.6752 15.2986 14.4166 15.6853 14.2402 16.1109C14.0637 16.5364 13.9729 16.9926 13.9729 17.4533C13.9729 17.914 14.0637 18.3702 14.2402 18.7958C14.4166 19.2214 14.6752 19.608 15.0011 19.9336Z" fill="#343C46"/>
</svg>
