<svg width="35" height="38" viewBox="0 0 35 38" fill="none" xmlns="http://www.w3.org/2000/svg">
<path d="M33.8339 29.8537L22.2058 10.2956V2.375H23.3823C24.0293 2.375 24.5587 1.84063 24.5587 1.1875C24.5587 0.534375 24.0293 0 23.3823 0H11.6177C10.9707 0 10.4413 0.534375 10.4413 1.1875C10.4413 1.84063 10.9707 2.375 11.6177 2.375H12.7942V10.2956L1.16607 29.8537C-1.49743 34.333 0.559017 38 5.73543 38H29.2646C34.441 38 36.4974 34.3354 33.8339 29.8537ZM7.53776 23.75L15.1471 10.9488V2.375H19.8529V10.9488L27.4622 23.75H7.53776Z" fill="#343C46"/>
</svg>
