<svg width="34" height="34" viewBox="0 0 34 34" fill="none" xmlns="http://www.w3.org/2000/svg">
<path d="M23 22.6889L22.7346 22.9666L22.5666 23.1556L22.2153 23.5334C20.5677 25.3075 18.3664 27.6483 16.8562 29.2466C15.8213 30.3646 14.7114 31.4124 13.5342 32.3828C12.4635 33.2455 11.1644 33.7847 9.79213 33.9358L9.37019 33.9754L9.16018 34H8.44041C8.31822 33.983 8.19794 33.9679 8.07575 33.9547C7.80656 33.9207 7.52972 33.8885 7.25289 33.8375C5.72942 33.5619 4.3067 32.8925 3.12901 31.8972C1.50518 30.5806 0.432974 28.7144 0.120101 26.6602C-0.301833 24.002 0.389299 21.6801 2.1725 19.7568C3.99388 17.7938 6.36129 15.5456 8.45187 13.5637L9.29192 12.7665C9.66039 12.417 10.027 12.0655 10.3878 11.7198L11.1515 11L23 22.6889Z" fill="#343C46"/>
<path d="M33.8004 7.02215C33.3684 4.92494 32.1956 3.0583 30.5011 1.77077C28.8065 0.483239 26.7061 -0.137147 24.5919 0.0254573C23.256 0.146561 22.0167 0.5548 20.9727 1.40253C19.8127 2.35183 18.6527 3.33238 17.5816 4.37739C15.5013 6.38928 14.1015 7.83082 12.0445 9.87591C12.0271 9.90038 12.0122 9.92656 12 9.95404L24.0138 22L24.0506 21.9688C26.1927 19.9022 27.7239 18.4724 29.8506 16.3862C30.7106 15.5611 31.522 14.6858 32.2808 13.7649C33.872 11.7921 34.305 9.49893 33.8004 7.02215Z" fill="#343C46"/>
</svg>
