<svg width="32" height="32" viewBox="0 0 32 32" fill="none" xmlns="http://www.w3.org/2000/svg">
<path d="M22.7901 7.41123C24.2927 6.61973 25.5124 5.48315 26.3174 4.12441C26.4537 3.89424 26.4561 3.60854 26.3237 3.37607C26.1912 3.14355 25.9442 3 25.6766 3H5.74476C5.47719 3 5.23017 3.14355 5.09769 3.37603C4.96522 3.60854 4.96762 3.89424 5.10399 4.12437C5.90897 5.48311 7.1287 6.61973 8.63124 7.41118C9.92147 8.09087 11.3762 8.49209 12.8749 8.58662V10.5H9.35507C8.039 10.5 6.92597 11.4851 6.76601 12.7913L5.2619 25.0746C5.17113 25.8156 5.40292 26.5612 5.89769 27.1203C6.39247 27.6793 7.10443 28 7.85097 28H23.5708C24.3173 28 25.0293 27.6793 25.5241 27.1203C26.0188 26.5612 26.2506 25.8156 26.1599 25.0746L24.6558 12.7914C24.4958 11.4851 23.3828 10.5001 22.0667 10.5001H18.5464V8.58672C20.0452 8.49209 21.4999 8.09087 22.7901 7.41123ZM22.0667 11.9896C22.6313 11.9896 23.1087 12.4121 23.1773 12.9725L24.6814 25.2557C24.7208 25.5782 24.6241 25.8898 24.4086 26.1332C24.1933 26.3765 23.8957 26.5105 23.5708 26.5105H7.85092C7.52597 26.5105 7.22841 26.3765 7.01308 26.1332C6.79769 25.8898 6.70082 25.5782 6.74032 25.2557L8.24437 12.9725C8.31298 12.4122 8.79047 11.9896 9.35502 11.9896L22.0667 11.9896ZM14.3644 10.5V8.60884H17.0569V10.5H14.3644ZM17.8571 7.11934H13.5642C11.039 7.11934 8.72225 6.13721 7.21962 4.48955H24.2017C22.6991 6.13716 20.3823 7.11934 17.8571 7.11934Z" fill="white"/>
<path fill-rule="evenodd" clip-rule="evenodd" d="M8 11.5L6 26L7.5 27.5H24.5L25.5 25.5L23 11.5H8ZM15.7108 13.1466C12.3454 13.1466 9.60742 15.8846 9.60742 19.25C9.60742 22.6154 12.3454 25.3534 15.7108 25.3534C19.0762 25.3534 21.8142 22.6154 21.8142 19.25C21.8142 15.8846 19.0762 13.1466 15.7108 13.1466ZM15.7108 23.8639C13.1667 23.8639 11.097 21.7941 11.097 19.25C11.097 16.706 13.1667 14.6362 15.7108 14.6362C18.2548 14.6362 20.3246 16.706 20.3246 19.25C20.3246 21.7941 18.2548 23.8639 15.7108 23.8639ZM16.2383 18.7234C15.9475 18.4325 15.4759 18.4325 15.1851 18.7234L13.392 20.5165C13.1011 20.8074 13.1011 21.2789 13.392 21.5698C13.5374 21.7152 13.728 21.7879 13.9186 21.7879C14.1092 21.7879 14.2998 21.7152 14.4452 21.5698L16.2384 19.7766C16.5291 19.4858 16.5291 19.0142 16.2383 18.7234Z" fill="white"/>
</svg>
