<svg width="52" height="52" viewBox="0 0 52 52" fill="none" xmlns="http://www.w3.org/2000/svg">
<path d="M26 0C20.8577 0 15.8309 1.52487 11.5552 4.38179C7.2795 7.2387 3.94702 11.2993 1.97914 16.0502C0.0112651 20.8011 -0.503621 26.0288 0.499594 31.0723C1.50281 36.1158 3.97907 40.7486 7.61523 44.3848C11.2514 48.0209 15.8842 50.4972 20.9277 51.5004C25.9712 52.5036 31.1989 51.9887 35.9498 50.0209C40.7006 48.053 44.7613 44.7205 47.6182 40.4448C50.4751 36.1691 52 31.1423 52 26C52 22.5856 51.3275 19.2047 50.0209 16.0502C48.7142 12.8958 46.7991 10.0295 44.3848 7.61522C41.9705 5.2009 39.1042 3.28575 35.9498 1.97913C32.7953 0.67251 29.4144 0 26 0ZM26 47.4819C22.7448 47.4847 19.5318 46.7463 16.6043 45.3228C13.6769 43.8993 11.112 41.8281 9.10391 39.2661H12.1052C13.3101 39.2661 14.5168 39.2474 15.7217 39.2661C16.3114 39.2779 16.5928 39.0119 16.6317 38.4543C16.6673 37.9459 16.5911 37.4222 16.7182 36.946C17.4587 34.1904 18.2247 31.4434 19.045 28.7115C19.1229 28.4505 19.6195 28.1743 19.9398 28.1523C20.7723 28.0811 21.6101 28.1027 22.4378 28.2167C23.8473 28.4429 25.2919 28.277 26.6135 27.7371C28.2573 27.0744 29.5504 26.1152 29.8775 24.1782C30.0859 22.9411 30.4232 22.0463 31.6772 22.0378C32.8466 22.0378 34.7599 22.0378 35.9292 22.0276C36.1756 21.9994 36.4179 21.9425 36.6512 21.8582C36.9596 21.7785 37.2663 21.6209 37.5748 21.6158C39.0915 21.5904 40.9472 21.6158 42.464 21.6006C43.4808 21.6006 43.2164 15.7064 42.5911 15.7268C42.3385 15.7352 42.2216 15.7268 41.9691 15.7268C41.7166 15.7268 41.3251 14.893 41.0879 14.893C40.9591 14.893 40.3168 15.7268 40.188 15.7268C31.6857 15.7268 23.6156 15.7268 15.1065 15.7268C14.6117 15.7268 14.2253 15.6912 13.9507 15.1777C13.7169 14.7421 13.2881 14.8065 13.1593 15.2861C13.0475 15.7013 12.8034 15.7471 12.4713 15.7183C12.0425 15.6793 11.7934 15.8318 11.6578 16.2724C11.4883 16.7978 11.1036 17.0283 10.5224 16.9368C10.2164 16.8921 9.90496 16.9013 9.60215 16.9639C9.20389 17.0452 9.08357 17.3164 9.35303 17.6418C9.59537 17.9417 9.88686 18.2027 10.1597 18.4789C11.0359 19.3653 10.9698 19.9482 9.91058 20.5905C9.42929 20.882 8.91749 21.1345 8.4667 21.4684C8.38192 21.5367 8.31629 21.6259 8.2762 21.7271C8.23611 21.8284 8.22293 21.9383 8.23795 22.0461C8.25297 22.154 8.29567 22.2561 8.36189 22.3426C8.42812 22.429 8.51561 22.4968 8.61584 22.5394L8.7565 22.5987C8.86749 22.6249 8.98224 22.6312 9.09543 22.6174C10.075 22.6174 11.3392 22.8936 11.568 23.3156C11.7663 23.6833 11.7544 25.4645 10.9359 26.3779C10.441 26.9304 10.1123 28.0489 9.8411 28.7335C9.29525 30.1039 8.82789 31.5043 8.44128 32.9279C8.10234 34.1735 7.68545 35.4377 7.37871 36.7054C5.01557 32.6093 4.06992 27.8479 4.68841 23.1597C5.3069 18.4714 7.45496 14.1182 10.7995 10.775C14.144 7.43192 18.4982 5.28571 23.1867 4.66921C27.8752 4.05271 32.6362 5.00037 36.7313 7.36525C40.8264 9.73012 44.0268 13.3801 45.8362 17.7491C47.6457 22.1181 47.963 26.9621 46.7391 31.5298C45.5152 36.0976 42.8184 40.1339 39.0669 43.0129C35.3153 45.8919 30.7187 47.4526 25.9898 47.4531L26 47.4819ZM24.4748 25.3475C23.7732 24.8391 23.6766 23.441 24.3189 22.8784C24.4834 22.823 24.6542 22.7883 24.8273 22.775C25.8255 22.6699 26.9473 22.7902 27.8066 23.4207C28.4014 23.8562 28.5251 24.5849 28.1082 25.2306C27.3778 26.3593 26.2322 26.8643 24.9798 27.0287C24.1582 27.1433 23.3219 27.0915 22.5208 26.8762C21.2108 26.4982 20.9769 25.056 21.9158 24.0647C22.1819 23.785 22.4869 23.4681 22.8563 23.3258C22.8563 25.7966 24.4561 26.3016 25.3069 25.9712C25.1154 25.8136 24.6493 25.4746 24.4714 25.3475H24.4748Z" fill="#CE5757"/>
<path d="M26.6237 38.5119H26.7304V38.8949H26.6237V39.1373H29.63V38.8949H29.5216V38.5119H29.63V32.633H26.6237V38.5119Z" fill="#CE5757"/>
<path d="M28.1472 29.5809C26.7728 29.5809 26.622 31.9077 26.622 31.9077V32.2043H29.6283V31.9077C29.6283 31.9077 29.5216 29.5809 28.1472 29.5809Z" fill="#CE5757"/>
<path d="M31.3247 38.5119H31.4315V38.8949H31.3247V39.1373H34.3311V38.8949H34.2227V38.5119H34.3311V32.633H31.3247V38.5119Z" fill="#CE5757"/>
<path d="M32.8483 29.5809C31.4739 29.5809 31.323 31.9077 31.323 31.9077V32.2043H34.3294V31.9077C34.3294 31.9077 34.2227 29.5809 32.8483 29.5809Z" fill="#CE5757"/>
<path d="M35.9174 38.5119H36.0258V38.8949H35.9174V39.1373H38.9237V38.8949H38.817V38.5119H38.9237V32.633H35.9174V38.5119Z" fill="#CE5757"/>
<path d="M37.4409 29.5809C36.0665 29.5809 35.9157 31.9077 35.9157 31.9077V32.2043H38.922V31.9077C38.922 31.9077 38.817 29.5809 37.4409 29.5809Z" fill="#CE5757"/>
</svg>
