<svg width="52" height="52" viewBox="0 0 52 52" fill="none" xmlns="http://www.w3.org/2000/svg">
<path d="M26 0C20.8577 0 15.8309 1.52487 11.5552 4.38179C7.2795 7.2387 3.94702 11.2993 1.97914 16.0502C0.0112651 20.8011 -0.503621 26.0288 0.499594 31.0723C1.50281 36.1158 3.97907 40.7486 7.61523 44.3848C11.2514 48.0209 15.8842 50.4972 20.9277 51.5004C25.9712 52.5036 31.1989 51.9887 35.9498 50.0209C40.7006 48.053 44.7613 44.7205 47.6182 40.4448C50.4751 36.1691 52 31.1423 52 26C52 22.5856 51.3275 19.2047 50.0209 16.0502C48.7142 12.8958 46.7991 10.0295 44.3848 7.61522C41.9705 5.2009 39.1042 3.28575 35.9498 1.97913C32.7953 0.67251 29.4144 0 26 0ZM26 47.4819C21.7514 47.4813 17.5984 46.2208 14.0662 43.8599C10.534 41.4991 7.7811 38.1438 6.1557 34.2184C4.5303 30.2931 4.10537 25.9739 4.93464 21.807C5.76391 17.6401 7.81013 13.8127 10.8146 10.8088C13.819 7.80481 17.6467 5.75919 21.8137 4.93058C25.9807 4.10196 30.2998 4.52758 34.225 6.15359C38.1501 7.77961 41.5049 10.533 43.8652 14.0656C46.2255 17.5982 47.4853 21.7514 47.4853 26C47.4853 28.8213 46.9296 31.615 45.8498 34.2216C44.77 36.8281 43.1874 39.1964 41.1922 41.1912C39.1971 43.186 36.8285 44.7683 34.2218 45.8477C31.6151 46.9271 28.8213 47.4824 26 47.4819Z" fill="#A6EEC3"/>
<path d="M35.4411 31.3874C35.4411 35.8157 32.8178 39.1017 28.7132 40.1456V43.6316H24.39V40.4117C20.1177 39.9033 17.5401 37.1714 16.2216 35.2513L19.7568 31.8806C20.2826 32.982 21.1076 33.9133 22.1376 34.5681C23.1676 35.2229 24.361 35.5748 25.5814 35.5835C28.0353 35.5835 29.8656 34.0854 29.8656 31.7569C29.8785 31.2871 29.7884 30.8202 29.6016 30.3889C29.4148 29.9577 29.1359 29.5726 28.7844 29.2606C27.7438 28.3031 26.0729 27.7625 24.5002 27.227C23.0445 26.7287 21.2972 26.0627 19.8822 24.8137C18.967 24.024 17.6791 22.4852 17.6791 19.6568C17.6791 16.0979 19.7686 12.539 24.3917 11.6917V8.16673H28.7149V11.6866C30.8988 12.0729 32.9028 13.1449 34.4362 14.7472L31.6128 18.4417C29.991 16.2775 28.0777 16.0691 27.0795 16.0691C24.1663 16.0691 23.2512 17.8994 23.2512 19.3127C23.2451 19.6696 23.3207 20.0231 23.4722 20.3462C23.6238 20.6693 23.8473 20.9535 24.1257 21.1769C24.7917 21.8005 25.7068 22.1327 27.4541 22.758C29.6165 23.5054 31.6552 24.2545 33.0686 25.5441C34.3176 26.6863 35.4411 28.559 35.4411 31.3874Z" fill="#A6EEC3"/>
</svg>
