<?xml version="1.0" encoding="utf-8"?>
<!-- Generator: Adobe Illustrator 21.0.0, SVG Export Plug-In . SVG Version: 6.00 Build 0)  -->
<svg version="1.1" id="Layer_1" xmlns="http://www.w3.org/2000/svg" xmlns:xlink="http://www.w3.org/1999/xlink" x="0px" y="0px"
	 viewBox="0 0 375 375" style="enable-background:new 0 0 375 375;" xml:space="preserve">
<style type="text/css">
	.st0{fill:#2C4860;}
	.st1{fill:#CE5757;}
</style>
<g>
	<g>
		<circle class="st0" cx="187.5" cy="187.5" r="182.4"/>
	</g>
	<g>
		<path class="st1" d="M187.5,34.1c-84.7,0-153.4,68.7-153.4,153.4s68.7,153.4,153.4,153.4s153.4-68.7,153.4-153.4
			S272.2,34.1,187.5,34.1C187.5,34.1,187.5,34.1,187.5,34.1z M187.5,314.3c-38.9,0-75.7-17.8-99.7-48.5h17.7c7.1,0,14.2-0.1,21.3,0
			c3.5,0.1,5.1-1.5,5.4-4.8c0.2-3-0.2-6.1,0.5-8.9c4.4-16.3,8.9-32.5,13.7-48.6c0.5-1.5,3.4-3.2,5.3-3.3c4.9-0.4,9.9-0.3,14.7,0.4
			c8.3,1.3,16.8,0.4,24.6-2.8c9.7-3.9,17.3-9.6,19.3-21c1.2-7.3,3.2-12.6,10.6-12.6c6.9,0,18.2,0,25.1-0.1c1.5-0.2,2.9-0.5,4.3-1
			c1.8-0.5,3.6-1.4,5.4-1.4c9-0.1,19.9,0,28.9-0.1c6,0,4.4-34.8,0.8-34.7c-1.5,0.1-2.2,0-3.7,0s-3.8-4.9-5.2-4.9
			c-0.8,0-4.5,4.9-5.3,4.9c-50.2,0-97.8,0-148,0c-2.9,0-5.2-0.2-6.8-3.2c-1.4-2.6-3.9-2.2-4.7,0.6c-0.7,2.4-2.1,2.7-4.1,2.6
			c-2.5-0.2-4,0.7-4.8,3.3c-1,3.1-3.3,4.5-6.7,3.9c-1.8-0.3-3.6-0.2-5.4,0.2c-2.3,0.5-3.1,2.1-1.5,4c1.4,1.8,3.2,3.3,4.8,4.9
			c5.2,5.2,4.8,8.7-1.5,12.5c-2.8,1.7-5.9,3.2-8.5,5.2l0,0c-1.6,1.3-1.9,3.6-0.6,5.2c0.4,0.5,0.9,0.9,1.4,1.1l0.8,0.4
			c0.7,0.2,1.3,0.2,2,0.1c5.8,0,13.2,1.6,14.6,4.1c1.2,2.2,1.1,12.7-3.7,18.1c-2.9,3.3-4.9,9.9-6.5,13.9c-3.2,8.1-6,16.3-8.3,24.8
			c-2,7.4-4.5,14.8-6.3,22.3c-35-60.6-14.2-138.2,46.5-173.2S262.3,63.3,297.2,124s14.2,138.2-46.5,173.2
			c-19.3,11.1-41.1,17-63.3,17L187.5,314.3z M178.5,183.7c-4.1-3-4.7-11.3-0.9-14.6c1-0.3,2-0.5,3-0.6c5.9-0.6,12.5,0.1,17.6,3.8
			c3.5,2.6,4.2,6.9,1.8,10.7c-4.3,6.7-11.1,9.6-18.5,10.6c-4.8,0.7-9.8,0.4-14.5-0.9c-7.7-2.2-9.1-10.7-3.6-16.6
			c1.6-1.6,3.4-3.5,5.6-4.4c0,14.6,9.4,17.6,14.5,15.6C182.3,186.4,179.5,184.4,178.5,183.7L178.5,183.7z"/>
		<polygon class="st1" points="191.2,261.3 191.8,261.3 191.8,263.6 191.2,263.6 191.2,265 208.9,265 208.9,263.6 208.3,263.6 
			208.3,261.3 208.9,261.3 208.9,226.6 191.2,226.6 		"/>
		<path class="st1" d="M200.2,208.6c-8.1,0-9,13.7-9,13.7v1.8h17.7v-1.8C208.9,222.4,208.3,208.6,200.2,208.6z"/>
		<polygon class="st1" points="218.9,261.3 219.6,261.3 219.6,263.6 218.9,263.6 218.9,265 236.7,265 236.7,263.6 236,263.6 
			236,261.3 236.7,261.3 236.7,226.6 218.9,226.6 		"/>
		<path class="st1" d="M227.9,208.6c-8.1,0-9,13.7-9,13.7v1.8h17.7v-1.8C236.7,222.4,236,208.6,227.9,208.6z"/>
		<polygon class="st1" points="246,261.3 246.7,261.3 246.7,263.6 246,263.6 246,265 263.8,265 263.8,263.6 263.1,263.6 
			263.1,261.3 263.8,261.3 263.8,226.6 246,226.6 		"/>
		<path class="st1" d="M255,208.6c-8.1,0-9,13.7-9,13.7v1.8h17.7v-1.8C263.8,222.4,263.1,208.6,255,208.6z"/>
	</g>
</g>
</svg>
