<?xml version="1.0" encoding="utf-8"?>
<!-- Generator: Adobe Illustrator 21.0.0, SVG Export Plug-In . SVG Version: 6.00 Build 0)  -->
<svg version="1.1" id="Layer_1" xmlns="http://www.w3.org/2000/svg" xmlns:xlink="http://www.w3.org/1999/xlink" x="0px" y="0px"
	 viewBox="0 0 375 375" style="enable-background:new 0 0 375 375;" xml:space="preserve">
<style type="text/css">
	.st0{fill:#2C4860;}
	.st1{fill:#ACD9BB;}
</style>
<g>
	<g>
		<circle class="st0" cx="187.5" cy="187.5" r="182.4"/>
	</g>
	<g>
		<path class="st1" d="M187.5,34.1c-84.7,0-153.4,68.7-153.4,153.4s68.7,153.4,153.4,153.4s153.4-68.7,153.4-153.4
			S272.2,34.1,187.5,34.1C187.5,34.1,187.5,34.1,187.5,34.1z M187.5,314.3c-70,0-126.8-56.8-126.7-126.8S117.5,60.7,187.5,60.7
			c70,0,126.7,56.8,126.7,126.8C314.3,257.5,257.5,314.3,187.5,314.3C187.5,314.3,187.5,314.3,187.5,314.3z"/>
		<path class="st1" d="M243.2,219.3c0,26.1-15.5,45.5-39.7,51.7v20.6H178v-19c-25.2-3-40.4-19.1-48.2-30.5l20.9-19.9
			c6.3,13.3,19.7,21.7,34.4,21.9c14.5,0,25.3-8.8,25.3-22.6c0.2-5.6-2.2-11-6.4-14.7c-6.1-5.6-16-8.8-25.3-12
			c-8.6-2.9-18.9-6.9-27.3-14.2c-5.4-4.7-13-13.7-13-30.4c0-21,12.3-42,39.6-47V82.3h25.5V103c12.9,2.3,24.7,8.6,33.8,18.1
			l-16.7,21.8c-9.6-12.8-20.9-14-26.8-14c-17.2,0-22.6,10.8-22.6,19.1c-0.1,4.3,1.8,8.3,5.2,11c3.9,3.7,9.3,5.6,19.6,9.3
			c12.8,4.4,24.8,8.8,33.1,16.4C236.6,191.6,243.2,202.6,243.2,219.3z"/>
	</g>
</g>
</svg>
