<svg height="8" viewBox="0 0 8 8" width="8" xmlns="http://www.w3.org/2000/svg" xmlns:xlink="http://www.w3.org/1999/xlink"><defs><linearGradient id="a" x1="1.769675%" x2="98.580996%" y1="8.173085%" y2="99.488494%"><stop offset="0" stop-color="#f22"/><stop offset="1" stop-color="#03548a"/></linearGradient><linearGradient id="b" x1="3.573747%" x2="98.580996%" y1="12.607515%" y2="96.118028%"><stop offset="0" stop-color="#c64363"/><stop offset="1" stop-color="#03548a"/></linearGradient><rect id="c" height="5.057728" rx="1.407821" width="5.266294" x=".379888" y=".325102"/><filter id="d" height="119.8%" width="119%" x="-9.5%" y="-9.9%"><feOffset dx="0" dy="0" in="SourceAlpha" result="shadowOffsetInner1"/><feComposite in="shadowOffsetInner1" in2="SourceAlpha" k2="-1" k3="1" operator="arithmetic" result="shadowInnerInner1"/><feColorMatrix in="shadowInnerInner1" type="matrix" values="0 0 0 0 0   0 0 0 0 0   0 0 0 0 0  0 0 0 1 0"/></filter><linearGradient id="e" x1="50.000509%" x2="50.000509%" y1="-16.727761%" y2="65.142114%"><stop offset="0" stop-color="#006eb7"/><stop offset=".165948934" stop-color="#243b6f"/><stop offset="1" stop-color="#002a50"/></linearGradient><linearGradient id="f" x1="-3.50377%" x2="119.229946%" y1="1.881156%" y2="160.605%"><stop offset="0" stop-color="#bc5570"/><stop offset=".11" stop-color="#a7a6a7"/><stop offset=".302781539" stop-color="#fff"/><stop offset=".48" stop-color="#fff"/><stop offset="1" stop-color="#9bc0ff"/></linearGradient><path id="g" d="m2.59683426 1.89057728h2.51687151l-.40175046.84156425h-1.97407822v1.50819367h2.37530727v.84182495h-2.5163501c-.40618249 0-.73649906-.31519553-.73649906-.70260708v-1.78662942c0-.38741155.33005586-.70234637.73649906-.70234637z"/><filter id="h" height="100%" width="100%" x="0%" y="0%"><feOffset dx="0" dy="0" in="SourceAlpha" result="shadowOffsetInner1"/><feComposite in="shadowOffsetInner1" in2="SourceAlpha" k2="-1" k3="1" operator="arithmetic" result="shadowInnerInner1"/><feColorMatrix in="shadowInnerInner1" type="matrix" values="0 0 0 0 1   0 0 0 0 1   0 0 0 0 1  0 0 0 0.5 0"/></filter><mask id="i" fill="#fff"><use fill="#fff" fill-rule="evenodd" xlink:href="#c"/></mask></defs><g fill="none" fill-rule="evenodd" transform="translate(.337364 .4318)"><rect fill="#090909" height="5.557728" rx="1.407821" stroke="url(#a)" stroke-width=".5" width="5.583799" x=".75" y=".75"/><g transform="translate(.672253 .700968)"><use fill="#151515" fill-rule="evenodd" xlink:href="#c"/><use fill="#000" filter="url(#d)" xlink:href="#c"/><rect height="5.557728" rx="1.407821" stroke="url(#b)" stroke-width=".5" width="5.766294" x=".129888" y=".075102"/><path d="m.26439479 4.86428305.1.08547009-.01643836.01452991c-.02945205-.03133903-.05719178-.06524216-.08356164-.1zm27.68299331.1c.029452-.03230337.0571918-.06601123.0835616-.1l-.1.08426967zm.1738782-3.16800744-.2085661.21925512.2085661.21925512.099851-.10428306v.6077095l-.099851-.10428305-.2085661.21925512.2085661.21925512.099851-.10428306v.6077095l-.099851-.10428305-.2085661.21899441.2085661.21925512.099851-.10428305v.31936685c-.0004366.0879623-.0091655.17568753-.0260707.26201117l-.0748231-.07821229-.2085661.21925512.1785847.18666667c-.0143389.03024209-.02946.05996276-.0458846.08916201l-.1981378-.20726257-.0886406.09255121-.0886406-.09255121-.2114338.22108008.1227933.12852886-.1227933.12852887.1770204.18536312c-.0260707.01851025-.0521415.03649907-.0800372.05214153l-.1624209-.16998138-.1227933.12852887-.1207076-.12644321-.3548231.37150838h-.0174674l-.356648-.37359404-.1227933.12852887-.1209684-.12644321-.3548231.37150838h-.0172067l-.3569087-.37359404-.1227933.12852887-.1207077-.12644321-.354823.37150838h-.0174675l-.3569087-.37359404-.1225326.12852887-.1209683-.12644321-.3548231.37150838h-.0172067l-.3569088-.37359404-.1227933.12852887-.1207076-.12644321-.3548231.37150838h-.0174674l-.3569088-.37359404-.1227933.12852887-.1207076-.12644321-.3548231.37150838h-.0164246l-.356648-.37359404-.1227933.12852887-.1207077-.12644321-.354823.37150838h-.0174675l-.3571694-.37489758-.1227933.12852887-.1207076-.1264432-.3561267.37150838h-.0174674l-.356648-.37359405-.1212291.12852887-.1209683-.1264432-.3548231.37150838h-.0172067l-.3569088-.37359405-.1227933.12852887-.1222719-.1264432-.354823.37150838h-.0174675l-.3569087-.37359405-.1225326.12852887-.1209683-.1264432-.3543017.37150838h-.0172067l-.3569088-.37359405-.1238361.12852887-.1207076-.1264432-.3537803.37150838h-.0174674l-.3569088-.37359405-.1227933.12852887-.1207076-.1264432-.3548231.37150838h-.0174674l-.356648-.37359405-.1227933.12852887-.1227933-.12852887-.3576909.37359405h-.0208566l-.3566481-.37359405-.1227933.12852887-.1207076-.1264432-.354041.37150838h-.0174674l-.3569087-.37359405-.1227933.12852887-.1207077-.1264432-.354823.37150838h-.0174675l-.356648-.37359405-.1227933.12852887-.1209683-.1264432-.3543017.37150838h-.0172067l-.3569088-.37359405-.1227933.12852887-.1207076-.1264432-.3548231.37150838h-.0182495l-.35664807-.37359405-.1227933.12852887-.12018622-.1264432-.35482309.37150838h-.0172067l-.35795159-.37359405-.12279329.12852887-.12070764-.1264432-.35482309.37150838h-.01746741l-.35690875-.37359405-.12227188.12852887-.12070764-.1264432-.35482309.37150838h-.01746741l-.35664805-.37359405-.12279329.12852887-.12070764-.1264432-.35482309.37150838h-.01746741l-.35690875-.37359405-.1227933.12852887-.12070763-.1264432-.3548231.37150838h-.01746741l-.35664804-.37359405-.1227933.12852887-.12096834-.1264432-.35482309.37150838h-.01720671l-.35690875-.37359405-.12279329.12852887-.12070764-.1264432-.35482309.37150838h-.01746741l-.35664805-.37359405-.12279329.12852887-.12096834-.1264432-.3548231.37150838h-.0172067l-.35690875-.37359405-.1227933.12852887-.12070763-.1264432-.35482309.37150838h-.01746742l-.35690875-.37359405-.12279329.12852887-.12070764-.1264432-.16242086.16945996c-.02607076-.01668529-.05396648-.03467412-.08003724-.05214153l.17649907-.18484171-.12487896-.13035382.12487896-.13035382-.20856611-.21899441-.08864059.09255121-.0886406-.09255121-.20074488.20986965c-.01616387-.02893855-.03154562-.05865922-.04588454-.08890131l.1811918-.18953445-.21143389-.22134078-.07821229.08055866c-.01690522-.08632364-.0256341-.17404887-.02607102-.26201117v-.3209311l.10193694.10662942.21143389-.22134078-.21143389-.22108008-.10193694.10662943v-.6077095l.10193694.10689013.21143389-.22134078-.21143389-.22134079-.10193694.10689014v-.6077095l.10193694.10689013.21143389-.22134078-.21143389-.22134079-.10193694.10689013v-.39106145c0-.06761445.00483881-.13514224.01459988-.20204842l.08733706.09150838.21143389-.22134078-.20100558-.2116946c.0374404-.08795303.08382985-.17182096.13843575-.25027933l.04145252.04353818-.1227933.12852886.21143389.22134078.0886406-.09281191.08864059.09281191.20856611-.21925512-.12487896-.13035381.12487896-.13035382-.21560521-.22629423c.02607076-.01929236.05214152-.03780261.07821229-.05527002l.20387337.21325885.12070763-.1264432.1227933.12852886.36499069-.3824581.36368715.38037244.12070763-.1264432.1227933.12852886.36499069-.3824581.36342644.38037244.12096834-.1264432.1227933.12852886.36499069-.3824581.36342644.38037244.12070764-.1264432.12279329.12852886.36499069-.3824581.36342645.38037244.12096834-.1264432.1227933.12852886.36499068-.3824581.36342645.38037244.12070763-.1264432.1227933.12852886.36499069-.3824581.36368715.38037244.12070763-.1264432.1227933.12852886.36499069-.3824581.36342644.38037244.12409684-.1264432.12279329.12852886.36499069-.3824581.36368715.38037244.12070764-.1264432.12279329.12852886.36499069-.3824581.36499069.38037244.12096834-.1264432.1227933.12852886.36499065-.3824581.3634265.38037244.1207076-.1264432.1227933.12852886.3649907-.3824581.3634264.38037244.1209684-.1264432.1227933.12852886.3649907-.3824581.3644692.38037244.1207077-.1264432.1227933.12852886.3649907-.3824581.3649907.38037244.1207076-.1264432.1227933.12852886.3649907-.3824581.0015642.00182495.001825-.00182495.3649907.3824581.1227933-.12852886.1227933.12852886.3649906-.3824581.3642086.38037244.1207076-.1264432.1227933.12852886.3649907-.3824581.3636872.38037244.1201862-.1264432.1227933.12852886.3649907-.3824581.3634264.38037244.1209684-.1264432.1225326.12852886.3649907-.3824581.3652513.38037244.1207077-.1264432.1227933.12852886.3649907-.3824581.3634264.38037244.123054-.1264432.1227933.12852886.3649907-.3824581.3634264.38037244.1207077-.1264432.123054.12852886.3649907-.3824581.3649907.38037244.1207076-.1264432.1227933.12852886.3649907-.3824581.3634264.38037244.1207077-.1264432.1227933.12852886.3649906-.3824581.3636872.38037244.1207076-.1264432.1227933.12852886.3649907-.3824581.3634265.38037244.1209683-.1264432.1225326.12852886.3649907-.3824581.3634264.38037244.1207077-.1264432.1227933.12852886.3649906-.3824581.3634265.38037244.1209683-.1264432.1227933.12852886.3649907-.3824581.3634265.38037244.1207076-.1264432.1227933.12852886.2043948-.21378026c.0260707.01772812.0521415.03623836.0782123.05553073l-.2169088.22681564.1227933.12852886-.1227933.12852887.2114339.22134078.0886406-.09281192.0886406.09281192.2085661-.21925512-.1246182-.13035382.0414525-.04353818c.0550659.07908996.1018073.16366124.1394786.252365l-.2002235.2085661.2085661.21925512.0852514-.08942272c.0096325.06692012.0145113.13443866.0145996.20204842v.39106145zm-.3868901-.59160149.05.05.05-.05-.05-.05zm-.5858101-.24500932-.2085661.21925513.2085661.21925512.1207076-.12644321.1227933.12852887.2114339-.22134078-.2114339-.22134079-.1227933.12852887zm-.1903166 3.14752328.124879-.13035382-.2085661-.21925512-.0886406.09281192-.0886406-.09281192-.2114339.22134079.1227933.12852886-.1227933.12852886.2114339.22134079.0886406-.09281192.0886406.09281192.2085661-.21925513zm-.1460303.39418995-.0502825.05.0502825.05.0497175-.05zm-.8264091-.39418995.1246182-.13035382-.2085661-.21925512-.0886406.09281192-.0886406-.09281192-.2114339.22134079.1227933.12852886-.1238361.12826816.2114339.22134078.0886406-.09281192.0886406.09281192.2085661-.21925512zm-.1465736.39418995-.05.05.05.05.05-.05zm-.8261266-.39418995.1248789-.13035382-.2085661-.21925512-.0883799.09281192-.0886406-.09281192-.2114339.22134079.1227933.12852886-.1227933.12852886.2114339.22134079.0886406-.09281192.0883799.09281192.2085661-.21925513zm-.1460304.39418995-.0502825.05.0502825.05.0497175-.05zm-.8266698-.39418995.1248789-.13035382-.2085661-.21925512-.0886406.09281192-.0886406-.09281192-.2114339.22134079.1227933.12852886-.1235754.12826816.2114339.22134078.0886406-.09281192.0886406.09281192.2085661-.21925512zm-.1463129.39418995-.05.05.05.05.05-.05zm-.8261266-.39418995.1246183-.13035382-.2085662-.21925512-.0886405.09281192-.0886406-.09281192-.2111732.22134079.1225326.12852886-.1233148.12826816.2111732.22134078.0886406-.09281192.0886406.09281192.2085661-.21925512zm-.1465953.39418995-.0497175.05.0497175.05.0502825-.05zm-.8261049-.39418995.124879-.13035382-.2085661-.21925512-.0886406.09281192-.0886406-.09281192-.2114339.22134079.1227933.12852886-.1235754.12826816.2114339.22134078.0886405-.09281192.0886406.09281192.2085662-.21925512zm-.1463128.39418995-.05.05.05.05.05-.05zm-.8261267-.39418995.1246183-.13035382-.2085661-.21925512-.0886406.09281192-.0886406-.09281192-.2114339.22134079.1227933.12852886-.1235754.12826816.2114339.22134078.0886406-.09281192.0886406.09281192.2085661-.21925512zm-.1463128.39418995-.05.05.05.05.05-.05zm-.8261266-.39418995.1248789-.13035382-.2085661-.21925512-.0886406.09281192-.0886406-.09281192-.2114339.22134079.1227933.12852886-.1238361.12826816.2114339.22134078.0886406-.09281192.0886406.09281192.2085661-.21925512zm-.1460304.39418995-.0502825.05.0502825.05.0497175-.05zm-.8274519-.39418995.1246182-.13035382-.2085661-.21925512-.0886406.09281192-.0886406-.09281192-.2114339.22134079.1227933.12852886-.1227933.12826816.2114339.22134078.0886406-.09281192.0886406.09281192.2085661-.21925512zm-.1465736.39418995-.05.05.05.05.05-.05zm-.8261266-.39418995.1248789-.13035382-.2085661-.21925512-.0886406.09281192-.0883799-.09281192-.2114339.22134079.1227933.12852886-.123054.12826816.2114339.22134078.0883799-.09281192.0886406.09281192.2085661-.21925512zm-.1465954.39418995-.0497175.05.0497175.05.0502825-.05zm-.8261048-.39418995.1248789-.13035382-.2085661-.21925512-.0886406.09281192-.0886406-.09281192-.2114339.22134079.1227933.12852886-.1227933.12826816.2114339.22134078.0886406-.09281192.0886406.09281192.2085661-.21925512zm-.1463129.39418995-.05.05.05.05.05-.05zm-.8261266-.39418995.1246183-.13035382-.2085662-.21925512-.0886406.09281192-.0886405-.09281192-.2111732.22134079.1225326.12852886-.1214898.12826816.2111732.22134078.0886406-.09281192.0886406.09281192.2085661-.21925512zm-.1465953.39418995-.0497175.05.0497175.05.0502825-.05zm-.8253228-.39418995.124879-.13035382-.2085661-.21925512-.0886406.09281192-.0886406-.09281192-.2114339.22134079.1227933.12852886-.1235754.12826816.2114339.22134078.0886406-.09281192.0886406.09281192.2085661-.21925512zm-.1460303.39418995-.0502825.05.0502825.05.0497175-.05zm-.8264091-.39418995.1209683-.12670391-.212216-.22134078-.0868157.09098696-.0018249-.00182495-.0015643.00182495-.0870763-.09098696-.2111732.22134078.1209684.12670391-.1209684.12670391.2111732.22134078.0870763-.09098696.0015643.00182495.0018249-.00182495.0868157.09098696.2114339-.22134078zm-.1507872.3960149-.049697.05.049697.05.050303-.05zm-.8292128-.3960149.1246182-.13035382-.2085661-.21925512-.0886406.09281192-.0886406-.09281192-.2114339.22134079.1227933.12852886-.1235754.12826816.2114339.22134078.0886406-.09281192.0886406.09281192.2085661-.21925512zm-.1465954.39418995-.0497175.05.0497175.05.0502825-.05zm-.8261048-.39418995.1248789-.13035382-.2085661-.21925512-.0886406.09281192-.0886406-.09281192-.2114339.22134079.1227933.12852886-.1235754.12826816.2114339.22134078.0886406-.09281192.0886406.09281192.2085661-.21925512zm-.1449876.39418995-.0502824.05.0502824.05.0497176-.05zm-.8274519-.39418995.1246182-.13035382-.2085661-.21925512-.0886406.09281192-.0886406-.09281192-.2114338.22134079.1227932.12852886-.1235754.12826816.2114339.22134078.0886406-.09281192.0886406.09281192.2085661-.21925512zm-.1465736.39418995-.05.05.05.05.05-.05zm-.8258659-.39418995.124879-.13035382-.2085661-.21925512-.0883799.09281192-.0886406-.09281192-.21143391.22134079.12279331.12852886-.12409685.12826816.21143385.22134078.0886406-.09281192.0883799.09281192.2085661-.21925512zm-.1460303.39418995-.0502825.05.0502825.05.0497175-.05zm-.82640916-.39418995.12461825-.13035382-.20856611-.21925512-.0886406.09281192-.08864059-.09281192-.21143389.22134079.12279329.12852886-.12383613.12826816.2114339.22134078.08864059-.09281192.0886406.09281192.20856611-.21925512zm-.1478771.39418995-.05.05.05.05.05-.05zm-.82612663-.39418995.12487896-.13035382-.20856611-.21925512-.08864059.09281192-.0886406-.09281192-.21117318.22134079.12279329.12852886-.12279329.12826816.21117318.22134078.0886406-.09281192.08864059.09281192.20856611-.21925512zm-.14659533.39418995-.04971752.05.04971752.05.05028248-.05zm-.82610485-.39418995.12487895-.13035382-.2085661-.21925512-.0886406.09281192-.0886406-.09281192-.21143389.22134079.1227933.12852886-.12253259.12826816.21143389.22134078.0886406-.09281192.08864059.09281192.20856611-.21925512zm-.14631285.39418995-.05.05.05.05.05-.05zm-.82612663-.39418995.12461825-.13035382-.20856611-.21925512-.0886406.09281192-.08864059-.09281192-.21143389.22134079.12279329.12852886-.12253259.12826816.2114339.22134078.08864059-.09281192.0886406.09281192.20856611-.21925512zm-.14659534.39418995-.04971751.05.04971751.05.05028249-.05zm-.82610485-.39418995.12487896-.13035382-.20856611-.21925512-.08864059.09281192-.0886406-.09281192-.21143389.22134079.12279329.12852886-.12253258.12826816.21143389.22134078.08864059-.09281192.0886406.09281192.20856611-.21925512zm-.14603036.39418995-.05028249.05.05028249.05.04971751-.05zm-.82640912-.39418995.12461825-.13035382-.20856611-.21925512-.08864059.09281192-.0886406-.09281192-.21117318.22108008.12279329.12852886-.12279329.12852887.21143389.22134078.0886406-.09281192.08864059.09281192.20856611-.21925512zm-.14657355.39418995-.05.05.05.05.05-.05zm-.82612663-.39418995.12487895-.13035382-.2085661-.21925512-.08837989.09281192-.0886406-.09281192-.21143389.22134079.1227933.12852886-.1227933.12826816.21143389.22134078.0886406-.09281192.08837989.09281192.2085661-.21925512zm-.14603037.39418995-.05028248.05.05028248.05.04971752-.05zm-.82640911-.39418995.12461825-.13035382-.20856611-.21925512-.0886406.09281192-.08864059-.09281192-.21143389.22134079.12279329.12852886-.12253259.12826816.2114339.22134078.08864059-.09281192.0886406.09281192.20856611-.21925512zm-.14657356.39418995-.05.05.05.05.05-.05zm-.82612663-.39418995.12487896-.13035382-.20856611-.21925512-.08864059.09281192-.0886406-.09281192-.21117318.22134079.12279329.12852886-.12279329.12826816.21117318.22134078.0886406-.09281192.08864059.09281192.20856611-.21925512zm-.14659533.39418995-.04971752.05.04971752.05.05028248-.05zm-.20379573-2.90428306-.1227933.12852887.21117319.22134078.0886406-.09281192.08864059.09281192.20856611-.21925512-.12487896-.13035382.12487896-.13035382-.20856611-.21899441-.08864059.09281192-.0886406-.09281192-.21117319.22108007zm.20379573-.34242085.05028248-.05-.05028248-.05-.04971752.05zm.76864375.34242085-.1227933.12852887.2114339.22134078.08864059-.09281192.0886406.09281192.20856611-.21925512-.12461825-.13035382.12461825-.13035382-.20856611-.21899441-.0886406.09281192-.08864059-.09281192-.2114339.22108007zm.20407821-.34242085.05-.05-.05-.05-.05.05zm.76862198.34242085-.1227933.12852887.21143389.22134078.0886406-.09281192.08837989.09281192.2085661-.21925512-.12487895-.13035382.12487895-.13035382-.2085661-.21925512-.08837989.09281192-.0886406-.09281192-.21143389.22108008zm.20436069-.34242085.04971752-.05-.04971752-.05-.05028248.05zm.76807878.34242085-.12175046.12852887.21143389.22134078.0886406-.09281192.08864059.09281192.20856611-.21925512-.12461825-.13035382.12461825-.13035382-.20856611-.21899441-.08864059.09281192-.0886406-.09281192-.21143389.22081937zm.20407822-.34242085.05-.05-.05-.05-.05.05zm.76914339.34242085-.1227933.12852887.21143389.22134078.0886406-.09281192.08864059.09281192.20856611-.21925512-.12487896-.13035382.12487896-.13035382-.20856611-.21899441-.08864059.09281192-.0886406-.09281192-.21143389.22134078zm.20436069-.34242085.04971752-.05-.04971752-.05-.05028248.05zm.76807878.34242085-.12279329.12852887.21143389.22134078.0886406-.09281192.08864059.09281192.20856611-.21925512-.12461825-.13035382.12461825-.13035382-.20856611-.21925512-.08864059.09281192-.0886406-.09281192-.21143389.22108008zm.20407822-.34242085.05-.05-.05-.05-.05.05zm.76862197.34242085-.1227933.12852887.2114339.22134078.08864059-.09281192.0886406.09281192.20856611-.21925512-.12487896-.13035382.12487896-.13035382-.20856611-.21899441-.0886406.09281192-.08864059-.09281192-.2114339.22108007zm.20407821-.34242085.05-.05-.05-.05-.05.05zm.76862198.34242085-.1227933.12852887.21117319.22134078.08864059-.09281192.0886406.09281192.2085661-.21925512-.12487895-.13035382.12487895-.13035382-.2085661-.21925512-.0886406.09281192-.08864059-.09281192-.21117319.22108008zm.20379572-.34242085.05028249-.05-.05028249-.05-.04971751.05zm.76864376.34242085-.1227933.12852887.21143389.22134078.0886406-.09281192.08864059.09281192.20856611-.21925512-.12461825-.13035382.12461825-.13035382-.20856611-.21899441-.08864059.09281192-.0886406-.09281192-.21143389.22134078zm.20407821-.34242085.05-.05-.05-.05-.05.05zm.76862194.34242085-.12279326.12852887.21143386.22134078.0886406-.09281192.0883799.09281192.2085661-.21925512-.1248789-.13035382.1248789-.13035382-.2085661-.21899441-.0883799.09281192-.0886406-.09281192-.21143386.22108007zm.2043607-.34242085.0497175-.05-.0497175-.05-.0502825.05zm.7680788.34242085-.1227933.12852887.2114339.22134078.0886406-.09281192.0886406.09281192.2085661-.21925512-.1246182-.13035382.1246182-.13035382-.2085661-.21899441-.0886406.09281192-.0886406-.09281192-.2114339.22134078zm.2040782-.34242085.05-.05-.05-.05-.05.05zm.768622.34242085-.1227933.12852887.2114339.22134078.0886406-.09281192.0886406.09281192.2085661-.21925512-.124879-.13035382.124879-.13035382-.2085661-.21899441-.0886406.09281192-.0886406-.09281192-.2114339.22134078zm.2043607-.34242085.0497175-.05-.0497175-.05-.0502825.05zm.7680788.34242085-.1227933.12852887.2114339.22134078.0886406-.09281192.0886406.09281192.2085661-.21925512-.1246183-.13035382.1246183-.13035382-.2085661-.21925512-.0886406.09281192-.0886406-.09281192-.2114339.22108008zm.2040564-.34242085.0502825-.05-.0502825-.05-.0497175.05zm.7686438.34242085-.1209684.12696462.2111732.22108007.0870764-.09098696.0015642.00182495.001825-.00182495.0868156.09098696.2114339-.22108007-.1209684-.12696462.1209684-.12670391-.2116946-.22108007-.0868157.09098696-.0018249-.00182495-.0015643.00182495-.0870763-.09098696-.2111732.22108007zm.2071643-.3405959.0503031-.05-.0503031-.05-.0496969.05zm.7728357.3405959-.1227933.12852887.2114339.22134078.0886406-.09281192.0886405.09281192.2085662-.21925512-.124879-.13035382.124879-.13035382-.2085662-.21899441-.0886405.09281192-.0886406-.09281192-.2114339.22108007zm.2040782-.34242085.05-.05-.05-.05-.05.05zm.7683612.34242085-.1225325.12852887.2111731.22134078.0886406-.09281192.0886406.09281192.2085661-.21925512-.1246182-.13035382.1246182-.13035382-.2085661-.21899441-.0886406.09281192-.0886406-.09281192-.2111731.22108007zm.2040565-.34242085.0502825-.05-.0502825-.05-.0497175.05zm.7699473.34242085-.1227933.12852887.2114339.22134078.0886406-.09281192.0886406.09281192.2085661-.21925512-.124879-.13035382.124879-.13035382-.2085661-.21899441-.0886406.09281192-.0886406-.09281192-.2114339.22108007zm.2040782-.34242085.05-.05-.05-.05-.05.05zm.768622.34242085-.1227933.12852887.2114338.22134078.0883799-.09281192.0886406.09281192.2085661-.21925512-.1248789-.13035382.1248789-.13035382-.2085661-.21899441-.0886406.09281192-.0883799-.09281192-.2114338.22108007zm.2037957-.34242085.0502825-.05-.0502825-.05-.0497175.05zm.7686437.34242085-.1227933.12852887.2114339.22134078.0886406-.09281192.0886406.09281192.2085661-.21925512-.1246182-.13035382.1246182-.13035382-.2085661-.21899441-.0886406.09281192-.0886406-.09281192-.2114339.22108007zm.2040782-.34242085.05-.05-.05-.05-.05.05zm.768622.34242085-.1227933.12852887.2114339.22134078.0886406-.09281192.0886406.09281192.2085661-.21925512-.1248789-.13035382.1248789-.13035382-.2085661-.21899441-.0886406.09281192-.0886406-.09281192-.2114339.22108007zm.2043607-.34242085.0497175-.05-.0497175-.05-.0502825.05zm.7680788.34242085-.1227933.12852887.2114339.22134078.0886406-.09281192.0886406.09281192.2085661-.21925512-.1246183-.13035382.1246183-.13035382-.2085661-.21899441-.0886406.09281192-.0886406-.09281192-.2114339.22108007zm.2040782-.34242085.05-.05-.05-.05-.05.05zm.768622.34242085-.1227933.12852887.2114339.22134078.0886406-.09281192.0886406.09281192.2085661-.21925512-.124879-.13035382.124879-.13035382-.2085661-.21899441-.0886406.09281192-.0886406-.09281192-.2114339.22108007zm.2040782-.34242085.05-.05-.05-.05-.05.05zm.7683613.34242085-.1225326.12852887.2111732.22134078.0886406-.09281192.0886405.09281192.2085662-.21925512-.1246183-.13035382.1246183-.13035382-.2085662-.21925512-.0886405.09281192-.0886406-.09281192-.2111732.22108008zm.2040564-.34242085.0502825-.05-.0502825-.05-.0497175.05zm.7686437.34242085-.1227933.12852887.2114339.22134078.0886406-.09281192.0886406.09281192.2085661-.21925512-.1248789-.13035382.1248789-.13035382-.2085661-.21899441-.0886406.09281192-.0886406-.09281192-.2114339.22134078zm.2040783-.34242085.05-.05-.05-.05-.05.05zm.7686219.34242085-.1227933.12852887.2114339.22134078.0886406-.09281192.0883799.09281192.2085661-.21925512-.1248789-.13035382.1248789-.13035382-.2085661-.21899441-.0883799.09281192-.0886406-.09281192-.2114339.22134078zm.2043607-.34242085.0497175-.05-.0497175-.05-.0502825.05zm.7680788.34242085-.1227933.12852887.2114339.22134078.0886406-.09281192.0886406.09281192.2085661-.21925512-.1246182-.13035382.1246182-.13035382-.2085661-.21925512-.0886406.09281192-.0886406-.09281192-.2114339.22108008zm.2040782-.34242085.05-.05-.05-.05-.05.05zm.7670578.34242085-.1227933.12852887.2114338.22134078.0886406-.09281192.0886406.09281192.2085661-.21925512-.1248789-.13035382.1248789-.13035382-.2085661-.21899441-.0886406.09281192-.0886406-.09281192-.2114338.22108007zm.2043606-.34242085.0497176-.05-.0497176-.05-.0502824.05zm.1460304 1.17929236.124879-.13035382-.2085661-.21925512-.0886406.09281192-.0886406-.09281192-.2114339.22134078.1227933.12852887-.1227933.12852886.2114339.22108008.0886406-.09255121.0886406.09255121.2085661-.21899442zm0 .8366108.124879-.13035382-.2085661-.21925512-.0886406.09281192-.0886406-.09281192-.2114339.22134078.1220112.12878958-.1227933.12852886.2114338.22134078.0886406-.09281192.0886406.09281192.2085661-.21925512zm-.1460304.39418995-.0502824.04972973.0502824.05027027.0497176-.05027027zm-.8256269-.39366853.1246182-.13035382-.2085661-.21925512-.0886406.09281192-.0886406-.09281192-.2114339.22134078.1227933.12852886-.1227933.12852887.2114339.22134078.0886406-.09281192.0886406.09281192.2085661-.21925512zm-.1465736.39418994-.05.04972973.05.05027027.05-.05027027zm-.8261266-.39418994.1248789-.13035382-.2085661-.21925512-.0883799.09281192-.0886406-.09281192-.2114339.22134078.1227933.12852886-.1227933.12852887.2114339.22134078.0886406-.09281192.0883799.09281192.2085661-.21925512zm-.1460304.39418994-.0502825.04972973.0502825.05027027.0497175-.05027027zm-.8266698-.39418994.1248789-.13035382-.2085661-.21925512-.0886406.09281192-.0886406-.09281192-.2114339.22134078.1227933.12852886-.1227933.12852887.2114339.22134078.0886406-.09281192.0886406.09281192.2085661-.21925512zm-.1463129.39418994-.05.04972973.05.05027027.05-.05027027zm-.9108566-.04484171.2085661-.21925512-.1246182-.13035382.1246182-.13035382-.2085661-.21925512-.0886406.09281192-.0886406-.09281192-.2111732.22134078.1225326.12852887-.1225326.12852886.2111732.22134078.0886406-.09281192zm-.0618653.0443203-.0497175.04972973.0497175.05027027.0502825-.05027027zm-.8261049-.39366853.124879-.13035382-.2085661-.21925512-.0886406.09281192-.0886406-.09281192-.2114339.22134078.1220112.12826816-.1227933.12852886.2114339.22134078.0886405-.09281192.0886406.09281192.2085662-.21925512zm-.1463128.39366853-.05.04972973.05.05027027.05-.05027027zm-.8261267-.39366853.1246183-.13035382-.2085661-.21925512-.0886406.09281192-.0886406-.09281192-.2114339.22134078.1227933.12852886-.1227933.12852887.2114339.22134078.0886406-.09281192.0886406.09281192.2085661-.21925512zm-.1463128.39366853-.05.04972973.05.05027027.05-.05027027zm-.9105959-.0443203.2085661-.21925512-.124879-.13035382.124879-.13035382-.2085661-.21925512-.0886406.09281192-.0886406-.09281192-.2114339.22134078.1227933.12852887-.1227933.12852886.2114339.22134078.0886406-.09281192zm-.0615611.0443203-.0502825.04972973.0502825.05027027.0497175-.05027027zm-.8274519-.39366853.1246182-.13035382-.2085661-.21925512-.0886406.09281192-.0886406-.09281192-.2114339.22134078.1227933.12852886-.1227933.12852887.2119553.22055866.0886406-.09281192.0886406.09281192.2085661-.21925512zm-.1465736.39418994-.05.04972973.05.05027027.05-.05027027zm-.8253445-.39418994.1248789-.13035382-.2085661-.21925512-.0886406.09281192-.0883798-.09281192-.2114339.22134078.1227933.12852886-.1227933.12852887.2114339.22134078.0883798-.09281192.0886406.09281192.2085661-.21925512zm-.1476941.39418994-.0486188.04972973.0486188.05027027.0513812-.05243243zm-.8250061-.39418994.124879-.13035382-.2085661-.21925512-.0886406.09281192-.0886406-.09281192-.2114339.22134078.1227933.12826816-.1227933.12852886.2114339.22134078.0886406-.09281192.0886406.09281192.2085661-.21925512zm-.1463128.39418994-.05.04972973.05.05027027.05-.05027027zm-.9108567-.0443203.2085662-.21925512-.1246183-.13035382.1246183-.13035381-.2085662-.21925512-.0886406.09281191-.0886405-.09281191-.2111732.22134078.1225326.12852886-.1225326.12852887.2111732.22134078.0886405-.09281192zm-.0618653.0443203-.0497175.04972973.0497175.05027027.0502825-.05027027zm-.8261049-.39418994.124879-.13035382-.2085661-.21925512-.0886406.09281192-.0886406-.09281192-.2114339.22134078.1227933.12852886-.1227933.12852887.2114339.22134078.0886406-.09281192.0886406.09281192.2085661-.21925512zm-.1463128.39418994-.05.04972973.05.05027027.05-.05027027zm-.9173743-.04666667.2114339-.22134078-.1201862-.12618249.1209683-.12670391-.212216-.2218622-.0868157.09098696-.0018249-.00182495-.0015643.00182495-.0870763-.09098696-.2111732.22134078.1209684.12670391-.1209684.12670391.2111732.22134078.0870763-.09098696.0015643.00182495.0018249-.00182495zm-.0603217.0477095-.0496969.05.0496969.05.0503031-.05zm-.9147249-.04588454.2085661-.21925512-.1246182-.13035382.1246182-.13035382-.2085661-.21925512-.0886406.09281192-.0886406-.09281192-.2114339.22134078.1227933.12852887-.1227933.12852886.2114339.22134078.0886406-.09281192zm-.0618653.0443203-.0497175.04972973.0497175.05027027.0502825-.05027027zm-.8245406-.39366853.1248789-.13035382-.2085661-.21925512-.0886406.09281192-.0886406-.09281192-.2114339.22134078.1227933.12852886-.1227933.12852887.2114339.22134078.0886406-.09281192.0886406.09281192.2085661-.21925512zm-.1449876.39366853-.0502824.04972973.0502824.05027027.0497176-.05027027zm-.9111391-.0443203.2085662-.21925512-.1246183-.13035382.1246183-.13035382-.2085662-.21925512-.0886406.09281192-.0886405-.09281192-.2114339.22134078.1227933.12852887-.1227933.12852886.2114339.22134078.0886405-.09281192zm-.0618435.0443203-.05.04972973.05.05027027.05-.05027027zm-.8269088-.39366853.124879-.13035382-.2085661-.21925512-.0883799.09281192-.0886406-.09281192-.21143391.22134078.12279331.12852886-.12279331.12852887.21143391.22055866.0886406-.09281192.0883799.09281192.2085661-.21925512zm-.1460303.39418994-.0502825.04972973.0502825.05027027.0497175-.05027027zm-.91113914-.0443203.2085661-.21925512-.12461825-.13035382.12461825-.13035381-.2085661-.21925512-.0886406.09281191-.0886406-.09281191-.21143389.22134078.1227933.12852886-.1227933.12852887.21143389.22134078.0886406-.09281192zm-.06184358.0443203-.05.04972973.05.05027027.05-.05027027zm-.91085661-.0443203.20856611-.21925512-.12487896-.13035382.12487896-.13035381-.20856611-.21925512-.0886406.09281191-.08864059-.09281191-.21117319.22134078.1227933.12852886-.1227933.12852887.21117319.22134078.08864059-.09281192zm-.06186535.0443203-.04971752.04972973.04971752.05027027.05028248-.05027027zm-.91057413-.0443203.20856611-.21925512-.12487896-.13035382.12487896-.13035381-.20856611-.21925512-.08864059.09281191-.0886406-.09281191-.21143389.22134078.12279329.12852886-.12279329.12852887.21039106.22029795.08864059-.09281192zm-.06184357.0443203-.05.04972973.05.05027027.05-.05027027zm-.82638734-.39418994.12461825-.13035382-.20856611-.21925512-.0886406.09281192-.08864059-.09281192-.21143389.22134078.12279329.12852886-.12279329.12852887.21143389.22134078.08864059-.09281192.0886406.09281192.20856611-.21925512zm-.14629107.39418994-.05028249.04972973.05028249.05027027.04971751-.05243243zm-.91087839-.0443203.20856611-.21925512-.12487896-.13035382.12487896-.13035381-.20856611-.21925512-.0886406.09281191-.08864059-.09281191-.21143389.22134078.12227188.12800745-.1227933.12852886.21143389.22134078.0886406-.09281192zm-.06156109.0443203-.05028249.04972973.05028249.05027027.04971751-.05027027zm-.9111391-.0443203.20856611-.21925512-.12461825-.13035382.12461825-.13035381-.20856611-.21925512-.08864059.09281191-.0886406-.09281191-.21143389.22029795.12279329.12852886-.12279329.12852887.21143389.22134078.0886406-.09281192zm-.06184357.0443203-.05.04972973.05.05027027.05-.05027027zm-.91085661-.0443203.2085661-.21925512-.12487895-.13035382.12487895-.13035381-.2085661-.21925512-.08837989.09281191-.0886406-.09281191-.21143389.22134078.1227933.12852886-.1227933.12852887.21143389.22134078.0886406-.09281192zm-.06130039.0443203-.05028248.04972973.05028248.05027027.04971752-.05027027zm-.82640911-.39418994.12461825-.13035382-.20856611-.21925512-.0886406.09281192-.08864059-.09281192-.21143389.22134078.12201117.12826816-.1227933.12852886.2114339.22134078.08864059-.09281192.0886406.09281192.20856611-.21925512zm-.14627247.39366853-.0505618.04918032.05.05081968.05-.05081968zm-.82642772-.39366853.12487896-.13035382-.20856611-.21925512-.08864059.09281192-.0886406-.09281192-.21117318.22134078.12175046.12826816-.12279329.12852886.21117318.22134078.0886406-.09281192.08864059.09281192.20856611-.21925512zm-.14659533.39418994-.04971752.04972973.04971752.05027027.05028248-.05027027zm-.20379573-1.23080074-.12279329.12852886.21117318.22108007.0886406-.09255121.08864059.09255121.20856611-.21899441-.12487896-.13035382.12487896-.13035381-.20856611-.21925513-.08864059.09281192-.0886406-.09281192-.21117318.22134079zm.20379573-.34268157.05028248-.05-.05028248-.05-.04971752.05zm0 .7366108-.04971752.05.04971752.05.05028248-.05zm.33691191.24350093.12070763-.1264432.1227933.12852886.21143389-.22134078-.21143389-.22134078-.1227933.12852886-.12070763-.1264432-.20856611.21925512zm.52141527-.98729981-.21247673.2218622.1227933.12852886-.1227933.12852887.2114339.22108007.08864059-.09255121.0886406.09255121.20856611-.21899441-.12461825-.13035382.12461825-.13035382-.20856611-.21925512-.0886406.09046555zm.11543761.00718808.05-.05-.05-.05-.05.05zm0 .7366108-.05.05.05.05.05-.05zm.33662943.24350093.12096834-.1264432.12279329.12852886.21117319-.22134078-.21117319-.22134078-.12279329.12852886-.12096834-.1264432-.20856611.21925512zm.52141527-.98729981-.21325885.2218622.1227933.12852886-.1227933.12852887.21143389.22108007.0886406-.09255121.08837989.09255121.2085661-.21899441-.12487895-.13035382.12487895-.13035382-.2085661-.21925512-.08837989.09046555zm.1157201.00718808.04971751-.05-.04971751-.05-.05028249.05zm0 .7366108-.05028249.05.05028249.05.04971751-.05zm.33634693.24350093.12070764-.1264432.1227933.12852886.21143389-.22134078-.21143389-.22134078-.1227933.12852886-.12070764-.1264432-.2085661.21925512zm.52141527-.98729981-.21430167.2218622.12279329.12852886-.12279329.12748603.21143389.22108008.0886406-.09255121.08864059.09255121.20856611-.21899441-.12461825-.13035382.12461825-.13035382-.20856611-.21925512-.08864059.09281192zm.11543762.00718808.05-.05-.05-.05-.05.05zm0 .7366108-.05.05.05.05.05-.05zm.33662942.24350093.12096835-.1264432.12279329.12852886.21143389-.22134078-.21143389-.22134078-.12279329.12852886-.12096835-.1264432-.2085661.21925512zm.52141527-.98729981-.21508379.2218622.12279329.12852886-.12279329.12852887.21143389.22108007.08864059-.09255121.0886406.09255121.20856611-.21899441-.12487896-.13035382.12487896-.13035382-.20856611-.21925512-.0886406.09281192zm.11572011.00718808.04971751-.05-.04971751-.05-.05028249.05zm0 .7366108-.05028249.05.05028249.05.04971751-.05zm.33634693.24350093.12070764-.1264432.12279329.12852886.2114339-.22134078-.2114339-.22134078-.12279329.12852886-.12070764-.1264432-.20856611.21925512zm.52141527-.98729981-.21612663.2218622.1227933.12852886-.1227933.12852887.2114339.22108007.08864059-.09255121.0886406.09255121.20856611-.21899441-.12461825-.13035382.12461825-.13035382-.20856611-.21925512-.0886406.09281192zm.11541584.00718808.05028249-.05-.05028249-.05-.04971751.05zm0 .7366108-.04971751.05.04971751.05.05028249-.05zm.33691191.24350093.12070763-.1264432.1227933.12852886.21143389-.22134078-.21143389-.22134078-.1227933.12852886-.12070763-.1264432-.20856611.21925512zm.52141527-.98729981-.21716946.2218622.1227933.12852886-.1227933.12852887.21065177.22003724.08864059-.09255121.0886406.09255121.20856611-.21899441-.12487896-.13035382.12487896-.13035382-.20856611-.21925512-.0886406.09281192zm.11543762.00718808.05-.05-.05-.05-.05.05zm0 .7366108-.05.05.05.05.05-.05zm.33662942.24350093.12070763-.1264432.1227933.12852886.21143389-.22134078-.21143389-.22134078-.12852886.12800745-.12070764-.1264432-.20856611.21925512zm.52141527-.98729981-.21117319.22134078.1227933.12852887-.1227933.12852886.21117319.22108007.08864059-.09255121.0886406.09255121.20856611-.21899441-.12487896-.13035382.12487896-.13035381-.20856611-.21925513-.0886406.09281192zm.11541584.00718808.05028248-.05-.05028248-.05-.04971752.05zm0 .7366108-.04971752.05.04971752.05.05028248-.05zm.33691191.24350093.12070763-.1264432.1227933.12852886.21143389-.22134078-.21873371-.2218622-.12279329.12852887-.12070764-.1264432-.20856611.21925512zm.52141527-.98729981-.21925513.2218622.1227933.12852886-.1227933.12852887.2114339.22108007.08864059-.09255121.0886406.09255121.20856611-.21899441-.12461825-.13035382.12461825-.13035382-.20856611-.21925512-.08968343.09046555zm.11543761.00718808.05-.05-.05-.05-.05.05zm-.00886406.73608939-.05.05.05.05.05-.05zm.33819367.24350093.12096834-.1264432.1227933.12852886.21117315-.22134078-.21117315-.22134079-.1227933.12852887-.12096834-.1264432-.20856611.21925512zm.52141529-.98729982-.21273745.22238362.12279325.12852886-.12279325.12852887.21273745.22003724.0886406-.09255121.0883799.09255121.2085661-.21899441-.124879-.13035382.124879-.13035382-.2085661-.21925512-.0896835.09150838zm.1157201.00718809.0497175-.05-.0497175-.05-.0502825.05zm0 .7366108-.0502825.05.0502825.05.0497175-.05zm.3363469.24350093.1207077-.1264432.1227933.12852886.2114338-.22134078-.2114338-.22134079-.1227933.12852887-.1207077-.1264432-.2085661.21925512zm.5214153-.98729982-.2137803.22238362.1227933.12852886-.1227933.12852887.2114339.22108007.0886406-.09255121.0886406.09255121.2085661-.21899441-.1246182-.13035382.1246182-.13035382-.2085661-.21925512-.0886406.09281192zm.1154376.00718809.05-.05-.05-.05-.05.05zm0 .7366108-.05.05.05.05.05-.05zm.3366294.24350093.1209684-.1264432.1227933.12852886.2114339-.22134078-.2114339-.22134079-.1227933.12852887-.1209684-.1264432-.2085661.21925512zm.4319926-.63743017-.1227933.12852886.2114339.22108008.0886406-.09255121.0886406.09255121.2085661-.21899441-.124879-.13035382.124879-.13035382-.2085661-.21925512-.0899442.09150838-.0886406-.09281192-.2124767.22316574zm.2043607-.34268156.0497175-.05-.0497175-.05-.0502825.05zm-.0013036.7366108-.0502824.05.0502824.05.0497176-.05zm.336347.24350093.1207076-.1264432.1227933.12852886.2114339-.22134078-.2114339-.22134079-.1227933.12852887-.1207076-.1264432-.2085661.21925512zm.5214152-.98729982-.2135195.22238362.1227933.12852886-.1227933.12852887.2114339.22108007.0886406-.09255121.0886406.09255121.2085661-.21899441-.1246183-.13035382.1246183-.13035382-.2085661-.21925512-.0886406.09281192zm.1154159.00718809.0502825-.05-.0502825-.05-.0497175.05zm0 .7366108-.0497175.05.0497175.05.0502825-.05zm.3382154.24350093.1207077-.1264432.1227933.12852886.2114339-.22134078-.2114339-.22134079-.1227933.12852887-.1207077-.1264432-.2085661.21925512zm.4317319-.63743017-.1209684.12670391.2111732.22108008.0870764-.09072626.0015642.00156424.001825-.00156424.0868156.09072626.2114339-.22108008-.1209683-.12670391.1209683-.12670391-.2156052-.22134078-.0860335.09020484-.001825-.00182495-.0015642.00182495-.0870764-.09098697-.2111732.22134079zm.2071644-.34085661.050303-.05-.050303-.05-.049697.05zm0 .7366108-.049697.05.049697.05.050303-.05zm.3390181.24376164.1227933-.12852886.1227933.12852886.2114339-.22134078-.2114339-.22134079-.1227933.12852887-.1227933-.12852887-.2114339.22134079zm.5214152-.98938548-.2137802.22238362.1227933.12852886-.1227933.12852887.2114339.22108007.0886406-.09255121.0886406.09255121.2085661-.21899441-.124879-.13035382.124879-.13035382-.2085661-.21925512-.0886406.09281192zm.1157201.00718809.0497176-.05-.0497176-.05-.0502824.05zm0 .7366108-.0502824.05.0502824.05.0497176-.05zm.336347.24350093.1207076-.1264432.1227933.12852886.2114339-.22134078-.2114339-.22134079-.1227933.12852887-.1207076-.1264432-.2085661.21925512zm.5214153-.98729982-.2135196.22238362.1225326.12852886-.1225326.12852887.2111732.22108007.0886406-.09255121.0886406.09255121.2085661-.21899441-.1246183-.13035382.1246183-.13035382-.2085661-.21925512-.0886406.09281192zm.1154158.00718809.0502825-.05-.0502825-.05-.0497175.05zm0 .7366108-.0497175.05.0497175.05.0502825-.05zm.3369119.24350093.1207076-.1264432.1227933.12852886.2114339-.22134078-.2114339-.22134079-.1272253.12852887-.1207076-.1264432-.2085661.21925512zm.4291248-.63743017-.1227933.12852886.2114339.22108008.0886406-.09255121.0886406.09255121.2085661-.21899441-.124879-.13035382.124879-.13035382-.2085661-.21925512-.0886406.09281192-.0886406-.09281192-.2122161.2218622zm.2040782-.34268156.05-.05-.05-.05-.05.05zm0 .7366108-.05.05.05.05.05-.05zm.3366294.24350093.1209683-.1264432.1225326.12852886.2114339-.22134078-.2114339-.22134079-.1225326.12852887-.1209683-.1264432-.2085661.21925512zm.4319926-.63743017-.1227933.12852886.2114338.22108008.0883799-.09255121.0886406.09255121.2085661-.21899441-.1248789-.13035382.1248789-.13035382-.2085661-.21925512-.0886406.09281192-.0883799-.09281192-.212216.2218622zm.2037957-.34268156.0502825-.05-.0502825-.05-.0497175.05zm0 .7366108-.0497175.05.0497175.05.0502825-.05zm.3356083.24350093.1207077-.1264432.1227933.12852886.2114339-.22134078-.2114339-.22134079-.1227933.12852887-.1207077-.1264432-.2085661.21925512zm.5214153-.98729982-.2119553.22238362.1227933.12852886-.1227933.12852887.2119553.22003724.0886406-.09255121.0886406.09255121.2085661-.21899441-.1246182-.13035382.1246182-.13035382-.2085661-.21925512-.0886406.09281192zm.1154376.00718809.05-.05-.05-.05-.05.05zm0 .7366108-.05.05.05.05.05-.05zm.3366295.24350093.1209683-.1264432.1227933.12852886.2114339-.22134078-.2114339-.22134079-.1222719.12852887-.1209683-.1264432-.2085661.21925512zm.5214152-.98729982-.2127374.22238362.1227933.12852886-.1227933.12852887.2114339.22108007.0886406-.09255121.0886406.09255121.2085661-.21899441-.124879-.13035382.124879-.13035382-.2085661-.21925512-.0886406.09281192zm.1157201.00718809.0497175-.05-.0497175-.05-.0502825.05zm0 .7366108-.0502825.05.0502825.05.0497175-.05zm.336347.24350093.1207076-.1264432.1227933.12852886.2114339-.22134078-.2119553-.22134079-.1227933.12852887-.1207076-.1264432-.2085662.21925512zm.5214152-.98729982-.2137802.22238362.1227933.12852886-.1227933.12852887.2114339.22108007.0886406-.09255121.0886406.09255121.2085661-.21899441-.1246183-.13035382.1246183-.13035382-.2085661-.21925512-.0883799.09046555zm.1154377.00718809.05-.05-.05-.05-.05.05zm-.0020857.7366108-.05.05.05.05.05-.05zm.3381937.24350093.1207076-.1264432.1227933.12852886.2114339-.22134078-.2114339-.22134079-.1227933.12852887-.1207076-.1264432-.2085661.21925512zm.5214152-.98729982-.2140409.22238362.1227933.12852886-.1227933.12852887.2114339.22108007.0886405-.09255121.0886406.09255121.2085662-.21899441-.124879-.13035382.124879-.13035382-.2085662-.21925512-.0886406.09046555zm.1154376.00718809.05-.05-.05-.05-.05.05zm0 .7366108-.05.05.05.05.05-.05zm.3366295.24350093.1207076-.1264432.1227933.12852886.2114339-.22134078-.2114339-.22134079-.1227933.12852887-.1207076-.1264432-.2085661.21925512zm.4317318-.63743017-.1225326.12852886.2111732.22108008.0886406-.09255121.0886406.09255121.2085661-.21899441-.1246182-.13035382.1246182-.13035382-.2085661-.21925512-.0912477.09150838-.0886406-.09281192-.2111732.22316574zm.2040564-.34268156.0502825-.05-.0502825-.05-.0497175.05zm0 .7366108-.0497175.05.0497175.05.0502825-.05zm.336912.24350093.1207076-.1264432.1227933.12852886.2114339-.22134078-.2114339-.22134079-.1227933.12852887-.1207076-.1264432-.2085662.21925512zm.4317318-.63743017-.1227933.12852886.2114339.22108008.0886406-.09255121.0886406.09255121.2085661-.21899441-.124879-.13035382.124879-.13035382-.2085661-.21925512-.0886406.09281192-.0886406-.09281192-.214041.2218622zm.2040782-.34268156.05-.05-.05-.05-.05.05zm0 .7366108-.05.05.05.05.05-.05zm.3366294.24350093.1209684-.1264432.1225326.12852886.2114339-.22134078-.2114339-.22134079-.1225326.12852887-.1209684-.1264432-.2085661.21925512zm.4319926-.63743017-.1227933.12852886.2114339.22108008.0886406-.09255121.0883799.09255121.2085661-.21899441-.124879-.13035382.124879-.13035382-.2085661-.21925512-.0883799.09281192-.0886406-.09281192-.2114339.22134078zm.2043607-.34268156.0497175-.05-.0497175-.05-.0502825.05zm0 .7366108-.0502825.05.0502825.05.0497175-.05zm.3363469.24350093.1207077-.1264432.1227933.12852886.2114338-.22134078-.2114338-.22134079-.1227933.12852887-.1207077-.1264432-.2085661.21925512zm.5214153-.98729982-.2153445.22238362.1227933.12852886-.1227933.12852887.2114339.22108007.0886406-.09255121.0886406.09255121.2085661-.21899441-.1246183-.13035382.1246183-.13035382-.2085661-.21925512-.0886406.09281192zm.1154376.00718809.05-.05-.05-.05-.05.05zm0 .7366108-.05.05.05.05.05-.05zm.3366294.24350093.1209684-.1264432.1227933.12852886.2111732-.22134078-.2111732-.22134079-.1227933.12852887-.1209684-.1264432-.2085661.21925512zm.6363533-.14350093.0497175-.05-.0497175-.05-.0502825.05zm0-.8366108.0497175-.05-.0497175-.05-.0502825.05zm-.3920702-.29709498-.1227933.12852887-.1209684-.1264432-.2085661.21925512.2085661.21925512.1209684-.12644321.1227933.12852887.2111732-.22134078zm-.9727002 0-.1227933.12852887-.1207076-.1264432-.2085661.21925512.2085661.21925512.1207076-.12644321.1227933.12852887.2114339-.22134078zm-.9727002 0-.1225326.12852887-.1209683-.1264432-.2085661.21925512.2085661.21925512.1209683-.12644321.1225326.12852887.2114339-.22134078zm-.9724395 0-.1227933.12852887-.1207076-.1264432-.2085661.21925512.2085661.21925512.1207076-.12644321.1227933.12852887.2114339-.22134078zm-.9727002 0-.1227933.12852887-.1207076-.1264432-.2085661.21925512.2085661.21925512.1207076-.12644321.1227933.12852887.2114339-.22134078zm-.9724394 0-.1227933.12852887-.1207077-.1264432-.2085661.21925512.2085661.21925512.1207077-.12644321.1227933.12852887.2114339-.22134078zm-.9727002 0-.1227933.12852887-.1207077-.1264432-.2085661.21925512.2085661.21925512.1207077-.12644321.1227933.12852887.2114339-.22134078zm-.9724395 0-.1259218.12852887-.1209683-.1264432-.2085661.21925512.2085661.21925512.1209683-.12644321.1227933.12852887.2114339-.22134078zm-.9727002 0-.1227933.12852887-.1254004-.1264432-.2085661.21925512.2085661.21925512.1207077-.12644321.1227933.12852887.2114339-.22134078zm-.9727002 0-.1225326.12852887-.1209683-.1264432-.2085661.21925512.2085661.21925512.1209683-.12644321.1225326.12852887.2114339-.22134078zm-.9724394 0-.1280075.12852887-.1207076-.1264432-.2085661.21925512.2085661.21925512.1207076-.12644321.1227933.12852887.2114339-.22134078zm-.9727002 0-.1227933.12852887-.1207077-.1264432-.2085661.21925512.2085661.21925512.1207077-.12644321.1227933.12852887.2114339-.22134078zm-.9724395 0-.1227933.12852887-.1227933-.12852887-.2114339.22134079.2114339.22134078.1227933-.12852887.1227933.12852887.2114339-.22134078zm-.98 0-.1227933.12852887-.1207076-.1264432-.2085662.21925512.2085662.21925512.1207076-.12644321.1227933.12852887.2114339-.22134078zm-.9727002 0-.1227933.12852887-.1207076-.1264432-.2085661.21925512.2085661.21925512.1207076-.12644321.1227933.12852887.2114339-.22134078zm-.9724395 0-.1227933.12852887-.1209683-.1264432-.2085661.21925512.2085661.21925512.1209683-.12644321.1227933.12852887.2114339-.22134078zm-.9727002 0-.1227933.12852887-.1207076-.1264432-.2085661.21925512.2085661.21925512.1207076-.12644321.1227933.12852887.2114339-.22134078zm-.97243944 0-.1227933.12852887-.12461825-.1264432-.20856611.21925512.20856611.21925512.12096834-.12644321.1227933.12852887.21117315-.22134078zm-.97270019 0-.1227933.12852887-.12070763-.1264432-.20856611.21925512.20856611.21925512.12070763-.12644321.1227933.12852887.21143389-.22134078zm-.97270019 0-.12696461.12852887-.12070764-.1264432-.20856611.21925512.20856611.21925512.12070764-.12644321.12279329.12852887.21143389-.22134078zm-.97243947 0-.1227933.12852887-.12070764-.1264432-.2085661.21925512.2085661.21925512.12070764-.12644321.1227933.12852887.21143389-.22134078zm-.97270019 0-.1227933.12852887-.12070763-.1264432-.20856611.21925512.20856611.21925512.12070763-.12644321.1227933.12852887.21143389-.22134078zm-.97243948 0-.1227933.12852887-.12096834-.1264432-.20856611.21925512.20856611.21925512.12096834-.12644321.1227933.12852887.21143389-.22134078zm-.97270019 0-.12279329.12852887-.12070764-.1264432-.2085661.21925512.2085661.21925512.12070764-.12644321.12279329.12852887.2114339-.22134078zm-.97243947 0-.1227933.12852887-.12096834-.1264432-.20856611.21925512.20856611.21925512.12096834-.12644321.1227933.12852887.21117318-.22134078zm-.97270019 0-.1227933.12852887-.12070763-.1264432-.20856611.21925512.20856611.21925512.12070763-.12644321.1227933.12852887.21143389-.22134078zm-.97270019 0-.12279329.12852887-.12070764-.1264432-.20856611.21925512.20856611.21925512.12070764-.12644321.12279329.12852887.2114339-.22134078zm-.24350093.83869647-.20856611.21925512.20856611.21925512.12070764-.1264432.12279329.12852886.2114339-.22134078-.2114339-.22134079-.12279329.12852887zm0 .8368715-.20856611.21899442.20856611.21925512.12070764-.1264432.12279329.12852886.2114339-.22134078-.2114339-.22108008-.12279329.12852887zm.97270019.43824954.12070763-.1264432.1227933.12852886.20752328-.2218622-.21143389-.22108007-.1227933.12852886-.12070764-.1264432-.2085661.21899441zm.97243948 0 .12096834-.1264432.1227933.12852886.21117318-.22134078-.21117318-.22108008-.1227933.12852887-.12096834-.12644321-.20856611.21899442zm.97270018 0 .12070764-.1264432.12279329.12852886.20726257-.2218622-.21143389-.22108007-.12279329.12852886-.12070764-.1264432-.20856611.21899441zm.97243948 0 .12096834-.1264432.1227933.12852886.21143389-.22134078-.21143389-.22108008-.1227933.12852887-.12096834-.12644321-.20856611.21899442zm.97270019 0 .12070763-.1264432.1227933.12852886.21143389-.22134078-.21143389-.22108008-.1227933.12852887-.12070763-.12644321-.20856611.21899442zm.97270018 0 .12070764-.1264432.1227933.12852886.21143389-.22134078-.21143389-.22108008-.1227933.12852887-.12070764-.12644321-.2085661.21899442zm.97243948 0 .12070764-.1264432.12279329.12852886.2114339-.22134078-.2114339-.22108008-.12696461.12852887-.12070764-.12644321-.20856611.21899442zm.97270019 0 .12070763-.1264432.1227933.12852886.21143389-.22134078-.21612663-.22108008-.12279329.12852887-.12070764-.12644321-.20856611.21899442zm.97243948 0 .12096834-.1264432.1227933.12852886.21117314-.22134078-.21117314-.22108008-.1227933.12852887-.12461825-.12644321-.20856611.21899442zm.97270018 0 .1207076-.1264432.1227933.12852886.2114339-.22134078-.2114339-.22108008-.1227933.12852887-.1207076-.12644321-.2085661.21899442zm.9724395 0 .1209683-.1264432.1227933.12852886.2114339-.22134078-.2114339-.22108008-.1227933.12852887-.1209683-.12644321-.2085661.21899442zm.9727002 0 .1207076-.1264432.1227933.12852886.2114339-.22134078-.2114339-.22108008-.1227933.12852887-.1207076-.12644321-.2085661.21899442zm.9727002 0 .1207076-.1264432.1227933.12852886.2114339-.22134078-.2114339-.22108008-.1227933.12852887-.1207076-.12644321-.2085662.21899442zm.9779143.00208566.1227933-.12852886.1227933.12852886.2114339-.22134078-.2114339-.22108008-.1227933.12852887-.1227933-.12852887-.2156052.22055866zm.9745251-.00208566.1207077-.1264432.1227933.12852886.2114339-.22134078-.2114339-.22108008-.1227933.12852887-.1207077-.12644321-.2085661.21899442zm.9727002 0 .1207077-.1264432.1227933.12852886.2114338-.22134078-.2114338-.22108008-.1280075.12852887-.1207076-.12644321-.2085661.21899442zm.9724395 0 .1209683-.1264432.1225326.12852886.2114339-.22134078-.2114339-.22108008-.1225326.12852887-.1209683-.12644321-.2085661.21899442zm.9727002 0 .1207076-.1264432.1227933.12852886.2114339-.22134078-.2114339-.22108008-.1227933.12852887-.1254004-.12644321-.2085661.21899442zm.9724395 0 .1209683-.1264432.1227933.12852886.2111732-.22134078-.2111732-.22108008-.1259218.12852887-.1209683-.12644321-.2085661.21899442zm.9727001 0 .1207077-.1264432.1227933.12852886.2114339-.22134078-.2148231-.22108008-.1227933.12852887-.1207076-.12644321-.2085662.21899442zm.9727002 0 .1207077-.1264432.1227933.12852886.2114339-.22134078-.2114339-.22108008-.1227933.12852887-.1207077-.12644321-.2085661.21899442zm.9724395 0 .1207076-.1264432.1227933.12852886.2114339-.22134078-.2114339-.22108008-.1227933.12852887-.1207076-.12644321-.2085661.21899442zm.9727002 0 .1207076-.1264432.1227933.12852886.2072626-.2218622-.2114339-.22108007-.1227933.12852886-.1207076-.1264432-.2085661.21899441zm.9724395 0 .1209683-.1264432.1225326.12852886.2114339-.22134078-.2114339-.22108008-.1225326.12852887-.1209683-.12644321-.2085661.21899442zm.9727002 0 .1207076-.1264432.1227933.12852886.2114339-.22134078-.2114339-.22108008-.1227933.12852887-.1207076-.12644321-.2085661.21899442zm.9724394 0 .1209684-.1264432.1227933.12852886.2111732-.22134078-.2111732-.22108008-.1227933.12852887-.1209684-.12644321-.2085661.21899442zm.9727002 0 .1207077-.1264432.1227933.12852886.2114339-.22134078-.2114339-.22108008-.1227933.12852887-.1207077-.12644321-.2085661.21899442zm.243501-.83426443.2114339-.22134079-.2114339-.22134078-.1227933.12852887-.1207077-.12644321-.2085661.21925512.2085661.21925513.1207077-.12644321zm.2114339-1.05795159-.2114339-.22134078-.1227933.12852887-.1207077-.12644321-.2085661.21925512.2085661.21925512.1207077-.1264432.1227933.12852887zm-1.0005959-1.25530726-.1227933.12852887.2114338.22134078.0886406-.09281192.0886406.09281192.2085661-.21925512-.1248789-.13035382.1248789-.13035382-.2979888-.31284916-.3000745.31284916zm-.6413408.41713222.2085661.21925512.1209683-.1264432.1227933.12852886.2111732-.22134078-.2111732-.22134078-.1227933.12852886-.1209683-.1264432zm-.3313594-.41713222-.1222719.12852887.2114339.22134078.0886406-.09281192.0886406.09281192.2085661-.21925512-.1246183-.13035382.1246183-.13035382-.2979889-.31284916-.3000744.31284916zm-.6410801.41713222.2085661.21925512.1207076-.1264432.1227933.12852886.2114339-.22134078-.2114339-.22134078-.1227933.12852886-.1207076-.1264432zm-.3313594-.41713222-.1227933.12852887.2114339.22134078.0886406-.09281192.0883799.09281192.2085661-.21925512-.124879-.13035382.124879-.13035382-.2979889-.31284916-.3000744.31284916zm-.6413408.41713222.2085661.21925512.1209684-.1264432.1225325.12852886.2114339-.22134078-.2114339-.22134078-.1225325.12852886-.1209684-.1264432zm-.3313594-.41713222-.1227933.12852887.2114339.22134078.0886406-.09281192.0886406.09281192.2085661-.21925512-.124879-.13035382.124879-.13035382-.2979888-.31284916-.3000745.31284916zm-.6413408.41713222.2085661.21925512.1207077-.1264432.1227933.12852886.2114338-.22134078-.2114338-.22134078-.1227933.12852886-.1207077-.1264432zm-.3313594-.41713222-.1225326.12852887.2111732.22134078.0886406-.09281192.0886406.09281192.2085661-.21925512-.1246182-.13035382.1246182-.13035382-.2979888-.31284916-.2998138.31284916zm-.6410801.41713222.2085661.21925512.1207077-.1264432.1227933.12852886.2114339-.22134078-.2114339-.22134078-.1227933.12852886-.1207077-.1264432zm-.3313594-.41713222-.1227933.12852887.2114339.22134078.0886406-.09281192.0886406.09281192.2085661-.21925512-.1248789-.13035382.1248789-.13035382-.2979888-.31284916-.3000745.31284916zm-.6413407.41713222.2085661.21925512.1207076-.1264432.1227933.12852886.2114339-.22134078-.2114339-.22134078-.1227933.12852886-.1207076-.1264432zm-.3313595-.41713222-.1227932.12852887.2114338.22134078.0886406-.09281192.0886406.09281192.2085661-.21925512-.1246182-.13035382.1246182-.13035382-.2961638-.31232774-.3000745.31284916zm-.64108.41713222.2085661.21925512.1207076-.1264432.1227933.12852886.2114339-.22134078-.2090875-.22003725-.1227933.12852887-.1207076-.12644321zm-.3313594-.41713222-.1227933.12852887.2114339.22134078.0886406-.09281192.0886406.09281192.2085661-.21925512-.124879-.13035382.124879-.13035382-.2979889-.31284916-.3000744.31284916zm-.6413408.41713222.2085661.21925512.1209683-.1264432.1227933.12852886.2111732-.22134078-.2111732-.22134078-.1201862.1298324-.1209683-.12644321zm-.3313594-.41713222-.1227933.12852887.2127374.22134078.0886406-.09281192.0886406.09281192.2085661-.21925512-.1246182-.13035382.1246182-.13035382-.2979888-.31284916-.3000745.31284916zm-.6400373.41843576.2085661.21925512.1207077-.12644321.1227933.12852887.2114339-.22134078-.2114339-.22134079-.1227933.12852887-.1207077-.12644321zm-.3313594-.41713222-.1227933.12852886.2114339.22134079.0883799-.09281192.0886406.09281192.2085661-.21925512-.1248789-.13035382.1248789-.13035382-.2982495-.31284916-.2998138.31284916zm-.6413407.41713222.2085661.21925512.1209683-.12644321.1225326.12852887.2114339-.22134078-.2114339-.22134079-.1225326.12852887-.1209683-.12644321zm-.330838-.41843576-.1227933.12852887.2114339.22134078.0886406-.09281192.0886406.09281192.2085661-.21925512-.124879-.13035382.124879-.13035382-.2979889-.31284916-.3000745.31284916zm-.6413408.41713222.2085661.21925512.1207076-.1264432.1227933.12852886.2114339-.22134078-.2114339-.22134078-.1235754.1298324-.1207076-.12644321zm-.3313594-.41713222-.1222719.12852887.2111732.22134078.0886406-.09281192.0886406.09281192.2085661-.21925512-.1246183-.13035382.1246183-.13035382-.2979888-.31284916-.2998138.31284916zm-.6410801.41713222.2085661.21925512.1207076-.1264432.1227933.12852886.2114339-.22134078-.2114339-.22134078-.1227933.12852886-.1207076-.1264432zm-.3313594-.41713222-.1227933.12852887.2114339.22134078.0886406-.09281192.0886406.09281192.2085661-.21925512-.124879-.13035382.124879-.13035382-.2979888-.31284916-.3000745.31284916zm-.6452514.41713222.2114339.22134078.1227933-.12852886.1227933.12852886.2114339-.22134078-.2114339-.22134078-.1227933.12852886-.1227933-.12852886zm-.3347486-.41713222-.1209683.12670391.2111731.22134078.0870764-.09098696.0015642.00182495.001825-.00182495.0852514.09098696.2114339-.22134078-.1201862-.12670391.1209683-.12670391-.3000745-.31284916-.2998138.31284916zm-.6413408.41713222.2085661.21925512.1207077-.1264432.1227933.12852886.2114338-.22134078-.2114338-.22134078-.1227933.12852886-.1207077-.1264432zm-.3313594-.41713222-.1227933.12852887.2114339.22134078.0886406-.09281192.0886406.09281192.2085661-.21925512-.1246182-.13035382.1246182-.13035382-.2979888-.31284916-.3000745.31284916zm-.6410801.41713222.2085661.21925512.1207077-.1264432.1227933.12852886.2114339-.22134078-.2114339-.22134078-.1227933.12852886-.1207077-.1264432zm-.3313594-.41713222-.1227933.12852887.2114339.22134078.0886406-.09281192.0886406.09281192.2085661-.21925512-.1248789-.13035382.1248789-.13035382-.296946-.31232774-.3000745.31284916zm-.6413407.41713222.2085661.21925512.1209683-.1264432.1227933.12852886.2114339-.22134078-.2114339-.22134078-.1227933.12852886-.1209683-.1264432zm-.3313595-.41713222-.1227932.12852887.2114338.22134078.0886406-.09281192.0886406.09281192.2085661-.21925512-.1246182-.13035382.1246182-.13035382-.2979888-.31284916-.3000745.31284916zm-.64108.41713222.2085661.21925512.1207076-.1264432.1227933.12852886.2114339-.22134078-.2114339-.22134078-.1227933.12852886-.1207076-.1264432zm-.3313594-.41713222-.12279333.12852887.21195533.22134078.0886406-.09281192.0883799.09281192.2085661-.21925512-.124879-.13035382.124879-.13035382-.2979889-.31284916-.30007444.31284916zm-.64134081.41713222.20856611.21925512.12096834-.1264432.12279329.12852886.21117317-.22134078-.21117317-.22134078-.12279329.12852886-.12044693-.12513967zm-.33135941-.41713222-.12279329.12852887.21143389.22134078.0886406-.09281192.08864059.09281192.20856611-.21925512-.12461825-.13035382.12461825-.13035382-.29903166-.31232774-.30007449.31284916zm-.64108007.41713222.20856611.21925512.12070763-.1264432.1227933.12852886.21143389-.22134078-.21195531-.22003725-.12279329.12852887-.12070764-.12644321zm-.3313594-.41713222-.1227933.12852887.21117318.22134078.0886406-.09281192.0886406.09281192.2085661-.21925512-.12487895-.13035382.12487895-.13035382-.29824953-.31284916-.29981378.31284916zm-.64134079.41713222.20856611.21925512.12070764-.1264432.12279329.12852886.21143389-.22134078-.21143389-.22134078-.12279329.1298324-.12070764-.12644321zm-.3313594-.41713222-.1227933.12852887.20986965.22134078.08864059-.09281192.0886406.09281192.20856611-.21925512-.12487896-.13035382.12487896-.13035382-.29798883-.31284916-.30007449.31284916zm-.64134078.41713222.2085661.21925512.12070764-.1264432.1227933.12852886.21143389-.22134078-.21143389-.22134078-.1227933.12852886-.12070764-.1264432zm-.33135941-.41713222-.12279329.12852887.21143389.22134078.08864059-.09281192.0886406.09281192.20856611-.21925512-.12461825-.13035382.12461825-.13035382-.29798883-.31284916-.30007449.31284916zm-.64108007.41713222.20856611.21925512.12070763-.1264432.1227933.12852886.21143389-.22134078-.21143389-.22134078-.1227933.12852886-.12070763-.1264432zm-.33266294-.41713222-.1227933.12852887.21143389.22134078.0886406-.09281192.08864059.09281192.20856611-.21925512-.12487896-.13035382.12487896-.13035382-.29798883-.31284916-.30007448.31284916zm-.64134079.41713222.20856611.21925512.12096834-.1264432.1227933.12852886.21143389-.22134078-.21143389-.22134078-.1227933.12852886-.12096834-.1264432zm-.3313594-.41713222-.12227188.12852887.21143389.22134078.0886406-.09281192.08864059.09281192.20856611-.21925512-.12461825-.13035382.12461825-.13035382-.29798883-.31284916-.29929236.31441341zm-.64108007.41713222.2085661.21925512.12070764-.1264432.12279329.12852886.2114339-.22134078-.2114339-.22134078-.12279329.12852886-.12070764-.1264432zm-.33135941-.41713222-.1227933.12852887.2114339.22134078.08864059-.09281192.08837989.09281192.20856611-.21925512-.12487896-.13035382.12487896-.13035382-.29798883-.31284916-.30007449.31284916zm-.64134078.41713222.20856611.21925512.12096834-.1264432.1227933.12852886.21117318-.22134078-.21117318-.22134078-.1227933.12852886-.12096834-.1264432zm-.33135941-.41713222-.12279329.12852887.21143389.22134078.0886406-.09281192.08864059.09281192.20856611-.21925512-.12461825-.13035382.12461825-.13035382-.29798883-.31284916-.30007448.31284916zm-.64108007.41713222.20856611.21925512.12070763-.1264432.1227933.12852886.21299814-.22003724-.21143389-.22134079-.1227933.12852887-.12070764-.12644321zm-.3313594-.41713222-.1227933.12852887.21117318.22134078.0886406-.09281192.0886406.09281192.2085661-.21925512-.12487895-.13035382.12487895-.13035382-.29824953-.31284916-.29981378.31284916zm-.64134079.41713222.20856611.21925512.12070764-.1264432.12279329.12852886.2114339-.22134078-.2114339-.22134078-.12279329.12852886-.12070764-.1264432zm-.17728119.02575419.05.05.05-.05-.05-.05zm-.06543761.7422905.08864059-.09281192.0886406.09281192.20856611-.21925512-.12487896-.13035382.12487896-.13035382-.20856611-.21899441-.0886406.09281192-.08864059-.09281192-.2114339.22108008.1227933.12852886-.1227933.12852886zm.11543761.0443203-.05.05.05.05.05-.05zm-.11543761.7922905.08864059-.09255121.0886406.09255121.20856611-.21899441-.12487896-.13035382.12487896-.13035382-.20856611-.21925512-.0886406.09281192-.08864059-.09281192-.21091248.22316574.1227933.12852886-.1227933.12852887zm.11543761.0443203-.05.05.05.05.05-.05zm-.11543761.79255121.08864059-.09281192.0886406.09281192.20856611-.21925512-.12487896-.13035382.12487896-.13035382-.20856611-.21925512-.0886406.09281192-.08864059-.09281192-.2114339.22134078.1227933.12852887-.1227933.12852886zm.11543761.0443203-.05.04972973.05.05027027.05-.05027027zm.05.88608938-.05-.05-.05.05.05.05zm.01184358-.0943203.20856611-.21925512-.12487896-.13035381.12487896-.13035382-.20856611-.21925512-.0886406.09281192-.08864059-.09281192-.2114339.22134078.1227933.12852886-.12227188.12983241.21143389.22134078.0886406-.09281192zm.51828678.28964619.21143389-.22108008-.21143389-.22134078-.1227933.12852886-.12070763-.1264432-.20856611.21925512.20856611.21899442.12070763-.12644321zm.66350093.32953445-.12487896-.13035382.12487896-.13035382-.20856611-.21899441-.0886406.09255121-.08864059-.09255121-.21117319.22108007.1227933.12852887-.1227933.12852886.29981378.31284916zm.30893854-.3277095.2114339-.22108007-.2114339-.22134079-.12279329.12852887-.12070764-.1264432-.2085661.21925512.2085661.21899441.12070764-.1264432zm.66350094.3277095-.12461825-.13035382.12461825-.13035382-.20856611-.21899441-.0886406.09255121-.08864059-.09255121-.2114339.22108007.1227933.12852887-.1227933.12852886.30007449.31284916zm.30919925-.3277095.21117319-.22108007-.21117319-.22134079-.1227933.12852887-.12096834-.1264432-.20856611.21925512.20856611.21899441.12096834-.1264432zm.66350093.3277095-.12487896-.13035382.12487896-.13035382-.20856611-.21899441-.08837988.09255121-.0886406-.09255121-.21143389.22108007.12279329.12852887-.12279329.12852886.30007449.31284916zm.30893855-.3277095.21143389-.22108007-.21143389-.22134079-.1227933.12852887-.12070763-.1264432-.20856611.21925512.20856611.21899441.12070763-.1264432zm.66350093.3277095-.12461825-.13035382.12461825-.13035382-.20856611-.21899441-.08864059.09255121-.0886406-.09255121-.21143389.22055866.12279329.12852886-.12279329.12852887.30007449.31284916zm.30998138-.3277095.21143389-.22108007-.21143389-.22134079-.1227933.12852887-.12096834-.1264432-.20856611.21925512.20856611.21899441.12096834-.1264432zm.66350093.3277095-.12487896-.13035382.12487896-.13035382-.20856611-.21899441-.08864059.09255121-.0886406-.09255121-.21143389.22108007.12279329.12852887-.12279329.12852886.30007449.31284916zm.30893855-.3277095.21143389-.22108007-.21143389-.22134079-.1227933.12852887-.12070763-.1264432-.20856611.21925512.20856611.21899441.12070763-.1264432zm.66350093.3277095-.12461825-.13035382.12461825-.13035382-.20856611-.21899441-.0886406.09255121-.08864059-.09255121-.21143389.22108007.12279329.12852887-.12279329.12852886.30007448.31284916zm.30919925-.3277095.2114339-.22108007-.2114339-.22134079-.12279329.12852887-.12070764-.1264432-.20856611.21925512.20856611.21899441.12070764-.1264432zm.66350093.3277095-.12487895-.13035382.12487895-.13035382-.2085661-.21899441-.0886406.09255121-.0886406-.09255121-.21143389.22108007.1227933.12852887-.1227933.12852886.30007449.31284916zm.30893855-.3277095.21143389-.22108007-.21143389-.22134079-.12279329.12852887-.12070764-.1264432-.20856611.21925512.20856611.21899441.12070764-.1264432zm.66376164.3277095-.12487896-.13035382.12487896-.13035382-.20856611-.21899441-.08864059.09255121-.0886406-.09255121-.21117318.22108007.12279329.12852887-.12279329.12852886.29981378.31284916zm.30841713-.3277095.21143389-.22108007-.21143389-.22134079-.12279329.12852887-.12070764-.1264432-.20856611.21925512.20856611.21899441.12070764-.1264432zm.66350093.3277095-.12461825-.13035382.12461825-.13035382-.2085661-.21899441-.08994414.09202979-.08864059-.09255121-.2114339.22108008.1227933.12852886-.1227933.12852887.30007449.31284916zm.30919926-.3277095.21117318-.22108007-.21117318-.22134079-.1227933.12852887-.11992551-.1264432-.20856611.21925512.20856611.21899441.12096834-.1264432zm.53940408.19709497.124879-.13035381-.2085661-.21899442-.0883799.09255121-.0886406-.09255121-.21143391.22108008.12279331.12852886-.12279331.12852886.30007451.31284917.2979888-.31284917zm.4338175-.19709497.2114339-.22108007-.2114339-.22134079-.1227933.12852887-.1207076-.1264432-.2085661.21925512.2085661.21899441.1207076-.1264432zm.663501.3277095-.1246183-.13035382.1246183-.13035382-.2085662-.21899441-.0886406.09255121-.0886405-.09255121-.2114339.22108007.1227933.12852887-.1227933.12852886.3000744.31284916zm.3091992-.3277095.2114339-.22108007-.2114339-.22134079-.1227933.12852887-.1209683-.1264432-.2085661.21925512.2085661.21899441.1209683-.1264432zm.6635009.3277095-.1248789-.13035382.1248789-.13035382-.2085661-.21899441-.0886406.09202979-.0886406-.09255121-.2114339.22108008.1227933.12852886-.1227933.12852887.3000745.31284916zm.3089386-.3277095.2114339-.22108007-.2114339-.22134079-.1227933.12852887-.1207076-.1264432-.2085662.21925512.2085662.21899441.1207076-.1264432zm.6635009.3277095-.1246182-.13035382.1246182-.13035382-.2085661-.21899441-.0886406.09255121-.0886406-.09255121-.2114339.22108007.1227933.12852887-.1227933.12852886.3000745.31284916zm.3091993-.3277095.2114339-.22108007-.2114339-.22134079-.1227933.12852887-.1207077-.1264432-.2085661.21925512.2085661.21899441.1207077-.1264432zm.6668901.32327747-.1209683-.12670391.1209683-.12670391-.212216-.22081937-.0868157.09098696-.0018249-.00182495-.0015643.00182495-.0870763-.09098696-.2111732.22134078.1209684.12670391-.1201863.1261825.2998138.31284916zm.3128492-.32379888.2114339-.22108008-.2114339-.22134078-.1227933.12852886-.1227933-.12852886-.2114339.22134078.2114339.22108008.1227933-.12852887zm.6635009.32770949-.124879-.13035381.124879-.13035382-.2085661-.21899442-.0886406.09255121-.0886406-.09255121-.2114339.22108008.1227933.12852886-.1227933.12852887.3000745.31284916zm.3089385-.32770949.2114339-.22108008-.2114339-.22134078-.1227933.12852886-.1207076-.1264432-.2085661.21925512.2085661.21899441.1207076-.1264432zm.663501.32770949-.1246183-.13035381.1246183-.13035382-.2085661-.21899442-.0886406.09255121-.0886406-.09255121-.2111732.22108008.1225326.12852886-.1225326.12852887.2998138.31284916zm.3091992-.32770949.2114339-.22108008-.2114339-.22134078-.1238361.12905028-.1207076-.1264432-.2085661.21925512.2085661.21899441.1207076-.1264432zm.538622.19709497.124879-.13035382-.2085661-.21899441-.0886406.09255121-.0886406-.09255121-.2114339.22108007.1227933.12852887-.1227933.12852886.3000745.31284916.2979888-.31284916zm.4338175-.19709497.2114339-.22108008-.2114339-.22134078-.1225326.12852886-.1209683-.1264432-.2085661.21925512.2085661.21899441.1209683-.1264432zm.6637616.32770949-.1248789-.13035381.1248789-.13035382-.2085661-.21899442-.0886406.09255121-.0883798-.09255121-.2114339.22108008.1227933.12852886-.1227933.12852887.2998137.31284916zm.3089386-.32770949.2114339-.22108008-.2114339-.22134078-.1227933.12852886-.1212291-.12592178-.2085661.21925512.2085661.21899441.1207077-.1264432zm.6635009.32770949-.1246182-.13035381.1246182-.13035382-.2085661-.21899442-.0886406.09255121-.0886406-.09255121-.2114339.22108008.1227933.12852886-.1227933.12852887.3000745.31284916zm.3091993-.32770949.2114339-.22108008-.2114339-.22134078-.1217505.12905028-.1209683-.1264432-.2085661.21925512.2085661.21899441.1209683-.1264432zm.6635009.32770949-.1248789-.13035381.1248789-.13035382-.2085661-.21899442-.0886406.09255121-.0886406-.09255121-.2114339.22108008.1227933.12852886-.1227933.12852887.3000745.31284916zm.3097207-.32718808.2114339-.22108007-.2114339-.22134079-.1227933.12852887-.1207076-.1264432-.2085662.21925512.2085662.21899441.1207076-.1264432zm.6635009.3277095-.1246182-.13035382.1246182-.13035382-.2085661-.21899441-.0899441.09202979-.0886406-.09255121-.2114339.22108008.1227933.12852886-.1227933.12852887.3000745.31284916zm.3091993-.3277095.2114339-.22108007-.2114339-.22134079-.1227933.12852887-.1207077-.1264432-.2085661.21925512.2085661.21899441.1207077-.1264432zm.5386219.19709497.124879-.13035381-.2085661-.21899442-.0886406.09255121-.0886406-.09255121-.2114339.22108008.1227933.12852886-.1227933.12852886.3000745.31284917.2979888-.31284917zm.4338175-.19709497.2114339-.22108007-.2114339-.22134079-.1227932.12852887-.1207077-.1264432-.2085661.21925512.2085661.21899441.1207077-.1264432zm.6619367.3277095-.1246182-.13035382.1246182-.13035382-.2085661-.21899441-.0886406.09255121-.0886406-.09255121-.2111732.22108007.1225326.12852887-.1225326.12852886.2998138.31284916zm.3091993-.3277095.2114339-.22108007-.2114339-.22134079-.1227933.12852887-.1207076-.1264432-.2085662.21925512.2085662.21899441.1207076-.1264432zm.6635009.3277095-.1248789-.13035382.1248789-.13035382-.2085661-.21899441-.0886406.09255121-.0886406-.09255121-.2114339.22108007.1227933.12852887-.1227933.12852886.3000745.31284916zm.3089386-.3277095.2114339-.22108007-.2114339-.22134079-.1225326.12852887-.1209684-.1264432-.2085661.21925512.2085661.21899441.1209684-.1264432zm.5388826.19709497.124879-.13035381-.2085661-.21899442-.0883799.09255121-.0886406-.09255121-.2114339.22108008.1227933.12852886-.1227933.12852886.3000745.31284917.2979888-.31284917zm.4338176-.19709497.2114338-.22108007-.2114338-.22134079-.1227933.12852887-.1207077-.1264432-.2085661.21925512.2085661.21899441.1207077-.1264432zm.6655865.3277095-.1246182-.13035382.1246182-.13035382-.2085661-.21899441-.0886406.09255121-.0886406-.09255121-.2114338.22108007.1227932.12852887-.1227932.12852886.3000744.31284916zm.3091993-.3277095.2111732-.22108007-.2111732-.22134079-.1227933.12852887-.1209683-.1264432-.2085661.21925512.2085661.21899441.1209683-.1264432zm.538622.19709497.1248789-.13035381-.2085661-.21899442-.0886406.09255121-.0886406-.09255121-.2114339.22108008.1227933.12852886-.1227933.12852886.3000745.31284917.2979889-.31284917zm.6452514-.41713221-.2114339-.22134079-.1227933.12852887-.1207077-.1264432-.2085661.21925512.2085661.21899441.1207077-.1264432.1227933.12852886zm.2308752.02575419-.05-.05-.05.05.05.05zm.0118436-.79405959-.0886406.09281191-.0886406-.09281191-.2114339.22134078.1227933.12852886-.1227933.12852887.2114339.22134078.0886406-.09281192.0886406.09281192.2085661-.21925512-.1246183-.13035382.1246183-.13035382zm-.0618436.00744879.05-.05027027-.05-.04972973-.05.04972973zm.0618436-.84405959-.0886406.09281191-.0886406-.09281191-.2114339.22134078.1227933.12852886-.1227933.12852887.2114339.22134078.0886406-.09281192.0886406.09281192.2085661-.21925512-.1246183-.13035382.1246183-.13035382zm-.0618436.00718808.05-.05-.05-.05-.05.05zm.0618436-.84379889-.0886406.09281192-.0886406-.09281192-.2114339.22134079.1227933.12852886-.1227933.12852887.2114339.22108007.0886406-.09255121.0886406.09255121.2085661-.21899441-.1246183-.13035382.1246183-.13035382zm-.0618436.00718809.05-.05-.05-.05-.05.05zm.1465736-.49471136.1246182-.13035382-.2085661-.21925512-.0886406.09281192-.0886406-.09281192-.2114339.22108007.1227933.12852887-.1227933.12852886.2114339.22134078.0886406-.09281191.0886406.09281191.2085661-.21925512z" fill="#000" fill-rule="nonzero" mask="url(#i)" opacity=".605613"/></g><g fill-rule="nonzero"><path d="m5.4320298 5.43776536v.00053678h-2.41493483c-.0669288.00041886-.13359936-.00835358-.1981378-.02608613-.03753451-.01036948-.07415613-.0237974-.10949721-.04014897l-.57094972-.45459221.28912477.21969463c-.0766655-.10900837-.11781835-.23902226-.11783985-.3722905v-1.71597766c0-.37202979.31728119-.67445065.70729981-.67445065l2.16074488-.48439478.25418995.48439478-.3855866.80819367h-1.89351955v1.4477095l1.97564246-.39106146.30450652.39106146v.19657355z" fill="url(#e)"/><path d="m3.12685289 3.15631285h-.14938548v1.4477095l.14938548-.02945997zm2.1307635-.80819367-.3858473.80819367h.14964618l.38558659-.80819367-.25523277-.48439479-.13374302.02998138zm.17545624 2.21925651-.00104283.87094077-.14052142.00935579v-.88029656l-.17780261-.15288779v-.17124053z" fill="#006eb8"/><g><use fill="url(#f)" xlink:href="#g"/><use fill="#000" filter="url(#h)" xlink:href="#g"/></g></g></g></svg>