<svg width="16" height="16" viewBox="0 0 16 16" fill="none" xmlns="http://www.w3.org/2000/svg">
<path fill-rule="evenodd" clip-rule="evenodd" d="M15 8C15 11.866 11.866 15 8 15C4.13401 15 1 11.866 1 8C1 4.13401 4.13401 1 8 1C11.866 1 15 4.13401 15 8ZM16 8C16 12.4183 12.4183 16 8 16C3.58172 16 0 12.4183 0 8C0 3.58172 3.58172 0 8 0C12.4183 0 16 3.58172 16 8ZM7.37047 10.1804C7.21856 10.3293 7.1426 10.5115 7.1426 10.7273C7.1426 10.9399 7.21856 11.1237 7.37047 11.2787C7.52542 11.4336 7.71075 11.5111 7.92646 11.5111C8.14521 11.5111 8.33054 11.4352 8.48245 11.2832C8.63436 11.1283 8.71031 10.943 8.71031 10.7273C8.71031 10.5115 8.63436 10.3293 8.48245 10.1804C8.33054 10.0285 8.14521 9.95251 7.92646 9.95251C7.71075 9.95251 7.52542 10.0285 7.37047 10.1804ZM7.30211 9.38285H8.55536V8.20707C9.03236 8.10681 9.39542 7.90933 9.64456 7.61462C9.89369 7.31992 10.0183 6.93863 10.0183 6.47074C10.0183 5.8631 9.839 5.38459 9.48049 5.0352C9.12502 4.6858 8.63891 4.51111 8.02216 4.51111C7.39022 4.51111 6.88132 4.68125 6.49547 5.02152C6.11266 5.3618 5.92125 5.81449 5.92125 6.3796V6.52543H7.21096C7.21096 6.51024 7.20944 6.48745 7.20641 6.45707C7.20337 6.42669 7.20185 6.4039 7.20185 6.38871C7.20185 6.10616 7.26565 5.89197 7.39325 5.74613C7.52086 5.6003 7.70467 5.52738 7.94469 5.52738C8.1847 5.52738 8.367 5.60486 8.49156 5.75981C8.61917 5.91475 8.68297 6.13654 8.68297 6.42517C8.68297 6.74114 8.59638 6.98876 8.4232 7.16801C8.25306 7.34422 8.01305 7.43233 7.70315 7.43233H7.30211V9.38285Z" fill="#00A4FF"/>
</svg>
