<svg height='300px' width='300px'  fill="#000000" xmlns="http://www.w3.org/2000/svg" xmlns:xlink="http://www.w3.org/1999/xlink" xml:space="preserve" version="1.1" style="shape-rendering:geometricPrecision;text-rendering:geometricPrecision;image-rendering:optimizeQuality;" viewBox="0 0 846.66 846.66" x="0px" y="0px" fill-rule="evenodd" clip-rule="evenodd"><defs><style type="text/css">

    .fil0 {fill:#fff;fill-rule:nonzero}

  </style></defs><g><path class="fil0" d="M217.26 610.52c-95.7,-122.68 -104.72,-318.5 -88.46,-469.12 149.44,7.67 184.59,1.45 293.69,-102.83 118.04,103.73 139.14,110.85 295.39,102.83 16.22,150.66 7.25,346.41 -88.47,469.12 -52.75,67.64 -127.18,156.23 -205.2,197.57l-1.76 0c-77.99,-41.31 -152.46,-129.95 -205.19,-197.57zm206.07 -414.34l46.16 142.98 150.26 -0.29 -121.73 88.09 46.7 142.81 -121.39 -88.54 -121.38 88.54 46.7 -142.81 -121.72 -88.09 150.25 0.29 46.15 -142.98zm-161.57 379.6c83.67,107.29 138.59,151.71 161.57,167.61 22.99,-15.9 77.91,-60.32 161.59,-167.61 88.73,-113.78 86.06,-305.7 81.74,-375.45 -108.36,3.07 -159.76,-15.82 -242.69,-85.61 -78.44,69.61 -140.34,88.21 -243.98,85.56 -4.31,69.72 -6.98,261.71 81.77,375.5z"></path></g></svg>