<svg enable-background="new 0 0 50 50" viewBox="0 0 50 62.5" xmlns="http://www.w3.org/2000/svg"><path d="m18.75 19.729v6.908h6.469v-6.908c0-.484-.393-.877-.877-.877h-4.715c-.485.001-.877.393-.877.877z"/><path d="m27.792 26.566c3.162-2.667 5.251-4.429 7.708-4.429h1.358v-6.011c0-.484-.393-.877-.877-.877h-8.355c-.484 0-.877.393-.877.877v10.511h.958z"/><path d="m45.303 22.153v-4.424c0-.484-.393-.877-.877-.877h-5.132c-.484 0-.877.393-.877.877v4.408h6.295c.178.003.379.006.591.016z"/><path d="m11.3 19.333h2.625v3.785h-2.625z"/><path d="m11.3 24.187h2.625v2.561h-2.625z"/><path d="m3.759 27.917c-1.807 0 .218 6.182 3.116 9.608.375.111.685.235.953.345.536.219.858.35 1.685.35s1.149-.131 1.684-.35c.675-.274 1.596-.65 3.218-.65 1.625 0 2.546.377 3.218.65.535.219.857.35 1.684.35.826 0 1.148-.131 1.682-.349.674-.275 1.595-.651 3.218-.651 1.622 0 2.543.376 3.215.65.537.219.859.35 1.686.35.828 0 1.151-.131 1.686-.35.672-.273 1.593-.65 3.219-.65 1.625 0 2.546.376 3.22.65.536.219.859.35 1.689.35.257 0 .457-.016.638-.04 3.716-2.643 7.356-8.192 7.356-13.18 0-1.425-.654-1.563-2.214-1.583 0 0-8.345 0-9.211 0-2.088 0-4.158 1.834-7.325 4.5 0 0-5.145 0-10.733 0v-10.464l1.923-2.776c.159-.229.177-.527.048-.775-.129-.246-.386-.401-.665-.401h-7.449v-4.501h-3.958v4.5h-3.49c-.279 0-.535.155-.665.401-.129.248-.111.547.048.775l1.923 2.776v10.464c-.646.001-1.135.001-1.399.001zm32.736-.613c1.312-.398 2.539-.188 2.74.473s-.699 1.52-2.011 1.92c-1.312.398-2.538.188-2.739-.473s.698-1.52 2.01-1.92zm-20.552.613c-3.448 0-6.897 0-9.285 0v-10h9.285zm1.374-12.917-.981 1.417h-10.071l-.981-1.417z"/><path d="m43.84 38.5c-1.374 0-2.098.295-2.737.556-.585.238-1.091.444-2.171.444s-1.586-.206-2.171-.444c-.639-.261-1.363-.556-2.737-.556s-2.097.295-2.736.556c-.585.238-1.09.444-2.169.444-1.078 0-1.583-.206-2.167-.444-.638-.26-1.361-.556-2.734-.556-1.372 0-2.096.296-2.733.556-.584.238-1.089.444-2.167.444-1.079 0-1.583-.206-2.168-.444-.638-.261-1.361-.556-2.734-.556s-2.096.296-2.734.556c-.584.238-1.089.444-2.167.444s-1.583-.206-2.167-.444c-.641-.26-1.365-.556-2.737-.556-.414 0-.75.336-.75.75s.336.75.75.75c1.079 0 1.583.206 2.168.444.638.261 1.361.556 2.734.556s2.096-.296 2.734-.556c.584-.238 1.089-.444 2.167-.444s1.583.206 2.167.444c.639.26 1.362.556 2.735.556 1.372 0 2.096-.296 2.733-.556.585-.238 1.089-.444 2.167-.444s1.583.206 2.167.444c.639.26 1.362.556 2.735.556 1.374 0 2.097-.295 2.736-.556.584-.238 1.09-.444 2.169-.444 1.08 0 1.585.206 2.171.444.639.261 1.363.556 2.738.556s2.099-.295 2.738-.556c.585-.238 1.09-.444 2.17-.444.414 0 .75-.336.75-.75s-.336-.75-.75-.75z"/></svg>