<?xml version="1.0" encoding="utf-8"?>
<!-- Generator: Adobe Illustrator 21.0.0, SVG Export Plug-In . SVG Version: 6.00 Build 0)  -->
<svg version="1.1" id="Layer_1" xmlns="http://www.w3.org/2000/svg" xmlns:xlink="http://www.w3.org/1999/xlink" x="0px" y="0px"
	 viewBox="0 0 144.6 99" style="enable-background:new 0 0 144.6 99;" xml:space="preserve">
<style type="text/css">
	.st0{fill:#3D8FA0;}
</style>
<path class="st0" d="M50.1,62.9c-7.4,0-13.4-6-13.4-13.4s6-13.4,13.4-13.4c2.7,0,5.3,0.8,7.4,2.2l8.2-12.5c-4.5-3-9.8-4.7-15.6-4.7
	c-15.7,0-28.4,12.7-28.4,28.4s12.7,28.4,28.4,28.4c5.8,0,11.1-1.7,15.6-4.7l-8.2-12.5C55.3,62.1,52.8,62.9,50.1,62.9z"/>
<path class="st0" d="M49.5,15h45.6c19,0,34.5,15.5,34.5,34.5S114.2,84,95.2,84H49.6C30.4,84,15,68.6,15,49.5S30.4,15,49.5,15
	 M49.5,0C22.2,0,0,22.2,0,49.5S22.2,99,49.5,99c45.6,0,45.6,0,45.7,0c27.2-0.1,49.4-22.3,49.4-49.5C144.6,22.2,122.4,0,95.1,0
	C95.1,0,95.1,0,49.5,0L49.5,0z"/>
<path class="st0" d="M94.1,35.9c7.4,0,13.4,6,13.4,13.4s-6,13.4-13.4,13.4s-13.4-6-13.4-13.4S86.7,35.9,94.1,35.9 M94.1,20.9
	c-15.7,0-28.4,12.7-28.4,28.4s12.7,28.4,28.4,28.4s28.4-12.7,28.4-28.4S109.8,20.9,94.1,20.9L94.1,20.9z"/>
</svg>
