<svg width="32" height="32" viewBox="0 0 32 32" fill="none" xmlns="http://www.w3.org/2000/svg">
<path d="M21.4187 24C21.4187 24 20.733 23.181 20.1616 22.4572C22.6568 21.7524 23.6092 20.1906 23.6092 20.1906C22.8282 20.7048 22.0854 21.0667 21.4187 21.3143C20.4664 21.7143 19.5521 21.981 18.6569 22.1334C16.8283 22.4762 15.1522 22.381 13.7236 22.1143C12.6379 21.9048 11.7046 21.6 10.9237 21.2953C10.4856 21.1239 10.0094 20.9143 9.53324 20.6477C9.4761 20.6096 9.41896 20.5905 9.36182 20.5524C9.32372 20.5334 9.30468 20.5144 9.28563 20.4953C8.94278 20.3048 8.75231 20.1715 8.75231 20.1715C8.75231 20.1715 9.66657 21.6953 12.0856 22.4191C11.5142 23.1429 10.8094 24 10.8094 24C6.59997 23.8667 5 21.1048 5 21.1048C5 14.9716 7.7428 10.0003 7.7428 10.0003C10.4856 7.94317 13.0951 8.00016 13.0951 8.00016L13.2856 8.22888C9.85705 9.21934 8.27613 10.7241 8.27613 10.7241C8.27613 10.7241 8.69517 10.4955 9.39991 10.1717C11.438 9.27648 13.057 9.02887 13.7236 8.97172C13.8379 8.95268 13.9332 8.93363 14.0474 8.93363C15.2093 8.78125 16.5236 8.74316 17.895 8.89554C19.7045 9.10506 21.6473 9.63838 23.6282 10.7241C23.6282 10.7241 22.1235 9.29553 18.8854 8.30507L19.1521 8.00016C19.1521 8.00016 21.7616 7.94317 24.5044 10.0003C24.5044 10.0003 27.2472 14.9716 27.2472 21.1048C27.2472 21.1048 25.6282 23.8667 21.4187 24ZM12.5618 15.1049C11.4761 15.1049 10.6189 16.0573 10.6189 17.2192C10.6189 18.3811 11.4951 19.3334 12.5618 19.3334C13.6474 19.3334 14.5046 18.3811 14.5046 17.2192C14.5236 16.0573 13.6474 15.1049 12.5618 15.1049ZM19.514 15.1049C18.4283 15.1049 17.5712 16.0573 17.5712 17.2192C17.5712 18.3811 18.4474 19.3334 19.514 19.3334C20.5997 19.3334 21.4568 18.3811 21.4568 17.2192C21.4568 16.0573 20.5997 15.1049 19.514 15.1049Z" fill="white"/>
</svg>
