<svg width="166" height="166" viewBox="0 0 166 166" fill="none" xmlns="http://www.w3.org/2000/svg">
<path d="M159.36 14.94H124.5V1.66C124.5 0.747 123.753 0 122.84 0H111.22C110.307 0 109.56 0.747 109.56 1.66V14.94H56.44V1.66C56.44 0.747 55.693 0 54.78 0H43.16C42.247 0 41.5 0.747 41.5 1.66V14.94H6.64C2.96725 14.94 0 17.9072 0 21.58V159.36C0 163.033 2.96725 166 6.64 166H159.36C163.033 166 166 163.033 166 159.36V21.58C166 17.9072 163.033 14.94 159.36 14.94ZM151.06 151.06H14.94V72.21H151.06V151.06ZM14.94 58.1V29.88H41.5V39.84C41.5 40.753 42.247 41.5 43.16 41.5H54.78C55.693 41.5 56.44 40.753 56.44 39.84V29.88H109.56V39.84C109.56 40.753 110.307 41.5 111.22 41.5H122.84C123.753 41.5 124.5 40.753 124.5 39.84V29.88H151.06V58.1H14.94Z" fill="#37A3C9"/>
<path d="M61.2988 135H70.6588V86.976H54.3868V95.04H61.2988V135Z" fill="#37A3C9"/>
<path d="M101.515 85.68L87.4033 104.544C84.0193 109.008 81.3553 113.688 81.3553 119.52C81.3553 124.92 83.4433 128.592 86.0353 131.184C89.9953 135.144 94.6033 136.08 99.7153 136.08C104.611 136.08 109.291 135.072 113.395 130.608C116.635 127.08 117.787 123.048 117.787 119.016C117.787 113.976 115.771 109.872 113.251 107.496C110.443 104.76 106.195 103.392 102.667 103.392C100.579 103.392 98.8513 103.896 97.4113 104.544L109.075 89.352L101.515 85.68ZM99.5713 128.592C96.6913 128.592 94.6033 127.368 93.3793 126.216C91.5793 124.56 90.7153 122.4 90.7153 119.736C90.7153 117.072 91.5793 115.272 93.3073 113.472C94.8913 111.816 96.7633 110.88 99.5713 110.88C101.947 110.88 103.963 111.456 105.763 113.184C107.419 114.768 108.427 116.928 108.427 119.808C108.427 122.976 106.987 124.992 105.835 126.144C104.611 127.368 102.595 128.592 99.5713 128.592Z" fill="#37A3C9"/>
</svg>
