<svg width="24" height="24" viewBox="0 0 24 24" fill="none" xmlns="http://www.w3.org/2000/svg">
<path fill-rule="evenodd" clip-rule="evenodd" d="M11 3C9.61929 3 8.5 4.11929 8.5 5.5V6C8.5 6.27614 8.72386 6.5 9 6.5C9.27614 6.5 9.5 6.27614 9.5 6V5.5C9.5 4.67157 10.1716 4 11 4H13.5C14.3284 4 15 4.67157 15 5.5V8.5H7C5.89543 8.5 5 9.39543 5 10.5V18.5C5 19.6046 5.89543 20.5 7 20.5H17C18.1046 20.5 19 19.6046 19 18.5V10.5C19 9.39543 18.1046 8.5 17 8.5H16V5.5C16 4.11929 14.8807 3 13.5 3H11ZM7 9.5H17C17.5523 9.5 18 9.94772 18 10.5V18.5C18 19.0523 17.5523 19.5 17 19.5H7C6.44772 19.5 6 19.0523 6 18.5V10.5C6 9.94772 6.44772 9.5 7 9.5Z" fill="white"/>
</svg>
