<svg width="146" height="137" viewBox="0 0 146 137" fill="none" xmlns="http://www.w3.org/2000/svg">
<path d="M86.1385 92.8001L130.426 137L146 121.088L101.713 76.8881L86.1385 92.8001ZM113.597 54.4935C110.718 54.4935 107.618 54.1251 105.182 53.0938L21.1102 136.632L5.5359 121.088L60.2305 66.5748L47.1658 53.4621L41.8514 58.6188L31.1486 48.2318V69.3004L25.9818 74.4571L0 48.2318L5.16684 43.0752H25.908L15.5743 32.6882L41.8514 6.46288C43.8927 4.41463 46.3194 2.78922 48.9922 1.6801C51.665 0.570972 54.5311 0 57.4257 0C60.3203 0 63.1864 0.570972 65.8592 1.6801C68.5319 2.78922 70.9587 4.41463 73 6.46288L63.5 15.5L67.8332 32.6882L62.5925 37.9185L75.8049 51.0311L89.2386 37.1818C88.2053 34.7508 87.7624 31.6568 87.7624 28.9312C87.7331 25.5302 88.3802 22.1572 89.6663 19.0076C90.9524 15.8579 92.8518 12.9943 95.2547 10.5825C97.6575 8.17069 100.516 6.25868 103.664 4.95721C106.813 3.65574 110.189 2.99068 113.597 3.00055C117.951 3.00055 121.79 4.03188 125.259 6.09455L105.551 25.7635L116.623 36.8135L136.331 17.1445C138.397 20.6069 139.431 24.2902 139.431 28.9312C139.431 43.0752 127.99 54.4935 113.597 54.4935Z" fill="#37A3C9"/>
</svg>
