<svg width="24" height="24" viewBox="0 0 24 24" fill="none" xmlns="http://www.w3.org/2000/svg">
<path fill-rule="evenodd" clip-rule="evenodd" d="M15 7C15 8.65685 13.6569 10 12 10C10.3431 10 9 8.65685 9 7C9 5.34315 10.3431 4 12 4C13.6569 4 15 5.34315 15 7ZM16 7C16 9.20914 14.2091 11 12 11C9.79086 11 8 9.20914 8 7C8 4.79086 9.79086 3 12 3C14.2091 3 16 4.79086 16 7ZM5.5 20C5.5 16.4101 8.41015 13.5 12 13.5C15.5899 13.5 18.5 16.4101 18.5 20C18.5 20.2761 18.7239 20.5 19 20.5C19.2761 20.5 19.5 20.2761 19.5 20C19.5 15.8579 16.1421 12.5 12 12.5C7.85786 12.5 4.5 15.8579 4.5 20C4.5 20.2761 4.72386 20.5 5 20.5C5.27614 20.5 5.5 20.2761 5.5 20Z" fill="white"/>
</svg>
