<svg width="20" height="19" viewBox="0 0 20 19" fill="none" xmlns="http://www.w3.org/2000/svg">
<path d="M13.3877 14.4032H18.2052C17.8007 9.06484 15.5023 5.74903 12.5542 3.78774L13.8965 0.858065C13.937 0.765101 13.9539 0.663521 13.9456 0.562433C13.9372 0.461346 13.9039 0.36391 13.8486 0.278865C13.7933 0.19382 13.7178 0.123824 13.6288 0.0751534C13.5398 0.0264829 13.4401 0.000659908 13.3387 0H4.93582C4.83439 0.000659908 4.7347 0.0264829 4.64571 0.0751534C4.55672 0.123824 4.4812 0.19382 4.42592 0.278865C4.37064 0.36391 4.33733 0.461346 4.32898 0.562433C4.32063 0.663521 4.3375 0.765101 4.37807 0.858065L5.11356 2.45161H11.3161L10.7645 3.67742H9.63065C9.97694 4.60857 10.2315 5.57131 10.3907 6.55194C10.4938 7.16023 10.5593 7.77429 10.5868 8.39065L9.6184 9.07097C9.62102 8.2782 9.5554 7.48667 9.42227 6.70516C9.25291 5.66505 8.96076 4.6487 8.55194 3.67742H7.93904C7.37342 4.3921 6.86517 5.15038 6.41904 5.94516C6.05933 6.62692 5.75398 7.33601 5.50582 8.06581L4.66614 7.50806C4.91123 6.8027 5.21252 6.11814 5.56711 5.46097C5.92539 4.84472 6.31827 4.24925 6.74388 3.67742H5.6713L5.72033 3.78161C2.47194 5.94516 0.0019451 9.74516 0.0019451 16.0887C-0.00633717 16.2221 0.0118851 16.3557 0.055559 16.482C0.0992329 16.6082 0.167493 16.7246 0.256395 16.8243C0.345298 16.9241 0.453081 17.0052 0.573517 17.063C0.693953 17.1209 0.824656 17.1543 0.958074 17.1613H5.8613C5.65076 16.9422 5.50539 16.6688 5.44148 16.3717C5.37757 16.0746 5.39763 15.7656 5.49944 15.4793C5.60124 15.1929 5.78075 14.9406 6.01787 14.7506C6.25498 14.5605 6.54033 14.4402 6.84194 14.4032C6.69516 14.1543 6.61692 13.8709 6.61517 13.5819C6.61517 13.143 6.78952 12.7221 7.09986 12.4118C7.4102 12.1014 7.83112 11.9271 8.27001 11.9271H11.9474C12.3863 11.9271 12.8072 12.1014 13.1176 12.4118C13.4279 12.7221 13.6023 13.143 13.6023 13.5819C13.6054 13.8699 13.5313 14.1535 13.3877 14.4032Z" fill="#4FA3D2"/>
<path d="M11.3712 15.9355C11.3712 15.7729 11.3067 15.617 11.1917 15.5021C11.0768 15.3871 10.9209 15.3226 10.7583 15.3226H7.08092C6.91837 15.3226 6.76247 15.3871 6.64753 15.5021C6.53259 15.617 6.46802 15.7729 6.46802 15.9355C6.46802 16.098 6.53259 16.2539 6.64753 16.3689C6.76247 16.4838 6.91837 16.5484 7.08092 16.5484H10.7583C10.9209 16.5484 11.0768 16.4838 11.1917 16.3689C11.3067 16.2539 11.3712 16.098 11.3712 15.9355Z" fill="#4FA3D2"/>
<path d="M11.9475 12.871H8.27013C8.10758 12.871 7.95168 12.9355 7.83674 13.0505C7.7218 13.1654 7.65723 13.3213 7.65723 13.4839C7.65723 13.6464 7.7218 13.8023 7.83674 13.9173C7.95168 14.0322 8.10758 14.0968 8.27013 14.0968H11.9475C12.1101 14.0968 12.266 14.0322 12.3809 13.9173C12.4959 13.8023 12.5605 13.6464 12.5605 13.4839C12.5605 13.3213 12.4959 13.1654 12.3809 13.0505C12.266 12.9355 12.1101 12.871 11.9475 12.871Z" fill="#4FA3D2"/>
<path d="M11.6165 17.7742H7.93908C7.77652 17.7742 7.62063 17.8387 7.50569 17.9537C7.39075 18.0686 7.32617 18.2245 7.32617 18.3871C7.32617 18.5496 7.39075 18.7055 7.50569 18.8205C7.62063 18.9354 7.77652 19 7.93908 19H11.6165C11.779 19 11.9349 18.9354 12.0499 18.8205C12.1648 18.7055 12.2294 18.5496 12.2294 18.3871C12.2294 18.2245 12.1648 18.0686 12.0499 17.9537C11.9349 17.8387 11.779 17.7742 11.6165 17.7742Z" fill="#4FA3D2"/>
<path d="M18.1745 17.7742H13.8841C13.7216 17.7742 13.5657 17.8387 13.4508 17.9537C13.3358 18.0686 13.2712 18.2245 13.2712 18.3871C13.2712 18.5496 13.3358 18.7055 13.4508 18.8205C13.5657 18.9354 13.7216 19 13.8841 19H18.1745C18.337 19 18.4929 18.9354 18.6079 18.8205C18.7228 18.7055 18.7874 18.5496 18.7874 18.3871C18.7874 18.2245 18.7228 18.0686 18.6079 17.9537C18.4929 17.8387 18.337 17.7742 18.1745 17.7742Z" fill="#4FA3D2"/>
<path d="M18.7875 15.3226H14.4972C14.3346 15.3226 14.1787 15.3871 14.0638 15.5021C13.9489 15.617 13.8843 15.7729 13.8843 15.9355C13.8843 16.098 13.9489 16.2539 14.0638 16.3689C14.1787 16.4838 14.3346 16.5484 14.4972 16.5484H18.7875C18.9501 16.5484 19.1059 16.4838 19.2209 16.3689C19.3358 16.2539 19.4004 16.098 19.4004 15.9355C19.4004 15.7729 19.3358 15.617 19.2209 15.5021C19.1059 15.3871 18.9501 15.3226 18.7875 15.3226Z" fill="#4FA3D2"/>
</svg>
