<svg width="22" height="22" viewBox="0 0 22 22" fill="none" xmlns="http://www.w3.org/2000/svg">
<path d="M15 0C12.6 0 10.48 1.21 9.22 3.05C9.23 3.04 9.23 3.03 9.24 3.02C8.84 3 8.42 3 8 3C3.58 3 0 3.5 0 7V17C0 17.88 0.39 18.67 1 19.22V21C1 21.55 1.45 22 2 22H3C3.55 22 4 21.55 4 21V20H12V21C12 21.55 12.45 22 13 22H14C14.55 22 15 21.55 15 21V19.22C15.61 18.67 16 17.88 16 17V13.92C19.39 13.43 22 10.53 22 7C22 3.13 18.87 0 15 0ZM3.5 18C2.67 18 2 17.33 2 16.5C2 15.67 2.67 15 3.5 15C4.33 15 5 15.67 5 16.5C5 17.33 4.33 18 3.5 18ZM2 12V7H8C8 8.96 8.81 10.73 10.11 12H2ZM12.5 18C11.67 18 11 17.33 11 16.5C11 15.67 11.67 15 12.5 15C13.33 15 14 15.67 14 16.5C14 17.33 13.33 18 12.5 18ZM15 12C12.24 12 10 9.76 10 7C10 4.24 12.24 2 15 2C17.76 2 20 4.24 20 7C20 9.76 17.76 12 15 12ZM15.5 3H14V8L17.62 10.16L18.37 8.93L15.5 7.25V3Z" fill="#E4E4E4"/>
</svg>
