<svg width="20" height="21" viewBox="0 0 20 21" fill="none" xmlns="http://www.w3.org/2000/svg">
<g filter="url(#filter0_d)">
<path d="M16 10.0422V8.65457H14.3733L14.3733 7.16235C14.3733 6.05843 13.9162 4.99972 13.1024 4.21913C12.2887 3.43853 11.185 3 10.0342 3C8.88342 3 7.77975 3.43853 6.96601 4.21913C6.15226 4.99972 5.69511 6.05843 5.69511 7.16235V8.65457H4L4 10.0218C4.13188 10.0482 4.25026 10.1174 4.33524 10.2177C4.42021 10.3179 4.4666 10.4432 4.4666 10.5725C4.4666 10.7017 4.42021 10.827 4.33524 10.9273C4.25026 11.0275 4.13188 11.0967 4 11.1231V11.7745C4.13188 11.8009 4.25026 11.8701 4.33524 11.9704C4.42021 12.0706 4.4666 12.1959 4.4666 12.3252C4.4666 12.4544 4.42021 12.5797 4.33524 12.68C4.25026 12.7802 4.13188 12.8494 4 12.8758V13.5272C4.13188 13.5536 4.25026 13.6228 4.33524 13.7231C4.42021 13.8233 4.4666 13.9486 4.4666 14.0779C4.4666 14.2071 4.42021 14.3324 4.33524 14.4327C4.25026 14.533 4.13188 14.6021 4 14.6285L4 16H16V14.6133C15.883 14.5768 15.781 14.5058 15.7087 14.4103C15.6364 14.3149 15.5975 14.1999 15.5975 14.0819C15.5975 13.9639 15.6364 13.8489 15.7087 13.7535C15.781 13.658 15.883 13.587 16 13.5505V12.8589C15.883 12.8224 15.781 12.7514 15.7087 12.6559C15.6364 12.5605 15.5975 12.4455 15.5975 12.3275C15.5975 12.2095 15.6364 12.0945 15.7087 11.9991C15.781 11.9036 15.883 11.8326 16 11.7961V11.1049C15.883 11.0684 15.781 10.9974 15.7087 10.9019C15.6364 10.8065 15.5975 10.6915 15.5975 10.5735C15.5975 10.4555 15.6364 10.3406 15.7087 10.2451C15.781 10.1497 15.883 10.0786 16 10.0422ZM7.30677 7.16193C7.30677 6.46809 7.5941 5.80266 8.10555 5.31204C8.61701 4.82142 9.31069 4.54579 10.034 4.54579C10.7573 4.54579 11.451 4.82142 11.9624 5.31204C12.4739 5.80266 12.7612 6.46809 12.7612 7.16193L12.7612 8.65414L7.30721 8.65414L7.30677 7.16193ZM11.0304 12.0537V13.8216C11.0304 14.0751 10.9254 14.3182 10.7385 14.4974C10.5517 14.6767 10.2982 14.7774 10.034 14.7774C9.76975 14.7774 9.51632 14.6767 9.32947 14.4974C9.14261 14.3182 9.03764 14.0751 9.03764 13.8216V12.0541C8.85901 11.8683 8.74067 11.6367 8.6971 11.3874C8.65354 11.1382 8.68663 10.8822 8.79233 10.6507C8.89803 10.4192 9.07176 10.2223 9.29228 10.084C9.5128 9.9457 9.77054 9.87205 10.034 9.87205C10.2975 9.87205 10.5552 9.9457 10.7757 10.084C10.9962 10.2223 11.17 10.4192 11.2757 10.6507C11.3814 10.8822 11.4145 11.1382 11.3709 11.3874C11.3273 11.6367 11.209 11.8683 11.0304 12.0541V12.0537Z" fill="#A0A0A0"/>
</g>
<defs>
<filter id="filter0_d" x="0" y="0" width="20" height="21" filterUnits="userSpaceOnUse" color-interpolation-filters="sRGB">
<feFlood flood-opacity="0" result="BackgroundImageFix"/>
<feColorMatrix in="SourceAlpha" type="matrix" values="0 0 0 0 0 0 0 0 0 0 0 0 0 0 0 0 0 0 127 0"/>
<feOffset dy="1"/>
<feGaussianBlur stdDeviation="2"/>
<feColorMatrix type="matrix" values="0 0 0 0 0 0 0 0 0 0 0 0 0 0 0 0 0 0 0.25 0"/>
<feBlend mode="normal" in2="BackgroundImageFix" result="effect1_dropShadow"/>
<feBlend mode="normal" in="SourceGraphic" in2="effect1_dropShadow" result="shape"/>
</filter>
</defs>
</svg>
