<svg width="18" height="24" viewBox="0 0 18 24" fill="none" xmlns="http://www.w3.org/2000/svg">
<path d="M11.8509 4.46512C13.0807 4.46512 14.087 3.46047 14.087 2.23256C14.087 1.00465 13.0807 0 11.8509 0C10.6211 0 9.61491 1.00465 9.61491 2.23256C9.61491 3.46047 10.6211 4.46512 11.8509 4.46512ZM7.82609 19.9814L8.9441 15.0698L11.2919 17.3023V24H13.5279V15.6279L11.1801 13.3953L11.8509 10.0465C13.3043 11.7209 15.5404 12.8372 18 12.8372V10.6047C15.8758 10.6047 14.087 9.48837 13.1925 7.92558L12.0745 6.13953C11.6273 5.46977 10.9565 5.02326 10.1739 5.02326C9.83851 5.02326 9.61491 5.13488 9.2795 5.13488L3.46584 7.5907V12.8372H5.70186V9.04186L7.71429 8.26047L5.92547 17.3023L0.447205 16.186L0 18.4186L7.82609 19.9814Z" fill="#E4E4E4"/>
</svg>
