<svg width="18" height="18" viewBox="0 0 18 18" fill="none" xmlns="http://www.w3.org/2000/svg">
<path d="M9 18C7.37109 18 5.86523 17.5986 4.48242 16.7959C3.09961 15.9932 2.00684 14.9004 1.2041 13.5176C0.401367 12.1348 0 10.6289 0 9C0 7.37109 0.401367 5.86523 1.2041 4.48242C2.00684 3.09961 3.09961 2.00684 4.48242 1.2041C5.86523 0.401367 7.37109 0 9 0C10.6289 0 12.1348 0.401367 13.5176 1.2041C14.9004 2.00684 15.9932 3.09961 16.7959 4.48242C17.5986 5.86523 18 7.37109 18 9C18 10.6289 17.5986 12.1348 16.7959 13.5176C15.9932 14.9004 14.9004 15.9932 13.5176 16.7959C12.1348 17.5986 10.6289 18 9 18ZM13.5 7.875H10.125V3.375C10.125 3.05859 10.0137 2.79199 9.79102 2.5752C9.56836 2.3584 9.30176 2.25 8.99121 2.25C8.68066 2.25 8.41699 2.3584 8.2002 2.5752C7.9834 2.79199 7.875 3.05859 7.875 3.375V9C7.875 9.31641 7.9834 9.58301 8.2002 9.7998C8.41699 10.0166 8.68359 10.125 9 10.125H13.5C13.8047 10.125 14.0684 10.0137 14.291 9.79102C14.5137 9.56836 14.625 9.30176 14.625 8.99121C14.625 8.68066 14.5166 8.41699 14.2998 8.2002C14.083 7.9834 13.8164 7.875 13.5 7.875Z" fill="#E4E4E4"/>
</svg>
