<svg width="132" height="96" viewBox="0 0 132 96" fill="none" xmlns="http://www.w3.org/2000/svg">
<g filter="url(#filter0_d)">
<path d="M113.364 43.9664C108.189 42.1042 102.176 43.2457 98.0291 47.3926C93.8823 51.5394 92.7407 57.5527 94.6028 62.7279L74.9092 84.9993H92.3637L103.42 71.5453C108.596 73.4074 114.609 72.2659 118.756 68.119C122.903 63.9722 124.044 57.959 122.182 52.7837L113.259 61.7065L106.904 59.2445L104.442 52.8891L113.364 43.9664Z" fill="#B56E6E"/>
<path d="M47.4258 5C49.327 5 51.1503 5.76623 52.4946 7.13013C53.8389 8.49403 54.5942 10.3439 54.5942 12.2727C54.5942 14.9636 53.1605 17.3273 51.01 18.5636V23.1818H54.5942C61.2482 23.1818 67.6298 25.8636 72.3349 30.6373C77.04 35.4109 79.6833 36.7945 79.6833 43.5455C82.4785 43.5455 86.8517 43.5455 86.8517 43.5455V61.7273C86.8517 61.7273 82.4785 61.7273 79.6833 61.7273V69C79.6833 70.9288 78.9281 72.7787 77.5838 74.1426C76.2395 75.5065 74.4162 76.2727 72.515 76.2727H22.3367C20.4355 76.2727 18.6122 75.5065 17.2679 74.1426C15.9236 72.7787 15.1683 70.9288 15.1683 69V61.7273C12.3698 61.7273 8 61.7273 8 61.7273V43.5455C8 43.5455 12.3698 43.5455 15.1683 43.5455C15.1683 36.7945 17.8116 35.4109 22.5168 30.6373C27.2219 25.8636 33.6034 23.1818 40.2575 23.1818H43.8417V18.5636C41.6912 17.3273 40.2575 14.9636 40.2575 12.2727C40.2575 10.3439 41.0127 8.49403 42.3571 7.13013C43.7014 5.76623 45.5247 5 47.4258 5ZM32.7516 43.5455C30.3752 43.5455 28.0961 44.5032 26.4157 46.2081C24.7353 47.913 23.7912 50.2253 23.7912 52.6364C23.7912 55.0474 24.7353 57.3597 26.4157 59.0646C28.0961 60.7695 30.3752 61.7273 32.7516 61.7273C35.1281 61.7273 37.4072 60.7695 39.0876 59.0646C40.768 57.3597 41.712 55.0474 41.712 52.6364C41.712 50.2253 40.768 47.913 39.0876 46.2081C37.4072 44.5032 35.1281 43.5455 32.7516 43.5455ZM62.1 43.5455C59.7236 43.5455 57.4445 44.5032 55.7641 46.2081C54.0837 47.913 53.1396 50.2253 53.1396 52.6364C53.1396 55.0474 54.0837 57.3597 55.7641 59.0646C57.4445 60.7695 59.7236 61.7273 62.1 61.7273C64.4765 61.7273 66.7556 60.7695 68.436 59.0646C70.1164 57.3597 71.0605 55.0474 71.0605 52.6364C71.0605 50.2253 70.1164 47.913 68.436 46.2081C66.7556 44.5032 64.4765 43.5455 62.1 43.5455Z" fill="black"/>
<rect x="22.5454" y="77.7275" width="49.4545" height="7.27273" fill="black"/>
</g>
<defs>
<filter id="filter0_d" x="0" y="0" width="131.048" height="96.0003" filterUnits="userSpaceOnUse" color-interpolation-filters="sRGB">
<feFlood flood-opacity="0" result="BackgroundImageFix"/>
<feColorMatrix in="SourceAlpha" type="matrix" values="0 0 0 0 0 0 0 0 0 0 0 0 0 0 0 0 0 0 127 0"/>
<feOffset dy="3"/>
<feGaussianBlur stdDeviation="4"/>
<feColorMatrix type="matrix" values="0 0 0 0 0 0 0 0 0 0 0 0 0 0 0 0 0 0 0.35 0"/>
<feBlend mode="normal" in2="BackgroundImageFix" result="effect1_dropShadow"/>
<feBlend mode="normal" in="SourceGraphic" in2="effect1_dropShadow" result="shape"/>
</filter>
</defs>
</svg>
