<svg width="106" height="106" viewBox="0 0 106 106" fill="none" xmlns="http://www.w3.org/2000/svg">
<g filter="url(#filter0_d)">
<path d="M53 95C77.3945 95 98 74.3945 98 50C98 25.6055 77.3945 5 53 5C28.6055 5 8 25.6055 8 50C8 74.3945 28.6055 95 53 95ZM53 14C72.5165 14 89 30.4835 89 50C89 69.5165 72.5165 86 53 86C33.4835 86 17 69.5165 17 50C17 30.4835 33.4835 14 53 14Z" fill="black"/>
<path d="M53 75C57.505 75 65.905 74.16 71.535 68.54L64.465 61.46C62.25 63.675 57.96 65 53 65C44.87 65 38 58.13 38 50C38 41.87 44.87 35 53 35C57.965 35 62.255 36.325 64.465 38.535L71.535 31.465C65.91 25.84 57.505 25 53 25C39.215 25 28 36.215 28 50C28 63.785 39.215 75 53 75Z" fill="#B56E6E"/>
</g>
<defs>
<filter id="filter0_d" x="0" y="0" width="106" height="106" filterUnits="userSpaceOnUse" color-interpolation-filters="sRGB">
<feFlood flood-opacity="0" result="BackgroundImageFix"/>
<feColorMatrix in="SourceAlpha" type="matrix" values="0 0 0 0 0 0 0 0 0 0 0 0 0 0 0 0 0 0 127 0"/>
<feOffset dy="3"/>
<feGaussianBlur stdDeviation="4"/>
<feColorMatrix type="matrix" values="0 0 0 0 0 0 0 0 0 0 0 0 0 0 0 0 0 0 0.35 0"/>
<feBlend mode="normal" in2="BackgroundImageFix" result="effect1_dropShadow"/>
<feBlend mode="normal" in="SourceGraphic" in2="effect1_dropShadow" result="shape"/>
</filter>
</defs>
</svg>
