<svg width="98" height="97" viewBox="0 0 98 97" fill="none" xmlns="http://www.w3.org/2000/svg">
<g filter="url(#filter0_d)">
<path d="M38.8004 33.0409C46.5693 33.0409 52.7938 26.7784 52.7938 19.0204C52.7938 11.2625 46.5693 5 38.8004 5C31.0314 5 24.7601 11.2625 24.7601 19.0204C24.7601 26.7784 31.0314 33.0409 38.8004 33.0409ZM56.0941 43.5174C43.8911 37.4246 33.7097 37.4246 21.5067 43.5174C13.3081 47.611 8.12793 55.9873 8.12793 65.1511V85.6003H69.4728V65.1511C69.4728 55.9873 64.2927 47.611 56.0941 43.5174Z" fill="#B56E6E"/>
<path d="M75.898 85.6003H89.8725V65.1511C89.8725 55.9873 84.6924 47.611 76.4938 43.5174C71.1245 40.8366 66.1466 39.3353 61.2157 39.0136C70.2807 44.5333 75.898 54.4153 75.898 65.1511V85.6003Z" fill="black"/>
<path d="M54.4199 32.2111C55.9112 32.7482 57.5206 33.0409 59.2001 33.0409C66.969 33.0409 73.1936 26.7784 73.1936 19.0204C73.1936 11.2625 66.969 5 59.2001 5C57.5206 5 55.9112 5.29266 54.4199 5.82981C57.4184 9.39094 59.219 13.9947 59.219 19.0204C59.219 24.0462 57.4184 28.6499 54.4199 32.2111Z" fill="black"/>
</g>
<defs>
<filter id="filter0_d" x="0.12793" y="0" width="97.7446" height="96.6003" filterUnits="userSpaceOnUse" color-interpolation-filters="sRGB">
<feFlood flood-opacity="0" result="BackgroundImageFix"/>
<feColorMatrix in="SourceAlpha" type="matrix" values="0 0 0 0 0 0 0 0 0 0 0 0 0 0 0 0 0 0 127 0"/>
<feOffset dy="3"/>
<feGaussianBlur stdDeviation="4"/>
<feColorMatrix type="matrix" values="0 0 0 0 0 0 0 0 0 0 0 0 0 0 0 0 0 0 0.35 0"/>
<feBlend mode="normal" in2="BackgroundImageFix" result="effect1_dropShadow"/>
<feBlend mode="normal" in="SourceGraphic" in2="effect1_dropShadow" result="shape"/>
</filter>
</defs>
</svg>
