<svg width="118" height="96" viewBox="0 0 118 96" fill="none" xmlns="http://www.w3.org/2000/svg">
<g filter="url(#filter0_d)">
<path d="M49.1772 26.9783C50.5016 19.3444 52.824 11.8551 56.4754 5C70.3861 17.9128 90.4477 23.9751 109.166 20.6968C107.935 31.4924 104.54 42.1201 98.5945 51.2649C94.2996 57.8775 88.6243 63.8419 81.4335 67.2741C76.8681 69.4798 71.6079 70.254 66.6414 69.1021C68.3155 64.7699 69.2109 60.1812 69.556 55.5598C72.0835 56.3712 74.6717 57.206 76.8215 58.8195C78.4303 59.9247 79.5775 61.5802 81.2376 62.6201C81.4102 58.1106 78.8267 53.6852 74.9235 51.4607C73.3146 50.4208 71.4073 50.1224 69.6026 49.6094C69.2296 44.1906 68.3902 38.7718 66.716 33.5909C69.6866 33.5163 72.9229 32.1686 74.1307 29.2633C71.0109 29.4358 67.686 29.5431 64.874 27.9529C63.2698 24.7679 62.0807 21.2797 59.9962 18.3838C58.7977 18.934 58.0143 20.1372 56.9883 20.9579C54.5914 23.2196 51.8726 25.0943 49.1772 26.9783ZM81.7366 31.8934C81.578 33.6375 81.9977 35.4515 83.0377 36.8738C85.7564 41.0335 92.1545 42.0968 96.067 39.047C97.8298 37.7645 99.0142 35.6008 98.6179 33.381C96.4121 35.0878 93.6701 36.1324 90.8487 35.8666C87.3839 35.8013 84.474 33.7774 81.7366 31.8934Z" fill="#B56E6E"/>
<path d="M8 37.7835C26.4621 40.5581 46.0481 34.1227 59.3712 21.0654C64.319 30.2895 67.4574 40.5488 67.8725 51.0366C68.1569 57.6632 67.2662 64.4344 64.762 70.6086C62.5516 75.9435 58.793 80.9239 53.4115 83.3395C48.7995 85.494 43.39 85.438 38.6241 83.8292C33.4105 82.0758 28.8544 78.7695 25.0165 74.8896C15.3168 64.9427 9.71144 51.4563 8 37.7835ZM50.9539 39.6721C47.3072 40.5768 43.7258 44.3494 44.7284 48.2853C46.0807 47.4972 47.1673 46.3034 48.6083 45.6458C52.0125 43.8551 56.4613 43.5613 59.7769 45.7158C60.2339 45.907 60.677 46.4153 61.2179 46.2008C61.3112 44.2235 60.1687 42.3768 58.6671 41.169C56.5546 39.4016 53.57 39.0892 50.9539 39.6721ZM21.8687 51.1159C20.5117 53.3963 20.4324 56.6186 22.2931 58.6472C23.1465 56.2642 24.4522 53.9372 26.6626 52.5709C29.6052 50.4631 33.3452 50.2765 36.8287 50.4118C35.4857 48.0474 32.9022 46.4339 30.1601 46.4806C26.8072 46.3174 23.5615 48.2713 21.8687 51.1159ZM53.9524 64.9893C50.8933 67.7733 46.7756 69.0044 42.7791 69.6806C39.6687 70.1936 36.5349 69.6946 33.4198 69.634C37.6914 75.5704 47.0041 76.629 52.6607 72.1149C55.7618 69.7226 57.5479 65.8241 57.4359 61.9209C56.0276 62.639 55.1323 63.9867 53.9524 64.9893Z" fill="black"/>
</g>
<defs>
<filter id="filter0_d" x="0" y="0" width="117.166" height="96.0003" filterUnits="userSpaceOnUse" color-interpolation-filters="sRGB">
<feFlood flood-opacity="0" result="BackgroundImageFix"/>
<feColorMatrix in="SourceAlpha" type="matrix" values="0 0 0 0 0 0 0 0 0 0 0 0 0 0 0 0 0 0 127 0"/>
<feOffset dy="3"/>
<feGaussianBlur stdDeviation="4"/>
<feColorMatrix type="matrix" values="0 0 0 0 0 0 0 0 0 0 0 0 0 0 0 0 0 0 0.35 0"/>
<feBlend mode="normal" in2="BackgroundImageFix" result="effect1_dropShadow"/>
<feBlend mode="normal" in="SourceGraphic" in2="effect1_dropShadow" result="shape"/>
</filter>
</defs>
</svg>
