<svg width="104" height="82" viewBox="0 0 104 82" fill="none" xmlns="http://www.w3.org/2000/svg">
<g filter="url(#filter0_d)">
<path d="M18.2276 62.2122C18.6783 64.6909 19.8895 66.7752 21.8611 68.4652C23.8328 70.1552 26.058 71.0002 28.5366 71.0002H74.8428C77.3215 71.0002 79.5466 70.1552 81.5183 68.4652C83.49 66.7752 84.7011 64.6909 85.1518 62.2122L94.9538 17.5961C95.1792 16.5821 95.0102 15.6244 94.4468 14.723C93.8835 13.8217 93.0948 13.3147 92.0808 13.202C91.0668 12.9767 90.1092 13.1457 89.2078 13.709C88.3065 14.2724 87.7995 15.061 87.6868 16.075L84.8138 30.2711C84.7011 30.0458 84.4476 29.7923 84.0533 29.5106C83.659 29.2289 83.3491 28.9754 83.1238 28.7501C80.4198 25.5954 77.1525 24.0181 73.3218 24.0181C69.4911 24.0181 66.2238 25.5954 63.5198 28.7501C61.9424 30.4401 60.4214 31.2851 58.9567 31.2851C57.4921 31.2851 55.9147 30.4401 54.2247 28.7501C51.5207 25.5954 48.2534 24.0181 44.4227 24.0181C40.4794 24.0181 37.2683 25.5954 34.7897 28.7501C33.0997 30.4401 31.5223 31.2851 30.0577 31.2851C28.593 31.2851 27.0156 30.4401 25.3256 28.7501C23.0723 26.2714 20.4246 24.6941 17.3826 24.0181L15.6926 16.075C15.4673 15.1737 14.9039 14.4414 14.0026 13.878C13.1013 13.3147 12.1999 13.0894 11.2986 13.202C10.3973 13.3147 9.63675 13.8499 9.01708 14.8075C8.39742 15.7652 8.20025 16.6947 8.42558 17.5961L18.2276 62.2122ZM20.2556 33.8201C22.9596 36.9748 26.227 38.5521 30.0577 38.5521C33.8883 38.5521 37.1557 36.9748 39.8597 33.8201C41.437 32.1301 42.958 31.2851 44.4227 31.2851C45.8874 31.2851 47.4647 32.1301 49.1547 33.8201C52.3094 36.9748 55.5767 38.5521 58.9567 38.5521C62.9001 38.5521 66.1111 36.9748 68.5898 33.8201C70.2798 32.1301 71.8571 31.2851 73.3218 31.2851C74.7865 31.2851 76.3638 32.1301 78.0538 33.8201C79.9691 35.7354 81.7718 37.0311 83.4618 37.7071L78.3918 60.8602C78.0538 62.7755 76.8708 63.7332 74.8428 63.7332H28.5366C26.5086 63.7332 25.3256 62.7755 24.9876 60.8602L19.2416 32.8061L20.2556 33.8201Z" fill="black"/>
<path d="M51.6119 36.1716L29.2643 56.5263L24.5464 50.8497L46.4751 30.8765L24.5464 10.743L29.245 5.04652L51.6319 25.6007L74.2496 5L78.9674 10.6766L56.7686 30.8958L78.7447 51.0728L74.0462 56.7693L51.6119 36.1716Z" fill="#B56E6E"/>
</g>
<defs>
<filter id="filter0_d" x="0.335449" y="0" width="102.715" height="82.0002" filterUnits="userSpaceOnUse" color-interpolation-filters="sRGB">
<feFlood flood-opacity="0" result="BackgroundImageFix"/>
<feColorMatrix in="SourceAlpha" type="matrix" values="0 0 0 0 0 0 0 0 0 0 0 0 0 0 0 0 0 0 127 0"/>
<feOffset dy="3"/>
<feGaussianBlur stdDeviation="4"/>
<feColorMatrix type="matrix" values="0 0 0 0 0 0 0 0 0 0 0 0 0 0 0 0 0 0 0.35 0"/>
<feBlend mode="normal" in2="BackgroundImageFix" result="effect1_dropShadow"/>
<feBlend mode="normal" in="SourceGraphic" in2="effect1_dropShadow" result="shape"/>
</filter>
</defs>
</svg>
