<svg width="106" height="106" viewBox="0 0 106 106" fill="none" xmlns="http://www.w3.org/2000/svg">
<g filter="url(#filter0_d)">
<path d="M48.6029 5V14.1037C28.7989 16.5373 14.7692 34.5193 17.2053 54.304C19.2804 70.7086 32.1823 83.7331 48.6029 85.671V94.6845C23.7915 92.2058 5.74694 70.2128 8.22807 45.4256C10.2581 24.0185 27.2651 7.11818 48.6029 5ZM57.6252 5.1352C66.4219 5.99149 74.8127 9.37156 81.6696 15.0501L75.2187 21.7201C70.1662 17.664 64.0761 15.0501 57.6252 14.1487V5.1352ZM88.0304 21.4046C93.6708 28.2429 97.142 36.6063 98 45.4256H88.9777C88.1206 39.026 85.5943 32.9419 81.5794 27.8493L88.0304 21.4046ZM97.9549 54.4392C97.0527 63.2724 93.5791 71.6099 87.9852 78.4602L81.5794 72.0155C85.5631 66.9211 88.1027 60.8505 88.9326 54.4392H97.9549ZM75.2187 78.6405L81.6696 84.8147C74.8362 90.5054 66.4703 94.0492 57.6252 95V85.9865C64.0428 85.1574 70.1193 82.6202 75.2187 78.6405Z" fill="#B56E6E"/>
<path d="M30.5 65.7504L50.3611 45.7866C48.5115 41.0996 49.5491 35.6013 53.4287 31.7706C57.4887 27.6694 63.5788 26.8582 68.4959 29.1116L59.7443 37.8547L65.8344 43.9839L74.8116 35.1957C77.2476 40.1081 76.1198 46.1922 72.15 50.2934C68.2704 54.1692 62.7668 55.1607 58.0752 53.358L38.15 73.4004L30.5 65.7504Z" fill="black"/>
</g>
<defs>
<filter id="filter0_d" x="0" y="0" width="106" height="106" filterUnits="userSpaceOnUse" color-interpolation-filters="sRGB">
<feFlood flood-opacity="0" result="BackgroundImageFix"/>
<feColorMatrix in="SourceAlpha" type="matrix" values="0 0 0 0 0 0 0 0 0 0 0 0 0 0 0 0 0 0 127 0"/>
<feOffset dy="3"/>
<feGaussianBlur stdDeviation="4"/>
<feColorMatrix type="matrix" values="0 0 0 0 0 0 0 0 0 0 0 0 0 0 0 0 0 0 0.35 0"/>
<feBlend mode="normal" in2="BackgroundImageFix" result="effect1_dropShadow"/>
<feBlend mode="normal" in="SourceGraphic" in2="effect1_dropShadow" result="shape"/>
</filter>
</defs>
</svg>
