<svg width="116" height="108" viewBox="0 0 116 108" fill="none" xmlns="http://www.w3.org/2000/svg">
<g filter="url(#filter0_d)">
<path d="M58.7353 47.9447C70.4014 47.9447 79.7484 38.5408 79.7484 26.8911C79.7484 15.2414 70.4014 5.8374 58.7353 5.8374C47.0691 5.8374 37.6519 15.2414 37.6519 26.8911C37.6519 38.5408 47.0691 47.9447 58.7353 47.9447ZM84.7042 63.6767C66.3797 54.5274 51.0909 54.5274 32.7664 63.6767C20.455 69.8237 12.6763 82.402 12.6763 96.1627H104.794C104.794 82.402 97.0156 69.8237 84.7042 63.6767Z" fill="black"/>
<path d="M27.5602 21.7705C27.2509 21.196 26.1019 19.4726 23.1853 19.4726C21.4619 19.4726 19.5617 20.0028 17.9267 21.7263C15.9823 23.759 15.4962 26.1453 15.4962 28.3106C15.4962 30.1666 15.8498 31.9342 17.3522 33.4809C18.5012 34.674 19.9153 35.2485 21.7713 35.2485C22.7434 35.2485 25.4391 35.1159 27.1625 32.4203C27.295 32.9064 27.516 33.5251 28.1789 34.0554C28.7975 34.5856 29.5929 34.895 30.5651 34.895C31.3164 34.895 32.9956 34.7624 34.6748 33.1274C36.6634 31.2272 37.8565 28.0013 37.8565 24.5986C37.8565 20.5773 36.3983 17.6608 34.1887 15.4954C31.007 12.3579 27.1183 11.6951 24.025 11.6951C19.7827 11.6951 15.9823 12.8882 12.8006 15.9815C10.3702 18.3236 8.3374 21.903 8.3374 27.0291C8.3374 30.9179 9.75149 34.9834 12.4471 37.8115C15.8498 41.391 20.313 42.1864 24.4227 42.1864C27.0741 42.1864 29.9023 41.8771 33.084 40.7723L32.2444 37.4138C30.5651 38.0325 27.7811 38.8721 24.2901 38.8721C21.6387 38.8721 18.5012 38.5186 15.7614 36.0881C13.4193 33.967 11.961 30.6527 11.961 27.2059C11.961 24.1567 13.1541 20.7983 15.452 18.4562C17.3964 16.4676 20.4014 15.0093 23.9808 15.0093C27.4276 15.0093 30.3442 16.3351 32.0234 18.1027C33.4817 19.6051 34.5864 22.0356 34.5864 24.8638C34.5864 26.7198 33.8352 29.8573 32.2444 31.2272C31.8466 31.5807 31.2722 31.89 30.8303 31.89C30.4767 31.89 30.2558 31.8017 30.079 31.6249C29.7697 31.3598 29.6813 30.7853 29.6813 30.3876C29.6813 29.9899 29.7697 29.2386 29.8581 28.8851L31.6257 19.9145H27.9137L27.5602 21.7705ZM22.6993 31.4923C21.8154 31.4923 21.1084 31.183 20.6223 30.6969C20.092 30.1666 19.6943 29.327 19.6943 28.1339C19.6943 26.8082 20.2246 25.3057 21.241 24.3335C21.9038 23.6706 22.6993 23.3171 23.7156 23.3171C24.2459 23.3171 24.9972 23.4055 25.6158 23.98C26.1903 24.5103 26.588 25.4383 26.588 26.6756C26.588 28.0013 26.0577 29.5038 25.0855 30.476C24.3343 31.2272 23.5389 31.4923 22.6993 31.4923Z" fill="#B56E6E"/>
<path d="M60.145 28.399L60.8079 24.3335H65.2711L66.0223 19.4726H61.5591L62.7964 11.9602H57.1401L55.9027 19.4726H51.9698L53.2071 11.9602H47.5508L46.3134 19.4726H41.8944L41.1432 24.3335H45.5622L44.8994 28.399H40.4803L39.6849 33.3041H44.1481L42.8224 41.4351H48.4788L49.8045 33.3041H53.7374L52.4117 41.4351H58.0681L59.3938 33.3041H63.9012L64.6524 28.399H60.145ZM54.4887 28.399H50.5557L51.2186 24.3335H55.1515L54.4887 28.399Z" fill="#B56E6E"/>
<path d="M75.2408 31.9342V11.9602H68.7007V31.9342H75.2408ZM67.9494 38.1209C67.9494 40.3746 69.7171 42.1422 71.9708 42.1422C74.2245 42.1422 75.9921 40.3746 75.9921 38.1209C75.9921 35.8672 74.2245 34.0996 71.9708 34.0996C69.7171 34.0996 67.9494 35.8672 67.9494 38.1209Z" fill="#B56E6E"/>
<path d="M78.5693 41.4351H86.7445L93.2846 31.2272L99.8248 41.4351H108L97.1734 25.7918L106.321 11.9602H98.1456L93.2846 20.3564L88.4237 11.9602H80.2485L89.3959 25.7918L78.5693 41.4351Z" fill="#B56E6E"/>
</g>
<defs>
<filter id="filter0_d" x="0.337402" y="0.837402" width="115.663" height="106.325" filterUnits="userSpaceOnUse" color-interpolation-filters="sRGB">
<feFlood flood-opacity="0" result="BackgroundImageFix"/>
<feColorMatrix in="SourceAlpha" type="matrix" values="0 0 0 0 0 0 0 0 0 0 0 0 0 0 0 0 0 0 127 0"/>
<feOffset dy="3"/>
<feGaussianBlur stdDeviation="4"/>
<feColorMatrix type="matrix" values="0 0 0 0 0 0 0 0 0 0 0 0 0 0 0 0 0 0 0.35 0"/>
<feBlend mode="normal" in2="BackgroundImageFix" result="effect1_dropShadow"/>
<feBlend mode="normal" in="SourceGraphic" in2="effect1_dropShadow" result="shape"/>
</filter>
</defs>
</svg>
