<svg width="106" height="106" viewBox="0 0 106 106" fill="none" xmlns="http://www.w3.org/2000/svg">
<g filter="url(#filter0_d)">
<path d="M28.7848 62.089L30.2415 63.5121L28.5358 65.1815L27.0818 63.7558L26 64.8146L39.3699 77.9L40.4517 76.8438L38.9468 75.3684L40.6498 73.7016L42.1574 75.1744L68.3 49.5854L54.9301 36.5L28.7848 62.089Z" fill="black"/>
<path d="M74.4641 29.4769C68.5406 23.5072 57.8787 32.961 57.8787 32.961L56.6001 34.2496L69.5494 47.3L70.828 46.0114C70.828 46.0114 80.3876 35.4467 74.4641 29.4769Z" fill="black"/>
<path fill-rule="evenodd" clip-rule="evenodd" d="M98 50C98 74.8528 77.8528 95 53 95C28.1472 95 8 74.8528 8 50C8 25.1472 28.1472 5 53 5C77.8528 5 98 25.1472 98 50ZM72.6921 77.9653C67.1245 81.893 60.3317 84.2 53 84.2C34.1119 84.2 18.8 68.8881 18.8 50C18.8 42.6684 21.107 35.8755 25.0347 30.3079L72.6921 77.9653ZM80.9653 69.6921L33.3079 22.0347C38.8755 18.107 45.6683 15.8 53 15.8C71.8881 15.8 87.2 31.1119 87.2 50C87.2 57.3317 84.893 64.1245 80.9653 69.6921Z" fill="#B56E6E"/>
</g>
<defs>
<filter id="filter0_d" x="0" y="0" width="106" height="106" filterUnits="userSpaceOnUse" color-interpolation-filters="sRGB">
<feFlood flood-opacity="0" result="BackgroundImageFix"/>
<feColorMatrix in="SourceAlpha" type="matrix" values="0 0 0 0 0 0 0 0 0 0 0 0 0 0 0 0 0 0 127 0"/>
<feOffset dy="3"/>
<feGaussianBlur stdDeviation="4"/>
<feColorMatrix type="matrix" values="0 0 0 0 0 0 0 0 0 0 0 0 0 0 0 0 0 0 0.35 0"/>
<feBlend mode="normal" in2="BackgroundImageFix" result="effect1_dropShadow"/>
<feBlend mode="normal" in="SourceGraphic" in2="effect1_dropShadow" result="shape"/>
</filter>
</defs>
</svg>
