<svg width="124" height="81" viewBox="0 0 124 81" fill="none" xmlns="http://www.w3.org/2000/svg">
<g filter="url(#filter0_d)">
<path d="M116 32.4V23H106.6V30.05H99.55V37.1H92.5L87.189 42.411C85.8965 42.0115 84.5335 41.8 83.1 41.8C79.3604 41.8 75.7741 43.2855 73.1298 45.9298C70.4855 48.5741 69 52.1604 69 55.9C69 59.6396 70.4855 63.2259 73.1298 65.8702C75.7741 68.5145 79.3604 70 83.1 70C86.8396 70 90.4259 68.5145 93.0702 65.8702C95.7145 63.2259 97.2 59.6396 97.2 55.9C97.2 54.4665 96.9885 53.1035 96.589 51.811L116 32.4ZM80.75 62.95C79.5035 62.95 78.308 62.4548 77.4266 61.5734C76.5452 60.692 76.05 59.4965 76.05 58.25C76.05 57.0035 76.5452 55.808 77.4266 54.9266C78.308 54.0452 79.5035 53.55 80.75 53.55C81.9965 53.55 83.192 54.0452 84.0734 54.9266C84.9548 55.808 85.45 57.0035 85.45 58.25C85.45 59.4965 84.9548 60.692 84.0734 61.5734C83.192 62.4548 81.9965 62.95 80.75 62.95Z" fill="#B56E6E"/>
<path d="M47.028 6.26534L12.5468 36.376C10.0279 38.5756 8.41778 41.5824 8.07054 44.735C7.7233 47.8876 8.66742 50.9278 10.6952 53.1867L21.651 65.3039C23.7175 67.6058 29.7248 70.0082 32.9737 70H69.2669C69.2669 66.1429 66.8896 63.2187 63.0662 62.4084C57.7598 61.2838 50.9724 59.8545 50.9724 59.8545L79.2933 35.1234C80.2388 34.2977 80.8432 33.169 80.9735 31.9856C81.1039 30.8022 80.7495 29.661 79.9883 28.8131C79.2271 27.9651 78.1215 27.4799 76.9147 27.4642C75.7079 27.4484 74.4987 27.9035 73.5532 28.7291L56.8973 43.2739L54.9916 41.151L77.5798 21.4259C78.5253 20.6002 79.1297 19.4715 79.26 18.2881C79.3904 17.1047 79.036 15.9635 78.2748 15.1156C76.6676 13.3252 73.8077 13.3132 71.8397 15.0317L49.2515 34.7568L47.3229 32.6083L67.5439 14.9503C69.5118 13.2319 69.8461 10.4304 68.2389 8.64004C67.4778 7.79212 66.3722 7.30691 65.1653 7.29117C63.9585 7.27543 62.7494 7.73043 61.8038 8.5561L41.5828 26.2141L39.6771 24.0912L52.768 12.6596C53.7136 11.8339 54.318 10.7052 54.4483 9.52181C54.5787 8.3384 54.2243 7.1972 53.4631 6.34927C52.7019 5.50134 51.5963 5.01614 50.3895 5.0004C49.1827 4.98465 47.9735 5.43967 47.028 6.26534Z" fill="black"/>
</g>
<defs>
<filter id="filter0_d" x="0" y="0" width="124" height="81" filterUnits="userSpaceOnUse" color-interpolation-filters="sRGB">
<feFlood flood-opacity="0" result="BackgroundImageFix"/>
<feColorMatrix in="SourceAlpha" type="matrix" values="0 0 0 0 0 0 0 0 0 0 0 0 0 0 0 0 0 0 127 0"/>
<feOffset dy="3"/>
<feGaussianBlur stdDeviation="4"/>
<feColorMatrix type="matrix" values="0 0 0 0 0 0 0 0 0 0 0 0 0 0 0 0 0 0 0.35 0"/>
<feBlend mode="normal" in2="BackgroundImageFix" result="effect1_dropShadow"/>
<feBlend mode="normal" in="SourceGraphic" in2="effect1_dropShadow" result="shape"/>
</filter>
</defs>
</svg>
