<svg width="85" height="105" viewBox="0 0 85 105" fill="none" xmlns="http://www.w3.org/2000/svg">
<g filter="url(#filter0_d)">
<path d="M42.5225 35.8241C51.0626 35.8241 57.9049 28.94 57.9049 20.412C57.9049 11.884 51.0626 5 42.5225 5C33.9825 5 27.0887 11.884 27.0887 20.412C27.0887 28.94 33.9825 35.8241 42.5225 35.8241ZM61.5327 47.3405C48.1185 40.6429 36.9265 40.6429 23.5124 47.3405C14.5 51.8403 8.80566 61.0481 8.80566 71.1214V93.6003H76.2394V71.1214C76.2394 61.0481 70.5451 51.8403 61.5327 47.3405Z" fill="#B56E6E"/>
<path d="M69.0104 45.2564V34.6532H58.4071V42.6056H50.4547V50.5581H42.5023L36.5114 56.5489C35.0535 56.0983 33.516 55.8597 31.899 55.8597C27.6808 55.8597 23.6353 57.5354 20.6526 60.5181C17.6698 63.5009 15.9941 67.5463 15.9941 71.7646C15.9941 75.9828 17.6698 80.0283 20.6526 83.011C23.6353 85.9937 27.6808 87.6694 31.899 87.6694C36.1173 87.6694 40.1627 85.9937 43.1455 83.011C46.1282 80.0283 47.8039 75.9828 47.8039 71.7646C47.8039 70.1476 47.5653 68.6101 47.1147 67.1521L69.0104 45.2564ZM29.2482 79.717C27.8421 79.717 26.4936 79.1584 25.4994 78.1642C24.5051 77.1699 23.9466 75.8215 23.9466 74.4154C23.9466 73.0093 24.5051 71.6608 25.4994 70.6666C26.4936 69.6723 27.8421 69.1137 29.2482 69.1137C30.6543 69.1137 32.0028 69.6723 32.997 70.6666C33.9913 71.6608 34.5498 73.0093 34.5498 74.4154C34.5498 75.8215 33.9913 77.1699 32.997 78.1642C32.0028 79.1584 30.6543 79.717 29.2482 79.717Z" fill="black"/>
</g>
<defs>
<filter id="filter0_d" x="0.805664" y="0" width="83.4337" height="104.6" filterUnits="userSpaceOnUse" color-interpolation-filters="sRGB">
<feFlood flood-opacity="0" result="BackgroundImageFix"/>
<feColorMatrix in="SourceAlpha" type="matrix" values="0 0 0 0 0 0 0 0 0 0 0 0 0 0 0 0 0 0 127 0"/>
<feOffset dy="3"/>
<feGaussianBlur stdDeviation="4"/>
<feColorMatrix type="matrix" values="0 0 0 0 0 0 0 0 0 0 0 0 0 0 0 0 0 0 0.35 0"/>
<feBlend mode="normal" in2="BackgroundImageFix" result="effect1_dropShadow"/>
<feBlend mode="normal" in="SourceGraphic" in2="effect1_dropShadow" result="shape"/>
</filter>
</defs>
</svg>
