<svg width="128" height="96" viewBox="0 0 128 96" fill="none" xmlns="http://www.w3.org/2000/svg">
<g filter="url(#filter0_d)">
<path fill-rule="evenodd" clip-rule="evenodd" d="M32.7462 56.6733C32.7462 56.6733 32.7462 56.6733 32.7462 56.6733L30.0064 56.5131M32.7462 56.6733C36.3752 58.1553 44.9229 60.3183 63.7967 60.3183C92.4199 60.3183 97.2986 55.3354 97.2986 55.3354C97.2986 55.3354 97.8434 56.5291 97.8434 59.9017C97.8434 73.1519 88.9352 85.0001 84.3289 85.0001C80.3863 85.0001 77.4649 82.2125 73.475 78.4053C72.8033 77.7644 72.1013 77.0946 71.3591 76.4043C67.5539 72.8715 63.8047 73.1519 63.8047 73.1519C63.8047 73.1519 60.0556 72.8715 56.2504 76.4043C55.5186 77.0859 54.8258 77.7476 54.1624 78.3811C50.1629 82.2007 47.2316 85.0001 43.2806 85.0001C38.6743 85.0001 29.7661 73.1438 29.7661 59.9017C29.7661 58.3316 29.8783 57.2341 30.0064 56.5131C30.0064 56.5131 30.0064 56.5131 30.0064 56.5131M70.3657 66.7831C69.7409 66.7831 69.1801 67.1436 68.9238 67.7124C68.6754 68.2652 68.5553 68.9141 69.1561 69.2105C69.6899 69.4767 70.2565 69.7741 70.8468 70.0839C73.9504 71.7129 77.7104 73.6864 80.8201 73.296C84.5211 72.8314 85.8349 68.9541 85.8349 64.0754C83.4717 66.5348 73.4099 66.7671 70.3657 66.7831ZM58.6697 67.7124C58.4134 67.1436 57.8446 66.7831 57.2277 66.7831C54.1916 66.7671 44.1218 66.5348 41.7666 64.0674C41.7666 68.9541 43.0804 72.8234 46.7814 73.288C49.8864 73.6787 53.654 71.7023 56.7605 70.0726C57.3488 69.764 57.9135 69.4678 58.4454 69.2024C59.0382 68.914 58.918 68.2652 58.6697 67.7124Z" fill="#B56E6E"/>
<path d="M45.0588 39.778C50.4021 41.1719 73.1853 40.9957 90.7133 36.9501C95.7442 35.7885 119.601 43.6874 119.601 49.4953C119.601 55.3033 108.137 53.6771 93.7334 52.0508C79.3217 50.4246 76.0693 52.2831 62.1302 55.3033C55.7294 56.6892 43.785 57.2419 32.7459 56.6732L30.0061 56.5129C18.1419 55.6798 8 53.4688 8 49.5033C8 41.6045 33.3307 36.0289 33.3307 36.0289C33.3307 36.0289 35.1892 26.2715 38.4417 17.844C41.6942 9.41642 51.2192 8.60731 55.1686 10.9305C59.118 13.2537 67.9461 13.9506 70.9663 9.30427C73.9864 4.6579 80.7236 2.56704 86.0669 9.30427C91.4103 16.0415 93.7334 30.6775 93.7334 30.6775C93.7334 30.6775 85.2498 35.0916 74.3469 33.7778C69.7967 33.225 49.1283 29.9005 45.0588 39.778Z" fill="black"/>
</g>
<defs>
<filter id="filter0_d" x="0" y="0" width="127.601" height="96.0001" filterUnits="userSpaceOnUse" color-interpolation-filters="sRGB">
<feFlood flood-opacity="0" result="BackgroundImageFix"/>
<feColorMatrix in="SourceAlpha" type="matrix" values="0 0 0 0 0 0 0 0 0 0 0 0 0 0 0 0 0 0 127 0"/>
<feOffset dy="3"/>
<feGaussianBlur stdDeviation="4"/>
<feColorMatrix type="matrix" values="0 0 0 0 0 0 0 0 0 0 0 0 0 0 0 0 0 0 0.35 0"/>
<feBlend mode="normal" in2="BackgroundImageFix" result="effect1_dropShadow"/>
<feBlend mode="normal" in="SourceGraphic" in2="effect1_dropShadow" result="shape"/>
</filter>
</defs>
</svg>
