<svg width="123" height="96" viewBox="0 0 123 96" fill="none" xmlns="http://www.w3.org/2000/svg">
<g filter="url(#filter0_d)">
<path d="M12.421 69.7998H58.7682V73.8823H12.421V69.7998ZM63.1433 78.3148C63.0226 77.6427 62.6485 77.032 62.0875 76.5912C61.5264 76.1505 60.8148 75.9081 60.079 75.9073H11.121C10.3849 75.9071 9.67272 76.1491 9.11146 76.5901C8.5502 77.031 8.17638 77.6423 8.0567 78.3148H8V84.9998H63.2V78.3148H63.1433Z" fill="black"/>
<path d="M30.0422 40.9806L25.6001 45.8579L53.0735 60.6448L54.6978 54.2509L30.0422 40.9806Z" fill="#A6EEC3"/>
<path d="M45.9665 11.3939L47.5908 5L75.0642 19.7868L70.6221 24.6641L45.9665 11.3939Z" fill="#A6EEC3"/>
<path d="M45.2198 12.7813L30.8005 39.5717L55.5558 52.8956L69.9751 26.1052L45.2198 12.7813Z" fill="#A6EEC3"/>
<path d="M66.4214 36.6888L62.236 44.3275L104.404 66.9058C104.214 68.0809 104.52 69.2411 105.6 69.8C108.067 71.1319 111.121 70.2789 112.418 67.9133L113.79 65.3817C115.089 62.9999 114.146 60.0144 111.671 58.6826C110.6 58.1159 109.463 58.4833 108.581 59.2706L66.4214 36.6888Z" fill="#A6EEC3"/>
</g>
<defs>
<filter id="filter0_d" x="0" y="0" width="122.373" height="95.9998" filterUnits="userSpaceOnUse" color-interpolation-filters="sRGB">
<feFlood flood-opacity="0" result="BackgroundImageFix"/>
<feColorMatrix in="SourceAlpha" type="matrix" values="0 0 0 0 0 0 0 0 0 0 0 0 0 0 0 0 0 0 127 0"/>
<feOffset dy="3"/>
<feGaussianBlur stdDeviation="4"/>
<feColorMatrix type="matrix" values="0 0 0 0 0 0 0 0 0 0 0 0 0 0 0 0 0 0 0.35 0"/>
<feBlend mode="normal" in2="BackgroundImageFix" result="effect1_dropShadow"/>
<feBlend mode="normal" in="SourceGraphic" in2="effect1_dropShadow" result="shape"/>
</filter>
</defs>
</svg>
