<svg width="135" height="86" viewBox="0 0 135 86" fill="none" xmlns="http://www.w3.org/2000/svg">
<g filter="url(#filter0_d)">
<path d="M77.2929 5V13.6869H8V5H77.2929ZM77.2929 20.2525V28.9394H8V20.2525H77.2929ZM77.2929 35.5051V44.1919H8V35.5051H77.2929ZM77.2929 50.7576V59.4444H8V50.7576H77.2929Z" fill="black"/>
<path d="M39.1111 75V65.9596H8V75H39.1111Z" fill="black"/>
<path d="M51.4849 74.9999V65.9595H42.8232V74.9999H51.4849Z" fill="#A6EEC3"/>
<path d="M64.2121 74.9999V65.9595H55.5505V74.9999H64.2121Z" fill="#A6EEC3"/>
<path d="M77.2929 74.9999V65.9595H68.6313V74.9999H77.2929Z" fill="#A6EEC3"/>
<path d="M126.087 41.5539C127.022 40.6195 127.022 39.0622 126.087 38.1757L120.481 32.5694C119.595 31.6351 118.037 31.6351 117.103 32.5694L112.694 36.9538L121.679 45.9383L126.087 41.5539ZM83.6567 66.0155V75H92.6412L119.139 48.4779L110.155 39.4934L83.6567 66.0155Z" fill="#A6EEC3"/>
</g>
<defs>
<filter id="filter0_d" x="0" y="0" width="134.788" height="86" filterUnits="userSpaceOnUse" color-interpolation-filters="sRGB">
<feFlood flood-opacity="0" result="BackgroundImageFix"/>
<feColorMatrix in="SourceAlpha" type="matrix" values="0 0 0 0 0 0 0 0 0 0 0 0 0 0 0 0 0 0 127 0"/>
<feOffset dy="3"/>
<feGaussianBlur stdDeviation="4"/>
<feColorMatrix type="matrix" values="0 0 0 0 0 0 0 0 0 0 0 0 0 0 0 0 0 0 0.35 0"/>
<feBlend mode="normal" in2="BackgroundImageFix" result="effect1_dropShadow"/>
<feBlend mode="normal" in="SourceGraphic" in2="effect1_dropShadow" result="shape"/>
</filter>
</defs>
</svg>
