<svg width="132" height="96" viewBox="0 0 132 96" fill="none" xmlns="http://www.w3.org/2000/svg">
<g filter="url(#filter0_d)">
<path d="M50.578 9.21525L12.7309 42.9375C10.1218 45.2623 9.89056 49.2746 12.2153 51.8837L37.507 80.2691C39.8317 82.8782 43.8441 83.1094 46.4532 80.7847L84.3003 47.0624C86.9094 44.7377 87.1406 40.7253 84.8159 38.1162L59.5242 9.73086C57.1995 7.12177 53.1871 6.89052 50.578 9.21525ZM16.9462 47.6684L54.7933 13.9461L59.0086 18.677L21.1615 52.3993L16.9462 47.6684ZM42.2379 76.0538L29.592 61.8611L67.4415 28.1367L80.0898 42.3273L42.2379 76.0538Z" fill="black"/>
<path d="M38.5381 62.3765L52.7308 49.7306L56.946 54.4615L42.7534 67.1074L38.5381 62.3765Z" fill="black"/>
<path d="M54.7919 39.3628L78.919 41.0687L70.6329 31.3204C75.465 26.4885 82.8053 22.7855 89.6418 22.7855C96.4784 22.7855 102.901 25.4467 107.738 30.2786C112.57 35.1105 115.231 41.5375 115.231 48.3739C115.231 55.2102 112.57 61.6329 107.738 66.4691C102.906 71.3011 96.4784 73.9623 89.6418 73.9623C85.9925 73.9729 82.3836 73.1979 79.0603 71.6901C75.737 70.1823 72.7772 67.977 70.3818 65.2238L63.9632 70.8405C68.4702 75.9922 74.4225 79.6692 81.0468 81.3937C87.671 83.1181 94.6608 82.8103 101.108 80.5101C107.555 78.21 113.161 74.0239 117.197 68.4959C121.234 62.9679 123.514 56.3535 123.742 49.5125C123.97 42.6714 122.135 35.92 118.476 30.1356C114.816 24.3511 109.501 19.8011 103.221 17.0769C96.9419 14.3527 90.2738 12.9763 83.5495 14.256C76.8251 15.5356 68.649 18.9252 63.8091 23.7655L54.7919 14.0171V39.3628Z" fill="#A6D0EE"/>
</g>
<defs>
<filter id="filter0_d" x="0" y="0" width="131.761" height="96" filterUnits="userSpaceOnUse" color-interpolation-filters="sRGB">
<feFlood flood-opacity="0" result="BackgroundImageFix"/>
<feColorMatrix in="SourceAlpha" type="matrix" values="0 0 0 0 0 0 0 0 0 0 0 0 0 0 0 0 0 0 127 0"/>
<feOffset dy="3"/>
<feGaussianBlur stdDeviation="4"/>
<feColorMatrix type="matrix" values="0 0 0 0 0 0 0 0 0 0 0 0 0 0 0 0 0 0 0.35 0"/>
<feBlend mode="normal" in2="BackgroundImageFix" result="effect1_dropShadow"/>
<feBlend mode="normal" in="SourceGraphic" in2="effect1_dropShadow" result="shape"/>
</filter>
</defs>
</svg>
