<svg width="122" height="96" viewBox="0 0 122 96" fill="none" xmlns="http://www.w3.org/2000/svg">
<g filter="url(#filter0_d)">
<path fill-rule="evenodd" clip-rule="evenodd" d="M85.1277 36.9732H68.041L59.9837 11.3012L51.9264 36.9732H35.8894L39.141 9.62766C39.3652 8.33227 40.0404 7.15756 41.0475 6.31086C42.0547 5.46415 43.329 4.99989 44.6457 5H76.3715C77.6881 4.99989 78.9624 5.46415 79.9696 6.31086C80.9767 7.15756 81.652 8.33227 81.8761 9.62766L85.1277 36.9732ZM64.8908 66.3368L81.0776 78.5122L73.0204 52.8396L80.7017 47.0619H103.866C105.181 47.063 106.455 47.5277 107.461 48.3741C108.467 49.2204 109.141 50.3941 109.365 51.6882L112.979 82.0722C113.043 82.431 113.026 82.7993 112.931 83.1512C112.837 83.5031 112.666 83.83 112.431 84.109C112.197 84.388 111.903 84.6123 111.573 84.7663C111.242 84.9202 110.881 85 110.516 85H65.482C65.118 84.9997 64.7585 84.9201 64.4285 84.7668C64.0986 84.6135 63.8061 84.3902 63.5715 84.1125C63.3369 83.8347 63.1659 83.5092 63.0704 83.1587C62.9749 82.8081 62.9572 82.441 63.0185 82.0829L64.8908 66.3368ZM39.2657 47.0619L46.947 52.8396L38.8898 78.5122L56.0391 65.6128L57.9967 82.0722C58.0598 82.431 58.0434 82.7993 57.9487 83.1512C57.854 83.5031 57.6833 83.83 57.4486 84.109C57.2139 84.388 56.9208 84.6123 56.59 84.7663C56.2591 84.9202 55.8985 85 55.5335 85H10.5044C10.14 85.0005 9.77989 84.9215 9.44929 84.7685C9.1187 84.6156 8.82558 84.3924 8.59044 84.1145C8.3553 83.8367 8.18382 83.5109 8.08801 83.16C7.9922 82.809 7.97436 82.4415 8.03575 82.0829L11.6549 51.6882C11.879 50.3932 12.5542 49.2188 13.5613 48.3723C14.5685 47.5259 15.8428 47.0618 17.1593 47.0619H39.2657Z" fill="black"/>
<path d="M60.0002 25.7998L64.9105 41.6894H80.8002L67.945 51.5099L72.8553 67.3998L60.0002 57.5793L47.1451 67.3998L52.0553 51.5099L39.2002 41.6894H55.0899L60.0002 25.7998Z" fill="#A6D0EE"/>
</g>
<defs>
<filter id="filter0_d" x="0" y="0" width="121.017" height="96" filterUnits="userSpaceOnUse" color-interpolation-filters="sRGB">
<feFlood flood-opacity="0" result="BackgroundImageFix"/>
<feColorMatrix in="SourceAlpha" type="matrix" values="0 0 0 0 0 0 0 0 0 0 0 0 0 0 0 0 0 0 127 0"/>
<feOffset dy="3"/>
<feGaussianBlur stdDeviation="4"/>
<feColorMatrix type="matrix" values="0 0 0 0 0 0 0 0 0 0 0 0 0 0 0 0 0 0 0.35 0"/>
<feBlend mode="normal" in2="BackgroundImageFix" result="effect1_dropShadow"/>
<feBlend mode="normal" in="SourceGraphic" in2="effect1_dropShadow" result="shape"/>
</filter>
</defs>
</svg>
