<svg width="91" height="96" viewBox="0 0 91 96" fill="none" xmlns="http://www.w3.org/2000/svg">
<g filter="url(#filter0_d)">
<path d="M29.2503 46.2397V50.6532C27.3713 50.9591 25.6234 51.8768 24.4435 53.0566C22.9141 54.5861 21.9527 56.9457 21.9527 59.5239C21.9527 61.4903 22.5645 62.9324 23.9191 64.3307C25.2301 65.6416 26.8032 66.3845 28.3326 66.9963L29.8621 67.608C31.4352 68.2198 32.1781 68.4383 32.8772 68.919C33.7075 69.4871 34.1882 70.2299 34.1882 71.2787C34.1882 72.3274 33.7075 73.0266 33.1394 73.5073C32.2655 74.2501 31.173 74.4249 30.2117 74.4249C28.5511 74.4249 27.2839 73.9442 26.1477 73.2451C24.7057 72.3711 23.657 71.3224 23.3074 70.9728L20.0737 75.7796C21.2099 77.0031 22.5208 77.9645 24.0065 78.751C25.8419 79.7124 27.5024 80.1056 29.2503 80.193V84.9998H33.1831V80.0183C35.368 79.6687 37.2033 78.6636 38.4706 77.309C39.8689 75.8233 40.874 73.551 40.874 70.798C40.874 68.7005 40.2622 66.9089 38.8201 65.4231C37.684 64.287 36.1983 63.5878 34.7125 62.9324L32.2655 61.8836C31.0856 61.3592 30.0369 61.0533 29.3377 60.4416C28.8133 60.0046 28.5074 59.4802 28.5074 58.7374C28.5074 57.9945 28.9007 57.339 29.3814 56.902C29.9495 56.3777 30.9108 56.0718 32.1344 56.0718C33.9697 56.0718 35.5865 56.9457 36.8974 58.1256L39.8252 53.4499C37.1159 51.1776 34.4504 50.7406 33.1831 50.6532V46.2397H29.2503Z" fill="black"/>
<path d="M58.7032 25.7869C63.1027 26.0994 67.2052 27.9391 70.3918 31.0597C73.9478 34.5419 75.9353 39.1999 75.9873 44.1746C76.0372 49.1515 74.1498 53.8479 70.6674 57.404C67.1851 60.96 62.5271 62.9476 57.5524 62.9998L57.4494 53.1514L44.415 66.4617L57.725 79.4957L57.6151 69.2061C62.5981 69.1541 67.4503 67.6044 71.5412 64.7586C75.632 61.9127 78.7722 57.9022 80.5538 53.2482C82.3355 48.5942 82.676 43.512 81.5313 38.662C80.3866 33.812 77.8095 29.4185 74.135 26.0525C70.4605 22.6864 65.8584 20.5035 60.9269 19.7873C60.1872 19.6799 59.4452 19.6062 58.7032 19.5659V25.7869Z" fill="#A6D0EE"/>
<path d="M28.603 39.6754H9.08549C8.92755 39.6756 8.77148 39.6413 8.62818 39.575C8.48489 39.5087 8.35784 39.412 8.25592 39.2916C8.154 39.1711 8.07968 39.0299 8.03815 38.8778C7.99662 38.7257 7.98889 38.5664 8.01549 38.411L9.5842 25.2367C9.68133 24.6754 9.97398 24.1664 10.4105 23.7995C10.847 23.4326 11.3994 23.2314 11.97 23.2314H25.7208C26.291 23.2319 26.8428 23.4334 27.2788 23.8002C27.7149 24.1671 28.0072 24.6758 28.1042 25.2367L29.6706 38.4063C29.6979 38.5619 29.6908 38.7215 29.6498 38.874C29.6087 39.0265 29.5348 39.1682 29.433 39.2892C29.3313 39.4101 29.2042 39.5073 29.0608 39.5741C28.9174 39.6408 28.7612 39.6754 28.603 39.6754Z" fill="black"/>
<path d="M52.4344 39.6754H32.9148C32.7571 39.6752 32.6012 39.6407 32.4582 39.5743C32.3152 39.5079 32.1884 39.4111 32.0867 39.2907C31.9851 39.1703 31.9109 39.0292 31.8695 38.8773C31.8281 38.7253 31.8205 38.5662 31.847 38.411L33.4136 25.2367C33.5107 24.6754 33.8034 24.1664 34.24 23.7995C34.6765 23.4326 35.2289 23.2314 35.7997 23.2314H49.5519C50.1222 23.2319 50.674 23.4334 51.1101 23.8002C51.5462 24.1671 51.8385 24.6758 51.9356 25.2367L53.5022 38.4063C53.5295 38.5619 53.5224 38.7215 53.4813 38.874C53.4403 39.0265 53.3663 39.1682 53.2645 39.2892C53.1628 39.4101 53.0357 39.5073 52.8923 39.5741C52.7489 39.6408 52.5926 39.6754 52.4344 39.6754Z" fill="black"/>
<path d="M40.5174 21.4439H20.9992C20.8415 21.4438 20.6856 21.4093 20.5426 21.3428C20.3996 21.2764 20.2729 21.1795 20.1712 21.0591C20.0695 20.9387 19.9954 20.7976 19.954 20.6456C19.9126 20.4936 19.9049 20.3344 19.9315 20.1792L21.4979 7.00581C21.5951 6.44434 21.8877 5.93517 22.3243 5.56818C22.7608 5.20118 23.3132 4.99995 23.8838 5H37.6351C38.2058 4.99995 38.7581 5.20118 39.1947 5.56818C39.6312 5.93517 39.9239 6.44434 40.021 7.00581L41.5874 20.1792C41.614 20.3346 41.6063 20.494 41.5648 20.6461C41.5232 20.7983 41.4489 20.9395 41.347 21.06C41.2451 21.1805 41.118 21.2773 40.9747 21.3436C40.8314 21.4099 40.6753 21.4441 40.5174 21.4439Z" fill="black"/>
</g>
<defs>
<filter id="filter0_d" x="0" y="0" width="90.1955" height="95.9998" filterUnits="userSpaceOnUse" color-interpolation-filters="sRGB">
<feFlood flood-opacity="0" result="BackgroundImageFix"/>
<feColorMatrix in="SourceAlpha" type="matrix" values="0 0 0 0 0 0 0 0 0 0 0 0 0 0 0 0 0 0 127 0"/>
<feOffset dy="3"/>
<feGaussianBlur stdDeviation="4"/>
<feColorMatrix type="matrix" values="0 0 0 0 0 0 0 0 0 0 0 0 0 0 0 0 0 0 0.35 0"/>
<feBlend mode="normal" in2="BackgroundImageFix" result="effect1_dropShadow"/>
<feBlend mode="normal" in="SourceGraphic" in2="effect1_dropShadow" result="shape"/>
</filter>
</defs>
</svg>
