<svg width="117" height="96" viewBox="0 0 117 96" fill="none" xmlns="http://www.w3.org/2000/svg">
<g filter="url(#filter0_d)">
<path d="M79.7217 13.8467L82.6306 23.0186H92.0439L84.4283 28.6872L87.3372 37.8593L79.7217 32.1906L72.1061 37.8593L75.015 28.6872L67.3994 23.0186H76.8127L79.7217 13.8467Z" fill="#F4E661"/>
<path d="M31.7108 44.3698C37.7164 44.3698 42.5281 39.5287 42.5281 33.5316C42.5281 27.5344 37.7164 22.6934 31.7108 22.6934C25.7051 22.6934 20.8572 27.5344 20.8572 33.5316C20.8572 39.5287 25.7051 44.3698 31.7108 44.3698ZM45.0793 52.4685C35.646 47.7585 27.7755 47.7585 18.3422 52.4685C12.0044 55.6329 8 62.1081 8 69.192V84.9999H55.4215V69.192C55.4215 62.1081 51.4171 55.6329 45.0793 52.4685Z" fill="#F4E661"/>
<path d="M57.2893 41.7506H102.787V10.6539H57.2893V41.7506ZM82.8816 47.4045V53.0584H94.256V58.7124H65.8201V53.0584H77.1945V47.4045H54.423C54.0496 47.4023 53.6803 47.3268 53.3363 47.1824C52.9923 47.0381 52.6803 46.8276 52.4183 46.5632C52.1562 46.2987 51.9492 45.9854 51.8092 45.6413C51.6691 45.2972 51.5988 44.9289 51.6022 44.5577V7.84675C51.6022 6.27496 52.896 5 54.423 5H105.653C107.211 5 108.474 6.26931 108.474 7.84675V44.5577C108.474 46.1295 107.18 47.4045 105.653 47.4045H82.8816Z" fill="black"/>
</g>
<defs>
<filter id="filter0_d" x="0" y="0" width="116.474" height="95.9999" filterUnits="userSpaceOnUse" color-interpolation-filters="sRGB">
<feFlood flood-opacity="0" result="BackgroundImageFix"/>
<feColorMatrix in="SourceAlpha" type="matrix" values="0 0 0 0 0 0 0 0 0 0 0 0 0 0 0 0 0 0 127 0"/>
<feOffset dy="3"/>
<feGaussianBlur stdDeviation="4"/>
<feColorMatrix type="matrix" values="0 0 0 0 0 0 0 0 0 0 0 0 0 0 0 0 0 0 0.35 0"/>
<feBlend mode="normal" in2="BackgroundImageFix" result="effect1_dropShadow"/>
<feBlend mode="normal" in="SourceGraphic" in2="effect1_dropShadow" result="shape"/>
</filter>
</defs>
</svg>
