<svg width="126" height="96" viewBox="0 0 126 96" fill="none" xmlns="http://www.w3.org/2000/svg">
<g filter="url(#filter0_d)">
<path d="M38.2329 35.208H44.6655V57.722H38.2329V35.208ZM38.2329 64.1546H44.6655V70.5871H38.2329V64.1546Z" fill="#F4E661"/>
<path fill-rule="evenodd" clip-rule="evenodd" d="M74.2554 47.9596V55.4531L65.169 58.7255L62.9447 63.8951L67.2986 72.4793L61.9508 77.8386L53.243 73.665L47.9899 75.7992L45.0084 85H37.4837L34.2182 75.8941L29.0598 73.7599L20.4939 78.0757L15.1461 72.7165L19.3107 63.9899L17.1811 58.8204L8 55.7851V48.2442L17.0865 45.0191L19.2161 39.8496L14.9095 31.2653L20.2573 25.9061L28.9651 30.0797L34.2182 27.9455L37.1997 18.7446H44.7718L48.0372 27.8506L53.1957 29.9848L61.7615 25.669L67.1093 31.0282L62.9447 39.7548L65.0743 44.9243L74.2554 47.9596ZM36.3033 65.2854C30.8307 63.3115 26.9301 58.0705 26.9301 51.8961C26.9301 45.7216 30.8307 40.4806 36.3033 38.5067V33.2778H46.5954V38.7567C51.7278 40.8976 55.3253 45.9664 55.3253 51.8961C55.3253 57.8257 51.7278 62.8945 46.5954 65.0354V72.5165H36.3033V65.2854Z" fill="black"/>
<path fill-rule="evenodd" clip-rule="evenodd" d="M117.452 33.7385L115.668 38.8466L108.695 38.9137L105.948 41.908L106.872 48.7963L101.95 51.1762L97.008 46.2577L92.919 46.4617L88.6957 52.0237L83.5663 50.2319L83.5087 43.2471L80.5005 40.5639L73.6337 41.4662L71.2644 36.5396L76.1813 31.5827L75.9605 27.5517L70.4248 23.2964L72.2204 18.156L79.1823 18.1212L81.865 15.1044L80.9733 8.22731L85.8949 5.84747L90.837 10.766L94.926 10.562L99.1493 5L104.311 6.80303L104.369 13.7878L107.377 16.471L114.244 15.5687L116.613 20.4953L111.696 25.4523L111.917 29.4833L117.452 33.7385ZM94.1964 35.2079C97.749 35.2079 100.629 32.328 100.629 28.7754C100.629 25.2228 97.749 22.3428 94.1964 22.3428C90.6438 22.3428 87.7638 25.2228 87.7638 28.7754C87.7638 32.328 90.6438 35.2079 94.1964 35.2079Z" fill="#F4E661"/>
</g>
<defs>
<filter id="filter0_d" x="0" y="0" width="125.452" height="96" filterUnits="userSpaceOnUse" color-interpolation-filters="sRGB">
<feFlood flood-opacity="0" result="BackgroundImageFix"/>
<feColorMatrix in="SourceAlpha" type="matrix" values="0 0 0 0 0 0 0 0 0 0 0 0 0 0 0 0 0 0 127 0"/>
<feOffset dy="3"/>
<feGaussianBlur stdDeviation="4"/>
<feColorMatrix type="matrix" values="0 0 0 0 0 0 0 0 0 0 0 0 0 0 0 0 0 0 0.35 0"/>
<feBlend mode="normal" in2="BackgroundImageFix" result="effect1_dropShadow"/>
<feBlend mode="normal" in="SourceGraphic" in2="effect1_dropShadow" result="shape"/>
</filter>
</defs>
</svg>
