<svg width="103" height="96" viewBox="0 0 103 96" fill="none" xmlns="http://www.w3.org/2000/svg">
<g filter="url(#filter0_d)">
<path d="M38.444 32.832C46.1551 32.832 52.3332 26.6162 52.3332 18.916C52.3332 11.2158 46.1551 5 38.444 5C30.7329 5 24.5083 11.2158 24.5083 18.916C24.5083 26.6162 30.7329 32.832 38.444 32.832ZM55.6089 43.2305C43.4968 37.1831 33.3912 37.1831 21.2791 43.2305C13.1416 47.2936 8 55.6076 8 64.7031V85H68.888V64.7031C68.888 55.6076 63.7464 47.2936 55.6089 43.2305Z" fill="black"/>
<path d="M79.3994 5H94.0038V55.5991H79.3994V5ZM79.3994 70.056H94.0038V84.5129H79.3994V70.056Z" fill="#F4E661"/>
</g>
<defs>
<filter id="filter0_d" x="0" y="0" width="102.004" height="96" filterUnits="userSpaceOnUse" color-interpolation-filters="sRGB">
<feFlood flood-opacity="0" result="BackgroundImageFix"/>
<feColorMatrix in="SourceAlpha" type="matrix" values="0 0 0 0 0 0 0 0 0 0 0 0 0 0 0 0 0 0 127 0"/>
<feOffset dy="3"/>
<feGaussianBlur stdDeviation="4"/>
<feColorMatrix type="matrix" values="0 0 0 0 0 0 0 0 0 0 0 0 0 0 0 0 0 0 0.35 0"/>
<feBlend mode="normal" in2="BackgroundImageFix" result="effect1_dropShadow"/>
<feBlend mode="normal" in="SourceGraphic" in2="effect1_dropShadow" result="shape"/>
</filter>
</defs>
</svg>
