<svg width="114" height="114" viewBox="0 0 114 114" fill="none" xmlns="http://www.w3.org/2000/svg">
<g filter="url(#filter0_d)">
<path d="M91.643 19.357L84.734 26.266C92.0772 33.628 96.2007 43.6019 96.2 54C96.2 75.658 78.658 93.2 57 93.2C35.342 93.2 17.8 75.658 17.8 54C17.8 34.008 32.745 17.544 52.1 15.143V25.041C38.184 27.393 27.6 39.447 27.6 54C27.6 70.219 40.781 83.4 57 83.4C73.219 83.4 86.4 70.219 86.4 54C86.4 45.866 83.117 38.516 77.776 33.224L70.867 40.133C74.395 43.71 76.6 48.61 76.6 54C76.6 64.829 67.829 73.6 57 73.6C46.171 73.6 37.4 64.829 37.4 54C37.4 44.886 43.672 37.291 52.1 35.086V45.572C49.16 47.287 47.2 50.374 47.2 54C47.2 59.39 51.61 63.8 57 63.8C62.39 63.8 66.8 59.39 66.8 54C66.8 50.374 64.84 47.238 61.9 45.572V5H57C29.952 5 8 26.952 8 54C8 81.048 29.952 103 57 103C84.048 103 106 81.048 106 54C106 40.476 100.512 28.226 91.643 19.357Z" fill="black"/>
<circle cx="57" cy="54" r="10" fill="#F4E661"/>
</g>
<defs>
<filter id="filter0_d" x="0" y="0" width="114" height="114" filterUnits="userSpaceOnUse" color-interpolation-filters="sRGB">
<feFlood flood-opacity="0" result="BackgroundImageFix"/>
<feColorMatrix in="SourceAlpha" type="matrix" values="0 0 0 0 0 0 0 0 0 0 0 0 0 0 0 0 0 0 127 0"/>
<feOffset dy="3"/>
<feGaussianBlur stdDeviation="4"/>
<feColorMatrix type="matrix" values="0 0 0 0 0 0 0 0 0 0 0 0 0 0 0 0 0 0 0.35 0"/>
<feBlend mode="normal" in2="BackgroundImageFix" result="effect1_dropShadow"/>
<feBlend mode="normal" in="SourceGraphic" in2="effect1_dropShadow" result="shape"/>
</filter>
</defs>
</svg>
