<svg width="27" height="24" viewBox="0 0 27 24" fill="none" xmlns="http://www.w3.org/2000/svg">
<g filter="url(#filter0_d)">
<path d="M20.3071 12.2217C20.7862 12.2217 21.1478 11.6283 21.1478 10.8419C21.1478 10.0554 20.7862 9.46274 20.3071 9.46274C19.828 9.46274 19.467 10.0554 19.467 10.8419C19.467 11.6416 19.8199 12.2217 20.3071 12.2217Z" fill="#61FFA0"/>
<path d="M16.1618 8.75704C16.07 9.44748 16.0218 10.1432 16.0176 10.84C16.0203 11.5361 16.0617 12.2315 16.1414 12.9229L16.1717 13.1918L19.3846 12.3315L19.171 12.0512C18.9705 11.788 18.8504 11.2982 18.8504 10.8387C18.8504 10.3893 18.9742 9.89823 19.1735 9.62114L19.3772 9.34279L16.1952 8.49005L16.1618 8.75704Z" fill="#61FFA0"/>
<path d="M19.5617 3C19.2359 3.00747 18.9185 3.10641 18.6443 3.28593C18.4446 3.41177 18.2606 3.56183 18.0964 3.73281C17.8995 3.93836 17.7221 4.16237 17.5665 4.40187C17.0285 5.218 16.6057 6.30301 16.3438 7.54014L16.2937 7.7762L20.5348 8.96915L20.5516 8.97357C20.6537 9.01017 21.6659 9.41224 21.6659 10.8425C21.6659 12.2942 20.6265 12.685 20.5478 12.7127L16.2962 13.912L16.3457 14.1474C16.6076 15.3934 17.0199 16.4771 17.5392 17.2832C17.6938 17.5255 17.8706 17.7522 18.0673 17.9604C18.2303 18.1321 18.414 18.282 18.6139 18.4067C18.8851 18.5831 19.1986 18.68 19.5202 18.6869C21.6015 18.6869 22.9999 14.6315 22.9999 10.8438C22.9962 5.99814 21.2139 3 19.5617 3Z" fill="#61FFA0"/>
<path d="M15.4786 13.7567C15.3158 12.8181 15.3022 11.8 15.3022 10.8425C15.3022 9.62495 15.3641 8.72613 15.5009 7.92957C15.6401 7.10333 15.8655 6.29461 16.1732 5.51717L16.5 4.70483L13.0866 7.16016L12.9318 7.27125L12.9015 7.29649C12.8587 7.33775 12.803 7.36214 12.7442 7.36529C12.7292 7.3667 12.7144 7.36902 12.6997 7.37224C12.452 7.40379 12.2323 7.54266 12.0391 7.78693C11.5897 8.355 11.3315 9.4703 11.3315 10.8425C11.3315 12.2147 11.5897 13.3288 12.0397 13.8994C12.231 14.1405 12.4502 14.2781 12.6916 14.3109C12.7104 14.3153 12.7294 14.3182 12.7486 14.3197C12.8068 14.3235 12.8618 14.3481 12.9039 14.3892L16.4759 16.9726L16.1602 16.1678C15.5913 14.6953 15.4804 13.7592 15.4786 13.7567Z" fill="#61FFA0"/>
<path d="M10.5484 10.84C10.5484 9.51448 10.7638 8.44588 11.1717 7.74716L11.3958 7.36087H5.46344C4.77196 7.36024 4 8.78988 4 10.84C4 12.6546 4.56953 13.8552 5.09944 14.203C5.20195 14.2708 5.32086 14.3083 5.44302 14.3115C5.65907 14.3159 10.7378 14.3273 10.9526 14.3279H11.3934L11.1693 13.941C10.7632 13.2385 10.5484 12.1655 10.5484 10.84Z" fill="#61FFA0"/>
<path d="M10.3192 15.0545L7.25488 15.0482L8.41994 18.5954C8.45876 18.7134 8.53296 18.8159 8.63205 18.8885C8.73114 18.9611 8.85011 19.0001 8.97214 19H10.2808C10.3659 19 10.4499 18.9809 10.527 18.9442C10.604 18.9075 10.6723 18.854 10.7269 18.7876C10.7816 18.7211 10.8213 18.6432 10.8432 18.5594C10.8652 18.4756 10.8689 18.388 10.8541 18.3026L10.3192 15.0545Z" fill="#61FFA0"/>
</g>
<defs>
<filter id="filter0_d" x="0" y="0" width="26.9999" height="24" filterUnits="userSpaceOnUse" color-interpolation-filters="sRGB">
<feFlood flood-opacity="0" result="BackgroundImageFix"/>
<feColorMatrix in="SourceAlpha" type="matrix" values="0 0 0 0 0 0 0 0 0 0 0 0 0 0 0 0 0 0 127 0"/>
<feOffset dy="1"/>
<feGaussianBlur stdDeviation="2"/>
<feColorMatrix type="matrix" values="0 0 0 0 0 0 0 0 0 0 0 0 0 0 0 0 0 0 0.25 0"/>
<feBlend mode="normal" in2="BackgroundImageFix" result="effect1_dropShadow"/>
<feBlend mode="normal" in="SourceGraphic" in2="effect1_dropShadow" result="shape"/>
</filter>
</defs>
</svg>
