<svg version="1.1" xmlns="http://www.w3.org/2000/svg" xmlns:xlink="http://www.w3.org/1999/xlink" viewBox="139.98 69.97 420.02 420.03" fill="white">
 <g>
  <path d="m525.38 280.05c0-22.984 14.375-42.598 34.617-50.379-5.3438-22.383-14.172-43.422-25.883-62.496-6.9727 3.1016-14.469 4.6523-21.965 4.6523-13.805 0-27.605-5.2617-38.141-15.797-16.258-16.258-19.957-40.301-11.133-60.125-19.07-11.719-40.102-20.551-62.484-25.906-7.7695 20.266-27.395 34.66-50.395 34.66-22.996 0-42.621-14.395-50.391-34.66-22.383 5.3555-43.414 14.188-62.484 25.91 8.8242 19.82 5.1211 43.863-11.137 60.125-10.535 10.535-24.336 15.797-38.141 15.797-7.4961 0-14.992-1.5508-21.965-4.6523-11.711 19.07-20.539 40.105-25.883 62.492 20.246 7.7773 34.621 27.398 34.621 50.379 0 22.977-14.363 42.586-34.594 50.371 5.3555 22.383 14.191 43.414 25.914 62.484 6.957-3.0859 14.434-4.6289 21.91-4.6289 13.805 0 27.605 5.2617 38.141 15.797 16.23 16.23 19.949 40.23 11.172 60.035 19.074 11.715 40.102 20.543 62.484 25.891 7.7969-20.211 27.395-34.559 50.355-34.559 22.961 0 42.559 14.344 50.352 34.559 22.387-5.3477 43.414-14.18 62.488-25.895-8.7734-19.805-5.0586-43.801 11.172-60.031 10.531-10.535 24.332-15.797 38.137-15.797 7.4766 0 14.953 1.543 21.91 4.6289 11.719-19.07 20.555-40.098 25.914-62.484-20.234-7.7852-34.594-27.395-34.594-50.371zm-174.4 87.34c-48.453 0-87.5-39.266-87.5-87.5s39.047-87.5 87.5-87.5 87.5 39.266 87.5 87.5-39.047 87.5-87.5 87.5z"/>
 </g>
</svg>