<svg width="27" height="24" viewBox="0 0 27 24" fill="none" xmlns="http://www.w3.org/2000/svg">
<g filter="url(#filter0_d)">
<path d="M22.2261 10.1308C21.251 9.08171 20.183 8.12602 18.9522 7.33691C18.8742 7.28696 18.7958 7.23796 18.717 7.18993L22.093 4.04619L20.9699 3L17.2781 6.43714C16.698 6.18385 16.0917 5.98627 15.4685 5.84747C13.9207 5.50508 12.3909 5.58059 10.8802 6.03192C9.46926 6.45327 8.21803 7.14497 7.06833 8.00382C5.92218 8.85735 4.90306 9.84902 4.03777 10.9527C4.02602 10.9663 4.01341 10.9792 4 10.9914V11.0092C4.26993 11.3095 4.5343 11.6145 4.81042 11.9096C5.84125 13.0094 6.97051 14.0066 8.28675 14.8101L4.90824 17.9538L6.03193 19L9.72433 15.5623C10.3866 15.8526 11.0834 16.0691 11.8002 16.2073C13.3226 16.4955 14.8159 16.3802 16.282 15.9191C17.6255 15.4937 18.8204 14.8239 19.9242 14.0031C21.0682 13.1518 22.0862 12.1633 22.9517 11.0634C22.9666 11.0444 22.9839 11.0277 23 11.0092V10.9914C22.7418 10.7043 22.4892 10.4132 22.2261 10.1308ZM8.78204 11.0069C8.78098 10.2006 9.01825 9.40959 9.46785 8.72045C9.91745 8.03132 10.562 7.47064 11.3311 7.09983C12.1001 6.72901 12.9639 6.56235 13.8278 6.6181C14.6918 6.67385 15.5226 6.94985 16.2294 7.41588L14.9645 8.59349C14.3994 8.29783 13.7459 8.18233 13.1037 8.26459C12.4615 8.34686 11.8658 8.62237 11.4074 9.04914C10.949 9.47591 10.6531 10.0305 10.5647 10.6284C10.4764 11.2263 10.6004 11.8347 10.918 12.3609L9.6488 13.5385C9.08374 12.7993 8.78072 11.9142 8.78204 11.0069ZM13.5015 15.3922C12.5255 15.3932 11.5734 15.1111 10.7774 14.5853L12.0423 13.4077C12.6075 13.7032 13.2611 13.8185 13.9032 13.736C14.5454 13.6536 15.141 13.3779 15.5993 12.951C16.0575 12.5241 16.3533 11.9694 16.4414 11.3715C16.5296 10.7735 16.4053 10.1652 16.0876 9.63909L17.3531 8.46149C17.8544 9.11874 18.1516 9.89182 18.2121 10.696C18.2727 11.5001 18.0942 12.3042 17.6963 13.0202C17.2984 13.7361 16.6964 14.3362 15.9563 14.7546C15.2163 15.173 14.3668 15.3936 13.5009 15.3922H13.5015Z" fill="#9E80B1"/>
</g>
<defs>
<filter id="filter0_d" x="0" y="0" width="27" height="24" filterUnits="userSpaceOnUse" color-interpolation-filters="sRGB">
<feFlood flood-opacity="0" result="BackgroundImageFix"/>
<feColorMatrix in="SourceAlpha" type="matrix" values="0 0 0 0 0 0 0 0 0 0 0 0 0 0 0 0 0 0 127 0"/>
<feOffset dy="1"/>
<feGaussianBlur stdDeviation="2"/>
<feColorMatrix type="matrix" values="0 0 0 0 0 0 0 0 0 0 0 0 0 0 0 0 0 0 0.25 0"/>
<feBlend mode="normal" in2="BackgroundImageFix" result="effect1_dropShadow"/>
<feBlend mode="normal" in="SourceGraphic" in2="effect1_dropShadow" result="shape"/>
</filter>
</defs>
</svg>
