<svg width="21" height="24" viewBox="0 0 21 24" fill="none" xmlns="http://www.w3.org/2000/svg">
<g filter="url(#filter0_d)">
<path d="M17 11.6673V9.95947H15.2378V8.1229C15.2378 6.76422 14.7425 5.46119 13.861 4.50046C12.9794 3.53973 11.7838 3 10.5371 3C9.29037 3 8.09473 3.53973 7.21317 4.50046C6.33162 5.46119 5.83637 6.76422 5.83637 8.1229V9.95947H4V11.6423C4.14287 11.6747 4.27112 11.7599 4.36317 11.8833C4.45523 12.0067 4.50549 12.1609 4.50549 12.32C4.50549 12.479 4.45523 12.6332 4.36317 12.7566C4.27112 12.8801 4.14287 12.9652 4 12.9977V13.7994C4.14287 13.8319 4.27112 13.917 4.36317 14.0404C4.45523 14.1639 4.50549 14.3181 4.50549 14.4771C4.50549 14.6362 4.45523 14.7904 4.36317 14.9138C4.27112 15.0372 4.14287 15.1223 4 15.1548V15.9566C4.14287 15.9891 4.27112 16.0742 4.36317 16.1976C4.45523 16.321 4.50549 16.4752 4.50549 16.6343C4.50549 16.7934 4.45523 16.9476 4.36317 17.071C4.27112 17.1944 4.14287 17.2795 4 17.312V19H17V17.2932C16.8733 17.2484 16.7628 17.1609 16.6845 17.0435C16.6061 16.926 16.5639 16.7845 16.5639 16.6393C16.5639 16.494 16.6061 16.3525 16.6845 16.2351C16.7628 16.1176 16.8733 16.0301 17 15.9853V15.134C16.8733 15.0891 16.7628 15.0017 16.6845 14.8842C16.6061 14.7667 16.5639 14.6252 16.5639 14.48C16.5639 14.3348 16.6061 14.1933 16.6845 14.0758C16.7628 13.9583 16.8733 13.8709 17 13.826V12.9752C16.8733 12.9304 16.7628 12.8429 16.6845 12.7255C16.6061 12.608 16.5639 12.4665 16.5639 12.3213C16.5639 12.176 16.6061 12.0345 16.6845 11.9171C16.7628 11.7996 16.8733 11.7121 17 11.6673ZM7.58233 8.12238C7.58233 7.26842 7.89361 6.44943 8.44768 5.84559C9.00176 5.24175 9.75325 4.90252 10.5368 4.90252C11.3204 4.90252 12.0719 5.24175 12.626 5.84559C13.1801 6.44943 13.4913 7.26842 13.4913 8.12238V9.95895H7.58281L7.58233 8.12238ZM11.6162 14.143V16.3189C11.6162 16.6309 11.5025 16.9301 11.3001 17.1507C11.0976 17.3713 10.8231 17.4952 10.5368 17.4952C10.2506 17.4952 9.97601 17.3713 9.77359 17.1507C9.57117 16.9301 9.45745 16.6309 9.45745 16.3189V14.1435C9.26392 13.9149 9.13573 13.6297 9.08853 13.323C9.04133 13.0162 9.07718 12.7011 9.19169 12.4162C9.3062 12.1313 9.49441 11.8889 9.73331 11.7187C9.9722 11.5485 10.2514 11.4579 10.5368 11.4579C10.8222 11.4579 11.1015 11.5485 11.3404 11.7187C11.5793 11.8889 11.7675 12.1313 11.882 12.4162C11.9965 12.7011 12.0323 13.0162 11.9851 13.323C11.9379 13.6297 11.8097 13.9149 11.6162 14.1435V14.143Z" fill="white"/>
</g>
<defs>
<filter id="filter0_d" x="0" y="0" width="21" height="24" filterUnits="userSpaceOnUse" color-interpolation-filters="sRGB">
<feFlood flood-opacity="0" result="BackgroundImageFix"/>
<feColorMatrix in="SourceAlpha" type="matrix" values="0 0 0 0 0 0 0 0 0 0 0 0 0 0 0 0 0 0 127 0"/>
<feOffset dy="1"/>
<feGaussianBlur stdDeviation="2"/>
<feColorMatrix type="matrix" values="0 0 0 0 0 0 0 0 0 0 0 0 0 0 0 0 0 0 0.25 0"/>
<feBlend mode="normal" in2="BackgroundImageFix" result="effect1_dropShadow"/>
<feBlend mode="normal" in="SourceGraphic" in2="effect1_dropShadow" result="shape"/>
</filter>
</defs>
</svg>
