<svg width="24" height="24" viewBox="0 0 24 24" fill="none" xmlns="http://www.w3.org/2000/svg">
<g filter="url(#filter0_d)">
<path d="M10.2485 14.1432L8.8059 15.5859C8.03289 16.3589 7.60601 16.6681 6.73432 17.3056C5.86874 17.9412 4.95448 18.5078 4 19C4.99618 17.0785 6.28339 15.3226 7.81602 13.7944L8.85761 12.7516C9.06868 12.9902 9.29293 13.2313 9.53038 13.4688C9.76782 13.7062 10.01 13.9331 10.2485 14.1432Z" fill="#FFC700"/>
<path d="M19.9944 8.64571C19.8952 8.74492 18.5528 7.56132 16.9952 6.00359C15.4375 4.44586 14.2556 3.10501 14.3569 3.0058C14.4582 2.9066 15.7969 4.09178 17.3535 5.64793C18.91 7.20407 20.092 8.54809 19.9944 8.64571Z" fill="#FFC700"/>
<path d="M19.7337 8.90638L17.3682 10.5422L16.5161 11.1337L15.7499 11.6614C15.4829 11.9284 14.2783 11.157 13.0588 9.93854C11.8394 8.72011 11.0701 7.51698 11.3371 7.24734L11.8648 6.48114L12.4563 5.62892L14.092 3.26331C13.9928 3.36251 15.1763 4.70494 16.7303 6.26109C18.2842 7.81724 19.6345 9.00506 19.7337 8.90638Z" fill="#FFC700"/>
<path d="M14.5763 15.2893C14.2597 15.6059 13.5416 15.4507 12.6525 14.9531C12.0805 14.6339 11.4389 14.1737 10.7899 13.6017C10.5514 13.3907 10.3102 13.1664 10.0717 12.9279C9.83323 12.6894 9.60898 12.4498 9.39897 12.2108C8.82805 11.5617 8.36687 10.9206 8.04764 10.348C7.55006 9.45887 7.39651 8.74121 7.71152 8.4246C7.72638 8.40992 7.74245 8.39651 7.75954 8.3845C7.75954 8.38186 7.75954 8.38186 7.75954 8.3845C7.77642 8.37289 7.79595 8.36075 7.81705 8.34809C7.82468 8.34085 7.83419 8.33592 7.84449 8.33384C8.53045 7.95865 10.812 7.77713 10.812 7.77713C10.545 8.04414 11.3165 9.24885 12.5338 10.4683C13.7511 11.6878 14.9568 12.4588 15.2248 12.1912C15.2248 12.1912 15.0438 14.4708 14.6682 15.1589C14.6661 15.1692 14.6611 15.1787 14.6539 15.1864C14.6323 15.2237 14.6062 15.2582 14.5763 15.2893Z" fill="#FFC700"/>
</g>
<defs>
<filter id="filter0_d" x="0" y="0" width="24" height="24" filterUnits="userSpaceOnUse" color-interpolation-filters="sRGB">
<feFlood flood-opacity="0" result="BackgroundImageFix"/>
<feColorMatrix in="SourceAlpha" type="matrix" values="0 0 0 0 0 0 0 0 0 0 0 0 0 0 0 0 0 0 127 0"/>
<feOffset dy="1"/>
<feGaussianBlur stdDeviation="2"/>
<feColorMatrix type="matrix" values="0 0 0 0 0 0 0 0 0 0 0 0 0 0 0 0 0 0 0.25 0"/>
<feBlend mode="normal" in2="BackgroundImageFix" result="effect1_dropShadow"/>
<feBlend mode="normal" in="SourceGraphic" in2="effect1_dropShadow" result="shape"/>
</filter>
</defs>
</svg>
