<svg width="22" height="22" viewBox="0 0 22 22" fill="none" xmlns="http://www.w3.org/2000/svg">
<path d="M0 22H22V0H0V22ZM14.6667 7.33333C14.6667 9.36222 13.0289 11 11 11C8.97111 11 7.33333 9.36222 7.33333 7.33333C7.33333 5.30444 8.97111 3.66667 11 3.66667C13.0289 3.66667 14.6667 5.30444 14.6667 7.33333ZM3.66667 17.1111C3.66667 14.6667 8.55556 13.3222 11 13.3222C13.4444 13.3222 18.3333 14.6667 18.3333 17.1111V18.3333H3.66667V17.1111Z" fill="#477B9E"/>
<path d="M0 22H22V0H0V22ZM14.6667 7.33333C14.6667 9.36222 13.0289 11 11 11C8.97111 11 7.33333 9.36222 7.33333 7.33333C7.33333 5.30444 8.97111 3.66667 11 3.66667C13.0289 3.66667 14.6667 5.30444 14.6667 7.33333ZM3.66667 17.1111C3.66667 14.6667 8.55556 13.3222 11 13.3222C13.4444 13.3222 18.3333 14.6667 18.3333 17.1111V18.3333H3.66667V17.1111Z" fill="url(#paint0_linear)"/>
<defs>
<linearGradient id="paint0_linear" x1="11" y1="0" x2="11" y2="22" gradientUnits="userSpaceOnUse">
<stop stop-color="white"/>
<stop offset="1" stop-color="white" stop-opacity="0.51"/>
</linearGradient>
</defs>
</svg>
