<svg width="65" height="33" viewBox="0 0 65 33" fill="none" xmlns="http://www.w3.org/2000/svg">
<g opacity="0.75">
<path d="M3.90698 24.3571L4.51388 24.7067L4.10342 25.4176L3.49716 25.0669L3.23684 25.5178L8.80938 28.7351L9.06994 28.2851L8.44247 27.922L8.85228 27.2122L9.4804 27.5741L15.3947 17.3289L9.82214 14.1115L3.90698 24.3571Z" fill="#76735C"/>
<path d="M16.0915 9.83457C13.5757 8.369 10.8574 12.4858 10.8574 12.4858L10.5453 13.0313L16.0451 16.2352L16.3572 15.6897C16.3572 15.6897 18.6074 11.3001 16.0915 9.83457Z" fill="#76735C"/>
</g>
<g opacity="0.75">
<path d="M14.2417 29.5029L15.1754 30.0408L14.544 31.1346L13.6113 30.5949L13.2108 31.2886L20.9264 35.742L21.3272 35.0497L20.3619 34.4913L20.9924 33.3993L21.9587 33.956L30.9487 18.3823L23.2331 13.9288L14.2417 29.5029Z" fill="#76735C"/>
<path d="M33.4954 5.06378C32.9603 5.12825 32.3911 5.29351 31.8211 5.51812C28.3647 6.88003 25.9594 9.94683 23.791 12.9633L31.5069 17.4181C33.035 14.032 34.4879 10.4154 33.9391 6.74117C33.8486 6.13512 33.7071 5.55948 33.4954 5.06378Z" fill="#76735C"/>
</g>
<g opacity="0.75">
<path d="M25.7395 39.0492L26.9942 39.772L26.1456 41.2419L24.8922 40.5167L24.354 41.4489L33.4264 46.6854L33.9651 45.755L32.6679 45.0045L33.5151 43.537L34.8137 44.2852L49.1406 19.4673L40.0681 14.2308L25.7395 39.0492Z" fill="#76735C"/>
<path d="M54.3333 7.00679e-07C53.158 0.753766 51.176 2.29765 49.2948 3.81593C46.0499 6.43484 43.2346 9.53726 40.8167 12.9346L49.8897 18.1729C51.5746 14.3491 52.8481 10.3518 53.5236 6.22822C53.9119 3.85718 54.2692 1.39001 54.3333 7.00679e-07Z" fill="#76735C"/>
</g>
</svg>
