<?xml version="1.0" encoding="utf-8"?>
<!-- Generator: Adobe Illustrator 23.1.0, SVG Export Plug-In . SVG Version: 6.00 Build 0)  -->
<svg version="1.1" id="Layer_1" xmlns="http://www.w3.org/2000/svg" xmlns:xlink="http://www.w3.org/1999/xlink" x="0px" y="0px"
	 viewBox="0 0 200 209.34" style="enable-background:new 0 0 200 209.34;" xml:space="preserve">
<style type="text/css">
	.st0{fill:#36C6C6;}
	.st1{fill:#37A3C4;}
	.st2{fill:#010101;}
	.st3{fill:#FAFAFA;}
	.st4{fill:#1C43BC;}
	.st5{fill:#FFFFFF;}
</style>
<path d="M156.99,66.76c-0.31-1.31-0.69-2.61-0.64-3.97c0.04-1.72-0.56-3.36-1.36-4.85c-0.27-0.89-1.16-2.88-1.72-4.09
	c-0.26-0.57-0.89-0.87-1.5-0.7l-9.19,2.48l-1.94-2.26l-3.31,0.93l-0.44,2.87L53.12,80.01l-2.53-1.65l-3.51,1.05l0.37,2.35l-4.08,1.8
	c0,0-0.51,0.6-0.55,0.99c-0.15,1.36,0.14,3.71,0.14,3.71l0.41,9.34c0,0,0.92,1.82,0.43,2.77c-3.37,3.25-0.89,7.14,3.7,4.16
	c4.46-1.14,9.97,1.09,11.56,5.27c0.86,2.26-4.78,34.04-5.1,36.14c-0.21,2.5-2.32,2.57-2.16,5.06c0.06,2.03,1.88,3.28,3.47,4.18
	c0.67,0.33,1.14,1.16,1.97,1.05c1.35-0.03,4.01,0.01,4.01,0.01l28.82-1.91c0,0,1.76-0.15,1.97-0.25c1.97-0.92,2.25-1.14,2.07-3.17
	c-0.18-2.03,0.66-2.33-0.86-3.67c-0.57-0.5-3.25-0.5-3.79-0.98c-1.05-0.94-1.43-2.37-1.44-2.88c-0.06-1.93,0.08-4.37,1.75-5.71
	c0.46-0.48,0.63-0.91,0.48-1.7c-0.02-1.51-1.35-2.61-1.38-4.12c-0.18-2.11-0.1-3.69,1.53-5.7c1.03-1.28,1.37-3.03,0.67-4.51
	c-0.05-0.11-0.11-0.22-0.17-0.33c-0.77-1.28-0.36-2.08-0.25-3.47c0.26-1.49,0.08-1.94,1.31-2.99c1.44-1.36,3.65-1.51,5.43-0.78
	c1.73,0.77,3.99,0.07,5.8-0.3c7.62-2.15,13.68-4.31,21.3-6.45c0.79-0.15,1.87-1.75,1.31-2.54c-1.52-2.26-1.61-3.82-2.1-6.53
	c-0.23-1.36-0.92-3.76-1.46-5.56c-0.59-1.95-0.55-4.01,0.68-5.63c0.47-0.63,1.68-1.22,1.68-1.22l28.03-7.68
	c1.19-0.33,2.11-1.27,2.39-2.46c0.06-0.23,0.12-0.48,0.18-0.72c0.55-1.85,0.35-3.83,0.02-5.71c-0.05-0.4,0.27-0.53,0.67-0.64
	C156.69,68.39,157.18,67.58,156.99,66.76z M120.11,101.92c-0.19,1.8-0.01,2.16-1.51,3.21c-1.13,0.95-3.35,1.51-4.72,1.9
	c-4.01,1.15-8.43,2.51-12.45,3.6c-2.73,0.83-4.64-0.12-6.44-2.07c-1.75-1.83-3.99-7.39-0.83-11.53c1.5,0.63,3.27,4.54,3.27,4.54
	s1.66,2.36,3.63,3.09c1.74,0.74,3.84,1.82,5.66,0.72c-1.2-1.19-2.58-2.19-3.59-3.57c-2.11-2.35-2.83-5.38-3.15-8.48
	c3.23-1.45,10.7-3.41,10.7-3.41s4.01-1.27,5.68,0C118.93,92.36,120.46,98.42,120.11,101.92z"/>
</svg>
