<svg width="24" height="24" viewBox="0 0 24 24" fill="none" xmlns="http://www.w3.org/2000/svg">
<path fill-rule="evenodd" clip-rule="evenodd" d="M12 21C16.9706 21 21 16.9706 21 12C21 7.02944 16.9706 3 12 3C7.02944 3 3 7.02944 3 12C3 16.9706 7.02944 21 12 21ZM11.1621 7.22852V13.3223H12.8262V7.22852H11.1621ZM11.2852 14.5176C11.0898 14.709 10.9922 14.9434 10.9922 15.2207C10.9922 15.4941 11.0898 15.7305 11.2852 15.9297C11.4844 16.1289 11.7227 16.2285 12 16.2285C12.2773 16.2285 12.5117 16.1309 12.7031 15.9355C12.8984 15.7402 12.9961 15.502 12.9961 15.2207C12.9961 14.9395 12.8984 14.7031 12.7031 14.5117C12.5117 14.3203 12.2773 14.2246 12 14.2246C11.7188 14.2246 11.4805 14.3223 11.2852 14.5176Z" fill="white"/>
</svg>
