<svg width="46" height="33" viewBox="0 0 46 33" fill="none" xmlns="http://www.w3.org/2000/svg">
<path opacity="0.75" d="M40.6844 2.39875C40.1733 0.997501 38.7422 0 37.0556 0H8.94444C7.25778 0 5.85222 0.997501 5.31556 2.39875L0 16.625V35.625C0 36.9313 1.15 38 2.55556 38H5.11111C6.51667 38 7.66667 36.9313 7.66667 35.625V33.25H38.3333V35.625C38.3333 36.9313 39.4833 38 40.8889 38H43.4444C44.85 38 46 36.9313 46 35.625V16.625L40.6844 2.39875ZM8.94444 26.125C6.82333 26.125 5.11111 24.5338 5.11111 22.5625C5.11111 20.5912 6.82333 19 8.94444 19C11.0656 19 12.7778 20.5912 12.7778 22.5625C12.7778 24.5338 11.0656 26.125 8.94444 26.125ZM37.0556 26.125C34.9344 26.125 33.2222 24.5338 33.2222 22.5625C33.2222 20.5912 34.9344 19 37.0556 19C39.1767 19 40.8889 20.5912 40.8889 22.5625C40.8889 24.5338 39.1767 26.125 37.0556 26.125ZM5.11111 14.25L8.94444 3.5625H37.0556L40.8889 14.25H5.11111Z" fill="#8A8A8A"/>
</svg>
