<?xml version="1.0" encoding="utf-8"?>
<!-- Generator: Adobe Illustrator 23.1.0, SVG Export Plug-In . SVG Version: 6.00 Build 0)  -->
<svg version="1.1" id="Layer_1" xmlns="http://www.w3.org/2000/svg" xmlns:xlink="http://www.w3.org/1999/xlink" x="0px" y="0px"
	 viewBox="0 0 200 209.34" style="enable-background:new 0 0 200 209.34;" xml:space="preserve">
<style type="text/css">
	.st0{fill:#36C6C6;}
	.st1{fill:#37A3C4;}
	.st2{fill:#010101;}
	.st3{fill:#FAFAFA;}
	.st4{fill:#1C43BC;}
	.st5{fill:#FFFFFF;}
</style>
<path d="M165.44,129.61c0,0,0-7.37,0-15.45c0-7.95-7.17-13.73-14.94-13.73c0,0,1.63,3.27-0.06,8.23c-0.91,2.68-7.72,1.46-7.72,1.46
	v-4.28c3.53-2.56,5.71-6.85,5.3-11.63c-0.54-6.19-5.6-11.2-11.8-11.71c-2.76-0.23-5.35,0.43-7.54,1.7V59.22
	c0-3.9-3.16-7.07-7.07-7.07H100H78.39c-3.91,0-7.07,3.17-7.07,7.07V84.2c-2.19-1.27-4.78-1.92-7.54-1.7
	c-6.2,0.51-11.26,5.52-11.8,11.71c-0.42,4.78,1.77,9.07,5.3,11.63v4.28c0,0-6.81,1.21-7.72-1.46c-1.68-4.96-0.06-8.23-0.06-8.23
	c-7.77,0-14.94,5.78-14.94,13.73c0,8.08,0,15.45,0,15.45s-0.3,8.98,5.86,10.8v16.77h24.44v-4.8c0-2.93-2.37-5.3-5.3-5.3h-7.53v-7.48
	h15.45c0,0,9.9,17.58,32.52,17.58s32.52-17.58,32.52-17.58h15.45v7.48h-7.53c-2.93,0-5.3,2.37-5.3,5.3v4.8h24.44v-16.77
	C165.74,138.59,165.44,129.61,165.44,129.61z M64.86,103.66c-4.58,0-8.29-3.71-8.29-8.29c0-4.57,3.71-8.28,8.29-8.28
	c4.57,0,8.28,3.71,8.28,8.28C73.14,99.95,69.44,103.66,64.86,103.66z M115.85,103.66c-0.34,12.47-0.75,27.94-0.75,31.1
	c0,5.46-15.1,9.61-15.1,9.61s-15.1-4.16-15.1-9.61c0-3.16-0.41-18.63-0.75-31.1c-0.25-9.08-1.32-15.72-1.32-15.72
	s7.28-5.09,17.17-5.09s17.17,5.09,17.17,5.09S116.1,94.58,115.85,103.66z M120.25,70.54H100H79.75V60.03H100h20.25V70.54z
	 M135.14,103.66c-4.57,0-8.28-3.71-8.28-8.29c0-4.57,3.71-8.28,8.28-8.28c4.58,0,8.29,3.71,8.29,8.28
	C143.42,99.95,139.72,103.66,135.14,103.66z"/>
</svg>
