<?xml version="1.0" encoding="utf-8"?>
<!-- Generator: Adobe Illustrator 23.1.0, SVG Export Plug-In . SVG Version: 6.00 Build 0)  -->
<svg version="1.1" id="Layer_1" xmlns="http://www.w3.org/2000/svg" xmlns:xlink="http://www.w3.org/1999/xlink" x="0px" y="0px"
	 viewBox="0 0 200 209.34" style="enable-background:new 0 0 200 209.34;" xml:space="preserve">
<style type="text/css">
	.st0{fill:#36C6C6;}
	.st1{fill:#37A3C4;}
	.st2{fill:#010101;}
	.st3{fill:#FAFAFA;}
	.st4{fill:#1C43BC;}
	.st5{fill:#FFFFFF;}
</style>
<g>
	<path d="M63.58,53.16c14.68-1.56,25.25-0.88,29.14,2.13c2.41,1.87,5.6,11.71,6.45,23.15c8.55,0.55,19.26,0.41,28.51,2.05
		c-1.1-1.16-2.66-2.27-9.4-4.37c1.55-6.64,4.89-11.49,6.84-13.55c1.99-2.11,23.43-2.13,32.02,4.66c1.64,5.01-0.31,16.19,6.41,17.06
		c29.11,7.1,6.02,19.29,0.54,13.72c4.77-13.63-29.92-15.04-37.32-14.37c-5.25,4.52-10.37,10.35-14.9,16.27
		c-11.54,1.36-3.52-9.3-9.63-12.65c-14.68-4.6-47.74,0.74-58.59,7.96c-2.14,3.33-2.85,8.22-5.64,11.1
		C9,96.35,21.92,91.98,42.52,85.72c0.59-5.05,0.39-11.86,0.5-10.16c-0.45-3.91,1.3-6.79,3-10.91c1.86-4.52,2.01-4,3.78-7.95
		C52.96,55.74,59.62,53.82,63.58,53.16z"/>
	<path d="M127.28,87.84c4.91,0.61,9.55,2.8,15.53,2.45c25.22-1.75,6.33,9.37,18.98,9.24c0.49,0.37,0.94,0.82,1.25,1.36
		c-0.56,3.85-4.9,5.88-7.58,9.06c-2.23,6.13-2.49,12.67-1.41,16.14c0.89,2.84,4.66,4.23,9.52,5.84c0.07,0.38,0.08,0.43,0.14,0.81
		c-13.07,9.34-20.64,18.79-36.66,11.89c-5.92-2.55-9.85-10.63-13.93-9.84c2.63-2.06,8.19-3.94,10.9-7.39
		c0.21-0.27,0.31-0.61,0.32-0.96c0.04-5.21,1.48-11.45-1.44-17.03c-1.97-3.07-7.58-3.83-7.28-8.83
		C120.96,97.78,124.47,94.01,127.28,87.84z"/>
	<path d="M87.26,90.71c8.91-3.16,12.26,12.24,18.69,12.45c0.96,5.37-1.91,8.58-4.81,12.92c-0.08,5.63-2.29,10.31-4.12,15.83
		c0.11,6.97,7.12,7.48,13.08,4.64c-1.9,23.51-56.47,27.47-65.26,8.03c7.71-1.41,19.34,0.16,7.06-9.76
		c-6.71-5.42-6.33-15.98-9.73-24.41c6.42-9.76,7.57-15.19,21.49-15.3C69.72,95.05,76.14,93.79,87.26,90.71z"/>
</g>
</svg>
