<?xml version="1.0" encoding="utf-8"?>
<!-- Generator: Adobe Illustrator 23.1.0, SVG Export Plug-In . SVG Version: 6.00 Build 0)  -->
<svg version="1.1" id="Layer_1" xmlns="http://www.w3.org/2000/svg" xmlns:xlink="http://www.w3.org/1999/xlink" x="0px" y="0px"
	 viewBox="0 0 200 209.34" style="enable-background:new 0 0 200 209.34;" xml:space="preserve">
<style type="text/css">
	.st0{fill:#36C6C6;}
	.st1{fill:#37A3C4;}
	.st2{fill:#010101;}
	.st3{fill:#FAFAFA;}
	.st4{fill:#1C43BC;}
	.st5{fill:#FFFFFF;}
</style>
<g>
	<g>
		<path d="M103.39,66.2c-1.93,3.81-5.93,6.45-10.2,6.75c-0.37,0.04-0.74,0.06-1.11,0.06c-5.37,0-10.39-3.67-11.94-8.76
			c-1.25-3.69-0.62-7.97,1.64-11.16c1.81-2.64,4.63-4.51,7.73-5.15c0.89-0.18,1.8-0.27,2.7-0.27c1.71,0,3.34,0.33,4.83,0.97
			c3.99,1.63,6.99,5.43,7.65,9.7C105.1,61.13,104.65,63.91,103.39,66.2z"/>
	</g>
	<g>
		<path d="M119.91,61.53c-0.97,2.78-1.92,5.62-2.84,8.35c-0.92,2.73-1.88,5.56-2.84,8.33c-0.15,0.43-0.29,0.86-0.43,1.3
			c-0.42,1.34-0.83,2.6-1.62,3.67c-1.35,1.93-3.7,3.13-6.12,3.13l-0.14-0.01h-1.02c-1.42,0-2.82,0.01-4.24,0.01h-4.23
			c-2.27,0-4.54,0-6.8-0.02h-0.33l-0.2,0.26l-3.82,5.16c-3.43,4.63-6.98,9.41-10.43,14.12c-0.42,0.55-0.91,1.18-1.28,1.88
			l-0.26,0.48l0.43,0.34l2.46,1.99c6.59,5.32,13.41,10.81,20.04,16.31l0.14,0.11c1.36,1.13,2.76,2.3,3.32,3.94
			c0.76,2.07,0.06,4.36-0.67,5.93c-2.96,6.88-6.02,14.01-9.48,21.03c-0.63,1.42-2.17,2.42-3.74,2.42c-0.34,0-0.69-0.05-1.02-0.14
			c-1.92-0.54-3.2-2.65-2.74-4.56c0.75-3.76,1.63-7.58,2.47-11.27c0.72-3.14,1.48-6.39,2.14-9.61l0.1-0.47l-0.41-0.24
			c-7.86-4.54-15.79-9.27-23.46-13.85c-4.02-2.4-8.04-4.8-12.09-7.19c-3.14-1.76-4.99-5.52-4.51-9.16c0.15-1.53,0.89-2.92,1.76-4.45
			c1.27-2.19,2.92-4.41,5.16-7.01l0.04-0.04c1.93-2.58,3.86-5.16,5.78-7.74c2.45-3.28,4.98-6.67,7.48-9.99
			c1.81-2.29,4.75-3.66,7.86-3.66c1.95,0,3.77,0.54,5.29,1.56c0.96,0.65,1.91,1.39,2.81,2.09c0.65,0.51,1.33,1.03,2,1.52l0.18,0.13
			h0.22c2.8-0.02,5.59-0.02,8.39-0.02h10.43l0.19-0.33c1.74-3.19,3.54-6.42,5.27-9.54c1.42-2.57,2.86-5.12,4.27-7.69
			c0.75-1.37,2.1-2.26,3.43-2.26h0.11c0.04-0.01,0.09-0.01,0.13-0.01c1.36,0,2.65,1,3.02,2.37
			C120.37,59.53,120.29,60.47,119.91,61.53z"/>
	</g>
	<g>
		<path d="M166.11,150.54c-1.16,1.35-2.32,2.7-3.49,4.05c-1.49,1.72-3.02,3.51-4.54,5.29c-0.88,1.12-2.22,1.78-3.56,1.78
			c-0.08,0-0.15,0-0.25-0.01c-1.69-0.03-3.31-1.13-3.95-2.67c-0.55-1.27-0.43-2.77,0.3-3.82c1.58-2.32,3.27-4.77,5.49-7.96
			l0.25-0.36l-0.24-0.37c-1.78-2.77-3.56-5.52-5.35-8.28c-0.84-1.29-1.67-2.58-2.51-3.88l-0.37-0.57l-0.56,0.4
			c-3.1,2.21-5.97,5-8.74,7.7c-2.73,2.66-5.56,5.42-8.57,7.57c-3.56,2.61-6.63,4.31-9.63,5.33c-1.42,0.46-2.74,0.69-3.94,0.69
			c-1,0-1.93-0.17-2.76-0.48c-1.27-0.51-2.28-1.58-3.24-2.62c-0.16-0.18-0.32-0.34-0.46-0.49c-2.85-3.25-5.42-6.8-8-10.46
			c0.19-0.47,0.4-0.96,0.6-1.43c0.86-2.03,1.77-4.13,1.84-6.44c0.23-3.4-1.4-6.91-4.11-8.91c-4.02-3.38-8.16-6.74-12.17-10
			c-2.06-1.68-4.11-3.35-6.17-5.03c1.41-1.59,3.1-2.49,4.72-2.49c0.15,0,0.3,0,0.47,0.02c3.21,0.25,5.77,2.45,8.25,4.58
			c0.24,0.21,0.47,0.41,0.69,0.6c7.48,6.75,14.36,14.36,21.01,21.71l0.28,0.32l0.17,0.19l0.26,0.02c0.05,0.01,0.1,0.01,0.15,0.01
			c0.94,0,1.74-0.74,2.04-1.47l0.08-0.18l-0.04-0.19c-0.1-0.54-0.43-0.91-0.69-1.22c-0.05-0.07-0.11-0.13-0.18-0.23
			c-0.96-1.07-1.92-2.19-2.85-3.27c-0.54-0.63-1.09-1.27-1.63-1.9c4.11-2.8,8.24-5.69,12.24-8.48c1.64-1.14,3.27-2.29,4.91-3.43
			l0.78-0.55l-0.79-0.54c-2-1.35-4.05-2.71-6.03-4.01c-3.55-2.34-7.22-4.76-10.74-7.28c-0.91-0.63-1.91-1.42-2.37-2.56
			c-0.97-2.07-0.12-4.8,1.86-5.99c2.36-1.6,4.7-3.21,7.05-4.82c3.2-2.19,6.39-4.39,9.62-6.58c0.55-0.4,1.27-0.62,2-0.62
			c0.83,0,1.61,0.27,2.23,0.76c0.83,0.62,1.33,1.64,1.36,2.8c0.04,1.16-0.4,2.26-1.19,2.93c-1.66,1.41-3.2,2.72-4.74,4.01
			c-1.88,1.58-3.82,3.23-5.9,5l-0.76,0.65l0.89,0.44c4.11,2.06,7.83,4.25,11.7,6.91c4.03,2.68,7.46,5.97,10.22,9.75
			c1.87,2.65,3.5,4.79,5.06,6.85c1.5,1.96,3.05,3.98,4.8,6.46c2.07,3.26,4.17,6.59,6.19,9.81c1.2,1.91,2.39,3.82,3.6,5.74
			C168.13,145.44,167.89,148.53,166.11,150.54z"/>
	</g>
	<g>
		<path d="M109.49,100.48c-2.14,0.01-4.28,0.02-6.42,0.02c-2.95,0-5.42-0.01-7.75-0.04c-2.21-0.7-4.45-1.46-6.62-2.2
			c-0.7-0.24-1.41-0.47-2.12-0.71c1.62-2.29,3.27-4.58,4.93-6.84h0.18c0.39,0,0.78-0.01,1.17-0.02c0.39,0,0.76-0.01,1.15-0.01
			c0.76,0,1.74,0.03,2.73,0.25c0.45,0.07,0.91,0.16,1.35,0.25c1.1,0.21,2.22,0.44,3.39,0.44h0.06c2.2,0.03,4.43,0.1,6.59,0.17
			c0.74,0.03,1.48,0.04,2.22,0.07c-0.76,0.84-1.28,1.78-1.52,2.77C108.37,96.43,108.59,98.48,109.49,100.48z"/>
	</g>
	<g>
		<path d="M172.59,115.48c-2,2.52-5.05,4.19-8.34,4.59c-0.47,0.05-0.95,0.09-1.43,0.09c-2.72,0-5.42-0.9-7.6-2.52
			c-3.74-2.73-5.72-7.6-4.93-12.15c0.75-5.3,5.33-9.83,10.66-10.53c0.6-0.1,1.21-0.14,1.82-0.14c2.7,0,5.36,0.87,7.5,2.45
			c2.73,1.96,4.62,5.15,5.07,8.54C175.82,109.2,174.8,112.81,172.59,115.48z"/>
	</g>
	<g>
		<path d="M56.07,121.54l-1.41,4.63c-1.21,3.96-2.46,8.06-3.67,12.11c-2.98,1.7-5.97,3.38-8.96,5.08c-3.07,1.73-6.13,3.46-9.16,5.2
			c-0.35,0.18-0.7,0.39-1.04,0.59c-0.98,0.58-1.92,1.13-2.94,1.13c-0.11,0-0.21-0.01-0.32-0.02l-0.03-0.01h-0.03
			c-2.02-0.04-3.84-1.78-3.97-3.81c-0.14-1.37,0.46-2.77,1.56-3.58c3.03-2.41,6.14-4.83,9.14-7.18c1.88-1.47,3.77-2.95,5.62-4.4
			c0.53-0.36,0.62-0.92,0.69-1.34c0.02-0.12,0.04-0.25,0.07-0.33l0.01-0.04l0.01-0.04l0.65-3.09c0.84-4.02,1.64-7.83,2.53-11.93
			c0.27,0.25,0.54,0.54,0.81,0.82c0.54,0.57,1.09,1.15,1.78,1.58c1.29,0.85,2.68,1.48,4.02,2.07
			C53.12,119.74,54.69,120.44,56.07,121.54z"/>
	</g>
	<g>
		<path d="M82.49,136.37l-1.53,7.02c-0.32,0-0.66,0.01-1.02,0.01c-1.75,0-4.01-0.01-6.42-0.02c-2.77-0.01-5.74-0.02-8.39-0.02
			c-2.8,0-4.82,0.01-6.12,0.04c-1.73-0.04-3.29-1.56-3.26-3.23c-0.06-1.59,1.18-3.09,2.74-3.27c3.03-0.51,7.12-1.01,11.08-1.5
			c3.51-0.44,6.82-0.85,9.49-1.26L82.49,136.37z"/>
	</g>
</g>
</svg>
