<svg width="17" height="17" viewBox="0 0 17 17" fill="none" xmlns="http://www.w3.org/2000/svg">
<path d="M8.49866 9.26763e-06C7.20354 -0.00190723 5.92525 0.293442 4.76225 0.863312C4.66288 0.911334 4.5648 0.961758 4.46801 1.01458C4.37123 1.06741 4.27703 1.1206 4.18541 1.17417C3.95416 1.31048 3.73067 1.45695 3.51493 1.61358C3.4296 1.67564 3.34482 1.73936 3.2617 1.80419C3.17858 1.86902 3.09547 1.93551 3.01678 2.00422C2.11774 2.76327 1.38607 3.70068 0.868078 4.75713C0.350087 5.81359 0.0570558 6.96607 0.00753316 8.14163C-0.0419895 9.31719 0.153075 10.4902 0.580379 11.5865C1.00768 12.6828 1.65792 13.6784 2.48994 14.5104C3.32195 15.3423 4.31763 15.9925 5.41393 16.4198C6.51024 16.847 7.68331 17.042 8.85888 16.9924C10.0345 16.9429 11.1869 16.6498 12.2434 16.1318C13.2998 15.6137 14.2372 14.882 14.9962 13.983C15.0642 13.9024 15.1307 13.821 15.1957 13.7386C15.2607 13.6562 15.3243 13.5716 15.3863 13.4848C15.543 13.2687 15.6896 13.0452 15.8263 12.8143C15.881 12.7213 15.934 12.6269 15.9853 12.5312C16.0407 12.4342 16.0889 12.3361 16.1372 12.237C16.7703 10.9407 17.0633 9.50458 16.9886 8.06384C16.9138 6.6231 16.4738 5.22505 15.7099 4.00123C14.9459 2.77741 13.8832 1.76803 12.6217 1.06807C11.3602 0.368104 9.94135 0.000558641 8.49866 9.26763e-06ZM8.49866 15.525C7.04821 15.525 5.63336 15.0758 4.4484 14.2394C3.26344 13.4029 2.3665 12.2202 1.88074 10.8535C1.39497 9.48681 1.34422 8.00328 1.73545 6.60661C2.12668 5.20994 2.9407 3.96863 4.06572 3.05315L5.45656 4.44397C5.32837 4.54999 5.20277 4.6645 5.07976 4.78751C4.04079 5.82647 3.51659 6.94355 3.47836 8.20083C3.44955 8.99376 3.61523 10.5381 5.05094 11.9738C6.11429 13.0365 7.29345 13.5197 8.76352 13.4892C10.1222 13.4516 11.1878 12.9756 12.2184 11.9449C12.3431 11.8197 12.4617 11.6906 12.5714 11.5571L13.9467 12.9324C13.2891 13.743 12.4586 14.3965 11.516 14.8451C10.5734 15.2937 9.54254 15.526 8.49866 15.525ZM15.0178 11.1204C14.9757 11.2252 14.9314 11.3288 14.8837 11.4313L11.7463 8.2989C11.7837 8.70219 11.7315 9.10874 11.5934 9.4895C11.4554 9.87026 11.235 10.2158 10.9479 10.5015C9.87065 11.5787 8.00438 11.9056 6.58141 10.4821C5.39837 9.29907 5.17728 7.40457 6.4656 6.11571C6.76319 5.8235 7.11995 5.59845 7.51184 5.45575C7.90374 5.31304 8.32167 5.25599 8.73748 5.28843L5.56793 2.11615C5.67063 2.06924 5.77425 2.02454 5.87879 1.98206C7.15633 1.46969 8.5562 1.34374 9.90467 1.61986C11.2531 1.89597 12.4908 2.56198 13.4642 3.53524C14.4375 4.5085 15.1036 5.74614 15.3798 7.09458C15.656 8.44302 15.5301 9.84288 15.0178 11.1204Z" fill="#c25fff"/>
</svg>
