<svg width="24" height="24" viewBox="0 0 24 24" fill="none" xmlns="http://www.w3.org/2000/svg">
<path d="M11.5898 4.15625C10.9023 4.26562 10.3398 4.55859 9.90234 5.03516C9.47266 5.50391 9.25781 6.05859 9.25781 6.69922C9.25781 7.33984 9.44141 7.89453 9.80859 8.36328C10.1758 8.82422 10.7695 9.25391 11.5898 9.65234V4.15625ZM12.5273 18.6289C13.3789 18.5195 14.0469 18.1602 14.5312 17.5508C15.0156 16.9414 15.2578 16.1562 15.2578 15.1953C15.2578 14.4219 15.0391 13.7539 14.6016 13.1914C14.1719 12.6289 13.4805 12.1211 12.5273 11.668V18.6289ZM12.5273 21.9688H11.5898V19.9297C10.5195 19.9297 9.59375 19.668 8.8125 19.1445C8.03906 18.6133 7.42188 17.8281 6.96094 16.7891L8.29688 16.1094C8.53906 16.8828 8.93359 17.4844 9.48047 17.9141C10.0352 18.3359 10.7383 18.582 11.5898 18.6523V11.2344C10.1992 10.5703 9.20312 9.89062 8.60156 9.19531C8 8.49219 7.69922 7.67969 7.69922 6.75781C7.69922 5.70312 8.03906 4.83203 8.71875 4.14453C9.40625 3.45703 10.3633 3.02344 11.5898 2.84375V1.66016H12.5273V2.82031C13.3398 2.91406 14.0273 3.13281 14.5898 3.47656C15.1602 3.82031 15.6172 4.29688 15.9609 4.90625L14.7305 5.57422C14.5195 5.16016 14.2227 4.83203 13.8398 4.58984C13.457 4.33984 13.0195 4.19922 12.5273 4.16797V10.0859C14.1211 10.8438 15.2227 11.5938 15.832 12.3359C16.4414 13.0703 16.7461 13.9844 16.7461 15.0781C16.7461 16.375 16.3672 17.4648 15.6094 18.3477C14.8594 19.2227 13.832 19.7656 12.5273 19.9766V21.9688Z" fill="white"/>
</svg>
