<svg width="17" height="18" viewBox="0 0 17 18" fill="none" xmlns="http://www.w3.org/2000/svg">
<path d="M8.5 0.0601807C6.81886 0.0601807 5.17547 0.558697 3.77766 1.49269C2.37984 2.42668 1.29037 3.7542 0.647028 5.30737C0.00368283 6.86054 -0.164645 8.56961 0.163329 10.2184C0.491303 11.8673 1.30085 13.3818 2.4896 14.5706C3.67834 15.7593 5.1929 16.5689 6.84173 16.8969C8.49057 17.2248 10.1996 17.0565 11.7528 16.4132C13.306 15.7698 14.6335 14.6803 15.5675 13.2825C16.5015 11.8847 17 10.2413 17 8.56018C17 7.44394 16.7801 6.33864 16.353 5.30737C15.9258 4.2761 15.2997 3.33907 14.5104 2.54977C13.7211 1.76047 12.7841 1.13437 11.7528 0.707204C10.7215 0.28004 9.61624 0.0601807 8.5 0.0601807ZM8.5 15.5831C7.11104 15.5829 5.75334 15.1708 4.59857 14.399C3.44379 13.6272 2.54382 12.5303 2.01244 11.247C1.48106 9.96368 1.34214 8.55164 1.61325 7.18939C1.88435 5.82715 2.55331 4.57588 3.53553 3.59382C4.51775 2.61175 5.76912 1.94299 7.13141 1.6721C8.4937 1.40121 9.90572 1.54035 11.1889 2.07193C12.4721 2.60351 13.5689 3.50366 14.3405 4.65856C15.1122 5.81345 15.5241 7.17122 15.5241 8.56018C15.5241 9.48254 15.3424 10.3959 14.9894 11.248C14.6364 12.1001 14.1189 12.8744 13.4667 13.5265C12.8144 14.1787 12.0401 14.696 11.1879 15.0488C10.3357 15.4017 9.42236 15.5833 8.5 15.5831Z" fill="#61ffa0"/>
<path d="M11.5865 10.3215C11.5865 11.7691 10.7289 12.8434 9.38701 13.1847V14.3244H7.97367V13.2717C6.57695 13.1055 5.73426 12.2124 5.30322 11.5847L6.45894 10.4827C6.63084 10.8428 6.90056 11.1472 7.23728 11.3613C7.57401 11.5754 7.96416 11.6904 8.36316 11.6932C9.1654 11.6932 9.76375 11.2035 9.76375 10.4422C9.76796 10.2887 9.7385 10.136 9.67743 9.99502C9.61637 9.85404 9.52518 9.72813 9.41028 9.62614C9.0701 9.31311 8.52382 9.13637 8.00968 8.9613C7.53377 8.79841 6.96256 8.58068 6.49994 8.17235C6.20076 7.91418 5.77969 7.41111 5.77969 6.48643C5.77969 5.32295 6.46282 4.15948 7.97422 3.88246V2.73007H9.38757V3.8808C10.1015 4.00708 10.7567 4.35756 11.258 4.88139L10.335 6.08918C9.80475 5.38168 9.17925 5.31354 8.85292 5.31354C7.90054 5.31354 7.60136 5.91189 7.60136 6.37396C7.59935 6.49062 7.62407 6.6062 7.67362 6.71183C7.72317 6.81747 7.79624 6.91036 7.88724 6.9834C8.10498 7.18728 8.40415 7.29587 8.97536 7.50031C9.68231 7.74464 10.3488 7.98952 10.8109 8.41114C11.2192 8.78456 11.5865 9.39677 11.5865 10.3215Z" fill="#61ffa0"/>
</svg>
