<?xml version="1.0" encoding="utf-8"?>
<!-- Generator: Adobe Illustrator 23.1.0, SVG Export Plug-In . SVG Version: 6.00 Build 0)  -->
<svg version="1.1" id="Layer_1" xmlns="http://www.w3.org/2000/svg" xmlns:xlink="http://www.w3.org/1999/xlink" x="0px" y="0px"
	 viewBox="0 0 200 209.34" style="enable-background:new 0 0 200 209.34;" xml:space="preserve">
<style type="text/css">
	.st0{fill:#36C6C6;}
	.st1{fill:#37A3C4;}
	.st2{fill:#010101;}
	.st3{fill:#FAFAFA;}
	.st4{fill:#1C43BC;}
	.st5{fill:#FFFFFF;}
</style>
<g>
	<polygon points="114.55,133.32 85.45,133.32 85.45,111.6 49.39,99.58 49.39,133.32 49.39,154.9 85.45,154.9 114.55,154.9 
		150.61,154.9 150.61,133.32 150.61,99.58 114.55,111.6 	"/>
	<rect x="91.53" y="111.6" width="16.94" height="15.64"/>
	<path d="M121.06,70.47v-7.35v-0.68v-3.58c0-2.45-1.98-4.43-4.43-4.43H83.38c-2.45,0-4.43,1.98-4.43,4.43v3.58v0.68v7.35H49.39
		v20.19l37.27,13.13h26.69l37.27-13.13V70.47H121.06z M110.91,70.47H89.09v-5.92c0-1.24,1-2.24,2.24-2.24h17.35
		c1.24,0,2.24,1,2.24,2.24V70.47z"/>
</g>
</svg>
