<?xml version="1.0" encoding="utf-8"?>
<!-- Generator: Adobe Illustrator 23.1.0, SVG Export Plug-In . SVG Version: 6.00 Build 0)  -->
<svg version="1.1" id="Layer_1" xmlns="http://www.w3.org/2000/svg" xmlns:xlink="http://www.w3.org/1999/xlink" x="0px" y="0px"
	 viewBox="0 0 200 209.34" style="enable-background:new 0 0 200 209.34;" xml:space="preserve">
<style type="text/css">
	.st0{fill:#36C6C6;}
	.st1{fill:#37A3C4;}
	.st2{fill:#010101;}
	.st3{fill:#FAFAFA;}
	.st4{fill:#1C43BC;}
	.st5{fill:#FFFFFF;}
</style>
<g>
	<path d="M108.82,54.97c3.93-0.37,5.47,0.17,9.04,1.67c2.98,1.23,5.56,3.92,7.9,5.9c3.57-0.62,7.23-1.82,10.87-1.61
		c2.14,0.14,4.31,0.51,6.21,1.39c2.24,0.93,2.78,1.97,4.57,3.49c1.09,0.9,1.79,1.94,2.33,3.07c0.94,1.96,1.34,4.13,1.33,6.3
		l-0.02,5.55l0.01,43.71c0,1.51-0.09,3.02-0.3,4.52c-0.11,0.79-0.24,1.53-0.39,1.9c-0.98,2.31-3.44,4.22-5.88,5.58
		c-2.51,1.43-6.49,1.42-9.43,1.31c-5.46-0.32-7.6-2.5-7.59-7.24c-0.01-12.01,0-29.94,0-41.95c0-0.28,0.01-0.64,0.03-1.01
		c0.07-1.43-1.18-3.35-3.54-3.35l0,0c-2.46,0-3.51,1.6-3.58,3.12c-0.03,0.67-0.05,1.33-0.06,1.83c0,11.37,0.07,42.13-0.22,43.16
		c-1.01,4.15-6.37,5.38-11.31,5.47c-2.6,0-4.18-0.59-6.65-1.36l0,0c-2.03-0.68-3.4-2.58-3.41-4.72c-0.02-12.45,0-27.02-0.01-39.93
		c0-1.46-1.21-2.65-2.7-2.65h-0.05c-1.49,0-2.7,1.19-2.7,2.65c0,13.61,0,24.71,0,37.81c0,2.13-1.33,4.06-3.34,4.77
		c-2.62,0.93-4.77,1.5-7.24,1.54c-2.94,0.07-5.79-1.3-7.87-2.43c-1.62-0.89-2.64-2.58-2.64-4.42c-0.01-6.25,0.11-22.51,0.15-32.33
		c0.01-1.46-1.19-2.65-2.68-2.67l-0.05,0c-1.5-0.01-2.72,1.17-2.72,2.64c-0.03,11.62-0.09,20.38-0.14,32
		c-0.01,2.36-1.81,4.34-4.19,4.64c-0.7,0.09-1.4,0.14-2.1,0.17c-2.49,0.14-7-0.03-9.32-0.9c-2.6-0.94-4.69-2.76-5.95-4.92
		c-1.34-2.27-1.88-4.84-1.98-7.37c-0.05-10.08-0.01-23.55-0.02-33.64c0.01-1.74-0.09-4.33,0.28-6.05c0.8-4.05,3.06-7.93,6.55-10.74
		c1.7-1.36,3.72-2.43,5.94-3.03c3.39-0.84,9.53-0.96,13.03-0.58c2.02-2.12,3.56-4.86,6.35-6.19c3.56-1.72,6.88-2.39,10.93-2.17
		c2.89,0.16,6.56,1.65,9.26,2.53C98.4,56.92,103.9,55.45,108.82,54.97z"/>
	<path d="M156.66,99.42c0,0,3.12,0.3,4.64,0.96c1.76,0.76,3.33,2.05,3.33,3.97l0,21.25l-0.11,14.85l0.04,2.32
		c0.04,2.47-0.85,4.86-2.5,6.7l0,0c-1.88,2.1-4.57,2.43-7.39,2.4l-7.99-0.77c-1.34-0.13-2.68-0.19-4.02-0.17l-9.63,0.1
		c-2.6,0.03-5.19,0.32-7.73,0.87c-2.21,0.48-5.05,1.05-7.36,1.37c-3.33,0.45-5.86,1.29-9.27,1.21c-0.55-0.01-2.11,0-2.11,0l-4.82,0
		c-0.98,0-1.89-0.49-2.42-1.31l0,0c-0.97-1.55-2.92-6.52-1.86-8.01l0.28-0.4c1.28-1.79,3.53-2.61,5.66-2.06
		c1.31,0.34,3.52,0.79,4.36,0.82c2.25,0.08,5.83,0.17,7.97-0.34c2.54-0.57,5-1.8,6.73-3.13c1.08-0.84,2.59-0.85,3.64,0.02
		c1.38,1.15,2.58,1.99,4.76,2.57c2.31,0.63,4.83,0.84,7.31,0.72c3.52-0.12,7.09-0.75,9.97-2.17c2.92-1.41,4.97-3.51,6.26-5.74
		c0.52-0.93,1.01-1.87,1.28-2.85C156.69,126.94,156.58,105.65,156.66,99.42z"/>
</g>
</svg>
