<?xml version="1.0" encoding="utf-8"?>
<!-- Generator: Adobe Illustrator 23.1.0, SVG Export Plug-In . SVG Version: 6.00 Build 0)  -->
<svg version="1.1" id="Layer_1" xmlns="http://www.w3.org/2000/svg" xmlns:xlink="http://www.w3.org/1999/xlink" x="0px" y="0px"
	 viewBox="0 0 200 209.34" style="enable-background:new 0 0 200 209.34;" xml:space="preserve">
<style type="text/css">
	.st0{fill:#36C6C6;}
	.st1{fill:#37A3C4;}
	.st2{fill:#010101;}
	.st3{fill:#FAFAFA;}
	.st4{fill:#1C43BC;}
	.st5{fill:#FFFFFF;}
</style>
<g>
	<path d="M169.14,87.22l-46.93-27.89c-4.38-2.6-10.03-1.16-12.63,3.22l-27.89,46.93c-2.6,4.38-1.16,10.03,3.21,12.63L131.84,150
		c4.38,2.6,10.03,1.16,12.63-3.22l27.89-46.93C174.96,95.48,173.52,89.82,169.14,87.22z M102.75,118.02c-2.86-1.7-3.8-5.41-2.1-8.27
		s5.41-3.8,8.27-2.1c2.86,1.7,3.8,5.41,2.1,8.27C109.31,118.77,105.61,119.72,102.75,118.02z M111.86,102.68
		c-2.86-1.7-3.8-5.41-2.1-8.27c1.7-2.86,5.41-3.8,8.27-2.1s3.8,5.41,2.1,8.27C118.43,103.43,114.72,104.37,111.86,102.68z
		 M120.98,87.33c-2.86-1.7-3.8-5.41-2.1-8.27s5.41-3.8,8.27-2.1c2.86,1.7,3.8,5.41,2.1,8.27C127.55,88.09,123.84,89.03,120.98,87.33
		z M126.95,132.4c-2.86-1.7-3.8-5.41-2.1-8.27s5.41-3.8,8.27-2.1c2.86,1.7,3.8,5.41,2.1,8.27
		C133.52,133.16,129.81,134.1,126.95,132.4z M136.07,117.06c-2.86-1.7-3.8-5.41-2.1-8.27s5.41-3.8,8.27-2.1
		c2.86,1.7,3.8,5.41,2.1,8.27C142.63,117.81,138.92,118.76,136.07,117.06z M145.18,101.71c-2.86-1.7-3.8-5.41-2.1-8.27
		c1.7-2.86,5.41-3.8,8.27-2.1c2.86,1.7,3.8,5.41,2.1,8.27C151.75,102.47,148.04,103.41,145.18,101.71z"/>
	<path d="M82.64,125.91c-3.13-1.85-5.35-4.82-6.25-8.35c-0.9-3.53-0.37-7.21,1.49-10.34l19.7-33.16l-1.75-5.04
		c-1.67-4.81-6.93-7.35-11.73-5.68L32.54,81.29c-4.81,1.67-7.35,6.93-5.68,11.73l17.94,51.56c1.67,4.81,6.93,7.35,11.73,5.68
		l42.31-14.72L82.64,125.91z M46.64,99.95c-1.09-3.14,0.57-6.59,3.71-7.68c3.14-1.09,6.59,0.57,7.68,3.71
		c1.09,3.14-0.57,6.59-3.71,7.68C51.18,104.76,47.74,103.09,46.64,99.95z M63.69,130.59c-3.14,1.09-6.59-0.57-7.68-3.71
		c-1.09-3.14,0.57-6.59,3.71-7.68c3.14-1.09,6.59,0.57,7.68,3.71C68.5,126.05,66.83,129.49,63.69,130.59z M73.23,90.7
		c-1.09-3.14,0.57-6.59,3.72-7.68c3.14-1.09,6.59,0.57,7.68,3.71c1.09,3.14-0.57,6.59-3.71,7.68C77.77,95.51,74.32,93.84,73.23,90.7
		z"/>
</g>
</svg>
