<svg width="17" height="18" viewBox="0 0 17 18" fill="none" xmlns="http://www.w3.org/2000/svg">
<path d="M7.9853 12.0606H3.36687C3.3295 12.0606 3.29257 12.0525 3.25866 12.0368C3.22475 12.0211 3.19469 11.9981 3.17057 11.9696C3.14645 11.941 3.12887 11.9076 3.11904 11.8715C3.10921 11.8354 3.10738 11.7977 3.11368 11.7608L3.48488 8.63774C3.50787 8.50468 3.57712 8.38401 3.68041 8.29703C3.78371 8.21006 3.91441 8.16237 4.04944 8.16238H7.30329C7.43823 8.1625 7.56879 8.21025 7.67197 8.29721C7.77516 8.38418 7.84433 8.50477 7.86729 8.63774L8.23794 11.7597C8.24441 11.7966 8.24273 11.8344 8.23302 11.8706C8.22331 11.9068 8.2058 11.9403 8.18172 11.969C8.15765 11.9977 8.12759 12.0207 8.09366 12.0366C8.05972 12.0524 8.02274 12.0606 7.9853 12.0606Z" fill="#ffc700"/>
<path d="M13.6326 12.0606H9.01415C8.97682 12.0605 8.93995 12.0524 8.90611 12.0366C8.87227 12.0209 8.84228 11.9979 8.81822 11.9694C8.79416 11.9408 8.77663 11.9074 8.76683 11.8714C8.75704 11.8353 8.75522 11.7976 8.76151 11.7608L9.13216 8.63774C9.15514 8.50468 9.22439 8.38401 9.32769 8.29703C9.43098 8.21006 9.56168 8.16237 9.69672 8.16238H12.9506C13.0855 8.1625 13.2161 8.21025 13.3192 8.29721C13.4224 8.38418 13.4916 8.50477 13.5146 8.63774L13.8852 11.7597C13.8917 11.7966 13.89 11.8344 13.8803 11.8706C13.8706 11.9068 13.8531 11.9403 13.829 11.969C13.8049 11.9977 13.7749 12.0207 13.7409 12.0366C13.707 12.0524 13.67 12.0606 13.6326 12.0606Z" fill="#ffc700"/>
<path d="M10.8037 7.72968H6.18525C6.14792 7.72965 6.11105 7.72147 6.07721 7.70572C6.04337 7.68997 6.01337 7.66702 5.98932 7.63848C5.96526 7.60994 5.94773 7.5765 5.93793 7.54048C5.92813 7.50446 5.92632 7.46674 5.93261 7.42995L6.30325 4.30796C6.32624 4.1749 6.39549 4.05423 6.49879 3.96726C6.60208 3.88028 6.73278 3.83259 6.86782 3.8326H10.1217C10.2567 3.83259 10.3874 3.88028 10.4907 3.96726C10.594 4.05423 10.6632 4.1749 10.6862 4.30796L11.0569 7.42995C11.0632 7.46679 11.0613 7.50456 11.0515 7.54061C11.0417 7.57667 11.0241 7.61015 11 7.6387C10.9759 7.66725 10.9458 7.69018 10.9119 7.7059C10.878 7.72161 10.8411 7.72973 10.8037 7.72968Z" fill="#ffc700"/>
<path d="M8.5 0.0601807C6.81886 0.0601807 5.17547 0.558697 3.77766 1.49269C2.37984 2.42668 1.29037 3.7542 0.647028 5.30737C0.00368283 6.86054 -0.164645 8.56961 0.163329 10.2184C0.491303 11.8673 1.30085 13.3818 2.4896 14.5706C3.67834 15.7593 5.1929 16.5689 6.84173 16.8969C8.49057 17.2248 10.1996 17.0565 11.7528 16.4132C13.306 15.7698 14.6335 14.6803 15.5675 13.2825C16.5015 11.8847 17 10.2413 17 8.56018C17 7.44394 16.7801 6.33864 16.353 5.30737C15.9258 4.2761 15.2997 3.33907 14.5104 2.54977C13.7211 1.76047 12.7841 1.13437 11.7528 0.707204C10.7215 0.28004 9.61624 0.0601807 8.5 0.0601807ZM8.5 15.5831C7.11104 15.5829 5.75334 15.1708 4.59857 14.399C3.44379 13.6272 2.54382 12.5303 2.01244 11.247C1.48106 9.96368 1.34214 8.55164 1.61325 7.18939C1.88435 5.82715 2.55331 4.57588 3.53553 3.59382C4.51775 2.61175 5.76912 1.94299 7.13141 1.6721C8.4937 1.40121 9.90572 1.54035 11.1889 2.07193C12.4721 2.60351 13.5689 3.50366 14.3405 4.65856C15.1122 5.81345 15.5241 7.17122 15.5241 8.56018C15.5241 9.48254 15.3424 10.3959 14.9894 11.248C14.6364 12.1001 14.1189 12.8744 13.4667 13.5265C12.8144 14.1787 12.0401 14.696 11.1879 15.0488C10.3357 15.4017 9.42236 15.5833 8.5 15.5831Z" fill="#ffc700"/>
</svg>
