<svg width="42" height="41" viewBox="0 0 42 41" fill="none" xmlns="http://www.w3.org/2000/svg">
<path fill-rule="evenodd" clip-rule="evenodd" d="M20.6193 40.3413C9.38244 40.3413 0.24125 31.2001 0.24125 19.9632C0.24125 15.9369 1.40806 12.0664 3.624 8.72574L0 6.35663L3.97306 0L9.93659 3.64044C11.2546 4.44504 12.0737 5.90371 12.0737 7.4485C12.0737 8.22418 11.8699 8.98934 11.4853 9.66247L10.0411 12.1808C8.36091 14.4612 7.47216 17.1524 7.47216 19.9632C7.47216 27.2126 13.37 33.1104 20.6193 33.1104C27.8686 33.1104 33.7664 27.2126 33.7664 19.9632C33.7664 17.1524 32.8777 14.4612 31.1974 12.1808L31.156 12.1164L29.7532 9.66247C29.3687 8.98934 29.1649 8.22418 29.1649 7.4485C29.1649 5.90371 29.984 4.44504 31.3026 3.64044L37.2655 0L41.2386 6.35663L37.6146 8.72574C39.8305 12.0664 40.9973 15.9369 40.9973 19.9632C40.9973 31.2001 31.8561 40.3413 20.6193 40.3413ZM36.5044 13.6493C36.183 12.8427 35.7952 12.0519 35.3521 11.3005L34.2195 11.9684C34.629 12.6632 34.9866 13.3922 35.2837 14.1364L36.5044 13.6493ZM37.7009 19.3888L36.3869 19.4322C36.3606 18.6263 36.2719 17.8184 36.1233 17.0309L37.4157 16.7883C37.576 17.6409 37.672 18.5165 37.7009 19.3888ZM35.6423 24.7949L36.8939 25.1965C37.1595 24.3689 37.3639 23.513 37.5 22.6519L36.2011 22.4468C36.0762 23.2409 35.8882 24.031 35.6423 24.7949ZM34.1648 30.3855L33.1235 29.5829C33.6152 28.9446 34.0609 28.2655 34.4474 27.5635L35.5991 28.1978C35.1797 28.9584 34.6972 29.6946 34.1648 30.3855ZM5.1182 17.0157L3.8265 16.7705C3.66479 17.6238 3.5675 18.4987 3.53857 19.3703L4.85263 19.4151C4.87958 18.6098 4.96898 17.8026 5.1182 17.0157ZM5.89594 11.2842L7.02791 11.9534C6.61838 12.6456 6.25946 13.3752 5.96168 14.1194L4.74097 13.6316C5.06373 12.8244 5.45223 12.0342 5.89594 11.2842ZM5.6311 28.1816C6.04984 28.9428 6.53168 29.6797 7.06282 30.3713L8.10539 29.57C7.61435 28.931 7.16932 28.2513 6.78345 27.5486L5.6311 28.1816ZM4.3379 25.1801C4.07299 24.3505 3.86987 23.4939 3.73511 22.6335L5.03338 22.4297C5.15762 23.2238 5.34497 24.0146 5.59016 24.7797L4.3379 25.1801Z" fill="white"/>
</svg>
