<svg width="87" height="35" viewBox="0 0 87 35" fill="none" xmlns="http://www.w3.org/2000/svg">
<g opacity="0.75">
<path fill-rule="evenodd" clip-rule="evenodd" d="M12.9462 57.9859C13.9043 57.9859 14.8629 57.981 15.8216 57.976C17.7394 57.9662 19.6578 57.9563 21.5745 57.9859C22.9815 58.0141 23.6527 57.3813 23.7457 56.0552C23.7758 55.6259 23.7723 55.1921 23.7689 54.7603C23.7625 53.9759 23.7563 53.1985 23.9519 52.4679C25.7188 45.9141 27.5463 39.3805 29.5032 32.8831C29.6892 32.2624 30.8739 31.6054 31.6381 31.553C33.6242 31.3838 35.623 31.4352 37.5978 31.7062C40.9607 32.2443 44.4073 31.8497 47.5603 30.5655C51.4822 28.9895 54.5672 26.7082 55.3475 22.1012C55.8449 19.1588 56.6495 17.0306 59.6415 17.0105C62.4313 17.0105 66.9961 17.0105 69.7859 16.9863C70.3738 16.9192 70.9519 16.7839 71.5084 16.5832C71.7578 16.519 72.0069 16.4335 72.2557 16.348C72.7409 16.1813 73.2255 16.0149 73.7119 16.0069C75.7248 15.9732 77.9879 15.977 80.2229 15.9808C82.0058 15.9837 83.7708 15.9867 85.3766 15.9706C87.8026 15.9706 87.1718 1.95205 85.6799 2.00042C85.2919 2.0134 85.0381 2.00965 84.7456 2.00534C84.584 2.00296 84.4105 2.00042 84.196 2.00042C83.8901 2.00042 83.4987 1.48909 83.1134 0.98572C82.7399 0.497791 82.3721 0.0173324 82.0935 0.0173324C81.9399 0.0173324 81.48 0.513108 81.02 1.00888C80.5601 1.50464 80.1002 2.00042 79.9465 2.00042H20.1068C18.9262 2.00042 18.0043 1.91576 17.3493 0.694477C16.7913 -0.341396 15.7684 -0.188219 15.4611 0.95245C15.1943 1.93995 14.612 2.04878 13.8195 1.98026C12.7966 1.88756 12.2022 2.2503 11.8788 3.29826C11.4745 4.54776 10.5566 5.09593 9.16982 4.87828C8.43981 4.7721 7.69681 4.79394 6.97434 4.94278C6.02418 5.13625 5.73711 5.78114 6.37999 6.55502C6.79755 7.07026 7.27628 7.53715 7.75524 8.00427C7.93947 8.18394 8.12373 8.36364 8.30456 8.54615C10.3949 10.6542 10.2372 12.0407 7.7102 13.5683C7.33498 13.7949 6.95199 14.0115 6.56884 14.2282C5.77946 14.6748 4.98942 15.1216 4.26537 15.6562C4.06309 15.8187 3.90649 16.0308 3.81085 16.2716C3.7152 16.5124 3.68377 16.7738 3.7196 17.0303C3.75543 17.2869 3.85731 17.5298 4.01531 17.7354C4.17331 17.941 4.38203 18.1023 4.62116 18.2036L4.95675 18.3446C5.22157 18.4068 5.49534 18.4218 5.76541 18.389C8.1024 18.389 11.1187 19.046 11.6645 20.0496C12.1376 20.9242 12.1093 25.1604 10.1564 27.3329C9.22684 28.3675 8.54292 30.2365 7.97833 31.7794C7.82582 32.1962 7.68202 32.5892 7.54443 32.9355C6.24214 36.1949 5.12709 39.5255 4.20471 42.9113C3.88561 44.0804 3.53755 45.2563 3.1881 46.4369C2.652 48.2482 2.11265 50.0704 1.66961 51.8956C-1.04698 58.5899 -2.28762 57.9859 12.9462 57.9859ZM42.0858 19.0097C40.5534 20.3478 40.7838 23.6731 42.4577 24.8823H42.4497C42.8742 25.1846 43.9861 25.9907 44.443 26.3656C42.4133 27.1516 38.5964 25.9504 38.5964 20.0738C37.715 20.4123 36.9872 21.1661 36.3524 21.8311C34.1125 24.189 34.6705 27.6191 37.7959 28.5179C39.7073 29.03 41.7024 29.1534 43.6626 28.8807C46.6506 28.4897 49.3838 27.2886 51.1264 24.6042C52.1211 23.0685 51.8259 21.3354 50.4067 20.2995C48.3568 18.8001 45.6802 18.5139 43.2987 18.7638C42.8858 18.7954 42.4783 18.878 42.0858 19.0097Z" fill="url(#paint0_linear)"/>
<path fill-rule="evenodd" clip-rule="evenodd" d="M12.9462 57.9859C13.9043 57.9859 14.8629 57.981 15.8216 57.976C17.7394 57.9662 19.6578 57.9563 21.5745 57.9859C22.9815 58.0141 23.6527 57.3813 23.7457 56.0552C23.7758 55.6259 23.7723 55.1921 23.7689 54.7603C23.7625 53.9759 23.7563 53.1985 23.9519 52.4679C25.7188 45.9141 27.5463 39.3805 29.5032 32.8831C29.6892 32.2624 30.8739 31.6054 31.6381 31.553C33.6242 31.3838 35.623 31.4352 37.5978 31.7062C40.9607 32.2443 44.4073 31.8497 47.5603 30.5655C51.4822 28.9895 54.5672 26.7082 55.3475 22.1012C55.8449 19.1588 56.6495 17.0306 59.6415 17.0105C62.4313 17.0105 66.9961 17.0105 69.7859 16.9863C70.3738 16.9192 70.9519 16.7839 71.5084 16.5832C71.7578 16.519 72.0069 16.4335 72.2557 16.348C72.7409 16.1813 73.2255 16.0149 73.7119 16.0069C75.7248 15.9732 77.9879 15.977 80.2229 15.9808C82.0058 15.9837 83.7708 15.9867 85.3766 15.9706C87.8026 15.9706 87.1718 1.95205 85.6799 2.00042C85.2919 2.0134 85.0381 2.00965 84.7456 2.00534C84.584 2.00296 84.4105 2.00042 84.196 2.00042C83.8901 2.00042 83.4987 1.48909 83.1134 0.98572C82.7399 0.497791 82.3721 0.0173324 82.0935 0.0173324C81.9399 0.0173324 81.48 0.513108 81.02 1.00888C80.5601 1.50464 80.1002 2.00042 79.9465 2.00042H20.1068C18.9262 2.00042 18.0043 1.91576 17.3493 0.694477C16.7913 -0.341396 15.7684 -0.188219 15.4611 0.95245C15.1943 1.93995 14.612 2.04878 13.8195 1.98026C12.7966 1.88756 12.2022 2.2503 11.8788 3.29826C11.4745 4.54776 10.5566 5.09593 9.16982 4.87828C8.43981 4.7721 7.69681 4.79394 6.97434 4.94278C6.02418 5.13625 5.73711 5.78114 6.37999 6.55502C6.79755 7.07026 7.27628 7.53715 7.75524 8.00427C7.93947 8.18394 8.12373 8.36364 8.30456 8.54615C10.3949 10.6542 10.2372 12.0407 7.7102 13.5683C7.33498 13.7949 6.95199 14.0115 6.56884 14.2282C5.77946 14.6748 4.98942 15.1216 4.26537 15.6562C4.06309 15.8187 3.90649 16.0308 3.81085 16.2716C3.7152 16.5124 3.68377 16.7738 3.7196 17.0303C3.75543 17.2869 3.85731 17.5298 4.01531 17.7354C4.17331 17.941 4.38203 18.1023 4.62116 18.2036L4.95675 18.3446C5.22157 18.4068 5.49534 18.4218 5.76541 18.389C8.1024 18.389 11.1187 19.046 11.6645 20.0496C12.1376 20.9242 12.1093 25.1604 10.1564 27.3329C9.22684 28.3675 8.54292 30.2365 7.97833 31.7794C7.82582 32.1962 7.68202 32.5892 7.54443 32.9355C6.24214 36.1949 5.12709 39.5255 4.20471 42.9113C3.88561 44.0804 3.53755 45.2563 3.1881 46.4369C2.652 48.2482 2.11265 50.0704 1.66961 51.8956C-1.04698 58.5899 -2.28762 57.9859 12.9462 57.9859ZM42.0858 19.0097C40.5534 20.3478 40.7838 23.6731 42.4577 24.8823H42.4497C42.8742 25.1846 43.9861 25.9907 44.443 26.3656C42.4133 27.1516 38.5964 25.9504 38.5964 20.0738C37.715 20.4123 36.9872 21.1661 36.3524 21.8311C34.1125 24.189 34.6705 27.6191 37.7959 28.5179C39.7073 29.03 41.7024 29.1534 43.6626 28.8807C46.6506 28.4897 49.3838 27.2886 51.1264 24.6042C52.1211 23.0685 51.8259 21.3354 50.4067 20.2995C48.3568 18.8001 45.6802 18.5139 43.2987 18.7638C42.8858 18.7954 42.4783 18.878 42.0858 19.0097Z" fill="#583333"/>
</g>
<defs>
<linearGradient id="paint0_linear" x1="43.5" y1="0" x2="43.5" y2="58" gradientUnits="userSpaceOnUse">
<stop stop-color="#161A23"/>
<stop offset="1" stop-color="#161A23" stop-opacity="0"/>
</linearGradient>
</defs>
</svg>
