<svg width="38" height="36" viewBox="0 0 38 36" fill="none" xmlns="http://www.w3.org/2000/svg">
<path d="M0 0H5.06667V36H0V0Z" fill="#477B9E"/>
<path d="M0 0H5.06667V36H0V0Z" fill="url(#paint0_linear)"/>
<path d="M18.8915 13.4068C18.0387 13.4238 17.4763 14.0381 17.3941 14.9045V16.1886H20.5697V14.8913C20.5306 14.0698 19.8742 13.4295 18.9749 13.4068C18.9471 13.4062 18.9193 13.4062 18.8915 13.4068Z" fill="#477B9E"/>
<path d="M18.8915 13.4068C18.0387 13.4238 17.4763 14.0381 17.3941 14.9045V16.1886H20.5697V14.8913C20.5306 14.0698 19.8742 13.4295 18.9749 13.4068C18.9471 13.4062 18.9193 13.4062 18.8915 13.4068Z" fill="url(#paint1_linear)"/>
<path fill-rule="evenodd" clip-rule="evenodd" d="M19 7.2C17.9012 7.2 16.8387 7.34727 15.8333 7.62212V0H10.7667L10.7667 10.53C8.80517 12.4699 7.6 15.1016 7.6 18C7.6 20.8984 8.80517 23.5301 10.7667 25.47L10.7667 36H15.8333L15.8333 28.3779C16.8387 28.6527 17.9012 28.8 19 28.8C19.8707 28.8 20.7186 28.7075 21.5333 28.5324V36H26.6V26.05C28.9322 24.0724 30.4 21.1986 30.4 18C30.4 14.8014 28.9322 11.9276 26.6 9.95001V0H21.5333V7.46762C20.7186 7.29247 19.8707 7.2 19 7.2ZM18.975 11.25C20.5145 11.2569 21.9216 12.187 22.5194 13.4846C22.7238 13.9366 22.8325 14.4009 22.8325 14.9045V16.1886H24.7V22.9623H13.4141V16.1886H15.1314L15.1311 16.1739C15.1156 15.2701 15.0979 14.2392 15.4319 13.4846C16.085 12.1182 17.4354 11.2431 18.975 11.25Z" fill="#477B9E"/>
<path fill-rule="evenodd" clip-rule="evenodd" d="M19 7.2C17.9012 7.2 16.8387 7.34727 15.8333 7.62212V0H10.7667L10.7667 10.53C8.80517 12.4699 7.6 15.1016 7.6 18C7.6 20.8984 8.80517 23.5301 10.7667 25.47L10.7667 36H15.8333L15.8333 28.3779C16.8387 28.6527 17.9012 28.8 19 28.8C19.8707 28.8 20.7186 28.7075 21.5333 28.5324V36H26.6V26.05C28.9322 24.0724 30.4 21.1986 30.4 18C30.4 14.8014 28.9322 11.9276 26.6 9.95001V0H21.5333V7.46762C20.7186 7.29247 19.8707 7.2 19 7.2ZM18.975 11.25C20.5145 11.2569 21.9216 12.187 22.5194 13.4846C22.7238 13.9366 22.8325 14.4009 22.8325 14.9045V16.1886H24.7V22.9623H13.4141V16.1886H15.1314L15.1311 16.1739C15.1156 15.2701 15.0979 14.2392 15.4319 13.4846C16.085 12.1182 17.4354 11.2431 18.975 11.25Z" fill="url(#paint2_linear)"/>
<path d="M38 0H32.9333V36H38V0Z" fill="#477B9E"/>
<path d="M38 0H32.9333V36H38V0Z" fill="url(#paint3_linear)"/>
<defs>
<linearGradient id="paint0_linear" x1="19" y1="0" x2="19" y2="36" gradientUnits="userSpaceOnUse">
<stop stop-color="white"/>
<stop offset="1" stop-color="white" stop-opacity="0.51"/>
</linearGradient>
<linearGradient id="paint1_linear" x1="19" y1="0" x2="19" y2="36" gradientUnits="userSpaceOnUse">
<stop stop-color="white"/>
<stop offset="1" stop-color="white" stop-opacity="0.51"/>
</linearGradient>
<linearGradient id="paint2_linear" x1="19" y1="0" x2="19" y2="36" gradientUnits="userSpaceOnUse">
<stop stop-color="white"/>
<stop offset="1" stop-color="white" stop-opacity="0.51"/>
</linearGradient>
<linearGradient id="paint3_linear" x1="19" y1="0" x2="19" y2="36" gradientUnits="userSpaceOnUse">
<stop stop-color="white"/>
<stop offset="1" stop-color="white" stop-opacity="0.51"/>
</linearGradient>
</defs>
</svg>
