<?xml version="1.0" encoding="utf-8"?>
<!-- Generator: Adobe Illustrator 23.1.0, SVG Export Plug-In . SVG Version: 6.00 Build 0)  -->
<svg version="1.1" id="Layer_1" xmlns="http://www.w3.org/2000/svg" xmlns:xlink="http://www.w3.org/1999/xlink" x="0px" y="0px"
	 viewBox="0 0 200 209.34" style="enable-background:new 0 0 200 209.34;" xml:space="preserve">
<style type="text/css">
	.st0{fill:#36C6C6;}
	.st1{fill:#37A3C4;}
	.st2{fill:#010101;}
	.st3{fill:#FAFAFA;}
	.st4{fill:#1C43BC;}
	.st5{fill:#FFFFFF;}
</style>
<path d="M161.7,100.33c-0.05-0.07-0.11-0.14-0.16-0.22l-0.68-0.88L132.5,62.4c0,0-2.96-5.93-11.85-5.93
	c-8.9,0-11.86,8.89-11.86,8.89l-1.74,13.5c-1.62,3.23-3.5,4.25-7.08,4.27c-3.58-0.01-5.46-1.04-7.08-4.27l-1.74-13.5
	c0,0-2.96-8.89-11.85-8.89c-8.88,0-11.84,5.93-11.84,5.93L39.13,99.23l-0.68,0.88c-0.05,0.08-0.11,0.15-0.16,0.22
	c-3.8,5.18-6.13,11.49-6.37,18.35v0.04c0,1.14,0.02,2.3,0.07,3.47c0,0.07,0,0.14,0.01,0.21c0.83,10.91,6.96,20.34,15.83,25.72
	c4.98,3.01,10.82,4.74,17.07,4.74c4.84,0,9.44-1.04,13.58-2.91c0.01-0.01,0.02-0.01,0.03-0.02c4.31-1.95,8.12-4.8,11.2-8.31
	c2.13-2.42,3.91-5.16,5.26-8.13h4.93h0.15h4.93c1.35,2.97,3.13,5.71,5.26,8.13c3.08,3.51,6.89,6.36,11.21,8.31
	c0.01,0.01,0.02,0.01,0.03,0.02c4.14,1.87,8.75,2.91,13.59,2.91c6.25,0,12.1-1.73,17.08-4.74c8.88-5.38,15.01-14.81,15.84-25.72
	c0.01-0.07,0.01-0.14,0.01-0.21c0.05-1.17,0.07-2.33,0.07-3.47v-0.04C167.83,111.82,165.5,105.51,161.7,100.33z M64.9,139.86
	c-11.6,0-21-9.4-21-21c0-11.6,9.4-21,21-21s21,9.4,21,21C85.9,130.46,76.5,139.86,64.9,139.86z M104.06,119.94
	c0,1.12,0,3.04-1.84,3.32l-2.16,0.73H99.9l-2.16-0.73c-1.84-0.28-1.84-2.2-1.84-3.32c0-3.54,0-6.07,0-6.07h4h0.15h4
	C104.06,113.86,104.06,116.39,104.06,119.94z M135.08,139.86c-11.6,0-21.01-9.4-21.01-21c0-11.6,9.41-21,21.01-21
	c11.6,0,21.01,9.4,21.01,21C156.09,130.46,146.68,139.86,135.08,139.86z"/>
</svg>
