<?xml version="1.0" encoding="utf-8"?>
<!-- Generator: Adobe Illustrator 23.1.0, SVG Export Plug-In . SVG Version: 6.00 Build 0)  -->
<svg version="1.1" id="Layer_1" xmlns="http://www.w3.org/2000/svg" xmlns:xlink="http://www.w3.org/1999/xlink" x="0px" y="0px"
	 viewBox="0 0 200 209.34" style="enable-background:new 0 0 200 209.34;" xml:space="preserve">
<style type="text/css">
	.st0{fill:#36C6C6;}
	.st1{fill:#37A3C4;}
	.st2{fill:#010101;}
	.st3{fill:#FAFAFA;}
	.st4{fill:#1C43BC;}
	.st5{fill:#FFFFFF;}
</style>
<path d="M149.29,97.13c-3.25-21.21-20.01-37.96-41.22-41.22v-7.68H93v7.67C71.8,59.16,55.03,75.92,51.78,97.13H41.45v15.07h10.34
	c3.25,21.22,20.01,37.97,41.22,41.23v7.67h15.07v-7.68c21.21-3.25,37.96-20.01,41.21-41.22h10.34V97.13H149.29z M120.74,112.2h15.04
	c-2.94,13.86-13.85,24.77-27.7,27.71v-15.04c-1.39-1.38-2.16-2.16-3.54-3.54h-7.98c-1.39,1.38-2.16,2.16-3.54,3.54v15.05
	c-13.86-2.95-24.77-13.86-27.71-27.72h15.04l3.54-3.54v-7.98l-3.54-3.54H65.28C68.24,83.27,79.14,72.36,93,69.41v15.05
	c1.38,1.39,2.15,2.16,3.54,3.54h7.98l3.54-3.54V69.42c13.85,2.94,24.77,13.85,27.71,27.71h-15.05l-3.54,3.54v7.98L120.74,112.2z"/>
</svg>
