<svg width="20" height="20" viewBox="0 0 20 20" fill="none" xmlns="http://www.w3.org/2000/svg">
<path fill-rule="evenodd" clip-rule="evenodd" d="M13.2779 13.2635C10.5442 15.9971 6.11205 15.9971 3.37838 13.2635C0.644708 10.5298 0.644707 6.09763 3.37838 3.36396C6.11205 0.630291 10.5442 0.630291 13.2779 3.36396C16.0115 6.09763 16.0115 10.5298 13.2779 13.2635ZM13.523 14.398C10.3799 17.0876 5.6458 16.9451 2.67127 13.9706C-0.452923 10.8464 -0.452923 5.78105 2.67127 2.65685C5.79547 -0.46734 10.8608 -0.46734 13.985 2.65685C17.0212 5.6931 17.1067 10.5627 14.2414 13.7022L19.5905 19.0513L18.8834 19.7584L13.523 14.398Z" fill="white"/>
</svg>
