<?xml version="1.0" encoding="utf-8"?>
<!-- Generator: Adobe Illustrator 23.1.0, SVG Export Plug-In . SVG Version: 6.00 Build 0)  -->
<svg version="1.1" id="Layer_1" xmlns="http://www.w3.org/2000/svg" xmlns:xlink="http://www.w3.org/1999/xlink" x="0px" y="0px"
	 viewBox="0 0 200 209.34" style="enable-background:new 0 0 200 209.34;" xml:space="preserve">
<style type="text/css">
	.st0{fill:#36C6C6;}
	.st1{fill:#37A3C4;}
	.st2{fill:#010101;}
	.st3{fill:#FAFAFA;}
	.st4{fill:#1C43BC;}
	.st5{fill:#FFFFFF;}
</style>
<path d="M132.16,127.99c0,0-7.62,7.23-10.22,5.82c0,0,9.88-11.49,9.88-20.99c0-9.52-0.45-13.97-0.45-21.85
	c0-7.88-0.6-38.5-30.32-38.5s-30.32,30.62-30.32,38.5c0,7.87-0.45,12.33-0.45,21.85c0,9.51,9.88,20.99,9.88,20.99
	c-2.6,1.41-10.22-5.82-10.22-5.82c-6.46,0-18.22,14.8-18.22,14.8s7.7,14.31,47.54,14.31c23.34,0,48.75-20.07,48.75-20.07
	S138.62,127.99,132.16,127.99z M101.28,126.93c-11.82,0-13.6-4.74-13.6-8.03s6.09-9.07,13.6-9.07s13.6,5.79,13.6,9.07
	S113.1,126.93,101.28,126.93z M115.33,98.91c-1.51,0-2.92-0.39-4.15-1.08c0,0,0,0-0.01-0.01c-0.14-0.12-0.93-0.78-2.03-1.58
	c-1.99-1.44-3.92-3.35-7.86-3.35c-3.49,0-5.87,1.91-7.86,3.35c-1.11,0.8-1.89,1.46-2.03,1.58c-0.01,0.01-0.01,0.01-0.01,0.01
	c-1.23,0.69-2.64,1.08-4.15,1.08c-4.72,0-7.65-2.93-7.65-7.65c0-4.72,5.61-9.44,10.33-9.44c1.5,0,2.92,0.38,4.14,1.07
	c0.04,0.02,0.14,0.09,0.3,0.18c1.1,0.64,3.12,2.68,7,2.68c3.6,0,5.26-1.76,6.59-2.51c0.32-0.19,0.52-0.31,0.57-0.35
	c1.22-0.69,2.64-1.07,4.14-1.07c4.72,0,10.33,4.72,10.33,9.44C122.98,95.98,120.04,98.91,115.33,98.91z"/>
</svg>
