<?xml version="1.0" encoding="utf-8"?>
<!-- Generator: Adobe Illustrator 23.1.0, SVG Export Plug-In . SVG Version: 6.00 Build 0)  -->
<svg version="1.1" id="Layer_1" xmlns="http://www.w3.org/2000/svg" xmlns:xlink="http://www.w3.org/1999/xlink" x="0px" y="0px"
	 viewBox="0 0 200 209.34" style="enable-background:new 0 0 200 209.34;" xml:space="preserve">
<style type="text/css">
	.st0{fill:#36C6C6;}
	.st1{fill:#37A3C4;}
	.st2{fill:#010101;}
	.st3{fill:#FAFAFA;}
	.st4{fill:#1C43BC;}
	.st5{fill:#FFFFFF;}
</style>
<path d="M133.6,94.75c-21.88,5.05-50.32,5.27-56.99,3.53c5.08-12.33,30.88-8.18,36.56-7.49c13.61,1.64,24.2-3.87,24.2-3.87
	s-2.9-18.27-9.57-26.68c-6.67-8.41-15.08-5.8-18.85,0c-3.77,5.8-14.79,4.93-19.72,2.03c-4.93-2.9-16.82-1.89-20.88,8.63
	c-4.06,10.52-6.38,22.7-6.38,22.7s-31.62,6.96-31.62,16.82c0,4.95,12.66,7.71,27.47,8.75c-0.16,0.9-0.3,2.27-0.3,4.23
	c0,16.53,11.12,31.33,16.87,31.33c5.75,0,9.77-4.75,16.19-10.73c4.75-4.41,9.43-4.06,9.43-4.06s4.68-0.35,9.43,4.06
	c6.43,5.98,10.44,10.73,16.19,10.73c5.75,0,16.87-14.79,16.87-31.33c0-4.21-0.68-5.7-0.68-5.7s-6.09,6.22-41.82,6.22
	c-23.56,0-34.23-2.7-38.76-4.55c13.78,0.71,28.69,0.02,36.68-1.71c17.4-3.77,21.46-6.09,39.45-4.06
	c17.98,2.03,32.29,4.06,32.29-3.19S139.88,93.3,133.6,94.75z M106.4,133.15c0.32-0.71,1.02-1.16,1.8-1.16
	c3.8-0.02,16.36-0.31,19.31-3.38c0,6.09-1.64,10.93-6.26,11.51c-4.62,0.58-10.39-3.02-14.56-5.1
	C105.94,134.65,106.09,133.84,106.4,133.15z M91.8,131.99c0.77,0,1.48,0.45,1.8,1.16c0.31,0.69,0.46,1.5-0.28,1.86
	c-4.17,2.08-9.95,5.68-14.56,5.1c-4.62-0.58-6.26-5.41-6.26-11.51C75.44,131.68,88.01,131.97,91.8,131.99z"/>
</svg>
