<svg width="20" height="20" viewBox="0 0 20 20" fill="none" xmlns="http://www.w3.org/2000/svg">
<path d="M13.7063 11.6535L5.05858 3.00006L3.00203 3.00006L3.00203 5.05797L11.6497 13.7114L10.659 14.703L11.6836 15.7283L12.9069 14.4822L15.2468 16.7873C15.3141 16.8548 15.3939 16.9082 15.4818 16.9447C15.5698 16.9812 15.664 17 15.7592 17C15.8543 17 15.9486 16.9812 16.0365 16.9447C16.1244 16.9082 16.2043 16.8548 16.2715 16.7873L16.7874 16.271C17.0709 15.9874 17.0709 15.5293 16.7874 15.2457L14.4766 12.9333L15.7216 11.6871L14.697 10.6618L13.7063 11.6535Z" fill="#F4E661"/>
<path d="M14.9414 3L10.7686 7.17558L12.8257 9.23295L16.998 5.05791L16.998 3L14.9414 3Z" fill="#F4E661"/>
<path d="M6.29375 11.6534L7.17588 10.7707L9.23297 12.8281L8.3503 13.7113L9.341 14.703L8.31636 15.7283L7.09311 14.4821L4.75315 16.7873C4.68592 16.8547 4.60607 16.9082 4.51816 16.9447C4.43025 16.9812 4.33601 16.9999 4.24083 16.9999C4.14566 16.9999 4.05142 16.9812 3.96351 16.9447C3.8756 16.9082 3.79574 16.8547 3.72851 16.7873L3.21256 16.271C2.92915 15.9874 2.92915 15.5293 3.21256 15.2457L5.52345 12.9332L4.27841 11.6871L5.30305 10.6618L6.29375 11.6534Z" fill="#F4E661"/>
</svg>
