<svg width="32" height="36" viewBox="0 0 32 36" fill="none" xmlns="http://www.w3.org/2000/svg">
<path d="M32 29.1429V30.8571H0V29.1429L3.55556 25.7143V15.4286C3.55487 12.8438 4.41968 10.328 6.02129 8.25535C7.62291 6.18275 9.87571 4.66421 12.4444 3.92571C12.4357 3.76011 12.4357 3.59418 12.4444 3.42857C12.4444 2.51926 12.819 1.64719 13.4858 1.00421C14.1526 0.361223 15.057 0 16 0C16.943 0 17.8474 0.361223 18.5142 1.00421C19.181 1.64719 19.5556 2.51926 19.5556 3.42857C19.5644 3.59486 19.5644 3.75943 19.5556 3.92571C22.1243 4.66421 24.3771 6.18275 25.9787 8.25535C27.5803 10.328 28.4451 12.8438 28.4444 15.4286V25.7143L32 29.1429ZM19.5556 32.5714C19.5556 33.4807 19.181 34.3528 18.5142 34.9958C17.8474 35.6388 16.943 36 16 36C15.057 36 14.1526 35.6388 13.4858 34.9958C12.819 34.3528 12.4444 33.4807 12.4444 32.5714" fill="#477B9E"/>
<path d="M32 29.1429V30.8571H0V29.1429L3.55556 25.7143V15.4286C3.55487 12.8438 4.41968 10.328 6.02129 8.25535C7.62291 6.18275 9.87571 4.66421 12.4444 3.92571C12.4357 3.76011 12.4357 3.59418 12.4444 3.42857C12.4444 2.51926 12.819 1.64719 13.4858 1.00421C14.1526 0.361223 15.057 0 16 0C16.943 0 17.8474 0.361223 18.5142 1.00421C19.181 1.64719 19.5556 2.51926 19.5556 3.42857C19.5644 3.59486 19.5644 3.75943 19.5556 3.92571C22.1243 4.66421 24.3771 6.18275 25.9787 8.25535C27.5803 10.328 28.4451 12.8438 28.4444 15.4286V25.7143L32 29.1429ZM19.5556 32.5714C19.5556 33.4807 19.181 34.3528 18.5142 34.9958C17.8474 35.6388 16.943 36 16 36C15.057 36 14.1526 35.6388 13.4858 34.9958C12.819 34.3528 12.4444 33.4807 12.4444 32.5714" fill="url(#paint0_linear)"/>
<defs>
<linearGradient id="paint0_linear" x1="16" y1="0" x2="16" y2="36" gradientUnits="userSpaceOnUse">
<stop stop-color="white"/>
<stop offset="1" stop-color="white" stop-opacity="0.51"/>
</linearGradient>
</defs>
</svg>
