<svg width="22" height="22" viewBox="0 0 22 22" fill="none" xmlns="http://www.w3.org/2000/svg">
<path d="M19.3785 12.078C19.4236 11.726 19.4688 11.374 19.4688 11C19.4688 10.626 19.4462 10.274 19.3785 9.922L21.7715 8.096C21.9747 7.92 22.0424 7.634 21.907 7.392L19.6494 3.586C19.5139 3.344 19.2204 3.256 18.9495 3.344L16.1501 4.444C15.5632 4.004 14.931 3.63 14.2312 3.366L13.8023 0.462C13.7797 0.198 13.5313 0 13.2604 0H8.74529C8.47438 0 8.22604 0.198 8.18089 0.462L7.75195 3.366C7.07468 3.652 6.41998 4.004 5.83301 4.444L3.03362 3.344C2.78528 3.256 2.4918 3.344 2.33377 3.586L0.0761929 7.392C-0.0592617 7.634 -0.0141092 7.92 0.211648 8.096L2.60468 9.922C2.55953 10.274 2.53695 10.626 2.53695 11C2.53695 11.374 2.55953 11.726 2.60468 12.078L0.211648 13.904C0.00846655 14.08 -0.0592617 14.366 0.0761929 14.608L2.33377 18.414C2.46922 18.656 2.76271 18.744 3.03362 18.656L5.83301 17.556C6.41998 17.996 7.0521 18.37 7.75195 18.634L8.18089 21.538C8.22604 21.802 8.4518 22 8.74529 22H13.2604C13.5313 22 13.7797 21.802 13.8248 21.538L14.2538 18.634C14.931 18.348 15.5857 17.996 16.1501 17.556L18.9721 18.656C19.2204 18.744 19.5139 18.656 19.672 18.414L21.9295 14.608C22.065 14.366 21.9973 14.08 21.7941 13.904L19.3785 12.078ZM11.0029 14.3C9.12907 14.3 7.6165 12.826 7.6165 11C7.6165 9.174 9.12907 7.7 11.0029 7.7C12.8766 7.7 14.3892 9.174 14.3892 11C14.3892 12.826 12.8766 14.3 11.0029 14.3Z" fill="#4A7FA3"/>
<path d="M19.3785 12.078C19.4236 11.726 19.4688 11.374 19.4688 11C19.4688 10.626 19.4462 10.274 19.3785 9.922L21.7715 8.096C21.9747 7.92 22.0424 7.634 21.907 7.392L19.6494 3.586C19.5139 3.344 19.2204 3.256 18.9495 3.344L16.1501 4.444C15.5632 4.004 14.931 3.63 14.2312 3.366L13.8023 0.462C13.7797 0.198 13.5313 0 13.2604 0H8.74529C8.47438 0 8.22604 0.198 8.18089 0.462L7.75195 3.366C7.07468 3.652 6.41998 4.004 5.83301 4.444L3.03362 3.344C2.78528 3.256 2.4918 3.344 2.33377 3.586L0.0761929 7.392C-0.0592617 7.634 -0.0141092 7.92 0.211648 8.096L2.60468 9.922C2.55953 10.274 2.53695 10.626 2.53695 11C2.53695 11.374 2.55953 11.726 2.60468 12.078L0.211648 13.904C0.00846655 14.08 -0.0592617 14.366 0.0761929 14.608L2.33377 18.414C2.46922 18.656 2.76271 18.744 3.03362 18.656L5.83301 17.556C6.41998 17.996 7.0521 18.37 7.75195 18.634L8.18089 21.538C8.22604 21.802 8.4518 22 8.74529 22H13.2604C13.5313 22 13.7797 21.802 13.8248 21.538L14.2538 18.634C14.931 18.348 15.5857 17.996 16.1501 17.556L18.9721 18.656C19.2204 18.744 19.5139 18.656 19.672 18.414L21.9295 14.608C22.065 14.366 21.9973 14.08 21.7941 13.904L19.3785 12.078ZM11.0029 14.3C9.12907 14.3 7.6165 12.826 7.6165 11C7.6165 9.174 9.12907 7.7 11.0029 7.7C12.8766 7.7 14.3892 9.174 14.3892 11C14.3892 12.826 12.8766 14.3 11.0029 14.3Z" fill="url(#paint0_linear)"/>
<defs>
<linearGradient id="paint0_linear" x1="11" y1="0" x2="11" y2="22" gradientUnits="userSpaceOnUse">
<stop stop-color="white"/>
<stop offset="1" stop-color="white" stop-opacity="0.5"/>
</linearGradient>
</defs>
</svg>
