<svg width="12" height="13" viewBox="0 0 12 13" fill="none" xmlns="http://www.w3.org/2000/svg">
<path d="M7.70312 9.375C7.70312 10.0938 7.81771 10.6432 8.04688 11.0234C8.28125 11.3984 8.61979 11.5859 9.0625 11.5859C9.5 11.5859 9.83854 11.3958 10.0781 11.0156C10.3177 10.6302 10.4375 10.0833 10.4375 9.375C10.4375 8.65625 10.3203 8.11198 10.0859 7.74219C9.85677 7.3724 9.51562 7.1875 9.0625 7.1875C8.61979 7.1875 8.28125 7.375 8.04688 7.75C7.81771 8.125 7.70312 8.66667 7.70312 9.375ZM11.3672 9.39062C11.3672 10.3125 11.1641 11.0286 10.7578 11.5391C10.3516 12.0495 9.78646 12.3047 9.0625 12.3047C8.33854 12.3047 7.77604 12.0495 7.375 11.5391C6.97396 11.0286 6.77344 10.3125 6.77344 9.39062C6.77344 8.46875 6.97396 7.75 7.375 7.23438C7.77604 6.71875 8.33854 6.46094 9.0625 6.46094C9.78646 6.46094 10.3516 6.71875 10.7578 7.23438C11.1641 7.75 11.3672 8.46875 11.3672 9.39062ZM1.57031 3.35938C1.57031 4.07812 1.6875 4.6276 1.92188 5.00781C2.15625 5.38281 2.49219 5.57031 2.92969 5.57031C3.3724 5.57031 3.71094 5.38021 3.94531 5C4.1849 4.61458 4.30469 4.06771 4.30469 3.35938C4.30469 2.64062 4.1875 2.09635 3.95312 1.72656C3.72396 1.35677 3.38281 1.17188 2.92969 1.17188C2.49219 1.17188 2.15625 1.35938 1.92188 1.73438C1.6875 2.10938 1.57031 2.65104 1.57031 3.35938ZM5.23438 3.375C5.23438 4.29688 5.03125 5.01562 4.625 5.53125C4.21875 6.04688 3.65365 6.30469 2.92969 6.30469C2.21094 6.30469 1.64844 6.04948 1.24219 5.53906C0.841146 5.02344 0.640625 4.30208 0.640625 3.375C0.640625 2.45312 0.841146 1.73438 1.24219 1.21875C1.64844 0.703125 2.21094 0.445312 2.92969 0.445312C3.65365 0.445312 4.21875 0.703125 4.625 1.21875C5.03125 1.73438 5.23438 2.45312 5.23438 3.375ZM2.25781 12.3047L8.83594 0.445312H9.6875L3.10938 12.3047H2.25781Z" fill="white"/>
</svg>
