<svg width="43" height="40" viewBox="0 0 43 40" fill="none" xmlns="http://www.w3.org/2000/svg">
<path d="M17.3834 31.7627C16.2063 33.0499 14.5124 33.8567 12.6304 33.8567C11.5848 33.8567 10.5979 33.6076 9.72525 33.1658L6.41602 38.3756C8.24402 39.4101 10.3537 40.0001 12.5995 40.0001C16.1597 40.0001 19.3797 38.5156 21.6727 36.1331C20.8626 35.589 20.1042 34.9645 19.4038 34.2651C18.6377 33.4982 17.9617 32.662 17.3834 31.7627Z" fill="white"/>
<path d="M35.7614 12.3402L34.5309 7.60377H31.3457C31.2692 7.17624 31.1614 6.75848 31.0273 6.35341C30.885 5.92164 30.7114 5.5042 30.5089 5.10305C28.985 2.07906 25.8509 0 22.2399 0H20.6027C15.4996 0 11.3484 4.15127 11.3484 9.25367V11.7534H7.62299L6.40844 16.4257C4.58369 17.4569 3.03995 18.9297 1.92048 20.7127C0.664256 22.714 0 25.0271 0 27.4012C0 31.2057 1.6945 34.6217 4.36878 36.9333L7.74639 31.6166C6.77541 30.488 6.18767 29.0202 6.18767 27.4145C6.18767 23.8578 9.07165 20.9735 12.6297 20.9735C13.5156 20.9735 14.36 21.153 15.1284 21.4763C15.4228 19.3823 16.1531 17.3716 17.2833 15.5703C17.5725 15.1095 17.8861 14.666 18.2211 14.2408L17.5741 11.7534H13.8491V9.25367C13.8491 5.52993 16.8783 2.50073 20.6027 2.50073H22.2399C24.3997 2.50073 26.3267 3.52023 27.563 5.10305C27.8649 5.48923 28.1247 5.90764 28.3373 6.35341C28.5275 6.75034 28.6792 7.16875 28.7883 7.60377H25.6299L24.3987 12.3402C22.373 13.3655 20.6619 14.921 19.449 16.8259C18.2703 18.6737 17.5611 20.8495 17.4885 23.1858C17.4843 23.3193 17.4816 23.4534 17.4816 23.5876C17.4816 25.6158 17.961 27.5314 18.8121 29.2276C19.5399 30.6805 20.5411 31.9725 21.7479 33.0369L22.4307 31.9627L24.7298 28.3432C23.611 27.0795 22.9318 25.4192 22.9318 23.6035C22.9318 22.6742 23.1093 21.7856 23.4336 20.9703C24.4837 18.3211 27.073 16.4433 30.0911 16.4433C30.9016 16.4433 31.6808 16.5781 32.4079 16.8281C32.4629 16.8467 32.5186 16.8666 32.573 16.8864C32.6153 16.9024 32.6579 16.9183 32.7003 16.9349L32.8253 16.9851C35.4312 18.0518 37.2657 20.6134 37.2657 23.6035C37.2657 26.6979 35.301 29.3327 32.5502 30.3278C32.4411 30.3679 32.3304 30.4057 32.2177 30.4405C32.176 30.4538 32.1334 30.4662 32.091 30.4789C31.4567 30.6639 30.7856 30.7632 30.0911 30.7632C28.8642 30.7632 27.7089 30.4529 26.6985 29.9071L24.4547 33.4407L23.782 34.5009C25.6351 35.5728 27.7854 36.1863 30.0804 36.1863C37.0381 36.1863 42.6791 30.5457 42.6791 23.5876C42.6791 18.6737 39.8658 14.4176 35.7614 12.3402ZM13.8041 17.285H11.3933V14.8744H13.8041V17.285ZM31.2858 13.304H28.8749V10.8931H31.2858V13.304Z" fill="white"/>
</svg>
