<?xml version="1.0" encoding="utf-8"?>
<!-- Generator: Adobe Illustrator 23.1.0, SVG Export Plug-In . SVG Version: 6.00 Build 0)  -->
<svg version="1.1" id="Layer_1" xmlns="http://www.w3.org/2000/svg" xmlns:xlink="http://www.w3.org/1999/xlink" x="0px" y="0px"
	 viewBox="0 0 200 209.34" style="enable-background:new 0 0 200 209.34;" xml:space="preserve">
<style type="text/css">
	.st0{fill:#36C6C6;}
	.st1{fill:#37A3C4;}
	.st2{fill:#010101;}
	.st3{fill:#FAFAFA;}
	.st4{fill:#1C43BC;}
	.st5{fill:#FFFFFF;}
</style>
<path d="M117.2,129.78c23.04,0,38.59-8.37,38.59-8.37s-15.41-7.74-33.46-7.74c0,0,25.21-17.04,25.21-30.18
	c-15.39,0-37.26,13.9-37.26,13.9c0.75-2.63,2.9-7.49,2.9-9.96c0-21.62-8.78-38.26-12.6-40.97c-3.94,3.05-12.6,19.35-12.6,40.97
	c0,2.48,2.14,7.34,2.9,9.96c0,0-21.88-13.9-37.26-13.9c0,13.14,25.21,30.18,25.21,30.18c-18.05,0-33.46,7.74-33.46,7.74
	s15.55,8.37,38.59,8.37c-6.1,3.83-11.17,13.24-11.67,16.73c8.17,0,16.16-5.03,22.64-12.99v29.36h5.66h5.66v-29.36
	c6.49,7.96,14.47,12.99,22.64,12.99C128.37,143.02,123.3,133.61,117.2,129.78z"/>
</svg>
