<?xml version="1.0" encoding="utf-8"?>
<!-- Generator: Adobe Illustrator 23.1.0, SVG Export Plug-In . SVG Version: 6.00 Build 0)  -->
<svg version="1.1" id="Layer_1" xmlns="http://www.w3.org/2000/svg" xmlns:xlink="http://www.w3.org/1999/xlink" x="0px" y="0px"
	 viewBox="0 0 200 209.34" style="enable-background:new 0 0 200 209.34;" xml:space="preserve">
<style type="text/css">
	.st0{fill:#36C6C6;}
	.st1{fill:#37A3C4;}
	.st2{fill:#010101;}
	.st3{fill:#FAFAFA;}
	.st4{fill:#1C43BC;}
	.st5{fill:#FFFFFF;}
</style>
<g>
	<g>
		<g>
			<g>
				<path d="M119.36,97.47l-0.02,0.01l-0.03,0.01c-0.46,0.23-0.99,0.35-1.61,0.35c-0.84,0-1.72-0.21-2.49-0.41
					c-2.04-0.74-3.45-2.56-4.82-4.31l-0.04-0.06c-2.38-3.19-4.21-6.7-5.43-10.44l-0.1-0.31l-0.3-0.11
					c-1.01-0.39-2.05-0.48-3.07-0.55c-0.71-0.06-1.37-0.1-2-0.25l-0.09-0.02c-1.16-0.11-2.27-0.48-3.45-0.87
					c-1.18-0.39-2.4-0.8-3.71-0.93l-0.76-0.07l0.01,0.77c0.07,6.65-3.71,13.43-9.65,17.28c-2.53,1.73-5.69,2.64-9.13,2.64
					c-0.78,0-1.57-0.05-2.33-0.14c-0.61-0.09-1.23-0.13-1.83-0.17c-1.12-0.06-2.17-0.12-3.14-0.53l-0.04-0.01l-0.04-0.01
					c-0.4-0.13-0.82-0.28-1.25-0.46c-0.94-0.38-1.9-0.76-2.98-0.76l-0.08,0.01c-0.5,0.01-0.97,0.24-1.3,0.65
					c-0.53,0.67-0.5,1.61,0.06,2.25c0.28,0.31,0.65,0.7,1.15,1c1.96,1.14,4.07,2,6.12,2.83l0.07,0.03
					c-0.61,0.74-1.31,1.42-2.04,2.13c-0.73,0.71-1.49,1.45-2.16,2.26c-0.65,0.78-1.39,1.46-2.17,2.18c-0.45,0.4-0.91,0.83-1.33,1.26
					c-0.9,0.85-1.76,1.76-2.59,2.64c-0.74,0.78-1.5,1.59-2.28,2.35c-0.59-0.47-1.09-0.84-1.54-1.19c-1.15-0.86-2.05-1.54-3.54-2.93
					c-0.48-0.45-0.75-1.03-0.7-1.49c0.06-0.52,0.4-1.59,0.54-1.97l12.19-39.37c1.18-0.27,4.71-1.07,6.63-1.61
					c4.64-1.03,9.29-2.32,13.79-3.57c1.85-0.51,3.7-1.03,5.54-1.51c0.94-0.25,1.92-0.38,2.93-0.38c0.86,0,1.74,0.09,2.6,0.27
					c1.32,0.28,2.52,0.88,3.8,1.51c0.61,0.31,1.25,0.62,1.89,0.9c2.27,1.01,4.6,2.01,6.86,2.98l0.8,0.35
					c0.82,0.36,1.66,0.69,2.47,1.02c1.82,0.72,3.69,1.47,5.38,2.49c1.34,0.76,1.89,2.39,2.28,4.03c0.28,1.38,0.43,2.83,0.58,4.24
					c0.17,1.58,0.34,3.2,0.7,4.83c0.3,1.07,0.58,2.17,0.84,3.24c0.47,1.87,0.95,3.82,1.61,5.67
					C120.44,96.02,120.17,97.13,119.36,97.47z"/>
			</g>
		</g>
		<g>
			<g>
				<path d="M151.29,111.43l-0.22,0.21c-1.59,1.49-2.96,2.78-4.62,4.15c-0.1,0.08-0.21,0.17-0.32,0.26
					c-0.28,0.22-0.59,0.47-0.81,0.48c-0.02,0-0.07-0.02-0.14-0.07c-1.59-1.28-3.91-2.28-4.83-2.66l-0.04-0.01l-0.04-0.01
					c-0.65-0.18-1.33-0.28-2.03-0.28c-2.24,0-4.51,0.99-6.09,2.66c-1.63,1.5-2.57,3.79-2.61,6.37c-0.83-0.17-1.65-0.27-2.45-0.27
					c-1.85,0-3.57,0.46-5.1,1.35c-1.72,0.94-3.33,3.23-3.88,4.94c-1.04-0.33-1.91-0.47-3-0.47c-0.38,0-0.79,0.02-1.27,0.05
					c-2.37,0.16-5.7,2.27-6.7,5.04c-0.5,1.58-0.37,2.76-0.2,3.62c-1.56,0.29-2.93,1.3-3.89,2.89c-1.07,1.75-1.05,3.49-0.9,4.96
					c0.06,0.59-0.27,1.13-0.79,1.32c-3.13,1.13-6.01,1.87-8.8,2.29c-0.18,0.03-0.36,0.05-0.54,0.05c-0.93,0-1.86-0.38-2.6-1.03
					c0.48-0.31,1-0.57,1.53-0.84c0.5-0.25,1.01-0.51,1.48-0.8c1.95-1.09,3.5-2.67,5.02-4.2c0.21-0.22,0.42-0.43,0.64-0.65
					c0.18-0.17,0.31-0.38,0.39-0.63c0.17-0.53,0.06-1.09-0.28-1.55c-0.35-0.48-0.9-0.76-1.48-0.76c-0.18,0-0.36,0.03-0.53,0.09
					c-0.28,0.08-0.5,0.22-0.7,0.39c-3,2.42-7.52,5.54-12.08,6.7l-0.04,0.01l-0.05,0.02c-0.39,0.16-0.81,0.23-1.23,0.23
					c-1.5,0-3.04-0.97-4.4-1.84l-0.44-0.27c-0.17-0.14-0.35-0.26-0.52-0.37c-0.25-0.17-0.44-0.29-0.55-0.42
					c0.64-0.55,1.34-1.03,2.08-1.52c0.7-0.48,1.43-0.96,2.08-1.52c1.34-1.06,2.73-2.13,4.08-3.15c2.25-1.71,4.58-3.47,6.74-5.38
					c0.36-0.31,0.74-0.61,1.15-0.91c0.67-0.51,1.36-1.05,1.94-1.69c0.49-0.53,0.68-1.27,0.51-1.97c-0.16-0.66-0.6-1.17-1.2-1.4
					c-0.24-0.09-0.48-0.14-0.72-0.14c-0.27,0-0.52,0.06-0.76,0.16l-0.06,0.02L92,124.93c-1.01,0.66-1.87,1.48-2.71,2.27
					c-0.76,0.72-1.47,1.39-2.29,1.97c-1.08,0.78-2.17,1.56-3.26,2.34c-2.69,1.94-5.48,3.93-8.14,5.95c-1.6,1.15-3.51,1.88-5.36,2.53
					c-0.28,0.07-0.58,0.11-0.87,0.11c-2.62,0-4.72-2.6-4.97-4.92l-0.01-0.07l-0.02-0.07c-0.2-0.61,0.41-1.14,1.22-1.73
					c1.59-1.07,3.09-2.28,4.54-3.46c0.72-0.58,1.44-1.16,2.16-1.72c2.53-1.95,4.85-4.2,7.09-6.37c1.18-1.15,2.4-2.33,3.64-3.45
					l0.02-0.02l0.01-0.02c0.5-0.52,1.02-1.04,1.53-1.55c1.05-1.05,2.15-2.15,3.11-3.3c0.52-0.56,0.62-1.37,0.28-2.14
					c-0.38-0.85-1.19-1.45-1.98-1.45c-0.51,0-0.98,0.23-1.33,0.66c-0.72,0.72-1.41,1.49-2.09,2.23c-0.97,1.06-1.99,2.17-3.04,3.17
					c-0.7,0.64-1.39,1.29-2.09,1.94c-4.26,3.99-8.67,8.11-13.68,11.2c-0.3,0.17-0.61,0.36-0.91,0.55c-0.89,0.57-1.73,1.1-2.67,1.1
					h-0.21c-2.23,0-3.71-2.25-4.32-4.19c-0.17-1.69,1.02-3.14,2.17-4.53c0.23-0.28,0.45-0.54,0.66-0.81
					c1.33-1.71,2.89-3.27,4.4-4.77c1.06-1.06,2.16-2.16,3.18-3.29l0.89-0.85c2.22-2.1,4.5-4.27,7.04-6.03c0.84-0.6,1.89-0.74,3-0.89
					c0.89-0.12,1.81-0.25,2.66-0.61c4.87-1.8,9.29-5.3,12.44-9.86c1.94-2.69,3.24-5.7,3.76-8.76c1.76,0.27,3.68,0.53,5.31,0.71
					c0.27,0.54,0.8,1.6,1.24,2.32c1.97,3.72,3.81,6.59,5.78,9l0.02,0.03l0.01,0.01c1.38,1.55,2.96,3.31,5.18,4
					c1.73,0.5,3.38,0.75,4.89,0.75c0.39,0,0.8-0.02,1.18-0.05c3.07-0.29,5.68-3.07,5.69-6.09c-0.05-2.11-0.67-4.08-1.27-6
					c-0.37-1.16-0.75-2.38-0.98-3.58v-0.02l-0.01-0.03c-0.52-1.96-0.77-4.03-1.01-6.03c-0.22-1.8-0.44-3.66-0.86-5.48
					c-0.67-2.81-1.79-4.74-3.4-5.9c-0.56-0.43-1.16-0.8-1.76-1.11c8.67,0.46,21.13,1.17,23.74,1.33l10.89,37.04l0.01,0.04l0.01,0.03
					c0.01,0.02,0.86,2.19,1.13,3.28C151.72,110.75,151.6,111.15,151.29,111.43z"/>
			</g>
		</g>
		<g>
			<g>
				<path d="M144.46,124.83c-0.39,2.09-2.02,4.26-4.1,4.26c-0.14,0-0.28-0.02-0.43-0.04c-3.06-1.24-5.32-4.15-5.5-7.12
					c0.15-1.82,1.85-3.36,3.73-3.36c0.48,0,0.94,0.1,1.37,0.3l0.03,0.01l0.03,0.01c1.83,0.65,3.36,2.19,4.69,4.71
					C144.47,123.98,144.53,124.42,144.46,124.83z"/>
			</g>
		</g>
		<g>
			<g>
				<path d="M135.6,134.87c-0.74,1.48-2.21,2.74-4.12,3.56c-0.14,0.05-0.25,0.09-0.34,0.1c-0.1,0.02-0.2,0.03-0.29,0.03
					c-0.94,0-1.93-0.65-2.8-1.22l-0.02-0.02c-0.42-0.31-0.87-0.6-1.3-0.86c-0.9-0.55-1.74-1.07-2.22-1.91l-0.01-0.02l-0.02-0.02
					c-0.85-1.28-1.77-2.96-1.37-4.65c0.54-1.49,2.13-2.51,3.87-2.51c0.42,0,0.83,0.06,1.22,0.18c2.09,0.65,4.12,1.99,6.37,4.17
					C135.1,132.26,136.23,133.68,135.6,134.87z"/>
			</g>
		</g>
		<g>
			<g>
				<path d="M124.52,141.65l-0.04,0.06l-0.03,0.06c-0.5,1.15-1.66,1.91-3.75,2.46c-0.23,0.06-0.45,0.09-0.67,0.09
					c-0.18,0-0.36-0.03-0.52-0.06c-1.67-0.39-2.85-1.96-3.99-3.48c-0.19-0.25-0.39-0.5-0.55-0.71c-0.28-0.4-0.59-0.81-0.89-1.19
					c-0.96-1.22-1.87-2.37-1.9-3.77c0.36-1.27,1.68-1.72,2.82-1.72c0.34,0,0.69,0.05,1.03,0.13c1.51,0.33,2.6,1.59,3.67,2.8
					c0.18,0.21,0.37,0.42,0.55,0.62c0.54,0.62,1.16,1.17,1.76,1.72c0.79,0.7,1.53,1.37,2.08,2.16c0.05,0.06,0.1,0.14,0.15,0.22
					C124.43,141.31,124.59,141.55,124.52,141.65z"/>
			</g>
		</g>
		<g>
			<g>
				<path d="M114.38,147.23c0.12,1-1.15,1.82-2.1,1.96c-0.5,0.06-1.13,0.16-1.71,0.16c-1.03,0-1.65-0.26-2.05-0.88
					c-0.67-0.93-2.15-3.35-1.39-5.67c0.33-0.95,1.38-1.03,1.68-1.03c0.4,0,0.82,0.1,1.13,0.26c1.07,0.61,1.9,1.69,2.71,2.8
					c0.25,0.39,0.53,0.73,0.81,1.08c0.32,0.41,0.63,0.8,0.88,1.22C114.37,147.19,114.37,147.22,114.38,147.23z"/>
			</g>
		</g>
	</g>
	<g>
		<polygon points="180.61,107.43 159.22,110.57 146.09,67.58 166.11,59.99 		"/>
	</g>
	<g>
		<polygon points="33.89,59.99 53.91,67.58 40.78,110.57 19.39,107.43 		"/>
	</g>
</g>
</svg>
