<svg width="27" height="24" viewBox="0 0 27 24" fill="none" xmlns="http://www.w3.org/2000/svg">
<g filter="url(#filter0_d)">
<path d="M20.3072 12.2217C20.7863 12.2217 21.1478 11.6283 21.1478 10.8419C21.1478 10.0554 20.7863 9.46274 20.3072 9.46274C19.828 9.46274 19.4671 10.0554 19.4671 10.8419C19.4671 11.6416 19.82 12.2217 20.3072 12.2217Z" fill="#9FE4BC"/>
<path d="M16.1619 8.75704C16.0701 9.44748 16.0219 10.1432 16.0177 10.84C16.0204 11.5361 16.0618 12.2315 16.1415 12.9229L16.1718 13.1918L19.3847 12.3315L19.1712 12.0512C18.9706 11.788 18.8505 11.2982 18.8505 10.8387C18.8505 10.3893 18.9743 9.89823 19.1736 9.62114L19.3773 9.34279L16.1954 8.49005L16.1619 8.75704Z" fill="#9FE4BC"/>
<path d="M19.5618 3C19.236 3.00747 18.9185 3.10641 18.6443 3.28593C18.4447 3.41177 18.2607 3.56183 18.0964 3.73281C17.8996 3.93836 17.7222 4.16237 17.5665 4.40187C17.0286 5.218 16.6058 6.30301 16.3439 7.54014L16.2938 7.7762L20.5349 8.96915L20.5516 8.97357C20.6538 9.01017 21.6659 9.41224 21.6659 10.8425C21.6659 12.2942 20.6265 12.685 20.5479 12.7127L16.2962 13.912L16.3458 14.1474C16.6076 15.3934 17.0199 16.4771 17.5393 17.2832C17.6939 17.5255 17.8707 17.7522 18.0674 17.9604C18.2304 18.1321 18.4141 18.282 18.614 18.4067C18.8851 18.5831 19.1987 18.68 19.5203 18.6869C21.6015 18.6869 23 14.6315 23 10.8438C22.9963 5.99814 21.214 3 19.5618 3Z" fill="#9FE4BC"/>
<path d="M15.4785 13.7567C15.3157 12.8181 15.3021 11.8 15.3021 10.8425C15.3021 9.62495 15.364 8.72613 15.5008 7.92957C15.6401 7.10333 15.8654 6.29461 16.1731 5.51717L16.5 4.70483L13.0865 7.16016L12.9317 7.27125L12.9014 7.29649C12.8587 7.33775 12.8029 7.36214 12.7442 7.36529C12.7292 7.3667 12.7143 7.36902 12.6996 7.37224C12.452 7.40379 12.2322 7.54266 12.0391 7.78693C11.5896 8.355 11.3315 9.4703 11.3315 10.8425C11.3315 12.2147 11.5896 13.3288 12.0397 13.8994C12.231 14.1405 12.4501 14.2781 12.6915 14.3109C12.7103 14.3153 12.7293 14.3182 12.7485 14.3197C12.8067 14.3235 12.8617 14.3481 12.9039 14.3892L16.4758 16.9726L16.1601 16.1678C15.5912 14.6953 15.4804 13.7592 15.4785 13.7567Z" fill="#9FE4BC"/>
<path d="M10.5484 10.84C10.5484 9.51448 10.7638 8.44588 11.1717 7.74716L11.3958 7.36087H5.46344C4.77196 7.36024 4 8.78988 4 10.84C4 12.6546 4.56953 13.8552 5.09944 14.203C5.20195 14.2708 5.32086 14.3083 5.44302 14.3115C5.65907 14.3159 10.7378 14.3273 10.9526 14.3279H11.3934L11.1693 13.941C10.7632 13.2385 10.5484 12.1655 10.5484 10.84Z" fill="#9FE4BC"/>
<path d="M10.3193 15.0545L7.255 15.0482L8.42007 18.5954C8.45888 18.7134 8.53308 18.8159 8.63217 18.8885C8.73127 18.9611 8.85024 19.0001 8.97226 19H10.2809C10.366 19 10.45 18.9809 10.5271 18.9442C10.6042 18.9075 10.6724 18.854 10.7271 18.7876C10.7817 18.7211 10.8214 18.6432 10.8433 18.5594C10.8653 18.4756 10.869 18.388 10.8542 18.3026L10.3193 15.0545Z" fill="#9FE4BC"/>
</g>
<defs>
<filter id="filter0_d" x="0" y="0" width="27" height="24" filterUnits="userSpaceOnUse" color-interpolation-filters="sRGB">
<feFlood flood-opacity="0" result="BackgroundImageFix"/>
<feColorMatrix in="SourceAlpha" type="matrix" values="0 0 0 0 0 0 0 0 0 0 0 0 0 0 0 0 0 0 127 0"/>
<feOffset dy="1"/>
<feGaussianBlur stdDeviation="2"/>
<feColorMatrix type="matrix" values="0 0 0 0 0 0 0 0 0 0 0 0 0 0 0 0 0 0 0.25 0"/>
<feBlend mode="normal" in2="BackgroundImageFix" result="effect1_dropShadow"/>
<feBlend mode="normal" in="SourceGraphic" in2="effect1_dropShadow" result="shape"/>
</filter>
</defs>
</svg>
