<?xml version="1.0" encoding="utf-8"?>
<!-- Generator: Adobe Illustrator 25.2.0, SVG Export Plug-In . SVG Version: 6.00 Build 0)  -->
<svg version="1.1" id="Layer_1" xmlns="http://www.w3.org/2000/svg" xmlns:xlink="http://www.w3.org/1999/xlink" x="0px" y="0px"
	 viewBox="0 0 256 256" style="enable-background:new 0 0 256 256;" xml:space="preserve">
<style type="text/css">
	.st0{fill:#FFFFFF;}
	.st1{fill:#ED1C24;}
	.st2{fill:none;}
</style>
<g>
	<path class="st0" d="M255.24,242.28c-0.41,0.65-1.05,1.12-1.8,1.29l-34.52,8.03c-0.22,0.05-0.44,0.08-0.66,0.08
		c-1.32,0-2.51-0.91-2.82-2.25l-22.17-95.32v83.36c0,1.6-1.3,2.9-2.9,2.9H65.72c-1.6,0-2.9-1.3-2.9-2.9v-83.75l-22.26,95.71
		c-0.31,1.34-1.5,2.25-2.82,2.25c-0.22,0-0.43-0.03-0.66-0.08l-34.52-8.03c-0.75-0.17-1.4-0.64-1.8-1.29
		c-0.41-0.65-0.54-1.44-0.36-2.19L43.45,54.95l0.01-0.02c0-0.02,0-0.04,0.01-0.06c0.15-0.8,0.64-1.49,1.33-1.91l49.83-30.42V7.21
		c0-0.95,0.47-1.85,1.26-2.39c0.79-0.54,1.8-0.65,2.69-0.3l24.46,9.49c0.82,0.32,1.45,0.99,1.72,1.83l3.29,10.49l3.3-10.49
		c0.26-0.84,0.89-1.51,1.72-1.83l24.46-9.49c0.89-0.35,1.9-0.23,2.69,0.3c0.78,0.54,1.26,1.44,1.26,2.39v15.33l49.82,30.42
		c0.7,0.43,1.18,1.12,1.33,1.91c0.04,0.22,0.06,0.44,0.06,0.66l42.92,184.57C255.78,240.84,255.65,241.63,255.24,242.28z"/>
	<g id="JACKET_29_">
		<path id="chest_29_" d="M212.63,54.87c-0.15-0.8-0.64-1.49-1.33-1.91l-49.82-30.42l-1.39-0.85c-0.77-0.47-1.72-0.56-2.56-0.23
			l-1.85,0.72l-7.93,3.08l-15.13,5.87l-4.57,1.78l-4.57-1.78l-15.13-5.87l-7.93-3.08l-1.85-0.72c-0.84-0.33-1.79-0.24-2.56,0.23
			l-1.39,0.85L44.79,52.96c-0.69,0.43-1.17,1.12-1.33,1.91c-0.01,0.02-0.01,0.04-0.01,0.06l-0.01,0.02
			c-0.01,0.08-0.02,0.15-0.03,0.23c-0.04,0.39,0.01,0.78,0.13,1.15c0.09,0.29,0.24,0.57,0.42,0.82c0.01,0.01,0.04,0.04,0.08,0.12
			c0.04,0.06,0.09,0.14,0.16,0.23c0.17,0.25,0.43,0.66,0.78,1.2c0.16,0.25,0.33,0.53,0.51,0.84c0.19,0.31,0.38,0.65,0.59,1.02
			c0.32,0.55,0.67,1.18,1.03,1.87c5.26,9.86,15.27,33.6,15.69,71.78v0.09c0.01,0.79,0.01,1.59,0.01,2.39v100.78
			c0,1.6,1.3,2.9,2.9,2.9h124.66c1.6,0,2.9-1.3,2.9-2.9V136.69c0-0.79,0.01-1.58,0.01-2.36c0.01-0.49,0.01-0.99,0.02-1.47
			c0.06-3.45,0.2-6.77,0.41-9.98c0.12-2.04,0.28-4.02,0.47-5.96c1.13-12.13,3.22-22.4,5.6-30.81c0.09-0.33,0.19-0.67,0.28-1
			c0.28-0.99,0.57-1.96,0.87-2.9c0.38-1.25,0.78-2.46,1.17-3.61c0.09-0.29,0.2-0.58,0.3-0.86c0.41-1.19,0.83-2.33,1.25-3.41
			c0.17-0.46,0.35-0.92,0.53-1.37c0.21-0.54,0.41-1.05,0.62-1.55c0.14-0.36,0.28-0.7,0.43-1.03c1.19-2.81,2.31-5.17,3.3-7.08
			c0.54-1.06,1.05-1.98,1.5-2.77c0.19-0.33,0.37-0.64,0.54-0.93c0.6-1.01,1.05-1.72,1.31-2.1c0.07-0.09,0.12-0.17,0.16-0.23
			c0.04-0.07,0.07-0.11,0.08-0.12c0.27-0.36,0.44-0.78,0.51-1.2c0.03-0.14,0.04-0.28,0.05-0.42
			C212.69,55.31,212.67,55.09,212.63,54.87z M187.48,136.69v97.88H68.62v-97.88c0-46.09-13.38-72.32-18.25-80.35l47.45-28.96
			L127,38.71c0.67,0.26,1.42,0.26,2.09,0l29.19-11.33l47.45,28.96C200.85,64.38,187.48,90.61,187.48,136.69z"/>
		<g id="sleeves_34_">
			<g id="sleeves_33_">
				<path d="M255.24,242.28c-0.41,0.65-1.05,1.12-1.8,1.29l-34.52,8.03c-0.22,0.05-0.44,0.08-0.66,0.08c-1.32,0-2.51-0.91-2.82-2.25
					l-22.17-95.32v-17.42c0-0.79,0.01-1.58,0.01-2.36c0.01-0.49,0.01-0.99,0.02-1.47c0.02-1.25,0.06-2.49,0.1-3.72l27.01,116.16
					l28.88-6.71L208.53,63.3c0.54-1.06,1.05-1.98,1.5-2.77c0.19-0.33,0.37-0.64,0.54-0.93c0.6-1.01,1.05-1.72,1.31-2.1
					c0.07-0.09,0.12-0.17,0.16-0.23c0.04-0.07,0.07-0.11,0.08-0.12c0.27-0.36,0.44-0.78,0.51-1.2c0.03-0.14,0.04-0.29,0.04-0.43
					l0.01,0.01l42.92,184.57C255.78,240.84,255.65,241.63,255.24,242.28z"/>
				<path d="M62.82,136.69v17.03l-22.26,95.71c-0.31,1.34-1.5,2.25-2.82,2.25c-0.22,0-0.43-0.03-0.66-0.08l-34.52-8.03
					c-0.75-0.17-1.4-0.64-1.8-1.29c-0.41-0.65-0.54-1.44-0.36-2.19L43.45,54.95l0.01-0.02c-0.01,0.09-0.02,0.17-0.04,0.25
					c-0.03,0.39,0.01,0.78,0.13,1.15c0.09,0.29,0.24,0.57,0.42,0.82c0.01,0.01,0.04,0.04,0.08,0.12c0.04,0.06,0.09,0.14,0.16,0.23
					c0.17,0.25,0.43,0.66,0.78,1.2c0.15,0.25,0.33,0.53,0.51,0.84c0.19,0.31,0.38,0.65,0.59,1.02c0.32,0.56,0.66,1.18,1.03,1.87
					c0.12,0.23,0.25,0.47,0.38,0.72l-0.04,0.14L6.7,238.59l28.88,6.71l27.01-116.16v-0.01l0.08-0.35c0.07,1.78,0.12,3.59,0.14,5.43
					v0.09C62.81,135.09,62.82,135.89,62.82,136.69z"/>
			</g>
			<g id="sleeves_31_">
				<path class="st1" d="M35.57,245.3L6.7,238.59L47.46,63.3c5.1,9.88,13.95,31.72,15.12,65.83L35.57,245.3z"/>
				<path class="st1" d="M220.43,245.3l28.87-6.71L208.54,63.3c-5.1,9.88-13.95,31.72-15.12,65.83L220.43,245.3z"/>
			</g>
		</g>
		<g id="collar_30_">
			<polygon class="st1" points="100.42,11.45 100.42,22.18 108.35,25.25 123.47,31.13 119.64,18.91 			"/>
			<polygon class="st1" points="155.67,11.45 136.45,18.91 132.62,31.13 147.75,25.25 155.67,22.18 			"/>
			<path id="collar_31_" d="M100.42,22.17L100.42,22.17l7.93,3.08L100.42,22.17z M147.75,25.25l7.93-3.07v-0.01L147.75,25.25z
				 M160.21,4.82c-0.79-0.54-1.8-0.65-2.69-0.3l-24.46,9.49c-0.83,0.32-1.46,0.99-1.72,1.83l-3.3,10.49l-3.29-10.49
				c-0.27-0.84-0.9-1.51-1.72-1.83L98.57,4.52c-0.89-0.35-1.9-0.23-2.69,0.3c-0.79,0.54-1.26,1.44-1.26,2.39v15.33l1.39-0.85
				c0.77-0.47,1.72-0.56,2.56-0.23l1.85,0.72V11.45l19.22,7.46l3.84,12.22l4.57,1.78l4.57-1.78l3.84-12.22l19.22-7.46v10.72
				l1.85-0.72c0.84-0.33,1.79-0.24,2.56,0.23l1.39,0.85V7.21C161.47,6.26,160.99,5.36,160.21,4.82z"/>
		</g>
	</g>
</g>
<rect class="st2" width="256" height="256"/>
</svg>
