<?xml version="1.0" encoding="utf-8"?>
<!-- Generator: Adobe Illustrator 25.2.0, SVG Export Plug-In . SVG Version: 6.00 Build 0)  -->
<svg version="1.1" id="Layer_1" xmlns="http://www.w3.org/2000/svg" xmlns:xlink="http://www.w3.org/1999/xlink" x="0px" y="0px"
	 viewBox="0 0 256 256" style="enable-background:new 0 0 256 256;" xml:space="preserve">
<style type="text/css">
	.st0{fill:none;}
	.st1{fill:#FFF450;}
	.st2{fill:#93C83E;}
</style>
<rect class="st0" width="256" height="256"/>
<g id="JACKET_20_">
	<g>
		<path class="st1" d="M248.64,237.89l-40.51-174.2c-5.07,9.82-13.87,31.54-15.03,65.43l26.85,115.45L248.64,237.89z"/>
		<path class="st2" d="M129.18,39.26c-0.67,0.26-1.41,0.26-2.08,0L98.09,28L50.94,56.78c4.84,7.97,18.14,34.04,18.14,79.84v97.27
			H187.2v-97.27c0-45.8,13.3-71.86,18.14-79.84L158.19,28L129.18,39.26z"/>
		<polygon class="st2" points="123.6,31.72 119.78,19.57 100.69,12.16 100.69,22.82 109.84,26.38 		"/>
		<polygon class="st2" points="155.59,12.16 136.49,19.57 132.68,31.72 149.04,25.37 155.59,22.82 		"/>
		<path class="st1" d="M48.09,63.54L48.09,63.54L7.55,237.89l28.69,6.67l26.93-115.79C61.95,94.81,53.13,73.22,48.09,63.54z"/>
	</g>
	<path id="chest_20_" d="M189.98,239.67H66.11c-1.59,0-2.88-1.29-2.88-2.88V136.64c0-52.93-18.55-78.79-18.73-79.05
		c-0.48-0.65-0.66-1.47-0.5-2.26c0.15-0.79,0.64-1.48,1.32-1.9l50.9-31.07c0.77-0.47,1.71-0.55,2.54-0.23l29.29,11.37l29.29-11.37
		c0.84-0.32,1.78-0.24,2.54,0.23l50.9,31.07c0.69,0.42,1.17,1.11,1.32,1.9c0.16,0.79-0.03,1.61-0.5,2.26
		c-0.18,0.25-18.73,26.31-18.73,79.05v100.15C192.87,238.38,191.58,239.67,189.98,239.67z M68.99,233.91H187.1v-97.27
		c0-45.8,13.3-71.86,18.14-79.84l-47.15-28.79l-29.01,11.26c-0.67,0.26-1.41,0.26-2.08,0L98,28.01L50.85,56.8
		c4.84,7.97,18.14,34.04,18.14,79.84V233.91z"/>
	<g id="sleeves_20_">
		<path d="M254.81,239.4L212.15,55.97c-0.02,0.58-0.2,1.15-0.55,1.62c-0.05,0.07-1.5,2.11-3.56,6.11l40.51,174.2l-28.69,6.67
			l-26.85-115.45c-0.08,2.45-0.14,4.94-0.14,7.51v17.32l22.03,94.73c0.31,1.33,1.49,2.23,2.8,2.23c0.22,0,0.44-0.02,0.66-0.08
			l34.3-7.98c0.74-0.17,1.39-0.63,1.79-1.28C254.85,240.93,254.98,240.15,254.81,239.4z"/>
		<path d="M63.23,136.64c0-2.7-0.06-5.31-0.15-7.86l-26.93,115.8L7.46,237.9L48,63.56c-2.03-3.91-3.45-5.89-3.5-5.96
			c-0.47-0.64-0.65-1.43-0.51-2.21L1.19,239.4c-0.17,0.74-0.04,1.53,0.36,2.18c0.4,0.65,1.05,1.11,1.79,1.28l34.3,7.98
			c0.22,0.05,0.44,0.08,0.65,0.08c1.31,0,2.49-0.9,2.8-2.23l22.12-95.12V136.64z"/>
	</g>
	<path id="collar_20_" d="M96.21,22.35c0.77-0.47,1.71-0.55,2.54-0.23l29.29,11.37l29.29-11.37c0.84-0.32,1.78-0.24,2.54,0.23
		l1.38,0.84V7.97c0-0.95-0.47-1.84-1.25-2.38c-0.78-0.54-1.78-0.65-2.67-0.31l-24.31,9.44c-0.82,0.32-1.44,0.99-1.71,1.82
		l-3.27,10.43l-3.27-10.43c-0.26-0.84-0.89-1.51-1.71-1.82L98.76,5.28c-0.89-0.34-1.88-0.23-2.67,0.31
		c-0.78,0.54-1.25,1.43-1.25,2.38v15.23L96.21,22.35z M136.4,19.59l19.1-7.41v10.66l-22.91,8.89L136.4,19.59z M100.59,12.18
		l19.1,7.41l3.81,12.14l-22.91-8.89V12.18z"/>
</g>
</svg>
