<?xml version="1.0" encoding="utf-8"?>
<!-- Generator: Adobe Illustrator 25.2.0, SVG Export Plug-In . SVG Version: 6.00 Build 0)  -->
<svg version="1.1" id="Layer_1" xmlns="http://www.w3.org/2000/svg" xmlns:xlink="http://www.w3.org/1999/xlink" x="0px" y="0px"
	 viewBox="0 0 256 256" style="enable-background:new 0 0 256 256;" xml:space="preserve">
<style type="text/css">
	.st0{fill:none;}
	.st1{fill:#6FBEEA;}
	.st2{fill:#FFFFFF;}
</style>
<rect class="st0" width="256" height="256"/>
<g id="JACKET_10_">
	<g>
		<path class="st1" d="M249.09,238.34L208.41,63.42c-5.09,9.86-13.92,31.67-15.09,65.7l26.96,115.92L249.09,238.34z"/>
		<path class="st1" d="M129.14,38.89c-0.67,0.26-1.42,0.26-2.09,0l-29.13-11.3L50.57,56.49c4.86,8.01,18.22,34.18,18.22,80.17v97.68
			H187.4v-97.68c0-45.99,13.35-72.16,18.22-80.17l-47.35-28.91L129.14,38.89z"/>
		<polygon class="st1" points="123.53,31.32 119.7,19.12 100.53,11.68 100.53,22.39 109.72,25.96 		"/>
		<polygon class="st1" points="155.66,11.68 136.48,19.12 132.65,31.32 149.08,24.94 155.66,22.39 		"/>
		<path class="st1" d="M47.71,63.27L47.71,63.27L7,238.34l28.81,6.7l27.04-116.27C61.63,94.67,52.77,73,47.71,63.27z"/>
	</g>
	<g id="pattern_6_">
		<path class="st2" d="M68.74,136.67v97.68H128V134.1H68.72C68.73,134.95,68.74,135.8,68.74,136.67z"/>
		<path class="st2" d="M158.17,27.6l-29.13,11.3c-0.32,0.12-0.66,0.19-1,0.19v95.01h59.28c0.49-44.38,13.42-69.74,18.19-77.6
			L158.17,27.6z"/>
	</g>
	<path id="chest_10_" d="M190.24,240.14H65.85c-1.6,0-2.89-1.3-2.89-2.89V136.67c0-53.15-18.62-79.12-18.81-79.37
		c-0.48-0.65-0.66-1.48-0.51-2.27c0.16-0.79,0.64-1.49,1.33-1.91l51.11-31.2c0.77-0.47,1.71-0.55,2.55-0.23l29.41,11.42l29.41-11.42
		c0.84-0.33,1.79-0.24,2.55,0.23l51.11,31.2c0.69,0.42,1.17,1.12,1.33,1.91c0.16,0.8-0.03,1.62-0.51,2.27
		c-0.19,0.25-18.81,26.42-18.81,79.37v100.57C193.13,238.84,191.84,240.14,190.24,240.14z M68.74,234.35h118.61v-97.68
		c0-45.99,13.35-72.16,18.22-80.17L158.22,27.6l-29.13,11.3c-0.67,0.26-1.42,0.26-2.09,0L97.87,27.6L50.53,56.5
		c4.86,8.01,18.21,34.18,18.21,80.17V234.35z"/>
	<g id="sleeves_10_">
		<path d="M255.34,239.86L212.5,55.67c-0.02,0.58-0.2,1.15-0.56,1.63c-0.05,0.07-1.5,2.12-3.58,6.13l40.68,174.92l-28.81,6.7
			l-26.96-115.93c-0.08,2.46-0.14,4.96-0.14,7.54v17.39l22.12,95.12c0.31,1.34,1.5,2.24,2.81,2.24c0.22,0,0.44-0.02,0.66-0.08
			l34.45-8.01c0.75-0.17,1.4-0.64,1.8-1.29C255.38,241.4,255.51,240.61,255.34,239.86z"/>
		<path d="M62.96,136.67c0-2.71-0.06-5.33-0.15-7.89L35.77,245.06l-28.81-6.7L47.67,63.29c-2.04-3.92-3.47-5.92-3.52-5.99
			c-0.47-0.64-0.65-1.44-0.51-2.22L0.66,239.86c-0.17,0.75-0.04,1.53,0.36,2.18c0.41,0.65,1.05,1.12,1.8,1.29l34.45,8.01
			c0.22,0.05,0.44,0.08,0.66,0.08c1.31,0,2.5-0.9,2.81-2.24l22.21-95.52V136.67z"/>
	</g>
	<path id="collar_10_" d="M96.08,21.91c0.77-0.47,1.71-0.55,2.55-0.23l29.41,11.42l29.41-11.42c0.84-0.33,1.79-0.24,2.55,0.23
		l1.38,0.85V7.47c0-0.95-0.47-1.85-1.26-2.39c-0.79-0.54-1.79-0.65-2.68-0.31l-24.41,9.48c-0.82,0.32-1.45,0.99-1.71,1.83
		l-3.29,10.47l-3.29-10.47c-0.26-0.84-0.89-1.51-1.71-1.83L98.63,4.77c-0.89-0.34-1.89-0.23-2.68,0.31
		c-0.79,0.54-1.26,1.43-1.26,2.39v15.29L96.08,21.91z M136.44,19.14l19.18-7.44V22.4l-23,8.93L136.44,19.14z M100.48,11.69
		l19.18,7.44l3.83,12.19l-23.01-8.93V11.69z"/>
</g>
</svg>
