<?xml version="1.0" encoding="utf-8"?>
<!-- Generator: Adobe Illustrator 25.2.0, SVG Export Plug-In . SVG Version: 6.00 Build 0)  -->
<svg version="1.1" id="Layer_1" xmlns="http://www.w3.org/2000/svg" xmlns:xlink="http://www.w3.org/1999/xlink" x="0px" y="0px"
	 viewBox="0 0 256 256" style="enable-background:new 0 0 256 256;" xml:space="preserve">
<style type="text/css">
	.st0{fill:none;}
	.st1{fill:#008A4B;}
	.st2{fill:#FFFFFF;}
</style>
<rect class="st0" width="256" height="256"/>
<g id="JACKET_2_">
	<g>
		<path class="st1" d="M247.54,237.05L207.37,64.3c-5.03,9.74-13.75,31.28-14.91,64.88l26.62,114.49L247.54,237.05z"/>
		<polygon class="st1" points="123.54,32.59 119.76,20.55 100.82,13.2 100.82,23.78 109.9,27.3 		"/>
		<polygon class="st1" points="155.27,13.2 136.33,20.55 132.55,32.59 148.77,26.3 155.27,23.78 		"/>
		<path class="st1" d="M48.66,64.15L48.66,64.15L8.46,237.05l28.45,6.62l26.7-114.83C62.41,95.16,53.66,73.76,48.66,64.15z"/>
		<path class="st1" d="M186.63,134.15H69.46c0.01,0.83,0.02,1.64,0.02,2.48v96.47h117.13v-96.47c0-0.92,0.01-1.82,0.02-2.72
			C186.64,133.99,186.64,134.07,186.63,134.15z"/>
		<path class="st2" d="M69.33,128.43h117.34h0.1c1.45-40.34,13.33-63.56,17.83-70.98L157.84,28.9l-28.76,11.16
			c-0.67,0.26-1.4,0.26-2.07,0L98.25,28.9L51.49,57.45c4.51,7.42,16.38,30.64,17.83,70.98H69.33z"/>
	</g>
	<path id="stripe_1_" d="M69.33,128.43c0.07,1.86,0.1,3.78,0.12,5.71h117.18c0.01-0.81,0.02-1.62,0.03-2.41v-3.3H69.33z"/>
	<path id="chest_2_" d="M189.47,238.74H66.62c-1.58,0-2.86-1.28-2.86-2.86v-99.32c0-52.49-18.39-78.14-18.58-78.39
		c-0.47-0.64-0.66-1.46-0.5-2.24c0.15-0.79,0.63-1.47,1.31-1.89l50.48-30.82c0.76-0.46,1.69-0.55,2.52-0.23l29.05,11.27l29.05-11.27
		c0.83-0.32,1.76-0.24,2.52,0.23l50.47,30.82c0.68,0.42,1.16,1.1,1.31,1.89c0.15,0.78-0.03,1.6-0.5,2.24
		c-0.18,0.25-18.58,26.09-18.58,78.39v99.32C192.33,237.47,191.05,238.74,189.47,238.74z M69.48,233.03h117.14v-96.47
		c0-45.42,13.19-71.27,17.99-79.17l-46.76-28.55l-28.76,11.16c-0.66,0.26-1.4,0.26-2.07,0L98.25,28.84L51.49,57.39
		c4.8,7.91,17.99,33.76,17.99,79.17V233.03z"/>
	<g id="sleeves_2_">
		<path d="M253.75,238.48l-42.3-181.91c-0.02,0.58-0.2,1.14-0.55,1.61c-0.05,0.07-1.49,2.09-3.53,6.06l40.17,172.75l-28.45,6.62
			l-26.62-114.49c-0.08,2.43-0.14,4.9-0.14,7.45v17.18l21.84,93.94c0.31,1.32,1.48,2.21,2.78,2.21c0.21,0,0.43-0.03,0.65-0.08
			l34.02-7.91c0.74-0.17,1.38-0.63,1.78-1.27C253.8,239.99,253.93,239.21,253.75,238.48z"/>
		<path d="M63.76,136.57c0-2.67-0.06-5.26-0.15-7.8L36.91,243.6l-28.45-6.62l40.21-172.9c-2.02-3.87-3.43-5.85-3.48-5.92
			c-0.46-0.63-0.64-1.42-0.5-2.19L2.25,238.48c-0.17,0.74-0.04,1.51,0.36,2.16c0.4,0.64,1.04,1.1,1.78,1.27l34.02,7.91
			c0.22,0.05,0.44,0.08,0.65,0.08c1.3,0,2.47-0.89,2.78-2.21l21.94-94.33V136.57z"/>
	</g>
	<path id="collar_2_" d="M96.48,23.23c0.76-0.46,1.69-0.55,2.52-0.23l29.05,11.27l29.05-11.27c0.83-0.32,1.76-0.24,2.52,0.23
		l1.37,0.83V8.97c0-0.94-0.46-1.83-1.24-2.36c-0.78-0.53-1.77-0.65-2.65-0.31l-24.11,9.36c-0.81,0.31-1.43,0.98-1.69,1.81
		l-3.25,10.34l-3.25-10.34c-0.26-0.83-0.88-1.49-1.69-1.81L99,6.3c-0.88-0.34-1.87-0.23-2.65,0.31c-0.78,0.53-1.24,1.41-1.24,2.36
		v15.1L96.48,23.23z M136.33,20.49l18.94-7.35v10.57l-22.72,8.82L136.33,20.49z M100.82,13.14l18.94,7.35l3.78,12.04l-22.72-8.82
		V13.14z"/>
</g>
</svg>
