<?xml version="1.0" encoding="utf-8"?>
<!-- Generator: Adobe Illustrator 25.2.0, SVG Export Plug-In . SVG Version: 6.00 Build 0)  -->
<svg version="1.1" id="Layer_1" xmlns="http://www.w3.org/2000/svg" xmlns:xlink="http://www.w3.org/1999/xlink" x="0px" y="0px"
	 viewBox="0 0 256 256" style="enable-background:new 0 0 256 256;" xml:space="preserve">
<style type="text/css">
	.st0{fill:none;}
	.st1{fill:#9E1D53;}
	.st2{fill:#FFF450;}
</style>
<rect class="st0" width="256" height="256"/>
<g id="JACKET_6_">
	<g>
		<path class="st1" d="M248.04,237.51L207.7,64.03c-5.05,9.78-13.81,31.41-14.97,65.15l26.74,114.97L248.04,237.51z"/>
		<path class="st1" d="M129.08,39.7c-0.67,0.26-1.41,0.26-2.08,0L98.12,28.49L51.17,57.16c4.82,7.94,18.07,33.9,18.07,79.51v96.87
			h117.63v-96.87c0-45.61,13.24-71.57,18.06-79.51l-46.95-28.67L129.08,39.7z"/>
		<polygon class="st1" points="123.52,32.19 119.73,20.1 100.71,12.72 100.71,23.34 109.83,26.88 		"/>
		<polygon class="st1" points="155.38,12.72 136.37,20.1 132.57,32.19 148.86,25.87 155.38,23.34 		"/>
		<path class="st1" d="M48.33,63.88L48.33,63.88L7.96,237.51l28.57,6.64l26.82-115.31C62.14,95.03,53.34,73.53,48.33,63.88z"/>
	</g>
	<g id="patterns">
		<polygon class="st2" points="78.65,33.6 78.65,239.21 92.83,239.21 92.83,24.94 		"/>
		<polygon class="st2" points="107,25.72 107,239.21 121.18,239.21 121.18,31.22 		"/>
		<polygon class="st2" points="135.36,31.05 135.36,239.21 149.54,239.21 149.54,25.55 		"/>
		<polygon class="st2" points="163.72,25.21 163.72,239.21 177.89,239.21 177.89,33.87 		"/>
	</g>
	<path id="chest_6_" d="M189.73,239.21H66.36c-1.58,0-2.87-1.28-2.87-2.87V136.6c0-52.71-18.47-78.46-18.66-78.72
		c-0.47-0.65-0.66-1.46-0.5-2.25c0.15-0.79,0.63-1.47,1.32-1.89l50.69-30.95c0.76-0.47,1.7-0.55,2.53-0.23l29.17,11.32l29.17-11.32
		c0.83-0.32,1.77-0.24,2.53,0.23l50.69,30.95c0.69,0.42,1.17,1.11,1.32,1.89c0.16,0.79-0.03,1.61-0.5,2.25
		c-0.18,0.25-18.66,26.2-18.66,78.72v99.74C192.6,237.92,191.31,239.21,189.73,239.21z M69.23,233.47h117.62V136.6
		c0-45.61,13.24-71.57,18.07-79.51l-46.95-28.67l-28.88,11.21c-0.67,0.26-1.41,0.26-2.08,0L98.12,28.43L51.17,57.09
		c4.82,7.94,18.07,33.9,18.07,79.51V233.47z"/>
	<g id="sleeves_6_">
		<path d="M254.28,238.94L211.8,56.27c-0.02,0.58-0.2,1.14-0.55,1.62c-0.05,0.07-1.49,2.1-3.55,6.08l40.34,173.48l-28.57,6.64
			l-26.74-114.97c-0.08,2.44-0.14,4.92-0.14,7.48v17.25l21.94,94.33c0.31,1.32,1.49,2.22,2.79,2.22c0.21,0,0.43-0.03,0.65-0.08
			l34.16-7.94c0.74-0.17,1.38-0.63,1.78-1.28C254.33,240.46,254.45,239.68,254.28,238.94z"/>
		<path d="M63.5,136.6c0-2.69-0.06-5.28-0.15-7.83L36.53,244.09l-28.57-6.64L48.33,63.82c-2.02-3.89-3.44-5.87-3.49-5.94
			c-0.46-0.63-0.64-1.43-0.51-2.2L1.72,238.94c-0.17,0.74-0.04,1.52,0.36,2.17c0.4,0.65,1.04,1.11,1.78,1.28l34.16,7.94
			c0.22,0.05,0.44,0.08,0.65,0.08c1.3,0,2.48-0.9,2.79-2.22l22.03-94.73V136.6z"/>
	</g>
	<path id="collar_6_" d="M96.34,22.79c0.76-0.47,1.7-0.55,2.53-0.23l29.17,11.32l29.17-11.32c0.83-0.32,1.77-0.24,2.53,0.23
		l1.37,0.84V8.47c0-0.95-0.47-1.83-1.25-2.37c-0.78-0.53-1.77-0.65-2.66-0.31L133,15.19c-0.81,0.32-1.44,0.98-1.7,1.81l-3.26,10.38
		L124.79,17c-0.26-0.83-0.89-1.5-1.7-1.81l-24.21-9.4C97.99,5.45,97,5.57,96.22,6.1c-0.78,0.54-1.25,1.42-1.25,2.37v15.16
		L96.34,22.79z M136.37,20.04l19.02-7.38v10.62l-22.82,8.86L136.37,20.04z M100.71,12.66l19.02,7.38l3.8,12.09l-22.81-8.86V12.66z"
		/>
</g>
</svg>
