<?xml version="1.0" encoding="utf-8"?>
<!-- Generator: Adobe Illustrator 25.2.0, SVG Export Plug-In . SVG Version: 6.00 Build 0)  -->
<svg version="1.1" id="Layer_1" xmlns="http://www.w3.org/2000/svg" xmlns:xlink="http://www.w3.org/1999/xlink" x="0px" y="0px"
	 viewBox="0 0 256 256" style="enable-background:new 0 0 256 256;" xml:space="preserve">
<style type="text/css">
	.st0{fill:none;}
	.st1{fill:#FFFFFF;}
	.st2{fill:#ED1C24;}
</style>
<rect class="st0" width="256" height="256"/>
<g id="JACKET_16_">
	<g>
		<path class="st1" d="M249.36,238.67L208.59,63.35c-5.1,9.88-13.96,31.75-15.13,65.85l27.02,116.18L249.36,238.67z"/>
		<path class="st1" d="M129.14,38.76c-0.68,0.26-1.42,0.26-2.1,0L97.85,27.43L50.4,56.41c4.87,8.03,18.26,34.26,18.26,80.35v97.9
			h118.87v-97.9c0-46.09,13.38-72.32,18.26-80.35l-47.45-28.97L129.14,38.76z"/>
		<polygon class="st1" points="123.52,31.18 119.68,18.96 100.46,11.5 100.46,22.23 109.68,25.81 		"/>
		<polygon class="st1" points="155.72,11.5 136.5,18.96 132.66,31.18 149.13,24.79 155.72,22.23 		"/>
		<path class="st1" d="M47.53,63.2L47.53,63.2L6.73,238.67l28.88,6.72l27.1-116.53C61.48,94.68,52.6,72.95,47.53,63.2z"/>
	</g>
	<g id="pattern_11_">
		<g>
			<polygon class="st2" points="88.44,234.52 68.52,203.7 88.44,172.89 108.37,203.7 			"/>
			<polygon class="st2" points="127.61,234.52 107.69,203.7 127.61,172.89 147.54,203.7 			"/>
			<polygon class="st2" points="167.46,234.52 147.54,203.7 167.46,172.89 187.39,203.7 			"/>
		</g>
		<g>
			<polygon class="st2" points="88.44,172.89 68.52,142.07 88.44,111.26 108.37,142.07 			"/>
			<polygon class="st2" points="127.61,172.89 107.69,142.07 127.61,111.26 147.54,142.07 			"/>
			<polygon class="st2" points="167.46,172.89 147.54,142.07 167.46,111.26 187.39,142.07 			"/>
		</g>
		<g>
			<polygon class="st2" points="88.44,111.26 68.52,80.44 88.44,49.63 108.37,80.44 			"/>
			<polygon class="st2" points="127.61,111.26 107.69,80.44 127.61,49.63 147.54,80.44 			"/>
			<polygon class="st2" points="167.46,111.26 147.54,80.44 167.46,49.63 187.39,80.44 			"/>
		</g>
		<g>
			<path class="st2" d="M212.59,54.86c-0.16-0.8-0.64-1.49-1.33-1.91l-2.97-1.81l3.84,5.93C212.57,56.43,212.75,55.63,212.59,54.86z
				"/>
			<path class="st2" d="M44.74,52.95c-0.69,0.42-1.18,1.12-1.33,1.91c-0.15,0.74,0.01,1.5,0.42,2.13l3.73-5.76L44.74,52.95z"/>
			<path class="st2" d="M43.83,56.99c0.03,0.05,0.05,0.1,0.09,0.15c0.13,0.18,9.22,12.88,14.73,38.57l9.87-15.27L49.04,50.32
				l-1.49,0.91L43.83,56.99z"/>
			<path class="st2" d="M212.13,57.07l-3.84-5.93l-1.4-0.85l-19.5,30.16l9.96,15.4c5.51-25.71,14.61-38.52,14.74-38.7
				C212.1,57.12,212.11,57.09,212.13,57.07z"/>
			<path class="st2" d="M95.96,21.68l-18.35,11.2l10.83,16.75l16.59-25.65l-6.51-2.53C97.68,21.12,96.73,21.21,95.96,21.68z"/>
			<polygon class="st2" points="113.03,27.08 127.61,49.63 141.93,27.48 128,32.89 			"/>
			<path class="st2" d="M157.48,21.45L150.89,24l16.57,25.62l10.86-16.79l-18.28-11.16C159.27,21.21,158.32,21.12,157.48,21.45z"/>
		</g>
	</g>
	<path id="collar_16_" d="M95.96,21.68c0.77-0.47,1.72-0.55,2.56-0.23L128,32.89l29.48-11.44c0.84-0.33,1.79-0.24,2.56,0.23
		l1.39,0.85V7.2c0-0.96-0.47-1.85-1.26-2.39c-0.79-0.54-1.79-0.66-2.69-0.31l-24.47,9.5c-0.82,0.32-1.45,0.99-1.72,1.83L128,26.32
		l-3.29-10.49c-0.26-0.84-0.9-1.52-1.72-1.83L98.52,4.5c-0.89-0.35-1.9-0.23-2.69,0.31c-0.79,0.54-1.26,1.44-1.26,2.39v15.32
		L95.96,21.68z M136.41,18.89l19.22-7.46v10.73l-23.06,8.95L136.41,18.89z M100.37,11.43l19.22,7.46l3.84,12.22l-23.06-8.95V11.43z"
		/>
	<g id="sleeves_30_">
		<path d="M0.38,240.11L43.31,55.51c0.02,0.58,0.21,1.16,0.56,1.63c0.05,0.07,1.51,2.12,3.59,6.15L6.68,238.6l28.88,6.71
			l27.02-116.19c0.08,2.46,0.14,4.97,0.14,7.56v17.43l-22.17,95.33c-0.31,1.34-1.5,2.24-2.82,2.24c-0.22,0-0.44-0.03-0.66-0.08
			l-34.52-8.03c-0.75-0.17-1.4-0.64-1.8-1.29C0.34,241.65,0.21,240.86,0.38,240.11z"/>
		<path d="M193.19,136.69c0-2.71,0.06-5.34,0.15-7.91l27.1,116.54l28.88-6.71l-40.8-175.46c2.05-3.93,3.48-5.93,3.53-6
			c0.47-0.64,0.65-1.44,0.51-2.22l43.07,185.2c0.17,0.75,0.04,1.54-0.36,2.19c-0.41,0.65-1.06,1.12-1.8,1.29l-34.52,8.03
			c-0.22,0.05-0.44,0.08-0.66,0.08c-1.32,0-2.51-0.9-2.82-2.24l-22.26-95.73V136.69z"/>
	</g>
	<g id="sleeves_32_">
		<g>
			<g>
				<g>
					<polygon class="st2" points="20.86,242.1 11.51,216.48 31.04,197.43 40.39,223.06 					"/>
				</g>
				<g>
					<polygon class="st2" points="31.04,197.43 21.69,171.81 41.22,152.76 50.57,178.39 					"/>
				</g>
				<g>
					<polygon class="st2" points="41.22,152.76 31.87,127.13 51.4,108.09 60.75,133.72 					"/>
				</g>
				<g>
					<polygon class="st2" points="41.22,152.76 31.87,127.13 51.4,108.09 60.75,133.72 					"/>
				</g>
			</g>
			<path class="st2" d="M56.41,68.46l-14.36,14l9.35,25.63l13.16-12.83C62.22,84.01,59.2,75.1,56.41,68.46z"/>
		</g>
		<g>
			<g>
				<g>
					<polygon class="st2" points="235.14,242.1 244.49,216.48 224.96,197.43 215.61,223.06 					"/>
				</g>
				<g>
					<polygon class="st2" points="224.96,197.43 234.31,171.81 214.78,152.76 205.43,178.39 					"/>
				</g>
				<g>
					<polygon class="st2" points="214.78,152.76 224.13,127.13 204.6,108.09 195.24,133.72 					"/>
				</g>
				<g>
					<polygon class="st2" points="214.78,152.76 224.13,127.13 204.6,108.09 195.25,133.72 					"/>
				</g>
			</g>
			<path class="st2" d="M199.59,68.46l14.37,14l-9.35,25.63l-13.16-12.83C193.78,84.01,196.8,75.1,199.59,68.46z"/>
		</g>
	</g>
	<path id="chest_16_" d="M190.33,240.39H65.66c-1.6,0-2.9-1.3-2.9-2.9v-100.8c0-53.27-18.66-79.3-18.85-79.55
		c-0.48-0.65-0.67-1.48-0.51-2.28c0.16-0.8,0.64-1.49,1.33-1.91l51.22-31.27c0.77-0.47,1.72-0.55,2.56-0.23L128,32.89l29.48-11.44
		c0.84-0.33,1.79-0.24,2.56,0.23l51.22,31.27c0.69,0.42,1.18,1.12,1.33,1.91c0.16,0.8-0.03,1.62-0.51,2.28
		c-0.19,0.25-18.85,26.48-18.85,79.55v100.8C193.23,239.09,191.94,240.39,190.33,240.39z M68.56,234.59h118.87v-97.9
		c0-46.09,13.38-72.32,18.26-80.35l-47.45-28.97L129.05,38.7c-0.67,0.26-1.42,0.26-2.1,0L97.76,27.37L50.31,56.34
		c4.87,8.03,18.26,34.26,18.26,80.35V234.59z"/>
</g>
</svg>
