<?xml version="1.0" encoding="utf-8"?>
<!-- Generator: Adobe Illustrator 25.2.0, SVG Export Plug-In . SVG Version: 6.00 Build 0)  -->
<svg version="1.1" id="Layer_1" xmlns="http://www.w3.org/2000/svg" xmlns:xlink="http://www.w3.org/1999/xlink" x="0px" y="0px"
	 viewBox="0 0 256 256" style="enable-background:new 0 0 256 256;" xml:space="preserve">
<style type="text/css">
	.st0{fill:none;}
	.st1{fill:#F283B4;}
</style>
<rect class="st0" width="256" height="256"/>
<g id="JACKET_1_">
	<g>
		<path class="st1" d="M125.11,234.14V38.44L98,27.92L50.77,56.75c4.85,7.99,18.17,34.09,18.17,79.97v97.43H125.11z"/>
		<path d="M158.19,27.92l-27.3,10.6v195.63h56.36v-97.43c0-45.87,13.32-71.98,18.17-79.97L158.19,27.92z"/>
		<g>
			<path class="st1" d="M248.78,238.14L208.21,63.66c-5.08,9.84-13.89,31.59-15.05,65.53l26.89,115.63L248.78,238.14z"/>
			<polygon class="st1" points="123.54,31.64 119.72,19.48 100.6,12.06 100.6,22.73 109.77,26.29 			"/>
			<polygon points="155.59,12.06 136.46,19.48 132.64,31.64 149.03,25.28 155.59,22.73 			"/>
			<path d="M47.92,63.51L47.92,63.51L7.31,238.14l28.74,6.68l26.97-115.98C61.8,94.84,52.96,73.22,47.92,63.51z"/>
		</g>
	</g>
	<path id="stripe" d="M130.88,38.43l-1.79,0.7c-0.67,0.26-1.42,0.26-2.09,0l-1.89-0.73v195.68h5.77V38.43z"/>
	<path id="chest_1_" d="M190.08,239.85H66.01c-1.59,0-2.89-1.29-2.89-2.89V136.65c0-53.02-18.58-78.92-18.76-79.17
		c-0.48-0.65-0.66-1.47-0.51-2.27c0.16-0.79,0.64-1.48,1.33-1.9l50.98-31.12c0.77-0.47,1.71-0.55,2.55-0.23l29.34,11.39l29.34-11.39
		c0.84-0.32,1.78-0.24,2.55,0.23l50.98,31.12c0.69,0.42,1.17,1.11,1.33,1.9c0.16,0.79-0.03,1.62-0.51,2.27
		c-0.18,0.25-18.76,26.35-18.76,79.17v100.31C192.97,238.56,191.68,239.85,190.08,239.85z M68.89,234.08H187.2v-97.43
		c0-45.87,13.32-71.98,18.17-79.97l-47.23-28.83l-29.05,11.28c-0.67,0.26-1.42,0.26-2.09,0L97.95,27.85L50.72,56.69
		c4.85,7.99,18.17,34.09,18.17,79.97V234.08z"/>
	<g id="sleeves_1_">
		<path d="M255.01,239.58L212.29,55.85c-0.02,0.58-0.21,1.15-0.56,1.63c-0.05,0.07-1.5,2.11-3.57,6.12l40.57,174.48L220,244.76
			l-26.89-115.63c-0.08,2.45-0.14,4.95-0.14,7.52V154l22.06,94.88c0.31,1.33,1.5,2.23,2.81,2.23c0.22,0,0.44-0.03,0.66-0.08
			l34.36-7.99c0.75-0.17,1.39-0.64,1.79-1.28C255.05,241.11,255.18,240.32,255.01,239.58z"/>
		<path d="M63.12,136.65c0-2.7-0.06-5.31-0.15-7.87L36,244.76l-28.74-6.68L47.87,63.45c-2.04-3.91-3.46-5.9-3.51-5.97
			c-0.47-0.64-0.65-1.44-0.51-2.21L0.99,239.58c-0.17,0.75-0.04,1.53,0.36,2.18c0.4,0.65,1.05,1.11,1.79,1.28l34.36,7.99
			c0.22,0.05,0.44,0.08,0.66,0.08c1.31,0,2.5-0.9,2.81-2.23l22.16-95.27V136.65z"/>
	</g>
	<path id="collar_1_" d="M96.16,22.18c0.77-0.47,1.71-0.55,2.55-0.23l29.34,11.39l29.34-11.39c0.84-0.32,1.78-0.24,2.55,0.23
		l1.38,0.84V7.78c0-0.95-0.47-1.84-1.26-2.38c-0.79-0.54-1.79-0.65-2.67-0.31l-24.35,9.45c-0.82,0.32-1.45,0.99-1.71,1.83
		l-3.28,10.44l-3.28-10.44c-0.26-0.84-0.89-1.51-1.71-1.83L98.71,5.09c-0.89-0.34-1.89-0.23-2.67,0.31
		c-0.79,0.54-1.26,1.43-1.26,2.38v15.25L96.16,22.18z M136.41,19.42l19.13-7.42v10.68l-22.95,8.91L136.41,19.42z M100.55,11.99
		l19.13,7.42l3.82,12.16l-22.95-8.91V11.99z"/>
</g>
</svg>
