<?xml version="1.0" encoding="utf-8"?>
<!-- Generator: Adobe Illustrator 25.2.0, SVG Export Plug-In . SVG Version: 6.00 Build 0)  -->
<svg version="1.1" id="Layer_1" xmlns="http://www.w3.org/2000/svg" xmlns:xlink="http://www.w3.org/1999/xlink" x="0px" y="0px"
	 viewBox="0 0 256 256" style="enable-background:new 0 0 256 256;" xml:space="preserve">
<style type="text/css">
	.st0{fill:none;}
	.st1{fill:#FFF450;}
	.st2{fill:#293583;}
</style>
<rect class="st0" width="256" height="256"/>
<g id="JACKET_14_">
	<g>
		<path class="st1" d="M36.08,244.65l26.95-115.87C61.42,83.69,46.3,60.36,47.94,63.51L7.37,237.98L36.08,244.65z"/>
		<path class="st1" d="M248.63,237.98L208.09,63.66c-5.07,9.83-13.88,31.57-15.04,65.47l26.87,115.53L248.63,237.98z"/>
		<path class="st1" d="M129.09,39.21c-0.67,0.26-1.42,0.26-2.09,0L97.98,27.94L50.79,56.75c4.85,7.98,18.15,34.06,18.15,79.89v97.34
			h118.2v-97.34c0-45.83,13.31-71.91,18.15-79.89l-47.18-28.81L129.09,39.21z"/>
		<polygon class="st1" points="123.5,31.66 119.68,19.51 100.57,12.1 100.57,22.77 109.74,26.32 		"/>
		<polygon class="st1" points="155.52,12.1 136.41,19.51 132.59,31.66 148.96,25.31 155.52,22.77 		"/>
	</g>
	<path id="pattern_7_" class="st2" d="M48.03,51.68l57.8,108.07l-42.15,78.72c0.52,0.77,1.4,1.28,2.39,1.28h41.26l0.07-0.01
		L128,201.21l20.6,38.53l0.07,0.01h41.36c0.97,0,1.82-0.48,2.34-1.21l-42.19-78.79l57.82-108.11l-33.37-20.37L128,118.34L81.4,31.31
		L48.03,51.68z"/>
	<path id="chest_14_" d="M190.03,239.75H66.06c-1.59,0-2.88-1.29-2.88-2.88V136.64c0-52.97-18.56-78.85-18.75-79.1
		c-0.48-0.65-0.66-1.47-0.5-2.26c0.16-0.79,0.64-1.48,1.33-1.9l50.93-31.1c0.77-0.47,1.71-0.55,2.55-0.23l29.31,11.38l29.31-11.38
		c0.84-0.32,1.78-0.24,2.54,0.23l50.93,31.1c0.69,0.42,1.17,1.11,1.33,1.9c0.16,0.79-0.03,1.61-0.5,2.26
		c-0.18,0.25-18.75,26.33-18.75,79.1v100.22C192.91,238.46,191.62,239.75,190.03,239.75z M68.95,233.99h118.2v-97.34
		c0-45.83,13.31-71.91,18.15-79.89l-47.18-28.81l-29.03,11.27c-0.67,0.26-1.42,0.26-2.09,0L97.98,27.94L50.79,56.75
		c4.85,7.98,18.15,34.06,18.15,79.89V233.99z"/>
	<g id="sleeves_14_">
		<path d="M254.9,239.48L212.21,55.92c-0.02,0.58-0.2,1.15-0.55,1.62c-0.05,0.07-1.5,2.11-3.57,6.11l40.54,174.32l-28.71,6.68
			l-26.87-115.53c-0.08,2.45-0.14,4.94-0.14,7.52v17.33l22.04,94.79c0.31,1.33,1.49,2.23,2.81,2.23c0.22,0,0.43-0.03,0.65-0.08
			l34.33-7.98c0.74-0.17,1.39-0.63,1.79-1.28C254.94,241.01,255.07,240.22,254.9,239.48z"/>
		<path d="M63.18,136.64c0-2.7-0.06-5.31-0.15-7.87L36.08,244.65l-28.71-6.68L47.94,63.51c-2.03-3.91-3.46-5.9-3.51-5.97
			c-0.47-0.64-0.65-1.43-0.51-2.21L1.1,239.48c-0.17,0.74-0.04,1.53,0.36,2.18c0.4,0.65,1.05,1.11,1.79,1.28l34.33,7.98
			c0.22,0.05,0.44,0.08,0.65,0.08c1.31,0,2.5-0.9,2.8-2.23l22.14-95.19V136.64z"/>
	</g>
	<g id="stars_2_">
		<g id="stars_1_">
			<polygon class="st2" points="30.52,202.6 32.34,212.25 41.64,215.39 33.03,220.1 32.92,229.91 25.77,223.18 16.41,226.11 
				20.6,217.23 14.92,209.23 24.66,210.48 			"/>
			<g>
				<polygon class="st2" points="40.58,158.92 42.4,168.56 51.7,171.7 43.09,176.42 42.98,186.23 35.84,179.5 26.47,182.43 
					30.67,173.55 24.99,165.55 34.72,166.79 				"/>
				<polygon class="st2" points="50.65,115.24 52.47,124.88 61.77,128.02 53.16,132.73 53.05,142.55 45.9,135.82 36.54,138.74 
					40.73,129.87 35.05,121.86 44.79,123.11 				"/>
			</g>
		</g>
		<g id="stars_3_">
			<polygon class="st2" points="225.48,202.6 223.66,212.25 214.36,215.39 222.97,220.1 223.08,229.91 230.23,223.18 239.59,226.11 
				235.4,217.23 241.08,209.23 231.34,210.48 			"/>
			<g>
				<polygon class="st2" points="215.42,158.92 213.6,168.56 204.3,171.7 212.91,176.42 213.02,186.23 220.16,179.5 229.53,182.43 
					225.33,173.55 231.01,165.55 221.28,166.79 				"/>
				<polygon class="st2" points="205.35,115.24 203.53,124.88 194.23,128.02 202.84,132.73 202.95,142.55 210.1,135.82 
					219.46,138.74 215.27,129.87 220.95,121.86 211.21,123.11 				"/>
			</g>
		</g>
	</g>
	<path id="collar_14_" d="M96.19,22.28c0.77-0.47,1.71-0.55,2.55-0.23l29.31,11.38l29.31-11.38c0.84-0.32,1.78-0.24,2.54,0.23
		l1.38,0.84V7.89c0-0.95-0.47-1.84-1.25-2.38c-0.78-0.54-1.78-0.65-2.67-0.31l-24.33,9.44c-0.82,0.32-1.44,0.99-1.71,1.82
		l-3.28,10.43l-3.28-10.43c-0.26-0.84-0.89-1.51-1.71-1.82L98.74,5.2c-0.89-0.34-1.89-0.23-2.67,0.31
		c-0.79,0.54-1.25,1.43-1.25,2.38v15.24L96.19,22.28z M136.41,19.51l19.11-7.42v10.67l-22.93,8.9L136.41,19.51z M100.57,12.1
		l19.11,7.42l3.82,12.15l-22.93-8.9V12.1z"/>
</g>
</svg>
