<?xml version="1.0" encoding="utf-8"?>
<!-- Generator: Adobe Illustrator 25.2.0, SVG Export Plug-In . SVG Version: 6.00 Build 0)  -->
<svg version="1.1" id="Layer_1" xmlns="http://www.w3.org/2000/svg" xmlns:xlink="http://www.w3.org/1999/xlink" x="0px" y="0px"
	 viewBox="0 0 256 256" style="enable-background:new 0 0 256 256;" xml:space="preserve">
<style type="text/css">
	.st0{fill:none;}
	.st1{fill:#39409A;}
	.st2{fill:#FFFFFF;}
	.st3{fill:#0092BF;}
</style>
<rect class="st0" width="256" height="256"/>
<g id="JACKET_15_">
	<g>
		<path class="st1" d="M248.04,237.53L207.7,64.05c-5.05,9.78-13.81,31.41-14.97,65.15l26.74,114.97L248.04,237.53z"/>
		<path class="st2" d="M129.08,39.72c-0.67,0.26-1.41,0.26-2.08,0L98.12,28.51L51.17,57.18c4.82,7.94,18.07,33.9,18.07,79.51v96.87
			h117.63v-96.87c0-45.61,13.24-71.57,18.06-79.51l-46.95-28.67L129.08,39.72z"/>
		<polygon class="st1" points="123.52,32.21 119.73,20.12 100.71,12.74 100.71,23.36 109.83,26.9 		"/>
		<polygon class="st1" points="155.39,12.74 136.37,20.12 132.57,32.21 148.86,25.89 155.39,23.36 		"/>
		<path class="st1" d="M48.33,63.9L48.33,63.9L7.96,237.53l28.57,6.64l26.82-115.31C62.14,95.05,53.35,73.55,48.33,63.9z"/>
	</g>
	<g id="pattern_10_">
		<rect x="63.5" y="206.93" class="st3" width="32.28" height="32.27"/>
		<rect x="128.05" y="206.93" class="st3" width="32.28" height="32.27"/>
		<rect x="95.77" y="174.66" class="st3" width="32.28" height="32.28"/>
		<rect x="160.32" y="174.66" class="st3" width="32.28" height="32.28"/>
		<rect x="63.5" y="142.38" class="st3" width="32.28" height="32.28"/>
		<rect x="128.05" y="142.38" class="st3" width="32.28" height="32.28"/>
		<rect x="95.77" y="110.11" class="st3" width="32.28" height="32.27"/>
		<rect x="160.32" y="110.11" class="st3" width="32.28" height="32.27"/>
		<rect x="63.5" y="77.68" class="st3" width="32.28" height="32.28"/>
		<rect x="128.05" y="77.68" class="st3" width="32.28" height="32.28"/>
		<rect x="95.77" y="45.41" class="st3" width="32.28" height="32.28"/>
		<rect x="160.32" y="45.41" class="st3" width="32.28" height="32.28"/>
		<g>
			<path class="st3" d="M45.66,53.74c-0.68,0.42-1.16,1.11-1.32,1.89c-0.16,0.79,0.03,1.61,0.5,2.25c0.09,0.13,4.77,6.67,9.42,19.8
				h9.23V45.41h-4.19L45.66,53.74z"/>
			<polygon class="st3" points="63.5,45.41 95.77,45.41 95.77,23.14 63.5,42.85 			"/>
		</g>
		<path class="st3" d="M157.21,22.57l-29.17,11.32v11.52h32.28V23.14l-0.57-0.35C158.99,22.33,158.05,22.24,157.21,22.57z"/>
		<path class="st3" d="M192.6,77.68v32.28h1.71c1.76-13.33,4.65-24.08,7.55-32.28H192.6z"/>
	</g>
	<path id="chest_15_" d="M189.73,239.21H66.36c-1.58,0-2.87-1.28-2.87-2.87V136.6c0-52.71-18.47-78.46-18.65-78.72
		c-0.48-0.65-0.66-1.47-0.5-2.25c0.16-0.79,0.63-1.47,1.32-1.89l50.69-30.95c0.76-0.47,1.7-0.55,2.53-0.23l29.17,11.32l29.17-11.32
		c0.83-0.32,1.77-0.24,2.53,0.23l50.69,30.95c0.69,0.42,1.16,1.11,1.32,1.89c0.16,0.79-0.03,1.61-0.5,2.25
		c-0.18,0.25-18.65,26.2-18.65,78.72v99.74C192.6,237.92,191.31,239.21,189.73,239.21z M69.23,233.47h117.63V136.6
		c0-45.61,13.24-71.57,18.06-79.51l-46.95-28.67l-28.88,11.21c-0.67,0.26-1.41,0.26-2.08,0L98.12,28.43L51.17,57.09
		c4.82,7.94,18.06,33.9,18.06,79.51V233.47z"/>
	<g id="sleeves_15_">
		<path d="M254.28,238.94L211.8,56.27c-0.02,0.58-0.2,1.14-0.55,1.62c-0.05,0.07-1.49,2.1-3.55,6.08l40.34,173.48l-28.57,6.64
			l-26.73-114.97c-0.08,2.44-0.14,4.92-0.14,7.48v17.25l21.94,94.33c0.31,1.33,1.49,2.22,2.79,2.22c0.22,0,0.43-0.02,0.65-0.08
			l34.16-7.94c0.74-0.17,1.38-0.63,1.79-1.28C254.32,240.46,254.45,239.68,254.28,238.94z"/>
		<path d="M63.5,136.6c0-2.69-0.06-5.28-0.15-7.83L36.53,244.09l-28.57-6.64L48.33,63.82c-2.02-3.89-3.44-5.87-3.49-5.94
			c-0.46-0.63-0.64-1.43-0.51-2.2L1.72,238.94c-0.17,0.74-0.04,1.52,0.36,2.17c0.4,0.65,1.04,1.11,1.79,1.28l34.16,7.94
			c0.22,0.05,0.44,0.08,0.65,0.08c1.3,0,2.48-0.89,2.79-2.22l22.03-94.72V136.6z"/>
	</g>
	<path id="collar_15_" d="M96.34,22.79c0.76-0.47,1.7-0.55,2.53-0.23l29.17,11.32l29.17-11.32c0.83-0.32,1.77-0.24,2.53,0.23
		l1.37,0.84V8.47c0-0.95-0.47-1.83-1.25-2.37c-0.78-0.53-1.78-0.65-2.66-0.31l-24.21,9.4c-0.81,0.32-1.44,0.98-1.7,1.82l-3.26,10.38
		L124.79,17c-0.26-0.83-0.89-1.5-1.7-1.82l-24.21-9.4C97.99,5.45,97,5.57,96.22,6.1c-0.78,0.53-1.25,1.42-1.25,2.37v15.16
		L96.34,22.79z M136.37,20.04l19.02-7.38v10.62l-22.81,8.86L136.37,20.04z M100.71,12.66l19.02,7.38l3.8,12.09l-22.82-8.86V12.66z"
		/>
</g>
</svg>
