<?xml version="1.0" encoding="utf-8"?>
<!-- Generator: Adobe Illustrator 25.2.0, SVG Export Plug-In . SVG Version: 6.00 Build 0)  -->
<svg version="1.1" id="Layer_1" xmlns="http://www.w3.org/2000/svg" xmlns:xlink="http://www.w3.org/1999/xlink" x="0px" y="0px"
	 viewBox="0 0 256 256" style="enable-background:new 0 0 256 256;" xml:space="preserve">
<style type="text/css">
	.st0{fill:none;}
	.st1{fill:#ED1C24;}
	.st2{fill:#FFF200;}
</style>
<rect class="st0" width="256" height="256"/>
<g id="JACKET_26_">
	<g>
		<path class="st1" d="M248.46,237.86L207.99,63.85c-5.06,9.81-13.85,31.51-15.01,65.36l26.82,115.32L248.46,237.86z"/>
		<path class="st1" d="M129.13,39.45c-0.67,0.26-1.41,0.26-2.08,0L98.08,28.2l-47.1,28.76c4.84,7.97,18.12,34,18.12,79.75v97.17
			h117.99v-97.17c0-45.75,13.28-71.79,18.12-79.75l-47.1-28.76L129.13,39.45z"/>
		<polygon class="st1" points="123.55,31.92 119.75,19.79 100.67,12.38 100.67,23.04 109.82,26.59 		"/>
		<polygon class="st1" points="155.51,12.38 136.44,19.79 132.63,31.92 148.97,25.58 155.51,23.04 		"/>
		<path class="st1" d="M48.13,63.71L48.13,63.71L7.63,237.86l28.66,6.67l26.9-115.67C61.98,94.94,53.16,73.38,48.13,63.71z"/>
	</g>
	<g id="sleeve_pattern_5_">
		<g>
			<g>
				<g>
					<polygon class="st2" points="21.71,241.19 13.17,211.43 33.54,189.65 42.08,219.41 					"/>
				</g>
				<g>
					<polygon class="st2" points="33.54,189.65 25,159.89 45.37,138.11 53.91,167.87 					"/>
				</g>
				<g>
					<polygon class="st2" points="45.37,138.11 36.83,108.35 57.2,86.56 65.74,116.32 					"/>
				</g>
				<g>
					<polygon class="st2" points="45.37,138.11 36.83,108.35 57.2,86.56 65.74,116.32 					"/>
				</g>
			</g>
		</g>
		<g>
			<g>
				<g>
					<polygon class="st2" points="234.29,241.19 242.83,211.43 222.46,189.65 213.92,219.41 					"/>
				</g>
				<g>
					<polygon class="st2" points="222.46,189.65 231,159.89 210.63,138.11 202.09,167.87 					"/>
				</g>
				<g>
					<polygon class="st2" points="210.63,138.11 219.17,108.35 198.8,86.56 190.26,116.32 					"/>
				</g>
				<g>
					<polygon class="st2" points="210.63,138.11 219.17,108.35 198.8,86.56 190.26,116.32 					"/>
				</g>
			</g>
		</g>
	</g>
	<path id="chest_26_" d="M189.92,239.55H66.17c-1.59,0-2.88-1.29-2.88-2.88V136.63c0-52.88-18.53-78.71-18.71-78.96
		c-0.48-0.65-0.66-1.47-0.5-2.26c0.16-0.79,0.64-1.48,1.32-1.9l50.84-31.04c0.76-0.47,1.71-0.55,2.54-0.23l29.26,11.36l29.26-11.36
		c0.83-0.32,1.77-0.24,2.54,0.23l50.84,31.04c0.69,0.42,1.17,1.11,1.32,1.9c0.16,0.79-0.03,1.61-0.5,2.26
		c-0.18,0.25-18.71,26.28-18.71,78.96v100.05C192.79,238.26,191.51,239.55,189.92,239.55z M69.05,233.8h117.99v-97.17
		c0-45.75,13.28-71.79,18.12-79.75l-47.1-28.76l-28.97,11.25c-0.67,0.26-1.41,0.26-2.08,0L98.03,28.12l-47.1,28.76
		c4.84,7.97,18.12,34,18.12,79.75V233.8z"/>
	<g id="pattern_21_">
		<path class="st2" d="M88.94,87.57c-7.3,0-13.86-4.05-17.11-10.58c-2.28-4.57-2.64-9.75-1.02-14.58c1.62-4.84,5.02-8.76,9.59-11.04
			c2.68-1.34,5.54-2.01,8.51-2.01c7.3,0,13.85,4.05,17.11,10.58c2.28,4.57,2.64,9.75,1.02,14.58c-1.62,4.84-5.02,8.76-9.59,11.04
			C94.77,86.89,91.91,87.57,88.94,87.57z"/>
		<path class="st2" d="M155.91,221.82c-7.3,0-13.86-4.05-17.11-10.58c-2.28-4.57-2.64-9.74-1.02-14.58
			c1.62-4.84,5.02-8.76,9.59-11.04c2.68-1.34,5.54-2.01,8.51-2.01c7.3,0,13.86,4.05,17.11,10.58c4.7,9.42,0.86,20.92-8.57,25.62
			C161.74,221.15,158.88,221.82,155.91,221.82z"/>
		<path class="st2" d="M122.43,154.7c-7.3,0-13.86-4.05-17.11-10.58c-4.7-9.42-0.86-20.92,8.57-25.62c2.68-1.34,5.54-2.01,8.51-2.01
			c7.3,0,13.86,4.05,17.11,10.58c4.7,9.42,0.86,20.92-8.57,25.62C128.26,154.02,125.4,154.7,122.43,154.7z"/>
	</g>
	<g id="sleeves_26_">
		<path d="M254.67,239.28L212.06,56.05c-0.02,0.58-0.2,1.15-0.55,1.62c-0.05,0.07-1.5,2.1-3.56,6.1l40.47,174.01l-28.66,6.67
			l-26.82-115.32c-0.08,2.44-0.14,4.93-0.14,7.5v17.3l22,94.63c0.31,1.33,1.49,2.23,2.8,2.23c0.22,0,0.44-0.02,0.65-0.07l34.27-7.97
			c0.74-0.17,1.39-0.63,1.79-1.28C254.72,240.81,254.84,240.02,254.67,239.28z"/>
		<path d="M63.3,136.63c0-2.69-0.06-5.3-0.15-7.85l-26.9,115.67l-28.66-6.67l40.5-174.16c-2.03-3.9-3.45-5.89-3.5-5.96
			c-0.47-0.64-0.65-1.43-0.51-2.21L1.33,239.28c-0.17,0.74-0.04,1.53,0.36,2.17c0.4,0.65,1.05,1.11,1.79,1.28l34.27,7.97
			c0.22,0.05,0.44,0.07,0.65,0.07c1.31,0,2.49-0.9,2.8-2.23l22.1-95.02V136.63z"/>
	</g>
	<path id="collar_26_" d="M96.25,22.47c0.76-0.47,1.71-0.55,2.54-0.23l29.26,11.36l29.26-11.36c0.83-0.32,1.77-0.24,2.54,0.23
		l1.38,0.84V8.1c0-0.95-0.47-1.84-1.25-2.37c-0.78-0.54-1.78-0.65-2.67-0.31l-24.29,9.43c-0.81,0.32-1.44,0.99-1.7,1.82l-3.27,10.41
		l-3.27-10.41c-0.26-0.83-0.89-1.5-1.7-1.82L98.79,5.42c-0.89-0.34-1.88-0.23-2.67,0.31c-0.78,0.54-1.25,1.43-1.25,2.37v15.21
		L96.25,22.47z M136.39,19.71l19.08-7.4v10.65l-22.89,8.88L136.39,19.71z M100.62,12.3l19.08,7.4l3.81,12.13l-22.88-8.88V12.3z"/>
</g>
</svg>
