<?xml version="1.0" encoding="utf-8"?>
<!-- Generator: Adobe Illustrator 25.2.0, SVG Export Plug-In . SVG Version: 6.00 Build 0)  -->
<svg version="1.1" id="Layer_1" xmlns="http://www.w3.org/2000/svg" xmlns:xlink="http://www.w3.org/1999/xlink" x="0px" y="0px"
	 viewBox="0 0 256 256" style="enable-background:new 0 0 256 256;" xml:space="preserve">
<style type="text/css">
	.st0{fill:none;}
	.st1{fill:#FFFFFF;}
	.st2{fill:#8BC641;}
</style>
<rect class="st0" width="256" height="256"/>
<g id="JACKET_30_">
	<g>
		<path class="st1" d="M248.74,238.16L208.16,63.68c-5.08,9.84-13.89,31.59-15.05,65.53L220,244.84L248.74,238.16z"/>
		<path class="st2" d="M129.09,39.21c-0.67,0.26-1.42,0.26-2.09,0L97.95,27.94L50.72,56.77c4.85,7.99,18.17,34.09,18.17,79.97v97.43
			h118.3v-97.43c0-45.87,13.32-71.98,18.17-79.97l-47.23-28.83L129.09,39.21z"/>
		<polygon class="st2" points="123.5,31.66 119.68,19.5 100.55,12.07 100.55,22.75 109.72,26.31 		"/>
		<polygon class="st2" points="155.54,12.07 136.41,19.5 132.6,31.66 148.98,25.3 155.54,22.75 		"/>
		<path class="st1" d="M47.87,63.53L47.87,63.53L7.26,238.16L36,244.84l26.97-115.98C61.76,94.86,52.91,73.23,47.87,63.53z"/>
	</g>
	<g id="pattern_23_">
		<polygon points="87.91,146.34 67.69,115.67 87.91,85 108.13,115.67 		"/>
		<polygon points="127.66,146.34 107.43,115.67 127.66,85 147.87,115.67 		"/>
		<polygon points="168.09,146.34 147.87,115.67 168.09,85 188.31,115.67 		"/>
	</g>
	<path id="chest_31_" d="M190.04,239.85H65.96c-1.59,0-2.89-1.29-2.89-2.89V136.65c0-53.02-18.58-78.92-18.76-79.17
		c-0.48-0.65-0.66-1.47-0.51-2.27c0.16-0.79,0.64-1.48,1.33-1.9l50.98-31.12c0.77-0.47,1.71-0.55,2.55-0.23L128,33.34l29.34-11.39
		c0.84-0.32,1.78-0.24,2.55,0.23l50.98,31.12c0.69,0.42,1.17,1.11,1.33,1.9c0.16,0.79-0.03,1.62-0.51,2.27
		c-0.18,0.25-18.76,26.35-18.76,79.17v100.31C192.92,238.56,191.63,239.85,190.04,239.85z M68.85,234.08h118.31v-97.43
		c0-45.87,13.32-71.98,18.17-79.97l-47.23-28.83l-29.05,11.28c-0.67,0.26-1.42,0.26-2.09,0L97.9,27.85L50.68,56.69
		c4.85,7.99,18.17,34.09,18.17,79.97V234.08z"/>
	<path id="collar_33_" d="M96.11,22.18c0.77-0.47,1.71-0.55,2.55-0.23L128,33.34l29.34-11.39c0.84-0.32,1.78-0.24,2.55,0.23
		l1.38,0.84V7.78c0-0.95-0.47-1.84-1.26-2.38c-0.78-0.54-1.79-0.65-2.67-0.31l-24.35,9.45c-0.82,0.32-1.45,0.99-1.71,1.83L128,26.81
		l-3.28-10.44c-0.26-0.84-0.89-1.51-1.71-1.83L98.66,5.09c-0.89-0.34-1.89-0.23-2.67,0.31c-0.78,0.54-1.26,1.43-1.26,2.38v15.25
		L96.11,22.18z M136.37,19.42l19.13-7.42v10.68l-22.95,8.91L136.37,19.42z M100.5,11.99l19.13,7.42l3.82,12.16l-22.95-8.91V11.99z"
		/>
	<g id="sleeve_pattern_6_">
		<g>
			<path class="st2" d="M60.95,106.83L28.66,243.05l7.34,1.71l26.89-115.63v-1.41C62.58,120.13,61.89,113.17,60.95,106.83z"/>
			<path class="st2" d="M47.84,63.6L7.26,238.08l6.72,1.56l39-164.51c-1.85-4.92-3.65-8.79-5.14-11.64V63.6z"/>
		</g>
		<g>
			<path class="st2" d="M195.05,106.83l32.29,136.22l-7.34,1.71l-26.89-115.63v-1.41C193.42,120.13,194.11,113.17,195.05,106.83z"/>
			<path class="st2" d="M208.16,63.6l40.57,174.48l-6.72,1.56l-39-164.51c1.85-4.92,3.66-8.79,5.14-11.64V63.6z"/>
		</g>
	</g>
	<g id="sleeves_38_">
		<path d="M0.99,239.58L43.71,55.85c0.02,0.58,0.2,1.15,0.56,1.63c0.05,0.07,1.5,2.11,3.57,6.12L7.26,238.08L36,244.76l26.89-115.63
			c0.08,2.45,0.14,4.95,0.14,7.52V154l-22.06,94.88c-0.31,1.33-1.5,2.23-2.81,2.23c-0.22,0-0.44-0.02-0.66-0.08l-34.36-7.99
			c-0.75-0.17-1.39-0.64-1.8-1.29C0.95,241.11,0.82,240.32,0.99,239.58z"/>
		<path d="M192.88,136.65c0-2.7,0.06-5.31,0.15-7.87L220,244.76l28.74-6.68L208.13,63.45c2.04-3.91,3.46-5.9,3.51-5.97
			c0.47-0.64,0.65-1.44,0.51-2.21l42.86,184.31c0.17,0.75,0.04,1.53-0.36,2.18c-0.4,0.65-1.05,1.11-1.8,1.29l-34.36,7.99
			c-0.22,0.05-0.44,0.08-0.66,0.08c-1.31,0-2.5-0.9-2.81-2.23l-22.15-95.27V136.65z"/>
	</g>
</g>
</svg>
