<?xml version="1.0" encoding="utf-8"?>
<!-- Generator: Adobe Illustrator 25.2.0, SVG Export Plug-In . SVG Version: 6.00 Build 0)  -->
<svg version="1.1" id="Layer_1" xmlns="http://www.w3.org/2000/svg" xmlns:xlink="http://www.w3.org/1999/xlink" x="0px" y="0px"
	 viewBox="0 0 256 256" style="enable-background:new 0 0 256 256;" xml:space="preserve">
<style type="text/css">
	.st0{fill:none;}
	.st1{fill:#ED1C24;}
	.st2{fill:#0684BF;}
	.st3{fill:#FFFFFF;}
</style>
<rect class="st0" width="256" height="256"/>
<g id="JACKET_4_">
	<g>
		<path class="st1" d="M248.59,237.98l-40.51-174.2c-5.07,9.82-13.87,31.54-15.03,65.43l26.85,115.45L248.59,237.98z"/>
		<path class="st2" d="M129.13,39.35c-0.67,0.26-1.41,0.26-2.08,0L98.04,28.09L50.89,56.88c4.84,7.97,18.14,34.04,18.14,79.84v97.27
			h118.12v-97.27c0-45.8,13.3-71.86,18.14-79.84l-47.15-28.79L129.13,39.35z"/>
		<polygon class="st1" points="123.55,31.81 119.74,19.67 100.64,12.26 100.64,22.92 109.8,26.48 		"/>
		<polygon class="st1" points="155.54,12.26 136.45,19.67 132.63,31.81 148.99,25.46 155.54,22.92 		"/>
		<path class="st1" d="M48.04,63.64L48.04,63.64L7.5,237.98l28.69,6.67l26.93-115.79C61.91,94.91,53.08,73.32,48.04,63.64z"/>
	</g>
	<polygon id="pattern_5_" class="st3" points="128.05,33.49 107.17,25.39 107.17,239.67 148.83,239.67 148.83,25.43 	"/>
	<path id="chest_4_" d="M189.98,239.67H66.11c-1.59,0-2.88-1.29-2.88-2.88V136.64c0-52.93-18.55-78.79-18.73-79.05
		c-0.48-0.65-0.66-1.47-0.5-2.26c0.16-0.79,0.64-1.48,1.32-1.9l50.9-31.07c0.77-0.47,1.71-0.55,2.54-0.23l29.29,11.37l29.29-11.37
		c0.84-0.32,1.78-0.24,2.54,0.23l50.9,31.07c0.69,0.42,1.17,1.11,1.32,1.9c0.16,0.79-0.03,1.61-0.5,2.26
		c-0.18,0.25-18.73,26.31-18.73,79.05v100.16C192.87,238.38,191.58,239.67,189.98,239.67z M68.99,233.91H187.1v-97.27
		c0-45.8,13.3-71.86,18.14-79.84l-47.15-28.79l-29.01,11.26c-0.67,0.26-1.41,0.26-2.08,0L98,28.01L50.85,56.8
		c4.84,7.97,18.14,34.04,18.14,79.84V233.91z"/>
	<g id="sleeves_4_">
		<path d="M254.81,239.4L212.15,55.97c-0.02,0.58-0.2,1.15-0.55,1.62c-0.05,0.07-1.5,2.11-3.56,6.11l40.51,174.2l-28.69,6.67
			l-26.85-115.45c-0.08,2.45-0.14,4.94-0.14,7.51v17.32l22.03,94.73c0.31,1.33,1.49,2.23,2.8,2.23c0.22,0,0.44-0.03,0.66-0.08
			l34.3-7.98c0.74-0.17,1.39-0.63,1.79-1.28C254.85,240.93,254.98,240.15,254.81,239.4z"/>
		<path d="M63.23,136.64c0-2.7-0.06-5.31-0.15-7.86l-26.93,115.8L7.45,237.9L48,63.56c-2.03-3.91-3.45-5.89-3.5-5.96
			c-0.47-0.64-0.65-1.43-0.51-2.21L1.19,239.4c-0.17,0.74-0.04,1.53,0.36,2.17c0.4,0.65,1.05,1.11,1.79,1.28l34.3,7.98
			c0.22,0.05,0.44,0.08,0.66,0.08c1.31,0,2.49-0.9,2.8-2.23l22.12-95.12V136.64z"/>
	</g>
	<g id="sleeves_35_">
		<path class="st3" d="M38.25,182.07c-0.85,0-1.7-0.1-2.54-0.3c-5.97-1.39-9.69-7.38-8.29-13.35c1.18-5.06,5.63-8.59,10.81-8.59
			c0.85,0,1.7,0.1,2.54,0.29c5.97,1.39,9.69,7.38,8.29,13.35C47.88,178.54,43.44,182.07,38.25,182.07
			C38.25,182.07,38.25,182.07,38.25,182.07z"/>
		<path class="st3" d="M26.89,230.67c-0.85,0-1.7-0.1-2.54-0.29c-2.89-0.68-5.35-2.44-6.91-4.96c-1.57-2.52-2.06-5.5-1.38-8.39
			c1.18-5.06,5.62-8.59,10.81-8.59c0.85,0,1.7,0.1,2.54,0.29c5.97,1.4,9.69,7.39,8.29,13.35C36.52,227.14,32.07,230.67,26.89,230.67
			C26.89,230.67,26.89,230.67,26.89,230.67z"/>
		<path class="st3" d="M49.62,133.48c-0.85,0-1.7-0.1-2.54-0.29c-2.89-0.68-5.35-2.44-6.91-4.96c-1.57-2.52-2.06-5.5-1.38-8.39
			c1.18-5.05,5.63-8.59,10.81-8.59c0.85,0,1.7,0.1,2.54,0.29c2.89,0.68,5.35,2.44,6.91,4.96c1.57,2.52,2.06,5.5,1.38,8.39
			C59.25,129.94,54.8,133.48,49.62,133.48L49.62,133.48z"/>
		<path class="st3" d="M217.75,182.07c-5.18,0-9.63-3.53-10.81-8.59c-1.39-5.97,2.33-11.96,8.29-13.35c0.84-0.2,1.69-0.29,2.54-0.29
			c5.18,0,9.63,3.53,10.81,8.59c1.39,5.97-2.33,11.96-8.29,13.35C219.45,181.97,218.6,182.07,217.75,182.07L217.75,182.07z"/>
		<path class="st3" d="M229.11,230.67c-5.18,0-9.63-3.53-10.81-8.59c-1.39-5.97,2.33-11.96,8.29-13.35
			c0.84-0.19,1.69-0.29,2.54-0.29c5.19,0,9.63,3.53,10.81,8.59c0.68,2.89,0.19,5.87-1.38,8.39c-1.57,2.52-4.02,4.28-6.91,4.96
			C230.81,230.57,229.96,230.67,229.11,230.67z"/>
		<path class="st3" d="M206.38,133.48c-5.19,0-9.63-3.53-10.81-8.59c-0.68-2.89-0.19-5.87,1.38-8.39c1.57-2.52,4.02-4.28,6.91-4.96
			c0.84-0.2,1.69-0.29,2.54-0.29c5.18,0,9.63,3.53,10.81,8.59c0.68,2.89,0.19,5.87-1.38,8.39c-1.57,2.52-4.02,4.28-6.91,4.96
			C208.09,133.38,207.23,133.48,206.38,133.48L206.38,133.48z"/>
	</g>
	<path id="collar_4_" d="M96.21,22.35c0.77-0.47,1.71-0.55,2.54-0.23l29.29,11.37l29.29-11.37c0.84-0.32,1.78-0.24,2.54,0.23
		l1.38,0.84V7.97c0-0.95-0.47-1.84-1.25-2.38c-0.78-0.54-1.78-0.65-2.67-0.31l-24.31,9.44c-0.82,0.32-1.44,0.99-1.71,1.82
		l-3.27,10.43l-3.27-10.43c-0.26-0.84-0.89-1.51-1.71-1.82L98.75,5.28c-0.89-0.34-1.88-0.23-2.67,0.31
		c-0.78,0.54-1.25,1.43-1.25,2.38v15.23L96.21,22.35z M136.4,19.59l19.1-7.41v10.66l-22.91,8.89L136.4,19.59z M100.59,12.18
		l19.1,7.41l3.81,12.14l-22.91-8.89V12.18z"/>
</g>
</svg>
