<?xml version="1.0" encoding="utf-8"?>
<!-- Generator: Adobe Illustrator 25.2.0, SVG Export Plug-In . SVG Version: 6.00 Build 0)  -->
<svg version="1.1" id="Layer_1" xmlns="http://www.w3.org/2000/svg" xmlns:xlink="http://www.w3.org/1999/xlink" x="0px" y="0px"
	 viewBox="0 0 256 256" style="enable-background:new 0 0 256 256;" xml:space="preserve">
<style type="text/css">
	.st0{fill:none;}
	.st1{fill:#FFFFFF;}
	.st2{fill:#293583;}
</style>
<rect class="st0" width="256" height="256"/>
<g id="JACKET_13_">
	<g>
		<path class="st1" d="M248.67,237.99L208.15,63.75c-5.07,9.82-13.87,31.55-15.03,65.44l26.85,115.47L248.67,237.99z"/>
		<path class="st1" d="M129.18,39.31c-0.67,0.26-1.42,0.26-2.08,0L98.08,28.05L50.92,56.85c4.84,7.98,18.15,34.05,18.15,79.86V234
			h118.15v-97.3c0-45.81,13.3-71.88,18.14-79.86l-47.16-28.79L129.18,39.31z"/>
		<polygon class="st2" points="123.59,31.77 119.78,19.63 100.68,12.21 100.68,22.88 109.84,26.43 		"/>
		<polygon class="st2" points="155.6,12.21 136.49,19.63 132.68,31.77 149.04,25.42 155.6,22.88 		"/>
		<path class="st1" d="M48.07,63.6L48.07,63.6L7.52,237.99l28.7,6.67l26.93-115.82C61.94,94.88,53.11,73.29,48.07,63.6z"/>
	</g>
	<g id="pattern_9_">
		<path class="st2" d="M128,107.11l-64.81,27.64c0.01,0.63,0.02,1.25,0.02,1.89v32.04L128,141.05l64.88,27.67v-32.08
			c0-0.63,0.01-1.23,0.02-1.85L128,107.11z"/>
		<polygon class="st2" points="128,174.77 63.21,202.4 63.21,236.34 128,208.71 192.88,236.38 192.88,202.44 		"/>
		<path class="st2" d="M60.35,102.24L128,73.39l67.75,28.89c2.27-12.92,5.53-23.01,8.51-30.31L128,39.45L51.84,71.93
			C54.82,79.22,58.09,89.29,60.35,102.24z"/>
	</g>
	<path id="chest_13_" d="M190,239.7H66.09c-1.59,0-2.88-1.29-2.88-2.88V136.64c0-52.95-18.55-78.81-18.74-79.07
		c-0.48-0.65-0.66-1.47-0.5-2.26c0.16-0.79,0.64-1.48,1.33-1.9L96.2,22.32c0.77-0.47,1.71-0.55,2.54-0.23l29.3,11.37l29.3-11.37
		c0.84-0.32,1.78-0.24,2.54,0.23l50.91,31.08c0.69,0.42,1.17,1.11,1.33,1.9c0.16,0.79-0.03,1.61-0.5,2.26
		c-0.18,0.25-18.74,26.31-18.74,79.07v100.18C192.88,238.41,191.59,239.7,190,239.7z M68.97,233.94h118.15v-97.3
		c0-45.81,13.3-71.88,18.14-79.86L158.1,27.99l-29.01,11.26c-0.67,0.26-1.42,0.26-2.08,0L97.99,27.99L50.83,56.78
		c4.84,7.98,18.15,34.05,18.15,79.86V233.94z"/>
	<g id="sleeves_13_">
		<path d="M254.84,239.43L212.17,55.95c-0.02,0.58-0.2,1.15-0.55,1.62c-0.05,0.07-1.5,2.11-3.56,6.11l40.52,174.24l-28.7,6.67
			l-26.85-115.48c-0.08,2.45-0.14,4.94-0.14,7.52v17.32l22.03,94.75c0.31,1.33,1.49,2.23,2.8,2.23c0.22,0,0.43-0.03,0.65-0.08
			l34.31-7.98c0.74-0.17,1.39-0.63,1.79-1.28C254.88,240.96,255.01,240.17,254.84,239.43z"/>
		<path d="M63.21,136.64c0-2.7-0.06-5.31-0.15-7.86L36.12,244.6l-28.7-6.67L47.98,63.54c-2.03-3.91-3.45-5.9-3.51-5.97
			c-0.47-0.64-0.65-1.43-0.51-2.21L1.16,239.43c-0.17,0.74-0.04,1.53,0.36,2.17c0.4,0.65,1.05,1.11,1.79,1.28l34.31,7.98
			c0.22,0.05,0.44,0.08,0.65,0.08c1.31,0,2.5-0.9,2.8-2.23l22.13-95.15V136.64z"/>
	</g>
	<path id="collar_13_" d="M96.2,22.32c0.77-0.47,1.71-0.55,2.54-0.23l29.3,11.37l29.3-11.37c0.84-0.32,1.78-0.24,2.54,0.23
		l1.38,0.84V7.94c0-0.95-0.47-1.84-1.25-2.38c-0.78-0.54-1.78-0.65-2.67-0.31l-24.32,9.44c-0.82,0.32-1.44,0.99-1.71,1.82
		l-3.27,10.43l-3.28-10.43c-0.26-0.83-0.89-1.51-1.71-1.82L98.75,5.25c-0.89-0.34-1.89-0.23-2.67,0.31
		c-0.78,0.54-1.25,1.43-1.25,2.38v15.23L96.2,22.32z M136.4,19.56l19.1-7.41v10.67l-22.92,8.9L136.4,19.56z M100.59,12.15l19.1,7.41
		l3.81,12.15l-22.92-8.9V12.15z"/>
</g>
</svg>
