<?xml version="1.0" encoding="utf-8"?>
<!-- Generator: Adobe Illustrator 25.2.0, SVG Export Plug-In . SVG Version: 6.00 Build 0)  -->
<svg version="1.1" id="Layer_1" xmlns="http://www.w3.org/2000/svg" xmlns:xlink="http://www.w3.org/1999/xlink" x="0px" y="0px"
	 viewBox="0 0 256 256" style="enable-background:new 0 0 256 256;" xml:space="preserve">
<style type="text/css">
	.st0{fill:none;}
	.st1{fill:#ED1C24;}
	.st2{fill:#00B59E;}
	.st3{fill:#FFF200;}
</style>
<rect class="st0" width="256" height="256"/>
<g id="JACKET_5_">
	<g>
		<path class="st1" d="M248.09,237.51L207.75,64.03c-5.05,9.78-13.81,31.41-14.97,65.15l26.74,114.97L248.09,237.51z"/>
		<path class="st2" d="M129.13,39.7c-0.67,0.26-1.41,0.26-2.08,0L98.17,28.49L51.21,57.16c4.82,7.94,18.07,33.9,18.07,79.51v96.87
			H186.9v-96.87c0-45.61,13.24-71.57,18.06-79.51l-46.95-28.67L129.13,39.7z"/>
		<polygon class="st1" points="123.57,32.2 119.77,20.11 100.75,12.72 100.75,23.34 109.87,26.88 		"/>
		<polygon class="st1" points="155.43,12.72 136.41,20.11 132.62,32.2 148.91,25.87 155.43,23.34 		"/>
		<path class="st1" d="M48.37,63.89L48.37,63.89L8,237.51l28.57,6.64l26.82-115.31C62.18,95.03,53.39,73.53,48.37,63.89z"/>
	</g>
	<g id="pattern_1_">
		<path class="st3" d="M98.88,22.57c-0.83-0.32-1.77-0.24-2.53,0.23l-14.28,8.72v207.7h18.65V23.28L98.88,22.57z"/>
		<path class="st3" d="M157.12,22.57c0.83-0.32,1.77-0.24,2.53,0.23l14.28,8.72v207.7h-18.65V23.28L157.12,22.57z"/>
	</g>
	<path id="chest_5_" d="M189.73,239.21H66.36c-1.58,0-2.87-1.28-2.87-2.87V136.6c0-52.71-18.47-78.46-18.65-78.72
		c-0.48-0.65-0.66-1.46-0.5-2.25s0.63-1.47,1.32-1.89l50.69-30.95c0.76-0.47,1.7-0.55,2.53-0.23l29.17,11.32l29.17-11.32
		c0.83-0.32,1.77-0.24,2.53,0.23l50.69,30.95c0.68,0.42,1.16,1.11,1.32,1.89s-0.03,1.61-0.5,2.25c-0.18,0.25-18.65,26.2-18.65,78.72
		v99.74C192.6,237.92,191.31,239.21,189.73,239.21z M69.23,233.47h117.63V136.6c0-45.61,13.24-71.57,18.06-79.51l-46.95-28.67
		l-28.88,11.21c-0.67,0.26-1.41,0.26-2.08,0L98.12,28.43L51.17,57.09c4.82,7.94,18.07,33.9,18.07,79.51V233.47z"/>
	<g id="sleeves_5_">
		<path d="M254.28,238.94L211.8,56.27c-0.02,0.58-0.2,1.14-0.55,1.62c-0.05,0.07-1.49,2.1-3.55,6.08l40.34,173.48l-28.57,6.64
			l-26.74-114.97c-0.08,2.44-0.14,4.92-0.14,7.48v17.25l21.94,94.33c0.31,1.32,1.49,2.22,2.79,2.22c0.21,0,0.43-0.02,0.65-0.08
			l34.16-7.94c0.74-0.17,1.38-0.63,1.78-1.28C254.33,240.46,254.45,239.68,254.28,238.94z"/>
		<path d="M63.5,136.6c0-2.68-0.06-5.28-0.15-7.83L36.53,244.09l-28.57-6.64L48.33,63.82c-2.02-3.89-3.44-5.87-3.49-5.94
			c-0.47-0.63-0.65-1.43-0.51-2.2L1.72,238.94c-0.17,0.74-0.04,1.52,0.36,2.17c0.4,0.65,1.04,1.11,1.78,1.28l34.16,7.94
			c0.22,0.05,0.44,0.08,0.65,0.08c1.3,0,2.48-0.9,2.79-2.22l22.03-94.73V136.6z"/>
	</g>
	<path id="collar_5_" d="M96.34,22.79c0.76-0.47,1.7-0.55,2.53-0.23l29.17,11.32l29.17-11.32c0.83-0.32,1.77-0.24,2.53,0.23
		l1.37,0.84V8.47c0-0.95-0.47-1.83-1.25-2.37c-0.78-0.53-1.78-0.65-2.66-0.31L133,15.19c-0.81,0.32-1.44,0.98-1.7,1.81l-3.26,10.38
		L124.78,17c-0.26-0.83-0.89-1.5-1.7-1.81l-24.21-9.4C97.99,5.45,97,5.57,96.22,6.1c-0.78,0.54-1.25,1.42-1.25,2.37v15.16
		L96.34,22.79z M136.37,20.04l19.02-7.38v10.62l-22.81,8.86L136.37,20.04z M100.71,12.66l19.02,7.38l3.8,12.09l-22.81-8.86V12.66z"
		/>
</g>
</svg>
