<?xml version="1.0" encoding="utf-8"?>
<!-- Generator: Adobe Illustrator 25.2.0, SVG Export Plug-In . SVG Version: 6.00 Build 0)  -->
<svg version="1.1" id="Layer_1" xmlns="http://www.w3.org/2000/svg" xmlns:xlink="http://www.w3.org/1999/xlink" x="0px" y="0px"
	 viewBox="0 0 256 256" style="enable-background:new 0 0 256 256;" xml:space="preserve">
<style type="text/css">
	.st0{fill:none;}
	.st1{fill:#EC008C;}
	.st2{fill:#FFFFFF;}
</style>
<rect class="st0" width="256" height="256"/>
<g id="JACKET_17_">
	<g>
		<path class="st1" d="M248.59,237.9L208.08,63.7c-5.07,9.82-13.87,31.54-15.03,65.43l26.85,115.45L248.59,237.9z"/>
		<path class="st1" d="M129.13,39.27c-0.67,0.26-1.41,0.26-2.08,0L98.04,28.01L50.89,56.8c4.84,7.97,18.14,34.04,18.14,79.84v97.27
			h118.12v-97.27c0-45.8,13.3-71.86,18.14-79.84l-47.15-28.79L129.13,39.27z"/>
		<polygon class="st2" points="123.55,31.73 119.74,19.59 100.64,12.18 100.64,22.84 109.8,26.39 		"/>
		<polygon class="st2" points="155.54,12.18 136.45,19.59 132.63,31.73 148.99,25.38 155.54,22.84 		"/>
		<path class="st1" d="M48.04,63.55L48.04,63.55L7.5,237.9l28.69,6.67l26.93-115.79C61.91,94.83,53.08,73.24,48.04,63.55z"/>
	</g>
	<g id="pattern_12_">
		<path class="st2" d="M128.04,184.05c-9.1,0-16.5,7.4-16.5,16.5c0,9.1,7.4,16.5,16.5,16.5c9.1,0,16.5-7.4,16.5-16.5
			C144.54,191.46,137.14,184.05,128.04,184.05z"/>
		<path class="st2" d="M161.26,151.46c-9.1,0-16.5,7.4-16.5,16.5c0,9.1,7.4,16.5,16.5,16.5c9.1,0,16.5-7.4,16.5-16.5
			C177.76,158.86,170.35,151.46,161.26,151.46z"/>
		<path class="st2" d="M94.83,151.46c-9.1,0-16.5,7.4-16.5,16.5c0,9.1,7.4,16.5,16.5,16.5c9.1,0,16.5-7.4,16.5-16.5
			C111.33,158.86,103.93,151.46,94.83,151.46z"/>
		<path class="st2" d="M128.04,118.86c-9.1,0-16.5,7.4-16.5,16.5c0,9.1,7.4,16.5,16.5,16.5c9.1,0,16.5-7.4,16.5-16.5
			C144.54,126.26,137.14,118.86,128.04,118.86z"/>
		<path class="st2" d="M161.26,86.26c-9.1,0-16.5,7.4-16.5,16.5c0,9.1,7.4,16.5,16.5,16.5c9.1,0,16.5-7.4,16.5-16.5
			C177.76,93.66,170.35,86.26,161.26,86.26z"/>
		<path class="st2" d="M94.83,86.26c-9.1,0-16.5,7.4-16.5,16.5c0,9.1,7.4,16.5,16.5,16.5c9.1,0,16.5-7.4,16.5-16.5
			C111.33,93.66,103.93,86.26,94.83,86.26z"/>
		<path class="st2" d="M128.04,53.66c-9.1,0-16.5,7.4-16.5,16.5c0,9.1,7.4,16.5,16.5,16.5c9.1,0,16.5-7.4,16.5-16.5
			C144.54,61.06,137.14,53.66,128.04,53.66z"/>
		<path class="st2" d="M161.26,216.65c-9.1,0-16.5,7.4-16.5,16.5c0,2.26,0.46,4.45,1.36,6.52h30.28c0.9-2.08,1.36-4.27,1.36-6.52
			C177.76,224.05,170.35,216.65,161.26,216.65z"/>
		<path class="st2" d="M94.83,216.65c-9.1,0-16.5,7.4-16.5,16.5c0,2.26,0.46,4.45,1.36,6.52h30.28c0.9-2.08,1.36-4.27,1.36-6.52
			C111.33,224.05,103.93,216.65,94.83,216.65z"/>
		<path class="st2" d="M161.26,54.06c9.1,0,16.5-7.4,16.5-16.5c0-1.61-0.24-3.19-0.7-4.72l-17.17-10.49
			c-0.77-0.47-1.71-0.55-2.54-0.23l-6.24,2.42c-3.87,3.01-6.33,7.71-6.33,13.01C144.76,46.66,152.16,54.06,161.26,54.06z"/>
		<path class="st2" d="M105,24.55l-6.24-2.42c-0.84-0.32-1.78-0.24-2.54,0.23L79.04,32.84c-0.46,1.53-0.7,3.11-0.7,4.72
			c0,9.1,7.4,16.5,16.5,16.5c9.1,0,16.5-7.4,16.5-16.5C111.33,32.26,108.87,27.56,105,24.55z"/>
	</g>
	<path id="chest_17_" d="M189.98,239.67H66.11c-1.59,0-2.88-1.29-2.88-2.88V136.64c0-52.93-18.55-78.79-18.73-79.05
		c-0.48-0.65-0.66-1.47-0.5-2.26c0.16-0.79,0.64-1.48,1.32-1.9l50.9-31.08c0.77-0.47,1.71-0.55,2.54-0.23l29.29,11.37l29.29-11.37
		c0.84-0.32,1.78-0.24,2.54,0.23l50.9,31.08c0.69,0.42,1.17,1.11,1.32,1.9c0.16,0.79-0.03,1.61-0.5,2.26
		c-0.18,0.25-18.73,26.31-18.73,79.05v100.15C192.87,238.38,191.58,239.67,189.98,239.67z M68.99,233.91H187.1v-97.27
		c0-45.8,13.3-71.86,18.14-79.84l-47.15-28.79l-29.01,11.26c-0.67,0.26-1.41,0.26-2.08,0L98,28.01L50.85,56.8
		c4.84,7.97,18.14,34.04,18.14,79.84V233.91z"/>
	<g id="sleeves_17_">
		<path d="M254.81,239.4L212.15,55.97c-0.02,0.58-0.2,1.15-0.55,1.62c-0.05,0.07-1.5,2.11-3.56,6.11l40.51,174.2l-28.69,6.67
			l-26.85-115.45c-0.08,2.45-0.14,4.94-0.14,7.51v17.32l22.03,94.73c0.31,1.33,1.49,2.23,2.8,2.23c0.22,0,0.44-0.02,0.66-0.08
			l34.3-7.98c0.74-0.17,1.39-0.63,1.79-1.28C254.85,240.93,254.98,240.15,254.81,239.4z"/>
		<path d="M63.23,136.64c0-2.7-0.06-5.31-0.15-7.86l-26.93,115.8L7.45,237.9L48,63.56c-2.03-3.91-3.45-5.89-3.5-5.96
			c-0.47-0.64-0.65-1.43-0.51-2.21L1.19,239.4c-0.17,0.74-0.04,1.53,0.36,2.17c0.4,0.65,1.05,1.11,1.79,1.28l34.3,7.98
			c0.22,0.05,0.44,0.08,0.66,0.08c1.31,0,2.49-0.9,2.8-2.23l22.12-95.12V136.64z"/>
	</g>
	<g id="sleeve_pattern">
		<path class="st2" d="M208.04,63.7l23.79,102.32l-28.68,6.72l-10.14-43.62C194.17,95.23,202.97,73.52,208.04,63.7z"/>
		<path class="st2" d="M47.96,63.7L24.17,166.02l28.68,6.72l10.14-43.62C61.83,95.23,53.03,73.52,47.96,63.7z"/>
	</g>
	<path id="collar_17_" d="M96.21,22.35c0.77-0.47,1.71-0.55,2.54-0.23l29.29,11.37l29.29-11.37c0.84-0.32,1.78-0.24,2.54,0.23
		l1.38,0.84V7.97c0-0.95-0.47-1.84-1.25-2.38c-0.78-0.54-1.78-0.65-2.67-0.31l-24.31,9.44c-0.82,0.32-1.44,0.99-1.71,1.82
		l-3.27,10.43l-3.27-10.43c-0.26-0.84-0.89-1.51-1.71-1.82L98.75,5.28c-0.89-0.34-1.88-0.23-2.67,0.31
		c-0.78,0.54-1.25,1.43-1.25,2.38v15.23L96.21,22.35z M136.4,19.59l19.1-7.41v10.66l-22.91,8.89L136.4,19.59z M100.59,12.18
		l19.1,7.41l3.81,12.14l-22.91-8.89V12.18z"/>
</g>
</svg>
