<?xml version="1.0" encoding="utf-8"?>
<!-- Generator: Adobe Illustrator 25.2.0, SVG Export Plug-In . SVG Version: 6.00 Build 0)  -->
<svg version="1.1" id="Layer_1" xmlns="http://www.w3.org/2000/svg" xmlns:xlink="http://www.w3.org/1999/xlink" x="0px" y="0px"
	 viewBox="0 0 256 256" style="enable-background:new 0 0 256 256;" xml:space="preserve">
<style type="text/css">
	.st0{fill:none;}
	.st1{fill:#3BC6F4;}
	.st2{fill:#FFF450;}
</style>
<rect class="st0" width="256" height="256"/>
<g id="JACKET_22_">
	<g>
		<path class="st1" d="M248.74,238.07L208.16,63.6c-5.08,9.84-13.89,31.59-15.05,65.53L220,244.76L248.74,238.07z"/>
		<path class="st1" d="M129.09,39.13c-0.67,0.26-1.42,0.26-2.09,0L97.95,27.85L50.72,56.69c4.85,7.99,18.17,34.09,18.17,79.97v97.43
			H187.2v-97.43c0-45.87,13.32-71.98,18.17-79.97l-47.23-28.83L129.09,39.13z"/>
		<polygon class="st1" points="123.5,31.58 119.68,19.42 100.55,11.99 100.55,22.67 109.72,26.23 		"/>
		<polygon class="st1" points="155.54,11.99 136.41,19.42 132.6,31.58 148.98,25.22 155.54,22.67 		"/>
		<path class="st1" d="M47.87,63.45L47.87,63.45L7.26,238.07L36,244.76l26.97-115.98C61.76,94.77,52.91,73.15,47.87,63.45z"/>
	</g>
	<g id="sleeves_36_">
		<g>
			<path class="st2" d="M62.7,86.29c-2.22-8.26-4.73-14.89-6.99-19.95L14.83,245.76l10.95,2.55L62.7,86.29z"/>
		</g>
		<g>
			<path class="st2" d="M193.3,86.29c2.22-8.26,4.73-14.89,6.99-19.95l40.88,179.42l-10.95,2.55L193.3,86.29z"/>
		</g>
	</g>
	<path id="chest_22_" d="M190.08,239.85H66.01c-1.59,0-2.89-1.29-2.89-2.89V136.65c0-53.02-18.58-78.92-18.76-79.17
		c-0.48-0.65-0.66-1.47-0.51-2.27c0.16-0.79,0.64-1.48,1.33-1.9l50.98-31.12c0.77-0.47,1.71-0.55,2.55-0.23l29.34,11.39l29.34-11.39
		c0.84-0.32,1.78-0.24,2.55,0.23l50.98,31.12c0.69,0.42,1.17,1.11,1.33,1.9c0.16,0.79-0.03,1.62-0.51,2.27
		c-0.18,0.25-18.76,26.35-18.76,79.17v100.31C192.97,238.56,191.68,239.85,190.08,239.85z M68.89,234.08H187.2v-97.43
		c0-45.87,13.32-71.98,18.17-79.97l-47.23-28.83l-29.05,11.28c-0.67,0.26-1.42,0.26-2.09,0L97.95,27.85L50.72,56.69
		c4.85,7.99,18.17,34.09,18.17,79.97V234.08z"/>
	<polygon id="star" class="st2" points="128,75.14 112.04,111.53 72.5,115.46 102.18,141.88 93.7,180.7 128,160.64 162.3,180.7 
		153.82,141.88 183.5,115.46 143.96,111.53 	"/>
	<g id="sleeves_22_">
		<path d="M255.01,239.58L212.29,55.85c-0.02,0.58-0.2,1.15-0.56,1.63c-0.05,0.07-1.5,2.11-3.57,6.12l40.57,174.48L220,244.76
			l-26.89-115.63c-0.08,2.45-0.14,4.95-0.14,7.52V154l22.06,94.88c0.31,1.33,1.5,2.23,2.81,2.23c0.22,0,0.44-0.02,0.66-0.08
			l34.36-7.99c0.75-0.17,1.39-0.64,1.8-1.28C255.05,241.11,255.18,240.32,255.01,239.58z"/>
		<path d="M63.12,136.65c0-2.7-0.06-5.31-0.15-7.87L36,244.76l-28.74-6.68L47.87,63.45c-2.04-3.91-3.46-5.9-3.51-5.97
			c-0.47-0.64-0.65-1.44-0.51-2.21L0.99,239.58c-0.17,0.75-0.04,1.53,0.36,2.18c0.4,0.65,1.05,1.11,1.79,1.28l34.36,7.99
			c0.22,0.05,0.44,0.08,0.66,0.08c1.31,0,2.5-0.9,2.81-2.23l22.16-95.27V136.65z"/>
	</g>
	<path id="collar_22_" d="M96.16,22.18c0.77-0.47,1.71-0.55,2.55-0.23l29.34,11.39l29.34-11.39c0.84-0.32,1.78-0.24,2.55,0.23
		l1.38,0.84V7.78c0-0.95-0.47-1.84-1.26-2.38c-0.79-0.54-1.79-0.65-2.67-0.31l-24.35,9.45c-0.82,0.32-1.45,0.99-1.71,1.83
		l-3.28,10.44l-3.28-10.44c-0.26-0.84-0.89-1.51-1.71-1.83L98.71,5.09c-0.89-0.34-1.89-0.23-2.67,0.31
		c-0.79,0.54-1.26,1.43-1.26,2.38v15.25L96.16,22.18z M136.41,19.42l19.13-7.42v10.68l-22.95,8.91L136.41,19.42z M100.55,11.99
		l19.13,7.42l3.82,12.16l-22.95-8.91V11.99z"/>
</g>
</svg>
