<?xml version="1.0" encoding="utf-8"?>
<!-- Generator: Adobe Illustrator 25.2.0, SVG Export Plug-In . SVG Version: 6.00 Build 0)  -->
<svg version="1.1" id="Layer_1" xmlns="http://www.w3.org/2000/svg" xmlns:xlink="http://www.w3.org/1999/xlink" x="0px" y="0px"
	 viewBox="0 0 256 256" style="enable-background:new 0 0 256 256;" xml:space="preserve">
<style type="text/css">
	.st0{fill:none;}
	.st1{fill:#FFF450;}
	.st2{fill:#EF4129;}
</style>
<rect class="st0" width="256" height="256"/>
<g id="JACKET_18_">
	<g>
		<path class="st1" d="M248.74,238.06L208.16,63.58c-5.08,9.84-13.89,31.59-15.05,65.53L220,244.74L248.74,238.06z"/>
		<path class="st1" d="M129.09,39.11c-0.67,0.26-1.42,0.26-2.09,0L97.95,27.84L50.72,56.67c4.85,7.99,18.17,34.09,18.17,79.97v97.43
			h118.3v-97.43c0-45.87,13.32-71.98,18.17-79.97l-47.23-28.83L129.09,39.11z"/>
		<polygon class="st1" points="123.5,31.56 119.68,19.4 100.55,11.98 100.55,22.66 109.72,26.22 		"/>
		<polygon class="st1" points="155.54,11.98 136.41,19.4 132.6,31.56 148.98,25.2 155.54,22.66 		"/>
		<path class="st1" d="M47.87,63.44L47.87,63.44L7.26,238.06L36,244.74l26.97-115.98C61.76,94.76,52.91,73.14,47.87,63.44z"/>
	</g>
	<g id="stars">
		<polygon class="st2" points="93.4,184.95 99.74,199.41 115.45,200.97 103.66,211.46 107.03,226.88 93.4,218.91 79.78,226.88 
			83.15,211.46 71.36,200.97 87.07,199.41 		"/>
		<polygon class="st2" points="162.6,184.95 168.94,199.41 184.64,200.97 172.85,211.46 176.22,226.88 162.6,218.91 148.97,226.88 
			152.34,211.46 140.55,200.97 156.26,199.41 		"/>
		<g>
			<polygon class="st2" points="93.4,112.85 99.74,127.31 115.45,128.87 103.66,139.37 107.03,154.79 93.4,146.82 79.78,154.79 
				83.15,139.37 71.36,128.87 87.07,127.31 			"/>
			<polygon class="st2" points="162.6,112.85 168.94,127.31 184.64,128.87 172.85,139.37 176.22,154.79 162.6,146.82 148.97,154.79 
				152.34,139.37 140.55,128.87 156.26,127.31 			"/>
			<polygon class="st2" points="93.4,40.76 99.74,55.22 115.45,56.78 103.66,67.27 107.03,82.69 93.4,74.72 79.78,82.69 
				83.15,67.27 71.36,56.78 87.07,55.22 			"/>
			<polygon class="st2" points="162.6,40.76 168.94,55.22 184.64,56.78 172.85,67.27 176.22,82.69 162.6,74.72 148.97,82.69 
				152.34,67.27 140.55,56.78 156.26,55.22 			"/>
		</g>
		<polygon class="st2" points="128,76.81 134.34,91.26 150.05,92.82 138.26,103.32 141.63,118.74 128,110.77 114.37,118.74 
			117.74,103.32 105.95,92.82 121.66,91.26 		"/>
		<polygon class="st2" points="128,148.9 134.34,163.36 150.05,164.92 138.26,175.41 141.63,190.84 128,182.87 114.37,190.84 
			117.74,175.41 105.95,164.92 121.66,163.36 		"/>
	</g>
	<path id="chest_18_" d="M190.08,239.85H66.01c-1.59,0-2.89-1.29-2.89-2.89V136.65c0-53.02-18.58-78.92-18.76-79.17
		c-0.48-0.65-0.66-1.47-0.51-2.27c0.16-0.79,0.64-1.48,1.33-1.9l50.98-31.12c0.77-0.47,1.71-0.55,2.55-0.23l29.34,11.39l29.34-11.39
		c0.84-0.32,1.78-0.24,2.55,0.23l50.98,31.12c0.69,0.42,1.17,1.11,1.33,1.9c0.16,0.79-0.03,1.62-0.51,2.27
		c-0.18,0.25-18.76,26.35-18.76,79.17v100.31C192.97,238.56,191.68,239.85,190.08,239.85z M68.89,234.08h118.3v-97.43
		c0-45.87,13.32-71.98,18.17-79.97l-47.23-28.83l-29.05,11.28c-0.67,0.26-1.42,0.26-2.09,0L97.95,27.85L50.73,56.69
		c4.85,7.99,18.17,34.09,18.17,79.97V234.08z"/>
	<g id="sleeves_18_">
		<path d="M255.01,239.58L212.29,55.85c-0.02,0.58-0.2,1.15-0.55,1.63c-0.05,0.07-1.5,2.11-3.57,6.12l40.57,174.48L220,244.76
			l-26.89-115.63c-0.08,2.45-0.14,4.95-0.14,7.52V154l22.06,94.88c0.31,1.33,1.5,2.23,2.81,2.23c0.22,0,0.44-0.02,0.66-0.08
			l34.36-7.99c0.75-0.17,1.39-0.64,1.8-1.28C255.05,241.11,255.18,240.32,255.01,239.58z"/>
		<path d="M63.12,136.65c0-2.7-0.06-5.31-0.15-7.87L36,244.76l-28.74-6.68L47.87,63.45c-2.04-3.91-3.46-5.9-3.51-5.97
			c-0.47-0.64-0.65-1.44-0.51-2.21L0.99,239.58c-0.17,0.75-0.04,1.53,0.36,2.18c0.4,0.65,1.05,1.11,1.8,1.28l34.36,7.99
			c0.22,0.05,0.44,0.08,0.66,0.08c1.31,0,2.5-0.9,2.81-2.23l22.16-95.27V136.65z"/>
	</g>
	<path id="collar_18_" d="M96.16,22.18c0.77-0.47,1.71-0.55,2.55-0.23l29.34,11.39l29.34-11.39c0.84-0.32,1.78-0.24,2.55,0.23
		l1.38,0.84V7.78c0-0.95-0.47-1.84-1.26-2.38c-0.78-0.54-1.79-0.65-2.67-0.31l-24.35,9.45c-0.82,0.32-1.45,0.99-1.71,1.83
		l-3.28,10.44l-3.28-10.44c-0.26-0.84-0.89-1.51-1.71-1.83L98.71,5.09c-0.89-0.34-1.89-0.23-2.67,0.31
		c-0.79,0.54-1.26,1.43-1.26,2.38v15.25L96.16,22.18z M136.41,19.42l19.13-7.42v10.68l-22.95,8.91L136.41,19.42z M100.55,11.99
		l19.13,7.42l3.82,12.16l-22.95-8.91V11.99z"/>
</g>
</svg>
