<svg width="49" height="33" viewBox="0 0 49 33" fill="none" xmlns="http://www.w3.org/2000/svg">
<path d="M0.351125 0.983997V33H8.60713C13.0711 33 16.5751 32.568 20.3191 29.928C24.5431 26.952 26.7511 22.344 26.7511 17.016C26.7511 11.688 24.4951 7.032 20.6071 4.104C17.0551 1.464 13.1671 0.983997 8.70312 0.983997H0.351125ZM6.59113 6.36H8.51113C10.6231 6.36 13.7911 6.552 16.3831 8.472C18.9271 10.392 20.3191 13.656 20.3191 17.016C20.3191 20.424 18.8791 23.688 16.3351 25.512C13.5511 27.528 10.0951 27.624 8.51113 27.624H6.59113V6.36ZM32.5074 0.983997V33H48.6354V27.624H38.7474V0.983997H32.5074Z" fill="#EEE8EB"/>
</svg>
