<svg width="68" height="34" viewBox="0 0 68 34" fill="none" xmlns="http://www.w3.org/2000/svg">
<path d="M0.648813 33H6.98481L10.2488 13.272L18.4568 33H20.5688L29.1608 13.272L32.0408 33H38.3768L33.0008 0.983997H28.4888L19.6088 21.336L11.1128 0.983997H6.60081L0.648813 33ZM67.2784 24.552C65.4064 26.76 62.7664 28.056 59.7904 28.056C54.4144 28.056 48.9424 24.216 48.9424 17.112C48.9424 11.208 53.1184 5.928 59.5504 5.928C60.7024 5.928 64.3504 6.168 67.2784 9.528V2.232C64.3504 0.647999 61.6624 0.263998 59.4064 0.263998C54.8464 0.263998 50.8624 1.464 47.6464 4.488C44.9104 7.032 42.5104 11.208 42.5104 17.016C42.5104 21.72 43.9504 25.704 47.6464 29.256C50.3344 31.8 53.7424 33.72 59.3584 33.72C62.8144 33.72 65.3584 32.856 67.2784 31.848V24.552Z" fill="#EEE8EB"/>
</svg>
