<svg width="16" height="22" viewBox="0 0 16 22" fill="none" xmlns="http://www.w3.org/2000/svg">
    <path d="M16 7.7C16 6.68882 15.7931 5.68754 15.391 4.75334C14.989 3.81913 14.3997 2.97029 13.6569 2.25528C12.914 1.54027 12.0321 0.973089 11.0615 0.586128C10.0909 0.199166 9.05058 0 8 0C6.94943 0 5.90914 0.199166 4.93853 0.586128C3.96793 0.973089 3.08601 1.54027 2.34315 2.25528C1.60028 2.97029 1.011 3.81913 0.608964 4.75334C0.206926 5.68754 -1.56548e-08 6.68882 0 7.7C0 9.2257 0.468572 10.6447 1.26286 11.8415H1.25371C3.95086 15.906 8 22 8 22L14.7463 11.8415H14.7383C15.5616 10.6055 15.9995 9.16822 16 7.7ZM8 11C7.09069 11 6.21862 10.6523 5.57563 10.0335C4.93265 9.41458 4.57143 8.57521 4.57143 7.7C4.57143 6.82479 4.93265 5.98542 5.57563 5.36655C6.21862 4.74768 7.09069 4.4 8 4.4C8.90931 4.4 9.78138 4.74768 10.4244 5.36655C11.0673 5.98542 11.4286 6.82479 11.4286 7.7C11.4286 8.57521 11.0673 9.41458 10.4244 10.0335C9.78138 10.6523 8.90931 11 8 11Z" fill="white"/>
</svg>
