<svg width="50" height="34" viewBox="0 0 50 34" fill="none" xmlns="http://www.w3.org/2000/svg">
<path d="M0.343313 0.983997V33H6.58331V21.144H10.6153C14.3113 21.144 16.9513 20.088 18.7273 18.312C21.1753 15.864 21.3673 12.408 21.3673 11.16C21.3673 8.856 20.6953 5.736 18.1033 3.432C15.7513 1.368 13.2553 0.983997 9.65531 0.983997H0.343313ZM6.58331 6.36H8.74331C10.2313 6.36 11.8633 6.456 13.1593 7.368C14.0713 8.04 14.9353 9.24 14.9353 11.016C14.9353 12.408 14.3593 13.848 13.2073 14.76C11.8633 15.768 10.3273 15.768 9.12731 15.768H6.58331V6.36ZM49.2159 24.552C47.3439 26.76 44.7039 28.056 41.7279 28.056C36.3519 28.056 30.8799 24.216 30.8799 17.112C30.8799 11.208 35.0559 5.928 41.4879 5.928C42.6399 5.928 46.2879 6.168 49.2159 9.528V2.232C46.2879 0.647999 43.5999 0.263998 41.3439 0.263998C36.7839 0.263998 32.7999 1.464 29.5839 4.488C26.8479 7.032 24.4479 11.208 24.4479 17.016C24.4479 21.72 25.8879 25.704 29.5839 29.256C32.2719 31.8 35.6799 33.72 41.2959 33.72C44.7519 33.72 47.2959 32.856 49.2159 31.848V24.552Z" fill="#EEE8EB"/>
</svg>
