<svg width="46" height="34" viewBox="0 0 46 34" fill="none" xmlns="http://www.w3.org/2000/svg">
<path d="M21.656 4.008C18.392 0.647999 14.6 0.263998 12.584 0.263998C5.48 0.263998 2.312 4.968 2.312 9.672C2.312 12.936 3.8 14.712 4.856 15.624C6.488 17.064 8.504 17.832 10.184 18.408C12.008 19.032 13.928 19.656 15.128 20.76C15.992 21.576 16.376 22.488 16.376 23.64C16.376 26.328 14.264 28.056 11.432 28.056C9.176 28.056 6.248 26.904 4.712 23.784L0.632 27.672C2.312 30.12 5.768 33.72 11.672 33.72C18.296 33.72 22.808 29.448 22.808 23.208C22.808 19.944 21.512 17.784 20.072 16.488C18.44 15 16.088 14.136 13.592 13.272C11.576 12.552 10.52 12.168 9.752 11.448C8.984 10.776 8.744 10.056 8.744 9.288C8.744 7.656 9.8 5.544 13.16 5.544C14.312 5.544 16.52 5.784 18.392 8.28L21.656 4.008ZM45.2806 0.983997H28.2886V33H34.5286V18.888H44.6086V13.512H34.5286V6.36H45.2806V0.983997Z" fill="#EEE8EB"/>
</svg>
