<svg width="24" height="24" viewBox="0 0 24 24" fill="none" xmlns="http://www.w3.org/2000/svg">
<path d="M12 0C9.62663 0 7.30655 0.703787 5.33316 2.02236C3.35977 3.34094 1.8217 5.21508 0.913451 7.4078C0.00519931 9.60051 -0.232441 12.0133 0.230582 14.3411C0.693604 16.6688 1.83649 18.807 3.51472 20.4853C5.19295 22.1635 7.33115 23.3064 9.65892 23.7694C11.9867 24.2324 14.3995 23.9948 16.5922 23.0865C18.7849 22.1783 20.6591 20.6402 21.9776 18.6668C23.2962 16.6934 24 14.3734 24 12C24 10.4241 23.6896 8.8637 23.0866 7.4078C22.4835 5.95189 21.5996 4.62902 20.4853 3.51472C19.371 2.40041 18.0481 1.5165 16.5922 0.913445C15.1363 0.310389 13.5759 0 12 0ZM12 21.9147C10.0391 21.9144 8.12236 21.3327 6.49209 20.243C4.86183 19.1534 3.59127 17.6048 2.84109 15.7931C2.09091 13.9814 1.89479 11.9879 2.27753 10.0648C2.66026 8.1416 3.60467 6.37511 4.99134 4.98866C6.378 3.60222 8.14464 2.65809 10.0679 2.27565C11.9911 1.89321 13.9845 2.08965 15.7961 2.84012C17.6077 3.59059 19.1561 4.86139 20.2455 6.49182C21.3349 8.12226 21.9163 10.0391 21.9163 12C21.9163 13.3022 21.6598 14.5915 21.1614 15.7946C20.6631 16.9976 19.9326 18.0906 19.0118 19.0113C18.091 19.932 16.9978 20.6623 15.7947 21.1605C14.5916 21.6586 13.3022 21.9149 12 21.9147Z" fill="#63B6E3"/>
<path d="M18.504 14.008H11V5H14.008V11H18.504V14.008Z" fill="#63B6E3"/>
</svg>
