<svg width="60" height="60" viewBox="0 0 60 60" fill="none" xmlns="http://www.w3.org/2000/svg">
<g filter="url(#filter0_d)">
<circle cx="30" cy="29" r="28" fill="#558AA8"/>
</g>
<ellipse cx="29.9999" cy="29.0001" rx="22.4" ry="22.4" fill="#153C4B"/>
<path d="M46.6311 17.8877C48.0677 20.0335 49.1 22.4729 49.6191 25.0968L49.1927 25.1811C49.437 26.4159 49.5651 27.6928 49.5651 29C49.5651 30.3072 49.437 31.5841 49.1927 32.8189L49.6191 32.9032C49.1 35.5271 48.0677 37.9665 46.6311 40.1123L46.2699 39.8705C44.8414 42.0043 43.0041 43.8416 40.8703 45.2702L41.1121 45.6313C38.9662 47.0679 36.5269 48.1002 33.903 48.6193L33.8187 48.193C32.5839 48.4372 31.307 48.5654 29.9998 48.5654C28.6925 48.5654 27.4156 48.4372 26.1809 48.193L26.0965 48.6193C23.4726 48.1002 21.0333 47.0679 18.8874 45.6313L19.1292 45.2702C16.9954 43.8416 15.1582 42.0043 13.7296 39.8705L13.3684 40.1123C11.9318 37.9665 10.8995 35.5271 10.3804 32.9032L10.8068 32.8189C10.5625 31.5841 10.4344 30.3072 10.4344 29C10.4344 27.6928 10.5625 26.4159 10.8068 25.1811L10.3804 25.0968C10.8995 22.4729 11.9318 20.0335 13.3684 17.8877L13.7296 18.1295C15.1582 15.9957 16.9954 14.1584 19.1292 12.7298L18.8874 12.3687C21.0333 10.9321 23.4726 9.89977 26.0965 9.38068L26.1809 9.80703C27.4156 9.56276 28.6925 9.43462 29.9998 9.43462C31.307 9.43462 32.5839 9.56276 33.8187 9.80703L33.903 9.38068C36.5269 9.89977 38.9662 10.9321 41.1121 12.3687L40.8703 12.7298C43.0041 14.1584 44.8414 15.9957 46.2699 18.1295L46.6311 17.8877Z" fill="white" stroke="black" stroke-width="0.869231" stroke-dasharray="6.95 6.95"/>
<ellipse cx="29.9998" cy="29.0001" rx="19.2" ry="19.2" fill="#3A6076"/>
<path d="M30 1C31.3582 1 32.6938 1.09668 34 1.28354V6.95611C32.7021 6.72215 31.3653 6.6 30 6.6C28.6347 6.6 27.2979 6.72215 26 6.95611V1.28354C27.3063 1.09668 28.6418 1 30 1Z" fill="white"/>
<path d="M17.2424 10.5855L13.2313 6.57441C11.0867 8.18047 9.18086 10.0869 7.57461 12.2313L11.5855 16.2424C13.1173 14.0356 15.0356 12.1173 17.2424 10.5855Z" fill="white"/>
<path d="M7.95611 25H2.28359C2.09688 26.3064 2 27.6419 2 29C2 30.3581 2.09688 31.6936 2.28359 33H7.95611C7.72215 31.7021 7.6 30.3653 7.6 29C7.6 27.6347 7.72215 26.2979 7.95611 25Z" fill="white"/>
<path d="M11.5855 41.7576L7.57461 45.7687C9.18047 47.913 11.0867 49.8194 13.2313 51.4254L17.2423 47.4144C15.0355 45.8827 13.1173 43.9644 11.5855 41.7576Z" fill="white"/>
<path d="M26 51.0439V56.7165C27.3063 56.9033 28.6418 57 30 57C31.3582 57 32.6938 56.9033 34 56.7165V51.0439C32.7021 51.2779 31.3653 51.4 30 51.4C28.6347 51.4 27.2979 51.2779 26 51.0439Z" fill="white"/>
<path d="M42.7576 47.4145L46.7688 51.4256C48.9133 49.8196 50.8191 47.9131 52.4254 45.7687L48.4145 41.7577C46.8827 43.9645 44.9644 45.8827 42.7576 47.4145Z" fill="white"/>
<path d="M52.0439 33H57.7164C57.9031 31.6936 58 30.3581 58 29C58 27.6419 57.9031 26.3064 57.7164 25H52.0439C52.2779 26.2979 52.4 27.6347 52.4 29C52.4 30.3653 52.2779 31.7021 52.0439 33Z" fill="white"/>
<path d="M48.4144 16.2422L52.4254 12.2313C50.8191 10.0869 48.9133 8.18042 46.7688 6.57437L42.7576 10.5855C44.9644 12.1172 46.8826 14.0355 48.4144 16.2422Z" fill="white"/>
<g filter="url(#filter1_i)">
<path d="M29.8662 16.5713L32.6451 25.147H41.6357L34.3679 30.4532L37.1468 39.0299L29.8662 33.7238L22.5994 39.0299L25.3783 30.4532L18.0977 25.147H27.0883L29.8662 16.5713Z" fill="#326275"/>
</g>
<g filter="url(#filter2_d)">
<path d="M17.208 23.8643H14.4751L15.5599 22.0702H19.0855V37.7998H17.208V23.8643ZM32.1057 37.5912C31.4799 37.9528 30.7775 38.1336 29.9987 38.1336C29.2199 38.1336 28.5106 37.9528 27.8708 37.5912C27.245 37.2157 26.7234 36.7428 26.3062 36.1726C25.9029 35.6024 25.5621 34.9487 25.284 34.2116C25.0058 33.4745 24.8042 32.7513 24.679 32.042C24.5677 31.3188 24.5121 30.6165 24.5121 29.935C24.5121 29.0588 24.6095 28.1757 24.8042 27.2856C25.0128 26.3816 25.3188 25.5054 25.7221 24.657C26.1254 23.7948 26.6956 23.0924 27.4327 22.55C28.1837 22.0076 29.0391 21.7364 29.9987 21.7364C30.9583 21.7364 31.8067 22.0076 32.5438 22.55C33.2948 23.0924 33.872 23.7948 34.2753 24.657C34.6786 25.5054 34.9777 26.3816 35.1724 27.2856C35.381 28.1757 35.4853 29.0588 35.4853 29.935C35.4853 30.6165 35.4227 31.3188 35.2975 32.042C35.1863 32.7513 34.9916 33.4745 34.7134 34.2116C34.4353 34.9487 34.0876 35.6024 33.6703 36.1726C33.267 36.7428 32.7455 37.2157 32.1057 37.5912ZM31.7302 24.1146C31.2434 23.6418 30.6663 23.4053 29.9987 23.4053C29.3311 23.4053 28.747 23.6418 28.2463 24.1146C27.7596 24.5736 27.3841 25.1577 27.1198 25.867C26.8695 26.5763 26.6817 27.2786 26.5565 27.974C26.4453 28.6555 26.3897 29.3022 26.3897 29.9141C26.3897 30.5261 26.4453 31.1728 26.5565 31.8543C26.6817 32.5357 26.8695 33.2311 27.1198 33.9404C27.3841 34.6497 27.7596 35.2338 28.2463 35.6928C28.747 36.1517 29.3311 36.3812 29.9987 36.3812C30.6663 36.3812 31.2434 36.1517 31.7302 35.6928C32.2309 35.2338 32.6064 34.6497 32.8567 33.9404C33.121 33.2311 33.3087 32.5357 33.42 31.8543C33.5452 31.1728 33.6077 30.5261 33.6077 29.9141C33.6077 29.3022 33.5452 28.6555 33.42 27.974C33.3087 27.2786 33.121 26.5763 32.8567 25.867C32.6064 25.1577 32.2309 24.5736 31.7302 24.1146ZM44.1663 37.5912C43.5404 37.9528 42.8381 38.1336 42.0593 38.1336C41.2804 38.1336 40.5711 37.9528 39.9314 37.5912C39.3055 37.2157 38.784 36.7428 38.3668 36.1726C37.9635 35.6024 37.6227 34.9487 37.3446 34.2116C37.0664 33.4745 36.8648 32.7513 36.7396 32.042C36.6283 31.3188 36.5727 30.6165 36.5727 29.935C36.5727 29.0588 36.67 28.1757 36.8648 27.2856C37.0734 26.3816 37.3793 25.5054 37.7827 24.657C38.186 23.7948 38.7562 23.0924 39.4933 22.55C40.2443 22.0076 41.0996 21.7364 42.0593 21.7364C43.0189 21.7364 43.8673 22.0076 44.6044 22.55C45.3554 23.0924 45.9326 23.7948 46.3359 24.657C46.7392 25.5054 47.0382 26.3816 47.2329 27.2856C47.4415 28.1757 47.5459 29.0588 47.5459 29.935C47.5459 30.6165 47.4833 31.3188 47.3581 32.042C47.2468 32.7513 47.0521 33.4745 46.774 34.2116C46.4958 34.9487 46.1481 35.6024 45.7309 36.1726C45.3276 36.7428 44.806 37.2157 44.1663 37.5912ZM43.7908 24.1146C43.304 23.6418 42.7268 23.4053 42.0593 23.4053C41.3917 23.4053 40.8076 23.6418 40.3069 24.1146C39.8201 24.5736 39.4446 25.1577 39.1804 25.867C38.93 26.5763 38.7423 27.2786 38.6171 27.974C38.5059 28.6555 38.4502 29.3022 38.4502 29.9141C38.4502 30.5261 38.5059 31.1728 38.6171 31.8543C38.7423 32.5357 38.93 33.2311 39.1804 33.9404C39.4446 34.6497 39.8201 35.2338 40.3069 35.6928C40.8076 36.1517 41.3917 36.3812 42.0593 36.3812C42.7268 36.3812 43.304 36.1517 43.7908 35.6928C44.2915 35.2338 44.667 34.6497 44.9173 33.9404C45.1815 33.2311 45.3693 32.5357 45.4806 31.8543C45.6057 31.1728 45.6683 30.5261 45.6683 29.9141C45.6683 29.3022 45.6057 28.6555 45.4806 27.974C45.3693 27.2786 45.1815 26.5763 44.9173 25.867C44.667 25.1577 44.2915 24.5736 43.7908 24.1146Z" fill="white"/>
</g>
<defs>
<filter id="filter0_d" x="0.261539" y="0.130769" width="59.4769" height="59.4769" filterUnits="userSpaceOnUse" color-interpolation-filters="sRGB">
<feFlood flood-opacity="0" result="BackgroundImageFix"/>
<feColorMatrix in="SourceAlpha" type="matrix" values="0 0 0 0 0 0 0 0 0 0 0 0 0 0 0 0 0 0 127 0" result="hardAlpha"/>
<feOffset dy="0.869231"/>
<feGaussianBlur stdDeviation="0.869231"/>
<feColorMatrix type="matrix" values="0 0 0 0 0 0 0 0 0 0 0 0 0 0 0 0 0 0 0.5 0"/>
<feBlend mode="normal" in2="BackgroundImageFix" result="effect1_dropShadow"/>
<feBlend mode="normal" in="SourceGraphic" in2="effect1_dropShadow" result="shape"/>
</filter>
<filter id="filter1_i" x="18.0977" y="16.5713" width="23.5381" height="23.3278" filterUnits="userSpaceOnUse" color-interpolation-filters="sRGB">
<feFlood flood-opacity="0" result="BackgroundImageFix"/>
<feBlend mode="normal" in="SourceGraphic" in2="BackgroundImageFix" result="shape"/>
<feColorMatrix in="SourceAlpha" type="matrix" values="0 0 0 0 0 0 0 0 0 0 0 0 0 0 0 0 0 0 127 0" result="hardAlpha"/>
<feOffset dy="0.869231"/>
<feGaussianBlur stdDeviation="4.34615"/>
<feComposite in2="hardAlpha" operator="arithmetic" k2="-1" k3="1"/>
<feColorMatrix type="matrix" values="0 0 0 0 0.591667 0 0 0 0 0.591667 0 0 0 0 0.591667 0 0 0 0.25 0"/>
<feBlend mode="normal" in2="shape" result="effect1_innerShadow"/>
</filter>
<filter id="filter2_d" x="12.7366" y="20.8671" width="36.5477" height="19.8741" filterUnits="userSpaceOnUse" color-interpolation-filters="sRGB">
<feFlood flood-opacity="0" result="BackgroundImageFix"/>
<feColorMatrix in="SourceAlpha" type="matrix" values="0 0 0 0 0 0 0 0 0 0 0 0 0 0 0 0 0 0 127 0" result="hardAlpha"/>
<feOffset dy="0.869231"/>
<feGaussianBlur stdDeviation="0.869231"/>
<feColorMatrix type="matrix" values="0 0 0 0 0 0 0 0 0 0 0 0 0 0 0 0 0 0 0.5 0"/>
<feBlend mode="normal" in2="BackgroundImageFix" result="effect1_dropShadow"/>
<feBlend mode="normal" in="SourceGraphic" in2="effect1_dropShadow" result="shape"/>
</filter>
</defs>
</svg>
