<svg width="60" height="60" viewBox="0 0 60 60" fill="none" xmlns="http://www.w3.org/2000/svg">
<g filter="url(#filter0_d)">
<circle cx="30" cy="29" r="28" fill="black"/>
</g>
<ellipse cx="29.9999" cy="29.0001" rx="22.4" ry="22.4" fill="#484848"/>
<path d="M46.6308 17.8877C48.0674 20.0335 49.0998 22.4729 49.6188 25.0968L49.1925 25.1811C49.4368 26.4159 49.5649 27.6928 49.5649 29C49.5649 30.3072 49.4368 31.5841 49.1925 32.8189L49.6188 32.9032C49.0998 35.5271 48.0674 37.9665 46.6308 40.1123L46.2697 39.8705C44.8411 42.0043 43.0039 43.8416 40.87 45.2701L41.1118 45.6313C38.966 47.0679 36.5266 48.1002 33.9028 48.6193L33.8184 48.193C32.5836 48.4372 31.3068 48.5654 29.9995 48.5654C28.6923 48.5654 27.4154 48.4372 26.1806 48.193L26.0963 48.6193C23.4724 48.1002 21.033 47.0679 18.8872 45.6313L19.129 45.2701C16.9952 43.8416 15.1579 42.0043 13.7294 39.8705L13.3682 40.1123C11.9316 37.9665 10.8993 35.5271 10.3802 32.9032L10.8065 32.8189C10.5623 31.5841 10.4341 30.3072 10.4341 29C10.4341 27.6928 10.5623 26.4159 10.8065 25.1811L10.3802 25.0968C10.8993 22.4729 11.9316 20.0335 13.3682 17.8877L13.7294 18.1295C15.1579 15.9956 16.9952 14.1584 19.129 12.7298L18.8872 12.3687C21.033 10.9321 23.4724 9.89977 26.0963 9.38068L26.1806 9.80703C27.4154 9.56276 28.6923 9.43462 29.9995 9.43462C31.3068 9.43462 32.5836 9.56276 33.8184 9.80703L33.9028 9.38068C36.5266 9.89977 38.966 10.9321 41.1118 12.3687L40.87 12.7298C43.0039 14.1584 44.8411 15.9956 46.2697 18.1295L46.6308 17.8877Z" fill="white" stroke="black" stroke-width="0.869231" stroke-dasharray="6.95 6.95"/>
<ellipse cx="29.9998" cy="29.0001" rx="19.2" ry="19.2" fill="#1A1A1A"/>
<path d="M30 1C31.3582 1 32.6938 1.09668 34 1.28354V6.95611C32.7021 6.72215 31.3653 6.6 30 6.6C28.6347 6.6 27.2979 6.72215 26 6.95611V1.28354C27.3063 1.09668 28.6418 1 30 1Z" fill="white"/>
<path d="M17.2424 10.5855L13.2313 6.57441C11.0867 8.18047 9.18086 10.0869 7.57461 12.2313L11.5855 16.2424C13.1173 14.0356 15.0356 12.1173 17.2424 10.5855Z" fill="white"/>
<path d="M7.95611 25H2.28359C2.09688 26.3064 2 27.6419 2 29C2 30.3581 2.09688 31.6936 2.28359 33H7.95611C7.72215 31.7021 7.6 30.3653 7.6 29C7.6 27.6347 7.72215 26.2979 7.95611 25Z" fill="white"/>
<path d="M11.5855 41.7576L7.57461 45.7687C9.18047 47.913 11.0867 49.8194 13.2313 51.4254L17.2423 47.4144C15.0355 45.8827 13.1173 43.9644 11.5855 41.7576Z" fill="white"/>
<path d="M26 51.0439V56.7165C27.3063 56.9033 28.6418 57 30 57C31.3582 57 32.6938 56.9033 34 56.7165V51.0439C32.7021 51.2779 31.3653 51.4 30 51.4C28.6347 51.4 27.2979 51.2779 26 51.0439Z" fill="white"/>
<path d="M42.7576 47.4145L46.7688 51.4256C48.9133 49.8196 50.8191 47.9131 52.4254 45.7687L48.4145 41.7577C46.8827 43.9645 44.9644 45.8827 42.7576 47.4145Z" fill="white"/>
<path d="M52.0439 33H57.7164C57.9031 31.6936 58 30.3581 58 29C58 27.6419 57.9031 26.3064 57.7164 25H52.0439C52.2779 26.2979 52.4 27.6347 52.4 29C52.4 30.3653 52.2779 31.7021 52.0439 33Z" fill="white"/>
<path d="M48.4144 16.2422L52.4254 12.2313C50.8191 10.0869 48.9133 8.18042 46.7688 6.57437L42.7576 10.5855C44.9644 12.1172 46.8826 14.0355 48.4144 16.2422Z" fill="white"/>
<g filter="url(#filter1_i)">
<path d="M29.9746 16.5713L32.7535 25.147H41.7441L34.4763 30.4532L37.2552 39.0299L29.9746 33.7238L22.7078 39.0299L25.4867 30.4532L18.2061 25.147H27.1967L29.9746 16.5713Z" fill="#303030"/>
</g>
<g filter="url(#filter2_d)">
<path d="M15.7152 25.5484H13.6655L14.4791 24.2028H17.1233V36H15.7152V25.5484ZM26.8885 35.8435C26.4191 36.1147 25.8924 36.2503 25.3082 36.2503C24.7241 36.2503 24.1921 36.1147 23.7123 35.8435C23.2429 35.5619 22.8518 35.2073 22.5389 34.7796C22.2364 34.3519 21.9808 33.8617 21.7722 33.3089C21.5636 32.756 21.4123 32.2136 21.3185 31.6817C21.235 31.1393 21.1933 30.6125 21.1933 30.1014C21.1933 29.4443 21.2663 28.7819 21.4123 28.1143C21.5688 27.4363 21.7983 26.7792 22.1008 26.1429C22.4033 25.4962 22.8309 24.9695 23.3838 24.5627C23.947 24.1559 24.5885 23.9525 25.3082 23.9525C26.028 23.9525 26.6642 24.1559 27.2171 24.5627C27.7803 24.9695 28.2132 25.4962 28.5157 26.1429C28.8182 26.7792 29.0424 27.4363 29.1885 28.1143C29.3449 28.7819 29.4232 29.4443 29.4232 30.1014C29.4232 30.6125 29.3762 31.1393 29.2824 31.6817C29.1989 32.2136 29.0529 32.756 28.8443 33.3089C28.6356 33.8617 28.3749 34.3519 28.062 34.7796C27.7595 35.2073 27.3683 35.5619 26.8885 35.8435ZM26.6069 25.7361C26.2418 25.3815 25.8089 25.2042 25.3082 25.2042C24.8076 25.2042 24.3695 25.3815 23.994 25.7361C23.6289 26.0803 23.3472 26.5184 23.1491 27.0504C22.9613 27.5824 22.8205 28.1091 22.7266 28.6307C22.6432 29.1418 22.6014 29.6268 22.6014 30.0858C22.6014 30.5447 22.6432 31.0297 22.7266 31.5408C22.8205 32.052 22.9613 32.5735 23.1491 33.1055C23.3472 33.6374 23.6289 34.0755 23.994 34.4197C24.3695 34.764 24.8076 34.9361 25.3082 34.9361C25.8089 34.9361 26.2418 34.764 26.6069 34.4197C26.9824 34.0755 27.264 33.6374 27.4518 33.1055C27.6499 32.5735 27.7908 32.052 27.8742 31.5408C27.9681 31.0297 28.015 30.5447 28.015 30.0858C28.015 29.6268 27.9681 29.1418 27.8742 28.6307C27.7908 28.1091 27.6499 27.5824 27.4518 27.0504C27.264 26.5184 26.9824 26.0803 26.6069 25.7361ZM35.9339 35.8435C35.4645 36.1147 34.9378 36.2503 34.3537 36.2503C33.7695 36.2503 33.2376 36.1147 32.7578 35.8435C32.2884 35.5619 31.8972 35.2073 31.5843 34.7796C31.2818 34.3519 31.0262 33.8617 30.8176 33.3089C30.609 32.756 30.4578 32.2136 30.3639 31.6817C30.2804 31.1393 30.2387 30.6125 30.2387 30.1014C30.2387 29.4443 30.3117 28.7819 30.4578 28.1143C30.6142 27.4363 30.8437 26.7792 31.1462 26.1429C31.4487 25.4962 31.8764 24.9695 32.4292 24.5627C32.9924 24.1559 33.6339 23.9525 34.3537 23.9525C35.0734 23.9525 35.7097 24.1559 36.2625 24.5627C36.8258 24.9695 37.2586 25.4962 37.5611 26.1429C37.8636 26.7792 38.0879 27.4363 38.2339 28.1143C38.3904 28.7819 38.4686 29.4443 38.4686 30.1014C38.4686 30.6125 38.4217 31.1393 38.3278 31.6817C38.2443 32.2136 38.0983 32.756 37.8897 33.3089C37.6811 33.8617 37.4203 34.3519 37.1074 34.7796C36.8049 35.2073 36.4137 35.5619 35.9339 35.8435ZM35.6523 25.7361C35.2872 25.3815 34.8543 25.2042 34.3537 25.2042C33.853 25.2042 33.4149 25.3815 33.0394 25.7361C32.6743 26.0803 32.3927 26.5184 32.1945 27.0504C32.0067 27.5824 31.8659 28.1091 31.772 28.6307C31.6886 29.1418 31.6469 29.6268 31.6469 30.0858C31.6469 30.5447 31.6886 31.0297 31.772 31.5408C31.8659 32.052 32.0067 32.5735 32.1945 33.1055C32.3927 33.6374 32.6743 34.0755 33.0394 34.4197C33.4149 34.764 33.853 34.9361 34.3537 34.9361C34.8543 34.9361 35.2872 34.764 35.6523 34.4197C36.0278 34.0755 36.3094 33.6374 36.4972 33.1055C36.6954 32.5735 36.8362 32.052 36.9196 31.5408C37.0135 31.0297 37.0604 30.5447 37.0604 30.0858C37.0604 29.6268 37.0135 29.1418 36.9196 28.6307C36.8362 28.1091 36.6954 27.5824 36.4972 27.0504C36.3094 26.5184 36.0278 26.0803 35.6523 25.7361ZM41.4746 29.3191L46.4814 24.2028H48.4059L43.1018 29.5068L48.4997 36H46.5127L42.0692 30.5082L41.4746 31.0715V36H40.0039V24.2028H41.4746V29.3191Z" fill="white"/>
</g>
<defs>
<filter id="filter0_d" x="0.261539" y="0.130769" width="59.4769" height="59.4769" filterUnits="userSpaceOnUse" color-interpolation-filters="sRGB">
<feFlood flood-opacity="0" result="BackgroundImageFix"/>
<feColorMatrix in="SourceAlpha" type="matrix" values="0 0 0 0 0 0 0 0 0 0 0 0 0 0 0 0 0 0 127 0" result="hardAlpha"/>
<feOffset dy="0.869231"/>
<feGaussianBlur stdDeviation="0.869231"/>
<feColorMatrix type="matrix" values="0 0 0 0 0 0 0 0 0 0 0 0 0 0 0 0 0 0 0.5 0"/>
<feBlend mode="normal" in2="BackgroundImageFix" result="effect1_dropShadow"/>
<feBlend mode="normal" in="SourceGraphic" in2="effect1_dropShadow" result="shape"/>
</filter>
<filter id="filter1_i" x="18.2061" y="16.5713" width="23.5381" height="23.3278" filterUnits="userSpaceOnUse" color-interpolation-filters="sRGB">
<feFlood flood-opacity="0" result="BackgroundImageFix"/>
<feBlend mode="normal" in="SourceGraphic" in2="BackgroundImageFix" result="shape"/>
<feColorMatrix in="SourceAlpha" type="matrix" values="0 0 0 0 0 0 0 0 0 0 0 0 0 0 0 0 0 0 127 0" result="hardAlpha"/>
<feOffset dy="0.869231"/>
<feGaussianBlur stdDeviation="4.34615"/>
<feComposite in2="hardAlpha" operator="arithmetic" k2="-1" k3="1"/>
<feColorMatrix type="matrix" values="0 0 0 0 0.591667 0 0 0 0 0.591667 0 0 0 0 0.591667 0 0 0 0.25 0"/>
<feBlend mode="normal" in2="shape" result="effect1_innerShadow"/>
</filter>
<filter id="filter2_d" x="11.9271" y="23.0832" width="38.3111" height="15.7748" filterUnits="userSpaceOnUse" color-interpolation-filters="sRGB">
<feFlood flood-opacity="0" result="BackgroundImageFix"/>
<feColorMatrix in="SourceAlpha" type="matrix" values="0 0 0 0 0 0 0 0 0 0 0 0 0 0 0 0 0 0 127 0" result="hardAlpha"/>
<feOffset dy="0.869231"/>
<feGaussianBlur stdDeviation="0.869231"/>
<feColorMatrix type="matrix" values="0 0 0 0 0 0 0 0 0 0 0 0 0 0 0 0 0 0 0.5 0"/>
<feBlend mode="normal" in2="BackgroundImageFix" result="effect1_dropShadow"/>
<feBlend mode="normal" in="SourceGraphic" in2="effect1_dropShadow" result="shape"/>
</filter>
</defs>
</svg>
