<svg width="60" height="60" viewBox="0 0 60 60" fill="none" xmlns="http://www.w3.org/2000/svg">
<g filter="url(#filter0_d)">
<circle cx="30" cy="29" r="28" fill="#009BC8"/>
</g>
<ellipse cx="30.0001" cy="29.0001" rx="22.4" ry="22.4" fill="#186D86"/>
<path d="M46.6313 17.8877C48.0679 20.0335 49.1002 22.4729 49.6193 25.0968L49.193 25.1811C49.4372 26.4159 49.5654 27.6928 49.5654 29C49.5654 30.3072 49.4372 31.5841 49.193 32.8189L49.6193 32.9032C49.1002 35.5271 48.0679 37.9665 46.6313 40.1123L46.2701 39.8705C44.8416 42.0043 43.0043 43.8416 40.8705 45.2701L41.1123 45.6313C38.9665 47.0679 36.5271 48.1002 33.9032 48.6193L33.8189 48.193C32.5841 48.4372 31.3072 48.5654 30 48.5654C28.6928 48.5654 27.4159 48.4372 26.1811 48.193L26.0968 48.6193C23.4729 48.1002 21.0335 47.0679 18.8877 45.6313L19.1295 45.2701C16.9956 43.8416 15.1584 42.0043 13.7298 39.8705L13.3687 40.1123C11.9321 37.9665 10.8998 35.5271 10.3807 32.9032L10.807 32.8189C10.5628 31.5841 10.4346 30.3072 10.4346 29C10.4346 27.6928 10.5628 26.4159 10.807 25.1811L10.3807 25.0968C10.8998 22.4729 11.9321 20.0335 13.3687 17.8877L13.7298 18.1295C15.1584 15.9957 16.9956 14.1584 19.1295 12.7298L18.8877 12.3687C21.0335 10.9321 23.4729 9.89977 26.0968 9.38068L26.1811 9.80703C27.4159 9.56276 28.6928 9.43462 30 9.43462C31.3072 9.43462 32.5841 9.56276 33.8189 9.80703L33.9032 9.38068C36.5271 9.89977 38.9665 10.9321 41.1123 12.3687L40.8705 12.7298C43.0043 14.1584 44.8416 15.9957 46.2701 18.1295L46.6313 17.8877Z" fill="white" stroke="black" stroke-width="0.869231" stroke-dasharray="6.95 6.95"/>
<ellipse cx="30.0003" cy="29.0001" rx="19.2" ry="19.2" fill="#2A8CA9"/>
<path d="M30 1C31.3582 1 32.6938 1.09668 34 1.28354V6.95611C32.7021 6.72215 31.3653 6.6 30 6.6C28.6347 6.6 27.2979 6.72215 26 6.95611V1.28354C27.3063 1.09668 28.6418 1 30 1Z" fill="#8FD8ED"/>
<path d="M17.2424 10.5855L13.2313 6.57441C11.0867 8.18047 9.18086 10.0869 7.57461 12.2313L11.5855 16.2424C13.1173 14.0356 15.0356 12.1173 17.2424 10.5855Z" fill="#8FD8ED"/>
<path d="M7.95611 25H2.28359C2.09688 26.3064 2 27.6419 2 29C2 30.3581 2.09688 31.6936 2.28359 33H7.95611C7.72215 31.7021 7.6 30.3653 7.6 29C7.6 27.6347 7.72215 26.2979 7.95611 25Z" fill="#8FD8ED"/>
<path d="M11.5855 41.7576L7.57461 45.7687C9.18047 47.913 11.0867 49.8194 13.2313 51.4254L17.2423 47.4144C15.0355 45.8827 13.1173 43.9644 11.5855 41.7576Z" fill="#8FD8ED"/>
<path d="M26 51.0439V56.7165C27.3063 56.9033 28.6418 57 30 57C31.3582 57 32.6938 56.9033 34 56.7165V51.0439C32.7021 51.2779 31.3653 51.4 30 51.4C28.6347 51.4 27.2979 51.2779 26 51.0439Z" fill="#8FD8ED"/>
<path d="M42.7576 47.4145L46.7688 51.4256C48.9133 49.8196 50.8191 47.9131 52.4254 45.7687L48.4145 41.7577C46.8827 43.9645 44.9644 45.8827 42.7576 47.4145Z" fill="#8FD8ED"/>
<path d="M52.0439 33H57.7164C57.9031 31.6936 58 30.3581 58 29C58 27.6419 57.9031 26.3064 57.7164 25H52.0439C52.2779 26.2979 52.4 27.6347 52.4 29C52.4 30.3653 52.2779 31.7021 52.0439 33Z" fill="#8FD8ED"/>
<path d="M48.4144 16.2422L52.4254 12.2313C50.8191 10.0869 48.9133 8.18042 46.7688 6.57437L42.7576 10.5855C44.9644 12.1172 46.8826 14.0355 48.4144 16.2422Z" fill="#8FD8ED"/>
<g filter="url(#filter1_d)">
<path d="M13.7518 25.5484H11.7021L12.5157 24.2028H15.1599V36H13.7518V25.5484ZM24.9251 35.8435C24.4557 36.1147 23.9289 36.2503 23.3448 36.2503C22.7607 36.2503 22.2287 36.1147 21.7489 35.8435C21.2795 35.5619 20.8884 35.2073 20.5755 34.7796C20.273 34.3519 20.0174 33.8617 19.8088 33.3089C19.6002 32.756 19.4489 32.2136 19.3551 31.6817C19.2716 31.1393 19.2299 30.6125 19.2299 30.1014C19.2299 29.4443 19.3029 28.7819 19.4489 28.1143C19.6054 27.4363 19.8349 26.7792 20.1374 26.1429C20.4399 25.4962 20.8675 24.9695 21.4203 24.5627C21.9836 24.1559 22.6251 23.9525 23.3448 23.9525C24.0645 23.9525 24.7008 24.1559 25.2537 24.5627C25.8169 24.9695 26.2498 25.4962 26.5523 26.1429C26.8548 26.7792 27.079 27.4363 27.2251 28.1143C27.3815 28.7819 27.4598 29.4443 27.4598 30.1014C27.4598 30.6125 27.4128 31.1393 27.3189 31.6817C27.2355 32.2136 27.0895 32.756 26.8809 33.3089C26.6722 33.8617 26.4115 34.3519 26.0985 34.7796C25.7961 35.2073 25.4049 35.5619 24.9251 35.8435ZM24.6435 25.7361C24.2784 25.3815 23.8455 25.2042 23.3448 25.2042C22.8441 25.2042 22.4061 25.3815 22.0305 25.7361C21.6655 26.0803 21.3838 26.5184 21.1857 27.0504C20.9979 27.5824 20.8571 28.1091 20.7632 28.6307C20.6798 29.1418 20.638 29.6268 20.638 30.0858C20.638 30.5447 20.6798 31.0297 20.7632 31.5408C20.8571 32.052 20.9979 32.5735 21.1857 33.1055C21.3838 33.6374 21.6655 34.0755 22.0305 34.4197C22.4061 34.764 22.8441 34.9361 23.3448 34.9361C23.8455 34.9361 24.2784 34.764 24.6435 34.4197C25.019 34.0755 25.3006 33.6374 25.4883 33.1055C25.6865 32.5735 25.8273 32.052 25.9108 31.5408C26.0047 31.0297 26.0516 30.5447 26.0516 30.0858C26.0516 29.6268 26.0047 29.1418 25.9108 28.6307C25.8273 28.1091 25.6865 27.5824 25.4883 27.0504C25.3006 26.5184 25.019 26.0803 24.6435 25.7361ZM33.9705 35.8435C33.5011 36.1147 32.9744 36.2503 32.3903 36.2503C31.8061 36.2503 31.2742 36.1147 30.7943 35.8435C30.325 35.5619 29.9338 35.2073 29.6209 34.7796C29.3184 34.3519 29.0628 33.8617 28.8542 33.3089C28.6456 32.756 28.4944 32.2136 28.4005 31.6817C28.317 31.1393 28.2753 30.6125 28.2753 30.1014C28.2753 29.4443 28.3483 28.7819 28.4944 28.1143C28.6508 27.4363 28.8803 26.7792 29.1828 26.1429C29.4853 25.4962 29.9129 24.9695 30.4658 24.5627C31.029 24.1559 31.6705 23.9525 32.3903 23.9525C33.11 23.9525 33.7463 24.1559 34.2991 24.5627C34.8623 24.9695 35.2952 25.4962 35.5977 26.1429C35.9002 26.7792 36.1245 27.4363 36.2705 28.1143C36.427 28.7819 36.5052 29.4443 36.5052 30.1014C36.5052 30.6125 36.4583 31.1393 36.3644 31.6817C36.2809 32.2136 36.1349 32.756 35.9263 33.3089C35.7177 33.8617 35.4569 34.3519 35.144 34.7796C34.8415 35.2073 34.4503 35.5619 33.9705 35.8435ZM33.6889 25.7361C33.3238 25.3815 32.8909 25.2042 32.3903 25.2042C31.8896 25.2042 31.4515 25.3815 31.076 25.7361C30.7109 26.0803 30.4293 26.5184 30.2311 27.0504C30.0433 27.5824 29.9025 28.1091 29.8086 28.6307C29.7252 29.1418 29.6835 29.6268 29.6835 30.0858C29.6835 30.5447 29.7252 31.0297 29.8086 31.5408C29.9025 32.052 30.0433 32.5735 30.2311 33.1055C30.4293 33.6374 30.7109 34.0755 31.076 34.4197C31.4515 34.764 31.8896 34.9361 32.3903 34.9361C32.8909 34.9361 33.3238 34.764 33.6889 34.4197C34.0644 34.0755 34.346 33.6374 34.5338 33.1055C34.732 32.5735 34.8728 32.052 34.9562 31.5408C35.0501 31.0297 35.097 30.5447 35.097 30.0858C35.097 29.6268 35.0501 29.1418 34.9562 28.6307C34.8728 28.1091 34.732 27.5824 34.5338 27.0504C34.346 26.5184 34.0644 26.0803 33.6889 25.7361ZM43.5792 36.2503L40.0432 28.2082H40.0119L38.635 36H37.1173L39.5269 23.7021L43.5792 32.9959L47.6316 23.7021L50.0411 36H48.5234L47.1465 28.2082H47.1152L43.5792 36.2503Z" fill="white"/>
</g>
<defs>
<filter id="filter0_d" x="0.261539" y="0.130769" width="59.4769" height="59.4769" filterUnits="userSpaceOnUse" color-interpolation-filters="sRGB">
<feFlood flood-opacity="0" result="BackgroundImageFix"/>
<feColorMatrix in="SourceAlpha" type="matrix" values="0 0 0 0 0 0 0 0 0 0 0 0 0 0 0 0 0 0 127 0" result="hardAlpha"/>
<feOffset dy="0.869231"/>
<feGaussianBlur stdDeviation="0.869231"/>
<feColorMatrix type="matrix" values="0 0 0 0 0 0 0 0 0 0 0 0 0 0 0 0 0 0 0.5 0"/>
<feBlend mode="normal" in2="BackgroundImageFix" result="effect1_dropShadow"/>
<feBlend mode="normal" in="SourceGraphic" in2="effect1_dropShadow" result="shape"/>
</filter>
<filter id="filter1_d" x="9.96369" y="22.8329" width="41.8159" height="16.0251" filterUnits="userSpaceOnUse" color-interpolation-filters="sRGB">
<feFlood flood-opacity="0" result="BackgroundImageFix"/>
<feColorMatrix in="SourceAlpha" type="matrix" values="0 0 0 0 0 0 0 0 0 0 0 0 0 0 0 0 0 0 127 0" result="hardAlpha"/>
<feOffset dy="0.869231"/>
<feGaussianBlur stdDeviation="0.869231"/>
<feColorMatrix type="matrix" values="0 0 0 0 0 0 0 0 0 0 0 0 0 0 0 0 0 0 0.5 0"/>
<feBlend mode="normal" in2="BackgroundImageFix" result="effect1_dropShadow"/>
<feBlend mode="normal" in="SourceGraphic" in2="effect1_dropShadow" result="shape"/>
</filter>
</defs>
</svg>
