<svg width="60" height="60" viewBox="0 0 60 60" fill="none" xmlns="http://www.w3.org/2000/svg">
<g filter="url(#filter0_d)">
<circle cx="30" cy="29" r="28" fill="#CD5D5D"/>
</g>
<ellipse cx="29.9998" cy="29.0001" rx="22.4" ry="22.4" fill="#471414"/>
<path d="M46.6313 17.8877C48.0679 20.0335 49.1002 22.4729 49.6193 25.0968L49.193 25.1811C49.4372 26.4159 49.5654 27.6928 49.5654 29C49.5654 30.3072 49.4372 31.5841 49.193 32.8189L49.6193 32.9032C49.1002 35.5271 48.0679 37.9665 46.6313 40.1123L46.2701 39.8705C44.8416 42.0043 43.0043 43.8416 40.8705 45.2702L41.1123 45.6313C38.9665 47.0679 36.5271 48.1002 33.9032 48.6193L33.8189 48.193C32.5841 48.4372 31.3072 48.5654 30 48.5654C28.6928 48.5654 27.4159 48.4372 26.1811 48.193L26.0968 48.6193C23.4729 48.1002 21.0335 47.0679 18.8877 45.6313L19.1295 45.2702C16.9956 43.8416 15.1584 42.0043 13.7298 39.8705L13.3687 40.1123C11.9321 37.9665 10.8998 35.5271 10.3807 32.9032L10.807 32.8189C10.5628 31.5841 10.4346 30.3072 10.4346 29C10.4346 27.6928 10.5628 26.4159 10.807 25.1811L10.3807 25.0968C10.8998 22.4729 11.9321 20.0335 13.3687 17.8877L13.7298 18.1295C15.1584 15.9957 16.9956 14.1584 19.1295 12.7298L18.8877 12.3687C21.0335 10.9321 23.4729 9.89977 26.0968 9.38068L26.1811 9.80703C27.4159 9.56276 28.6928 9.43462 30 9.43462C31.3072 9.43462 32.5841 9.56276 33.8189 9.80703L33.9032 9.38068C36.5271 9.89977 38.9665 10.9321 41.1123 12.3687L40.8705 12.7298C43.0043 14.1584 44.8416 15.9957 46.2701 18.1295L46.6313 17.8877Z" fill="white" stroke="black" stroke-width="0.869231" stroke-dasharray="6.95 6.95"/>
<ellipse cx="30.0003" cy="29.0001" rx="19.2" ry="19.2" fill="#924B4B"/>
<path d="M30 1C31.3582 1 32.6938 1.09668 34 1.28354V6.95611C32.7021 6.72215 31.3653 6.6 30 6.6C28.6347 6.6 27.2979 6.72215 26 6.95611V1.28354C27.3063 1.09668 28.6418 1 30 1Z" fill="white"/>
<path d="M17.2424 10.5855L13.2313 6.57441C11.0867 8.18047 9.18086 10.0869 7.57461 12.2313L11.5855 16.2424C13.1173 14.0356 15.0356 12.1173 17.2424 10.5855Z" fill="white"/>
<path d="M7.95611 25H2.28359C2.09688 26.3064 2 27.6419 2 29C2 30.3581 2.09688 31.6936 2.28359 33H7.95611C7.72215 31.7021 7.6 30.3653 7.6 29C7.6 27.6347 7.72215 26.2979 7.95611 25Z" fill="white"/>
<path d="M11.5855 41.7576L7.57461 45.7687C9.18047 47.913 11.0867 49.8194 13.2313 51.4254L17.2423 47.4144C15.0355 45.8827 13.1173 43.9644 11.5855 41.7576Z" fill="white"/>
<path d="M26 51.0439V56.7165C27.3063 56.9033 28.6418 57 30 57C31.3582 57 32.6938 56.9033 34 56.7165V51.0439C32.7021 51.2779 31.3653 51.4 30 51.4C28.6347 51.4 27.2979 51.2779 26 51.0439Z" fill="white"/>
<path d="M42.7576 47.4145L46.7688 51.4256C48.9133 49.8196 50.8191 47.9131 52.4254 45.7687L48.4145 41.7577C46.8827 43.9645 44.9644 45.8827 42.7576 47.4145Z" fill="white"/>
<path d="M52.0439 33H57.7164C57.9031 31.6936 58 30.3581 58 29C58 27.6419 57.9031 26.3064 57.7164 25H52.0439C52.2779 26.2979 52.4 27.6347 52.4 29C52.4 30.3653 52.2779 31.7021 52.0439 33Z" fill="white"/>
<path d="M48.4144 16.2422L52.4254 12.2313C50.8191 10.0869 48.9133 8.18042 46.7688 6.57437L42.7576 10.5855C44.9644 12.1172 46.8826 14.0355 48.4144 16.2422Z" fill="white"/>
<g filter="url(#filter1_i)">
<path d="M29.9746 16.5713L32.7535 25.147H41.7441L34.4763 30.4532L37.2552 39.0299L29.9746 33.7238L22.7078 39.0299L25.4867 30.4532L18.2061 25.147H27.1967L29.9746 16.5713Z" fill="#771C1C"/>
</g>
<g filter="url(#filter2_d)">
<path d="M16.9839 23.8643H14.251L15.3358 22.0702H18.8614V37.7998H16.9839V23.8643ZM31.8816 37.5912C31.2558 37.9528 30.5534 38.1336 29.7746 38.1336C28.9958 38.1336 28.2865 37.9528 27.6467 37.5912C27.0209 37.2157 26.4993 36.7428 26.0821 36.1726C25.6788 35.6024 25.338 34.9487 25.0599 34.2116C24.7817 33.4745 24.5801 32.7513 24.4549 32.042C24.3436 31.3188 24.288 30.6165 24.288 29.935C24.288 29.0588 24.3854 28.1757 24.5801 27.2856C24.7887 26.3816 25.0947 25.5054 25.498 24.657C25.9013 23.7948 26.4715 23.0924 27.2086 22.55C27.9596 22.0076 28.815 21.7364 29.7746 21.7364C30.7342 21.7364 31.5826 22.0076 32.3197 22.55C33.0707 23.0924 33.6479 23.7948 34.0512 24.657C34.4545 25.5054 34.7536 26.3816 34.9483 27.2856C35.1569 28.1757 35.2612 29.0588 35.2612 29.935C35.2612 30.6165 35.1986 31.3188 35.0734 32.042C34.9622 32.7513 34.7675 33.4745 34.4893 34.2116C34.2112 34.9487 33.8635 35.6024 33.4462 36.1726C33.0429 36.7428 32.5214 37.2157 31.8816 37.5912ZM31.5061 24.1146C31.0193 23.6418 30.4422 23.4053 29.7746 23.4053C29.107 23.4053 28.5229 23.6418 28.0222 24.1146C27.5355 24.5736 27.16 25.1577 26.8957 25.867C26.6454 26.5763 26.4576 27.2786 26.3324 27.974C26.2212 28.6555 26.1656 29.3022 26.1656 29.9141C26.1656 30.5261 26.2212 31.1728 26.3324 31.8543C26.4576 32.5357 26.6454 33.2311 26.8957 33.9404C27.16 34.6497 27.5355 35.2338 28.0222 35.6928C28.5229 36.1517 29.107 36.3812 29.7746 36.3812C30.4422 36.3812 31.0193 36.1517 31.5061 35.6928C32.0068 35.2338 32.3823 34.6497 32.6326 33.9404C32.8969 33.2311 33.0846 32.5357 33.1959 31.8543C33.3211 31.1728 33.3836 30.5261 33.3836 29.9141C33.3836 29.3022 33.3211 28.6555 33.1959 27.974C33.0846 27.2786 32.8969 26.5763 32.6326 25.867C32.3823 25.1577 32.0068 24.5736 31.5061 24.1146ZM39.2692 28.8919L45.9449 22.0702H48.5109L41.4388 29.1423L48.636 37.7998H45.9866L40.0619 30.4774L39.2692 31.2284V37.7998H37.3082V22.0702H39.2692V28.8919Z" fill="white"/>
</g>
<defs>
<filter id="filter0_d" x="0.261539" y="0.130769" width="59.4769" height="59.4769" filterUnits="userSpaceOnUse" color-interpolation-filters="sRGB">
<feFlood flood-opacity="0" result="BackgroundImageFix"/>
<feColorMatrix in="SourceAlpha" type="matrix" values="0 0 0 0 0 0 0 0 0 0 0 0 0 0 0 0 0 0 127 0" result="hardAlpha"/>
<feOffset dy="0.869231"/>
<feGaussianBlur stdDeviation="0.869231"/>
<feColorMatrix type="matrix" values="0 0 0 0 0 0 0 0 0 0 0 0 0 0 0 0 0 0 0.5 0"/>
<feBlend mode="normal" in2="BackgroundImageFix" result="effect1_dropShadow"/>
<feBlend mode="normal" in="SourceGraphic" in2="effect1_dropShadow" result="shape"/>
</filter>
<filter id="filter1_i" x="18.2061" y="16.5713" width="23.5381" height="23.3278" filterUnits="userSpaceOnUse" color-interpolation-filters="sRGB">
<feFlood flood-opacity="0" result="BackgroundImageFix"/>
<feBlend mode="normal" in="SourceGraphic" in2="BackgroundImageFix" result="shape"/>
<feColorMatrix in="SourceAlpha" type="matrix" values="0 0 0 0 0 0 0 0 0 0 0 0 0 0 0 0 0 0 127 0" result="hardAlpha"/>
<feOffset dy="0.869231"/>
<feGaussianBlur stdDeviation="4.34615"/>
<feComposite in2="hardAlpha" operator="arithmetic" k2="-1" k3="1"/>
<feColorMatrix type="matrix" values="0 0 0 0 0.591667 0 0 0 0 0.591667 0 0 0 0 0.591667 0 0 0 0.25 0"/>
<feBlend mode="normal" in2="shape" result="effect1_innerShadow"/>
</filter>
<filter id="filter2_d" x="12.5125" y="20.8671" width="37.862" height="19.8741" filterUnits="userSpaceOnUse" color-interpolation-filters="sRGB">
<feFlood flood-opacity="0" result="BackgroundImageFix"/>
<feColorMatrix in="SourceAlpha" type="matrix" values="0 0 0 0 0 0 0 0 0 0 0 0 0 0 0 0 0 0 127 0" result="hardAlpha"/>
<feOffset dy="0.869231"/>
<feGaussianBlur stdDeviation="0.869231"/>
<feColorMatrix type="matrix" values="0 0 0 0 0 0 0 0 0 0 0 0 0 0 0 0 0 0 0.5 0"/>
<feBlend mode="normal" in2="BackgroundImageFix" result="effect1_dropShadow"/>
<feBlend mode="normal" in="SourceGraphic" in2="effect1_dropShadow" result="shape"/>
</filter>
</defs>
</svg>
