<svg width="60" height="60" viewBox="0 0 60 60" fill="none" xmlns="http://www.w3.org/2000/svg">
<g filter="url(#filter0_d)">
<circle cx="30" cy="29" r="28" fill="#EBBF25"/>
</g>
<ellipse cx="29.9999" cy="29.0001" rx="22.4" ry="22.4" fill="#8F730E"/>
<path d="M46.6311 17.8877C48.0677 20.0335 49.1 22.4729 49.6191 25.0968L49.1928 25.1811C49.437 26.4159 49.5652 27.6928 49.5652 29C49.5652 30.3072 49.437 31.5841 49.1928 32.8189L49.6191 32.9032C49.1 35.5271 48.0677 37.9665 46.6311 40.1123L46.2699 39.8705C44.8414 42.0043 43.0041 43.8416 40.8703 45.2702L41.1121 45.6313C38.9663 47.0679 36.5269 48.1002 33.903 48.6193L33.8187 48.193C32.5839 48.4372 31.307 48.5654 29.9998 48.5654C28.6925 48.5654 27.4157 48.4372 26.1809 48.193L26.0965 48.6193C23.4726 48.1002 21.0333 47.0679 18.8875 45.6313L19.1292 45.2702C16.9954 43.8416 15.1582 42.0043 13.7296 39.8705L13.3685 40.1123C11.9319 37.9665 10.8995 35.5271 10.3804 32.9032L10.8068 32.8189C10.5625 31.5841 10.4344 30.3072 10.4344 29C10.4344 27.6928 10.5625 26.4159 10.8068 25.1811L10.3804 25.0968C10.8995 22.4729 11.9319 20.0335 13.3685 17.8877L13.7296 18.1295C15.1582 15.9956 16.9954 14.1584 19.1292 12.7298L18.8875 12.3687C21.0333 10.9321 23.4726 9.89976 26.0965 9.38068L26.1809 9.80703C27.4157 9.56276 28.6925 9.43462 29.9998 9.43462C31.307 9.43462 32.5839 9.56276 33.8187 9.80703L33.903 9.38068C36.5269 9.89976 38.9663 10.9321 41.1121 12.3687L40.8703 12.7298C43.0041 14.1584 44.8414 15.9956 46.2699 18.1295L46.6311 17.8877Z" fill="white" stroke="black" stroke-width="0.869231" stroke-dasharray="6.95 6.95"/>
<ellipse cx="30.0001" cy="29.0001" rx="19.2" ry="19.2" fill="#D6B232"/>
<path d="M30 1C31.3582 1 32.6938 1.09668 34 1.28354V6.95611C32.7021 6.72215 31.3653 6.6 30 6.6C28.6347 6.6 27.2979 6.72215 26 6.95611V1.28354C27.3063 1.09668 28.6418 1 30 1Z" fill="#F5E094"/>
<path d="M17.2424 10.5855L13.2313 6.57441C11.0867 8.18047 9.18086 10.0869 7.57461 12.2313L11.5855 16.2424C13.1173 14.0356 15.0356 12.1173 17.2424 10.5855Z" fill="#F5E094"/>
<path d="M7.95611 25H2.28359C2.09688 26.3064 2 27.6419 2 29C2 30.3581 2.09688 31.6936 2.28359 33H7.95611C7.72215 31.7021 7.6 30.3653 7.6 29C7.6 27.6347 7.72215 26.2979 7.95611 25Z" fill="#F5E094"/>
<path d="M11.5855 41.7576L7.57461 45.7687C9.18047 47.913 11.0867 49.8194 13.2313 51.4254L17.2423 47.4144C15.0355 45.8827 13.1173 43.9644 11.5855 41.7576Z" fill="#F5E094"/>
<path d="M26 51.0439V56.7165C27.3063 56.9033 28.6418 57 30 57C31.3582 57 32.6938 56.9033 34 56.7165V51.0439C32.7021 51.2779 31.3653 51.4 30 51.4C28.6347 51.4 27.2979 51.2779 26 51.0439Z" fill="#F5E094"/>
<path d="M42.7576 47.4145L46.7688 51.4256C48.9133 49.8196 50.8191 47.9131 52.4254 45.7687L48.4145 41.7577C46.8827 43.9645 44.9644 45.8827 42.7576 47.4145Z" fill="#F5E094"/>
<path d="M52.0439 33H57.7164C57.9031 31.6936 58 30.3581 58 29C58 27.6419 57.9031 26.3064 57.7164 25H52.0439C52.2779 26.2979 52.4 27.6347 52.4 29C52.4 30.3653 52.2779 31.7021 52.0439 33Z" fill="#F5E094"/>
<path d="M48.4144 16.2422L52.4254 12.2313C50.8191 10.0869 48.9133 8.18042 46.7688 6.57437L42.7576 10.5855C44.9644 12.1172 46.8826 14.0355 48.4144 16.2422Z" fill="#F5E094"/>
<g filter="url(#filter1_i)">
<path d="M29.9746 16.5713L32.7535 25.147H41.7441L34.4763 30.4532L37.2552 39.0299L29.9746 33.7238L22.7078 39.0299L25.4867 30.4532L18.2061 25.147H27.1967L29.9746 16.5713Z" fill="#EECB53"/>
</g>
<g filter="url(#filter2_d)">
<path d="M14.366 23.8643H11.6331L12.7179 22.0702H16.2435V37.7998H14.366V23.8643ZM29.2637 37.5912C28.6379 37.9528 27.9356 38.1336 27.1567 38.1336C26.3779 38.1336 25.6686 37.9528 25.0288 37.5912C24.403 37.2157 23.8815 36.7428 23.4642 36.1726C23.0609 35.6024 22.7202 34.9487 22.442 34.2116C22.1639 33.4745 21.9622 32.7513 21.837 32.042C21.7258 31.3188 21.6701 30.6165 21.6701 29.935C21.6701 29.0588 21.7675 28.1757 21.9622 27.2856C22.1708 26.3816 22.4768 25.5054 22.8801 24.657C23.2834 23.7948 23.8536 23.0924 24.5908 22.55C25.3418 22.0076 26.1971 21.7364 27.1567 21.7364C28.1163 21.7364 28.9647 22.0076 29.7018 22.55C30.4528 23.0924 31.03 23.7948 31.4333 24.657C31.8367 25.5054 32.1357 26.3816 32.3304 27.2856C32.539 28.1757 32.6433 29.0588 32.6433 29.935C32.6433 30.6165 32.5807 31.3188 32.4556 32.042C32.3443 32.7513 32.1496 33.4745 31.8714 34.2116C31.5933 34.9487 31.2456 35.6024 30.8284 36.1726C30.425 36.7428 29.9035 37.2157 29.2637 37.5912ZM28.8882 24.1146C28.4015 23.6418 27.8243 23.4053 27.1567 23.4053C26.4892 23.4053 25.905 23.6418 25.4044 24.1146C24.9176 24.5736 24.5421 25.1577 24.2778 25.867C24.0275 26.5763 23.8397 27.2786 23.7146 27.974C23.6033 28.6555 23.5477 29.3022 23.5477 29.9141C23.5477 30.5261 23.6033 31.1728 23.7146 31.8543C23.8397 32.5357 24.0275 33.2311 24.2778 33.9404C24.5421 34.6497 24.9176 35.2338 25.4044 35.6928C25.905 36.1517 26.4892 36.3812 27.1567 36.3812C27.8243 36.3812 28.4015 36.1517 28.8882 35.6928C29.3889 35.2338 29.7644 34.6497 30.0148 33.9404C30.279 33.2311 30.4667 32.5357 30.578 31.8543C30.7032 31.1728 30.7658 30.5261 30.7658 29.9141C30.7658 29.3022 30.7032 28.6555 30.578 27.974C30.4667 27.2786 30.279 26.5763 30.0148 25.867C29.7644 25.1577 29.3889 24.5736 28.8882 24.1146ZM42.0753 38.1336L37.3606 27.4108H37.3189L35.4831 37.7998H33.4595L36.6722 21.4026L42.0753 33.7944L47.4785 21.4026L50.6911 37.7998H48.6676L46.8318 27.4108H46.79L42.0753 38.1336Z" fill="white"/>
</g>
<defs>
<filter id="filter0_d" x="0.261539" y="0.130769" width="59.4769" height="59.4769" filterUnits="userSpaceOnUse" color-interpolation-filters="sRGB">
<feFlood flood-opacity="0" result="BackgroundImageFix"/>
<feColorMatrix in="SourceAlpha" type="matrix" values="0 0 0 0 0 0 0 0 0 0 0 0 0 0 0 0 0 0 127 0" result="hardAlpha"/>
<feOffset dy="0.869231"/>
<feGaussianBlur stdDeviation="0.869231"/>
<feColorMatrix type="matrix" values="0 0 0 0 0 0 0 0 0 0 0 0 0 0 0 0 0 0 0.5 0"/>
<feBlend mode="normal" in2="BackgroundImageFix" result="effect1_dropShadow"/>
<feBlend mode="normal" in="SourceGraphic" in2="effect1_dropShadow" result="shape"/>
</filter>
<filter id="filter1_i" x="18.2061" y="16.5713" width="23.5381" height="23.3278" filterUnits="userSpaceOnUse" color-interpolation-filters="sRGB">
<feFlood flood-opacity="0" result="BackgroundImageFix"/>
<feBlend mode="normal" in="SourceGraphic" in2="BackgroundImageFix" result="shape"/>
<feColorMatrix in="SourceAlpha" type="matrix" values="0 0 0 0 0 0 0 0 0 0 0 0 0 0 0 0 0 0 127 0" result="hardAlpha"/>
<feOffset dy="0.869231"/>
<feGaussianBlur stdDeviation="4.34615"/>
<feComposite in2="hardAlpha" operator="arithmetic" k2="-1" k3="1"/>
<feColorMatrix type="matrix" values="0 0 0 0 0.591667 0 0 0 0 0.591667 0 0 0 0 0.591667 0 0 0 0.25 0"/>
<feBlend mode="normal" in2="shape" result="effect1_innerShadow"/>
</filter>
<filter id="filter2_d" x="9.8946" y="20.5334" width="42.5349" height="20.2079" filterUnits="userSpaceOnUse" color-interpolation-filters="sRGB">
<feFlood flood-opacity="0" result="BackgroundImageFix"/>
<feColorMatrix in="SourceAlpha" type="matrix" values="0 0 0 0 0 0 0 0 0 0 0 0 0 0 0 0 0 0 127 0" result="hardAlpha"/>
<feOffset dy="0.869231"/>
<feGaussianBlur stdDeviation="0.869231"/>
<feColorMatrix type="matrix" values="0 0 0 0 0 0 0 0 0 0 0 0 0 0 0 0 0 0 0.5 0"/>
<feBlend mode="normal" in2="BackgroundImageFix" result="effect1_dropShadow"/>
<feBlend mode="normal" in="SourceGraphic" in2="effect1_dropShadow" result="shape"/>
</filter>
</defs>
</svg>
