<svg width="60" height="60" viewBox="0 0 60 60" fill="none" xmlns="http://www.w3.org/2000/svg">
<g filter="url(#filter0_d)">
<circle cx="30" cy="29" r="28" fill="#70A457"/>
</g>
<ellipse cx="29.9999" cy="29.0001" rx="22.4" ry="22.4" fill="#274F15"/>
<path d="M46.6308 17.8877C48.0674 20.0335 49.0997 22.4729 49.6188 25.0968L49.1925 25.1811C49.4368 26.4159 49.5649 27.6928 49.5649 29C49.5649 30.3072 49.4368 31.5841 49.1925 32.8189L49.6188 32.9032C49.0997 35.5271 48.0674 37.9665 46.6308 40.1123L46.2697 39.8705C44.8411 42.0043 43.0039 43.8416 40.87 45.2702L41.1118 45.6313C38.966 47.0679 36.5266 48.1002 33.9028 48.6193L33.8184 48.193C32.5836 48.4372 31.3067 48.5654 29.9995 48.5654C28.6923 48.5654 27.4154 48.4372 26.1806 48.193L26.0963 48.6193C23.4724 48.1002 21.033 47.0679 18.8872 45.6313L19.129 45.2702C16.9952 43.8416 15.1579 42.0043 13.7294 39.8705L13.3682 40.1123C11.9316 37.9665 10.8993 35.5271 10.3802 32.9032L10.8065 32.8189C10.5623 31.5841 10.4341 30.3072 10.4341 29C10.4341 27.6928 10.5623 26.4159 10.8065 25.1811L10.3802 25.0968C10.8993 22.4729 11.9316 20.0335 13.3682 17.8877L13.7294 18.1295C15.1579 15.9957 16.9952 14.1584 19.129 12.7298L18.8872 12.3687C21.033 10.9321 23.4724 9.89977 26.0963 9.38068L26.1806 9.80703C27.4154 9.56276 28.6923 9.43462 29.9995 9.43462C31.3067 9.43462 32.5836 9.56276 33.8184 9.80703L33.9028 9.38068C36.5266 9.89977 38.966 10.9321 41.1118 12.3687L40.87 12.7298C43.0039 14.1584 44.8411 15.9957 46.2697 18.1295L46.6308 17.8877Z" fill="white" stroke="black" stroke-width="0.869231" stroke-dasharray="6.95 6.95"/>
<ellipse cx="29.9998" cy="29.0001" rx="19.2" ry="19.2" fill="#5D8849"/>
<path d="M30 1C31.3582 1 32.6938 1.09668 34 1.28354V6.95611C32.7021 6.72215 31.3653 6.6 30 6.6C28.6347 6.6 27.2979 6.72215 26 6.95611V1.28354C27.3063 1.09668 28.6418 1 30 1Z" fill="white"/>
<path d="M17.2424 10.5855L13.2313 6.57441C11.0867 8.18047 9.18086 10.0869 7.57461 12.2313L11.5855 16.2424C13.1173 14.0356 15.0356 12.1173 17.2424 10.5855Z" fill="white"/>
<path d="M7.95611 25H2.28359C2.09688 26.3064 2 27.6419 2 29C2 30.3581 2.09688 31.6936 2.28359 33H7.95611C7.72215 31.7021 7.6 30.3653 7.6 29C7.6 27.6347 7.72215 26.2979 7.95611 25Z" fill="white"/>
<path d="M11.5855 41.7576L7.57461 45.7687C9.18047 47.913 11.0867 49.8194 13.2313 51.4254L17.2423 47.4144C15.0355 45.8827 13.1173 43.9644 11.5855 41.7576Z" fill="white"/>
<path d="M26 51.0439V56.7165C27.3063 56.9033 28.6418 57 30 57C31.3582 57 32.6938 56.9033 34 56.7165V51.0439C32.7021 51.2779 31.3653 51.4 30 51.4C28.6347 51.4 27.2979 51.2779 26 51.0439Z" fill="white"/>
<path d="M42.7576 47.4145L46.7688 51.4256C48.9133 49.8196 50.8191 47.9131 52.4254 45.7687L48.4145 41.7577C46.8827 43.9645 44.9644 45.8827 42.7576 47.4145Z" fill="white"/>
<path d="M52.0439 33H57.7164C57.9031 31.6936 58 30.3581 58 29C58 27.6419 57.9031 26.3064 57.7164 25H52.0439C52.2779 26.2979 52.4 27.6347 52.4 29C52.4 30.3653 52.2779 31.7021 52.0439 33Z" fill="white"/>
<path d="M48.4144 16.2422L52.4254 12.2313C50.8191 10.0869 48.9133 8.18042 46.7688 6.57437L42.7576 10.5855C44.9644 12.1172 46.8826 14.0355 48.4144 16.2422Z" fill="white"/>
<g filter="url(#filter1_i)">
<path d="M29.9741 16.5713L32.753 25.147H41.7436L34.4758 30.4532L37.2547 39.0299L29.9741 33.7238L22.7073 39.0299L25.4862 30.4532L18.2056 25.147H27.1962L29.9741 16.5713Z" fill="#477532"/>
</g>
<g filter="url(#filter2_d)">
<path d="M23.0142 23.8643H20.2813L21.3661 22.0702H24.8917V37.7998H23.0142V23.8643ZM33.2389 28.8919L39.9146 22.0702H42.4806L35.4085 29.1423L42.6057 37.7998H39.9563L34.0317 30.4774L33.2389 31.2284V37.7998H31.2779V22.0702H33.2389V28.8919Z" fill="white"/>
</g>
<defs>
<filter id="filter0_d" x="0.261539" y="0.130769" width="59.4769" height="59.4769" filterUnits="userSpaceOnUse" color-interpolation-filters="sRGB">
<feFlood flood-opacity="0" result="BackgroundImageFix"/>
<feColorMatrix in="SourceAlpha" type="matrix" values="0 0 0 0 0 0 0 0 0 0 0 0 0 0 0 0 0 0 127 0" result="hardAlpha"/>
<feOffset dy="0.869231"/>
<feGaussianBlur stdDeviation="0.869231"/>
<feColorMatrix type="matrix" values="0 0 0 0 0 0 0 0 0 0 0 0 0 0 0 0 0 0 0.5 0"/>
<feBlend mode="normal" in2="BackgroundImageFix" result="effect1_dropShadow"/>
<feBlend mode="normal" in="SourceGraphic" in2="effect1_dropShadow" result="shape"/>
</filter>
<filter id="filter1_i" x="18.2056" y="16.5713" width="23.5381" height="23.3278" filterUnits="userSpaceOnUse" color-interpolation-filters="sRGB">
<feFlood flood-opacity="0" result="BackgroundImageFix"/>
<feBlend mode="normal" in="SourceGraphic" in2="BackgroundImageFix" result="shape"/>
<feColorMatrix in="SourceAlpha" type="matrix" values="0 0 0 0 0 0 0 0 0 0 0 0 0 0 0 0 0 0 127 0" result="hardAlpha"/>
<feOffset dy="0.869231"/>
<feGaussianBlur stdDeviation="4.34615"/>
<feComposite in2="hardAlpha" operator="arithmetic" k2="-1" k3="1"/>
<feColorMatrix type="matrix" values="0 0 0 0 0.591667 0 0 0 0 0.591667 0 0 0 0 0.591667 0 0 0 0.25 0"/>
<feBlend mode="normal" in2="shape" result="effect1_innerShadow"/>
</filter>
<filter id="filter2_d" x="18.5428" y="21.2011" width="25.8014" height="19.2065" filterUnits="userSpaceOnUse" color-interpolation-filters="sRGB">
<feFlood flood-opacity="0" result="BackgroundImageFix"/>
<feColorMatrix in="SourceAlpha" type="matrix" values="0 0 0 0 0 0 0 0 0 0 0 0 0 0 0 0 0 0 127 0" result="hardAlpha"/>
<feOffset dy="0.869231"/>
<feGaussianBlur stdDeviation="0.869231"/>
<feColorMatrix type="matrix" values="0 0 0 0 0 0 0 0 0 0 0 0 0 0 0 0 0 0 0.5 0"/>
<feBlend mode="normal" in2="BackgroundImageFix" result="effect1_dropShadow"/>
<feBlend mode="normal" in="SourceGraphic" in2="effect1_dropShadow" result="shape"/>
</filter>
</defs>
</svg>
