<svg width="60" height="60" viewBox="0 0 60 60" fill="none" xmlns="http://www.w3.org/2000/svg">
<g filter="url(#filter0_d)">
<circle cx="30" cy="29" r="28" fill="#B342A7"/>
</g>
<ellipse cx="30.0001" cy="29.0001" rx="22.4" ry="22.4" fill="#872E7E"/>
<path d="M46.6313 17.8877C48.0679 20.0335 49.1002 22.4729 49.6193 25.0968L49.193 25.1811C49.4372 26.4159 49.5654 27.6928 49.5654 29C49.5654 30.3072 49.4372 31.5841 49.193 32.8189L49.6193 32.9032C49.1002 35.5271 48.0679 37.9665 46.6313 40.1123L46.2702 39.8705C44.8416 42.0043 43.0043 43.8416 40.8705 45.2701L41.1123 45.6313C38.9665 47.0679 36.5271 48.1002 33.9032 48.6193L33.8189 48.193C32.5841 48.4372 31.3072 48.5654 30 48.5654C28.6928 48.5654 27.4159 48.4372 26.1811 48.193L26.0968 48.6193C23.4729 48.1002 21.0335 47.0679 18.8877 45.6313L19.1295 45.2701C16.9957 43.8416 15.1584 42.0043 13.7298 39.8705L13.3687 40.1123C11.9321 37.9665 10.8998 35.5271 10.3807 32.9032L10.807 32.8189C10.5628 31.5841 10.4346 30.3072 10.4346 29C10.4346 27.6928 10.5628 26.4159 10.807 25.1811L10.3807 25.0968C10.8998 22.4729 11.9321 20.0335 13.3687 17.8877L13.7298 18.1295C15.1584 15.9956 16.9957 14.1584 19.1295 12.7298L18.8877 12.3687C21.0335 10.9321 23.4729 9.89977 26.0968 9.38068L26.1811 9.80703C27.4159 9.56276 28.6928 9.43462 30 9.43462C31.3072 9.43462 32.5841 9.56276 33.8189 9.80703L33.9032 9.38068C36.5271 9.89977 38.9665 10.9321 41.1123 12.3687L40.8705 12.7298C43.0043 14.1584 44.8416 15.9957 46.2702 18.1295L46.6313 17.8877Z" fill="white" stroke="black" stroke-width="0.869231" stroke-dasharray="6.95 6.95"/>
<ellipse cx="30.0003" cy="29.0001" rx="19.2" ry="19.2" fill="#B342A7"/>
<path d="M30 1C31.3582 1 32.6938 1.09668 34 1.28354V6.95611C32.7021 6.72215 31.3653 6.6 30 6.6C28.6347 6.6 27.2979 6.72215 26 6.95611V1.28354C27.3063 1.09668 28.6418 1 30 1Z" fill="#EB9FE3"/>
<path d="M17.2424 10.5855L13.2313 6.57441C11.0867 8.18047 9.18086 10.0869 7.57461 12.2313L11.5855 16.2424C13.1173 14.0356 15.0356 12.1173 17.2424 10.5855Z" fill="#EB9FE3"/>
<path d="M7.95611 25H2.28359C2.09688 26.3064 2 27.6419 2 29C2 30.3581 2.09688 31.6936 2.28359 33H7.95611C7.72215 31.7021 7.6 30.3653 7.6 29C7.6 27.6347 7.72215 26.2979 7.95611 25Z" fill="#EB9FE3"/>
<path d="M11.5855 41.7576L7.57461 45.7687C9.18047 47.913 11.0867 49.8194 13.2313 51.4254L17.2423 47.4144C15.0355 45.8827 13.1173 43.9644 11.5855 41.7576Z" fill="#EB9FE3"/>
<path d="M26 51.0439V56.7165C27.3063 56.9033 28.6418 57 30 57C31.3582 57 32.6938 56.9033 34 56.7165V51.0439C32.7021 51.2779 31.3653 51.4 30 51.4C28.6347 51.4 27.2979 51.2779 26 51.0439Z" fill="#EB9FE3"/>
<path d="M42.7576 47.4145L46.7688 51.4256C48.9133 49.8196 50.8191 47.9131 52.4254 45.7687L48.4145 41.7577C46.8827 43.9645 44.9644 45.8827 42.7576 47.4145Z" fill="#EB9FE3"/>
<path d="M52.0439 33H57.7164C57.9031 31.6936 58 30.3581 58 29C58 27.6419 57.9031 26.3064 57.7164 25H52.0439C52.2779 26.2979 52.4 27.6347 52.4 29C52.4 30.3653 52.2779 31.7021 52.0439 33Z" fill="#EB9FE3"/>
<path d="M48.4144 16.2422L52.4254 12.2313C50.8191 10.0869 48.9133 8.18042 46.7688 6.57437L42.7576 10.5855C44.9644 12.1172 46.8826 14.0355 48.4144 16.2422Z" fill="#EB9FE3"/>
<g filter="url(#filter1_i)">
<path d="M29.9746 16.5713L32.7535 25.147H41.7441L34.4763 30.4532L37.2552 39.0299L29.9746 33.7238L22.7078 39.0299L25.4867 30.4532L18.2061 25.147H27.1967L29.9746 16.5713Z" fill="#CF4FC3"/>
</g>
<g filter="url(#filter2_d)">
<path d="M22.7972 25.5484H20.7476L21.5612 24.2028H24.2054V36H22.7972V25.5484ZM34.5338 36.2503L30.9977 28.2082H30.9665L29.5896 36H28.0719L30.4814 23.7021L34.5338 32.9959L38.5861 23.7021L40.9956 36H39.478L38.1011 28.2082H38.0698L34.5338 36.2503Z" fill="white"/>
</g>
<defs>
<filter id="filter0_d" x="0.261539" y="0.130769" width="59.4769" height="59.4769" filterUnits="userSpaceOnUse" color-interpolation-filters="sRGB">
<feFlood flood-opacity="0" result="BackgroundImageFix"/>
<feColorMatrix in="SourceAlpha" type="matrix" values="0 0 0 0 0 0 0 0 0 0 0 0 0 0 0 0 0 0 127 0" result="hardAlpha"/>
<feOffset dy="0.869231"/>
<feGaussianBlur stdDeviation="0.869231"/>
<feColorMatrix type="matrix" values="0 0 0 0 0 0 0 0 0 0 0 0 0 0 0 0 0 0 0.5 0"/>
<feBlend mode="normal" in2="BackgroundImageFix" result="effect1_dropShadow"/>
<feBlend mode="normal" in="SourceGraphic" in2="effect1_dropShadow" result="shape"/>
</filter>
<filter id="filter1_i" x="18.2061" y="16.5713" width="23.5381" height="23.3278" filterUnits="userSpaceOnUse" color-interpolation-filters="sRGB">
<feFlood flood-opacity="0" result="BackgroundImageFix"/>
<feBlend mode="normal" in="SourceGraphic" in2="BackgroundImageFix" result="shape"/>
<feColorMatrix in="SourceAlpha" type="matrix" values="0 0 0 0 0 0 0 0 0 0 0 0 0 0 0 0 0 0 127 0" result="hardAlpha"/>
<feOffset dy="0.869231"/>
<feGaussianBlur stdDeviation="4.34615"/>
<feComposite in2="hardAlpha" operator="arithmetic" k2="-1" k3="1"/>
<feColorMatrix type="matrix" values="0 0 0 0 0.591667 0 0 0 0 0.591667 0 0 0 0 0.591667 0 0 0 0.25 0"/>
<feBlend mode="normal" in2="shape" result="effect1_innerShadow"/>
</filter>
<filter id="filter2_d" x="19.0091" y="22.8329" width="23.725" height="16.0251" filterUnits="userSpaceOnUse" color-interpolation-filters="sRGB">
<feFlood flood-opacity="0" result="BackgroundImageFix"/>
<feColorMatrix in="SourceAlpha" type="matrix" values="0 0 0 0 0 0 0 0 0 0 0 0 0 0 0 0 0 0 127 0" result="hardAlpha"/>
<feOffset dy="0.869231"/>
<feGaussianBlur stdDeviation="0.869231"/>
<feColorMatrix type="matrix" values="0 0 0 0 0 0 0 0 0 0 0 0 0 0 0 0 0 0 0.5 0"/>
<feBlend mode="normal" in2="BackgroundImageFix" result="effect1_dropShadow"/>
<feBlend mode="normal" in="SourceGraphic" in2="effect1_dropShadow" result="shape"/>
</filter>
</defs>
</svg>
