<svg width="60" height="60" viewBox="0 0 60 60" fill="none" xmlns="http://www.w3.org/2000/svg">
<ellipse cx="30.1286" cy="30.1371" rx="27.1515" ry="27.1515" fill="black" fill-opacity="0.8"/>
<path d="M30.0603 14.627L13.6284 29.17C12.4281 30.2323 11.6608 31.6846 11.4953 33.2072C11.3298 34.7299 11.7797 36.1982 12.7461 37.2892L17.967 43.1416C18.9518 44.2534 21.8146 45.4138 23.3628 45.4098H40.6582C40.6582 43.5469 39.5253 42.1345 37.7032 41.7432C35.1745 41.2 31.94 40.5097 31.94 40.5097L45.4362 28.565C45.8868 28.1662 46.1748 27.621 46.2369 27.0495C46.299 26.4779 46.1302 25.9267 45.7674 25.5172C45.4047 25.1076 44.8778 24.8733 44.3027 24.8657C43.7276 24.8581 43.1514 25.0779 42.7008 25.4766L34.7635 32.5015L33.8553 31.4762L44.6197 21.9493C45.0702 21.5505 45.3583 21.0054 45.4204 20.4338C45.4825 19.8622 45.3136 19.3111 44.9509 18.9015C44.185 18.0368 42.8221 18.031 41.8843 18.861L31.1199 28.3879L30.2008 27.3502L39.8371 18.8217C40.7749 17.9917 40.9342 16.6387 40.1683 15.774C39.8056 15.3644 39.2787 15.1301 38.7036 15.1225C38.1285 15.1149 37.5523 15.3346 37.1017 15.7334L27.4655 24.2619L26.5573 23.2366L32.7957 17.7153C33.2463 17.3165 33.5343 16.7714 33.5964 16.1998C33.6586 15.6283 33.4897 15.0771 33.1269 14.6675C32.7642 14.258 32.2373 14.0237 31.6622 14.0161C31.0871 14.0085 30.5109 14.2282 30.0603 14.627Z" fill="white"/>
<circle cx="30" cy="30" r="28" stroke="white" stroke-width="2.60769"/>
</svg>
