<?xml version="1.0" encoding="utf-8"?>
<!-- Generator: Adobe Illustrator 19.0.0, SVG Export Plug-In . SVG Version: 6.00 Build 0)  -->
<svg version="1.1" id="Layer_1" xmlns="http://www.w3.org/2000/svg" xmlns:xlink="http://www.w3.org/1999/xlink" x="0px" y="0px"
	 viewBox="0 0 612 792" style="enable-background:new 0 0 612 792;" xml:space="preserve">
<g>
	<path fill="#ffffff" d="M583.7,398.2c-0.2,152.7-124.6,276.9-277.2,276.6C154,674.4,30.1,550.3,30.3,397.8c0.2-152.7,124.6-276.9,277.2-276.6
		C460,121.6,583.9,245.7,583.7,398.2z M307,180.8C190.3,177.3,89.2,281.3,89,397.5C88.7,514.7,190.3,616,307,616
		c116.6,0,218-101.2,218-218C525,281.3,423.7,177.2,307,180.8z"/>
	<path fill="#ffffff" d="M283.1,530.3c-47.9-47.6-96.9-96.3-145.5-144.6c16.9-16.8,33.8-33.6,50.5-50.2c31.2,31.1,63.4,63.1,95.2,94.7
		c48.9-48.6,97.1-96.5,144.8-144c17.4,17.3,34.3,34.1,50.3,50C413.5,400.8,348.1,465.8,283.1,530.3z"/>
</g>
</svg>
