<?xml version="1.0" encoding="utf-8"?>
<!-- Generator: Adobe Illustrator 19.0.0, SVG Export Plug-In . SVG Version: 6.00 Build 0)  -->
<svg version="1.1" id="Layer_1" xmlns="http://www.w3.org/2000/svg" xmlns:xlink="http://www.w3.org/1999/xlink" x="0px" y="0px"
	 viewBox="0 0 612 792" style="enable-background:new 0 0 612 792;" xml:space="preserve">

<g>
	<path fill="#ffffff" d="M583.7,397.9c0.1,152.6-124.2,277-276.9,276.9C154.3,674.6,30.4,550.7,30.3,398.1c-0.1-152.6,124.2-277,276.9-276.9
		C459.7,121.4,583.6,245.3,583.7,397.9z M307.2,615.2c116.5,3.4,217.7-100.4,217.8-216.9c0.2-116.9-101.3-218.4-218.2-218.3
		C190.3,180.1,88.9,281.3,89,398.2C89.1,514.7,190.3,618.8,307.2,615.2z"/>
	<path fill="#ffffff" d="M261.5,458.4c0-65.7,0-131.2,0-196.9c30,0,59.7,0,89.9,0c0,65.5,0,131,0,196.9C321.6,458.4,291.8,458.4,261.5,458.4z"/>
	<path fill="#ffffff" d="M351.5,490.6c0,14,0,27.8,0,41.9c-29.9,0-59.7,0-89.9,0c0-13.8,0-27.6,0-41.9C291.4,490.6,321.2,490.6,351.5,490.6z"/>
</g>
</svg>
