<?xml version="1.0" encoding="utf-8"?>
<!-- Generator: Adobe Illustrator 19.0.0, SVG Export Plug-In . SVG Version: 6.00 Build 0)  -->
<svg version="1.1" id="Layer_1" xmlns="http://www.w3.org/2000/svg" xmlns:xlink="http://www.w3.org/1999/xlink" x="0px" y="0px"
	 viewBox="0 0 612 792" style="enable-background:new 0 0 612 792;" xml:space="preserve">
<g>
	<path fill="#ffffff" d="M307.2,674.7c-152.6,0.2-277-124.1-277-276.8c0-152.5,124-276.5,276.5-276.7c152.6-0.2,277,124.1,277,276.8
		C583.7,550.5,459.8,674.6,307.2,674.7z M524.2,398.2c3.6-116.9-100.5-217.9-216.6-218.2C190.4,179.6,89.1,281.3,89,397.8
		C88.9,514.7,190.3,615.9,306.8,616C423.6,616.1,527.7,514.8,524.2,398.2z"/>
	<path fill="#ffffff" d="M303.6,266.8c6.8,8,12.9,14.9,18.8,22.1c23.7,29.1,46.2,59.1,65.2,91.5c4.8,8.1,4.7,8.1-2.5,13.6c-2,1.5-4.1,2.9-5.9,4.6
		c-3.5,3.4-6.6,4.5-10.7,0.8c-1.1-1-3.7-0.5-5.6-0.2c-18.8,3.7-36.1,11.4-53,20.3c-11.3,6-23,11.4-34.4,17.1
		c-4.3,2.1-7.5,1.6-10.8-2.5c-12-15.1-24.2-30.1-36.6-44.9c-2.8-3.4-1.4-5.5,0.6-8.3c15.1-21.5,30.3-43.1,45.3-64.7
		c4.1-5.9,7.8-12,11.6-18.1c2-3.2,4.7-6.2,2-10.5c-0.4-0.6,0.3-2.3,0.9-3.1C293.2,278.9,298,273.4,303.6,266.8z"/>
	<path fill="#ffffff" d="M309.5,519.4c-1.4,1.2-2.7,2.4-4.1,3.4c-14.5,9.8-29,19.5-43.6,29.2c-5,3.3-11.7,0.2-11.6-5.8c0-6.6-2.6-12-5.8-17.2
		c-8.5-13.7-17.4-27.2-26-40.9c-2.2-3.4-4.6-4.7-8.7-3c-6.5,2.8-12.1,1.1-17.3-3.8c-10-9.3-18.8-19.4-24.4-32c-1-2.2-1.1-5.8,0-7.7
		c7.6-13.1,15.2-26.3,24-38.6c2.5-3.6,8.7-4.6,13.3-6.5c0.6-0.3,2.2,1.2,3,2.1c14.2,16.2,28.2,32.4,42.4,48.6
		c4.6,5.2,1.3,11.2,1.6,16.8c0.2,2.6,0.2,5.7,1.6,7.6c5.6,7.9,11.9,15.3,17.5,23.1c4.6,6.4,10.6,9.8,18.4,8.5
		c7.5-1.2,12.3,1.5,15,8.5C305.9,514.3,307.8,516.5,309.5,519.4z"/>
	<path fill="#ffffff" d="M442.2,274.9c-2.1,2.9-3.3,5.6-5.4,7.2c-15,11.4-30.1,22.6-45.2,33.8c-4.2,3.1-8.9,2.6-11.7-0.7c-2.8-3.3-2.4-8,1.5-11.6
		c4.2-3.8,8.6-7.3,13.2-10.7c11.1-8,22.1-16,33.5-23.5c2.2-1.5,6.1-1.8,8.7-0.9C438.9,269.1,440.2,272.3,442.2,274.9z"/>
	<path fill="#ffffff" d="M352.7,282.5c-7-0.2-10.6-5.9-7.9-11.3c4.8-9.8,10-19.5,15.3-29.1c2.4-4.3,7-5.8,10.6-3.8c4.2,2.3,5.2,6.3,3.2,10.3
		c-4.9,10.1-10.1,20.1-15.7,29.9C357.1,280.6,353.9,281.6,352.7,282.5z"/>
	<path fill="#ffffff" d="M413.1,360.7c-3.5-0.1-7.2-1.3-8.2-6.2c-0.9-4.3,1.4-8.1,6.4-9.1c10.1-2,20.2-3.7,30.4-5.1c4.7-0.6,8.5,2.7,9.1,6.7
		c0.7,4.3-1.8,8.4-6.5,9.2C434.3,357.9,424.1,359.2,413.1,360.7z"/>
</g>
</svg>
