<?xml version="1.0" encoding="utf-8"?>
<!-- Generator: Adobe Illustrator 19.0.0, SVG Export Plug-In . SVG Version: 6.00 Build 0)  -->
<svg version="1.1" id="Layer_1" xmlns="http://www.w3.org/2000/svg" xmlns:xlink="http://www.w3.org/1999/xlink" x="0px" y="0px"
	 viewBox="0 0 612 792" style="enable-background:new 0 0 612 792;" xml:space="preserve">
<g>
	<path fill="#ffffff" d="M306.9,121.3c152.6-0.1,277,124.3,276.9,276.9c-0.1,152.5-124.1,276.5-276.6,276.6c-152.6,0.1-277-124.3-276.9-276.9
		C30.4,245.3,154.4,121.4,306.9,121.3z M307.2,615.2c116.4,3.4,217.7-100.4,217.8-217c0.2-116.9-101.4-218.4-218.2-218.3
		C190.3,180.1,88.9,281.3,89,398.2C89.1,514.7,190.3,618.8,307.2,615.2z"/>
	<path fill="#ffffff" d="M255.2,397.8c-23.4-23.4-46.4-46.4-68.7-68.7c17.3-17.3,34.2-34.2,51.3-51.3c22.2,22.2,45.2,45.3,68.8,68.8
		c23.5-23.5,46.5-46.6,69.2-69.3c17,17,33.8,33.8,50.9,50.9C404,351,380.9,374,357.4,397.6c23.5,23.5,46.6,46.5,69.3,69.2
		c-17,17-33.8,33.8-50.9,50.9C353,495,330,471.9,306.4,448.4c-23.5,23.5-46.5,46.6-69.2,69.3c-17-17-33.8-33.8-51-51
		C209,444,232,421,255.2,397.8z"/>
</g>
</svg>
