<svg fill="none" height="82" viewBox="0 0 82 82" width="82" xmlns="http://www.w3.org/2000/svg"><rect fill="#fff" fill-opacity=".02" height="82" rx="8" width="82"/><circle cx="41" cy="41" r="24" stroke="#fff" stroke-width="4"/><path d="m37 49.0887c0-.7841.298-1.4581.8939-2.0222.6061-.5737 1.3334-.8605 2.1819-.8605.8585 0 1.5808.2773 2.1666.8318.596.5546.894 1.2382.894 2.0509 0 .8222-.298 1.5154-.894 2.0795-.5959.5545-1.3182.8318-2.1666.8318-.8485 0-1.5758-.2868-2.1819-.8605-.5959-.5737-.8939-1.2573-.8939-2.0508zm3.3485-19.0887h5.6515l-2.4242 14.5137h-5.6516z" fill="#fff"/></svg>