<svg enable-background="new 0 0 32 32" viewBox="0 0 32 32" xmlns="http://www.w3.org/2000/svg"><path d="m25.75 13.262-9.75-9.094-9.75 9.095v10.569l9.75-9.11 9.75 9.11zm-2 5.964-7.75-7.241-7.75 7.241v-5.095l7.75-7.229 7.75 7.229z"/><path d="m3.854 9.033c.348-.605.744-1.189 1.179-1.736l-1.566-1.244c-.22.277-.431.561-.632.852-.009.013-.018.026-.027.04-.004.005-.008.01-.011.015-.003.005-.007.01-.01.015 0 0 0 .001-.001.001-.009.012-.017.025-.026.038-.004.006-.007.01-.01.015-.003.005-.007.01-.01.015v.001c-.003.003-.005.006-.007.008 0 0 0 .001-.001.001-.001.002-.002.003-.003.005v.001c-.002.003-.004.006-.006.009-.003.005-.006.009-.01.014-.003.005-.006.01-.01.015v.001c-.003.005-.006.009-.01.014v.001c-.01.014-.018.027-.027.04-.003.005-.006.01-.01.015v.001c-.003.005-.006.01-.01.015-.002.003-.004.006-.006.01-.004.005-.007.009-.011.014-.001.002-.002.004-.003.006-.003.003-.004.006-.007.009v.001c-.003.005-.006.01-.01.015-.003.005-.006.01-.01.015v.001c-.006.008-.011.015-.016.024-.004.005-.006.01-.01.015v.001c-.004.005-.007.009-.01.014-.003.006-.006.01-.01.015-.002.003-.004.006-.006.01-.003.005-.006.01-.01.015-.003.005-.006.01-.01.015v.001c-.003.005-.006.01-.009.015-.138.215-.271.433-.398.655z"/><path d="m31.657 12.69c-.001-.006-.003-.012-.004-.018s-.003-.012-.004-.018c0 0 0 0 0-.001-.001-.006-.002-.011-.004-.018v-.001c-.001-.006-.003-.012-.004-.018-.001-.006-.003-.012-.004-.018-.001-.006-.002-.011-.004-.017 0-.001 0-.001 0-.002-.001-.005-.003-.011-.004-.017v-.002c-.001-.006-.002-.011-.004-.017v-.001c-.001-.006-.002-.011-.004-.017v-.001c-.001-.006-.002-.011-.004-.017v-.002c0-.002-.001-.003-.001-.005 0 0 0-.001 0-.002-.001-.003-.001-.006-.002-.009 0-.001 0-.002-.001-.002 0-.002-.001-.003-.001-.005 0-.001 0-.002-.001-.003-.001-.003-.001-.005-.002-.007 0-.001 0-.002-.001-.003 0-.002-.001-.003-.001-.005 0-.001 0-.002-.001-.003-.001-.003-.001-.005-.002-.008 0-.001 0-.002-.001-.003 0-.002-.001-.003-.001-.004s-.001-.003-.001-.004c0-.002-.001-.004-.001-.006 0-.001-.001-.003-.001-.004 0-.002 0-.002-.001-.004 0-.002-.001-.003-.001-.005s-.001-.004-.001-.005-.001-.003-.001-.004-.001-.002-.001-.003c0-.002-.001-.004-.001-.006 0-.001-.001-.002-.001-.004s-.001-.003-.001-.005c0-.001-.001-.002-.001-.003-.001-.002-.001-.005-.002-.007v-.002c-.001-.003-.001-.005-.002-.007 0-.001 0-.002-.001-.003-.001-.003-.001-.005-.002-.008 0-.001 0-.001 0-.001-.001-.002-.001-.005-.002-.007 0-.001 0-.001 0-.002-.001-.003-.001-.005-.002-.008 0 0 0 0 0-.001-.001-.002-.001-.005-.002-.007 0-.001 0-.001 0-.002-.001-.003-.001-.005-.002-.008 0-.001 0 0 0-.001-.001-.003-.001-.005-.002-.008 0-.001 0-.001 0-.002-.001-.005-.003-.011-.004-.016v-.001c-.001-.006-.003-.011-.004-.017v-.001c-.001-.006-.003-.012-.004-.018-.002-.009-.004-.018-.006-.027l-1.944.468c.163.677.276 1.373.336 2.07l1.993-.172c-.012-.141-.026-.281-.042-.421-.001-.006-.001-.012-.002-.019 0-.002 0-.004-.001-.006v-.001c0-.004-.001-.007-.001-.011v-.001c0-.002 0-.004-.001-.006 0-.004-.001-.007-.001-.011 0-.001 0-.001 0-.002 0-.002 0-.003-.001-.005 0-.001 0-.001 0-.002 0-.003-.001-.006-.001-.009 0-.001 0-.002 0-.003 0-.002 0-.003-.001-.005 0-.001 0-.001 0-.001 0-.004-.001-.007-.001-.01 0-.001 0-.002 0-.002 0-.002 0-.003-.001-.005 0-.001 0-.002 0-.003 0-.003-.001-.005-.001-.008 0-.001 0-.002 0-.003s0-.003 0-.004 0-.003-.001-.004c0-.002 0-.004-.001-.006 0-.001 0-.003 0-.004s0-.003 0-.004c0-.002 0-.003-.001-.005 0-.002 0-.004-.001-.006 0-.002 0-.003-.001-.005 0-.001 0-.003 0-.004 0-.002 0-.003-.001-.005 0-.002 0-.003-.001-.005 0-.002 0-.003-.001-.005 0-.001 0-.003 0-.004 0-.002 0-.003-.001-.005 0-.002 0-.004-.001-.006 0-.002 0-.003-.001-.005 0-.001 0-.003 0-.004 0-.002 0-.004-.001-.005 0-.001 0-.002 0-.003 0-.002-.001-.004-.001-.006 0-.001 0-.002 0-.003 0-.002-.001-.004-.001-.006v-.002c0-.002-.001-.005-.001-.008 0-.001 0-.001 0-.002 0-.002-.001-.005-.001-.007v-.002c0-.003-.001-.005-.001-.007 0-.001 0-.002 0-.003 0-.002-.001-.004-.001-.006 0-.001 0-.002 0-.003 0-.002-.001-.005-.001-.007 0-.001 0-.002 0-.003 0-.002-.001-.004-.001-.007v-.001c0-.003-.001-.006-.001-.009 0-.001 0-.001 0-.002 0-.002-.001-.005-.001-.007v-.002c0-.003-.001-.005-.001-.008 0-.001 0-.001 0-.002 0-.002-.001-.005-.001-.007v-.001c0-.003-.001-.005-.001-.008v-.002c0-.002-.001-.005-.001-.007 0-.001 0-.001 0-.002 0-.003-.001-.005-.001-.008 0-.001 0-.002 0-.002 0-.002-.001-.005-.001-.007 0-.001 0 0 0 0 0-.003-.001-.006-.001-.009v-.002c0-.003-.001-.005-.001-.007 0-.001 0-.001 0-.002 0-.003-.001-.006-.001-.008 0-.001 0-.001 0-.002 0-.003-.001-.005-.001-.008v-.001c0-.003-.001-.006-.001-.008v-.002c0-.002-.001-.005-.001-.007v-.001c0-.003-.001-.005-.001-.008v-.001c0-.003-.001-.006-.001-.009 0-.003-.001-.006-.001-.009 0 0 0-.001 0-.002 0-.002-.001-.005-.001-.007v-.001c0-.003-.001-.006-.001-.009v-.002c0-.002-.001-.005-.001-.007v-.001c0-.003-.001-.005-.001-.008 0-.001 0-.001 0-.001 0-.003-.001-.005-.001-.007 0-.001 0-.001 0-.002 0-.003-.001-.005-.001-.008v-.002c0-.002-.001-.005-.001-.007v-.001c0-.003-.001-.005-.001-.008v-.002c0-.002-.001-.005-.001-.007v-.001c0-.003-.001-.006-.001-.009 0-.001 0-.001 0-.001 0-.003-.001-.005-.001-.008v-.001c0-.003-.001-.005-.001-.008v-.002c0-.002-.001-.005-.001-.007 0-.001 0-.001 0-.002 0-.003-.001-.005-.001-.008v-.001c0-.002-.001-.005-.001-.007 0-.001 0-.001 0-.001 0-.003-.001-.006-.001-.008v-.001c0-.002-.001-.005-.001-.007 0 0 0-.001 0-.002 0-.003-.001-.005-.001-.008v-.002c0-.002-.001-.005-.001-.007 0 0 0-.001 0-.002 0-.003-.001-.005-.001-.008v-.001c0-.002-.001-.005-.001-.007v-.002c0-.003-.001-.005-.001-.008 0 0 0-.001 0-.002 0-.002-.001-.004-.001-.007v-.001c0-.003-.001-.006-.001-.008 0-.001 0-.001 0-.002 0-.002-.001-.004-.001-.006v-.002c0-.003-.001-.005-.001-.008 0 0 0-.001 0-.002 0-.002-.001-.004-.001-.006 0 0 0-.002 0-.003 0-.003-.001-.005-.001-.008 0-.001 0-.001 0-.002 0-.002-.001-.004-.001-.006 0-.001 0-.002 0-.003 0-.003-.001-.005-.001-.007 0-.001 0-.002 0-.003 0-.002-.001-.004-.001-.006 0 0 0-.002 0-.003 0-.003-.001-.005-.001-.008 0-.001 0-.002 0-.003 0-.002-.001-.003-.001-.005s0-.002-.001-.003c0-.002-.001-.005-.001-.007 0-.001 0-.002 0-.003 0-.002 0-.003-.001-.005 0-.002 0-.002-.001-.004 0-.002-.001-.005-.001-.007 0-.001 0-.002-.001-.003 0-.002 0-.003-.001-.005 0-.002 0-.002-.001-.004 0-.002-.001-.005-.001-.007 0-.001 0-.003-.001-.004 0-.001 0-.003-.001-.004 0-.002 0-.002-.001-.004 0-.002-.001-.004-.001-.006 0-.001 0-.003-.001-.004 0-.001 0-.003-.001-.004 0-.002 0-.002-.001-.004 0-.002-.001-.005-.001-.007 0-.001 0-.002 0-.003 0-.002-.001-.003-.001-.005s0-.002-.001-.004c0-.002-.001-.004-.001-.005 0-.002-.001-.004-.001-.005s0-.003-.001-.004c0-.002 0-.003-.001-.004 0-.001-.001-.003-.001-.005s-.001-.004-.001-.006c0-.001 0-.003-.001-.004 0-.002 0-.002-.001-.004 0-.001 0-.003-.001-.004 0-.003-.001-.004-.001-.007 0-.001 0-.002 0-.003 0-.002-.001-.003-.001-.005 0-.001 0-.002 0-.002-.001-.003-.001-.005-.001-.008 0-.001 0-.002-.001-.003 0-.002-.001-.003-.001-.005 0-.001 0-.002-.001-.003 0-.003-.001-.005-.001-.008 0-.001 0-.002-.001-.003 0-.002-.001-.003-.001-.005 0-.001 0-.001 0-.001-.001-.004-.001-.007-.002-.01 0-.001 0-.002 0-.003 0-.002 0-.003-.001-.005 0-.001 0-.002-.001-.003 0-.003-.001-.005-.001-.008 0 0 0-.002 0-.003 0-.002-.001-.003-.001-.005 0-.001 0-.001 0-.001-.001-.004-.001-.006-.002-.009 0-.001 0-.002 0-.003 0-.002-.001-.003-.001-.005 0 0 0-.002 0-.003-.001-.003-.001-.005-.001-.008 0 0 0-.002 0-.003 0-.002-.001-.003-.001-.005 0-.001 0-.001 0-.002-.001-.003-.001-.006-.002-.009 0-.001 0-.002 0-.003 0-.002 0-.003-.001-.005 0-.001 0-.002-.001-.003-.001-.003-.001-.005-.001-.008 0 0 0-.001 0-.002 0-.002-.001-.003-.001-.005v-.001c-.001-.004-.001-.008-.002-.011 0-.002-.001-.004-.001-.006v-.001c-.001-.003-.001-.007-.002-.01v-.001c0-.002-.001-.004-.001-.006-.001-.004-.001-.008-.002-.012 0-.002-.001-.004-.001-.006v-.001c-.001-.006-.002-.012-.003-.017v-.001c-.001-.006-.002-.012-.003-.018v-.001c-.001-.006-.002-.012-.003-.018-.001-.006-.002-.012-.003-.018v-.001c-.002-.013-.005-.024-.007-.036-.004-.018-.007-.037-.011-.055-.001-.006-.002-.012-.004-.018-.002-.012-.005-.024-.007-.037-.006-.031-.012-.061-.018-.092-.001-.006-.002-.012-.004-.018-.003-.012-.005-.024-.008-.036v-.001c-.001-.006-.002-.012-.004-.018-.018-.005-.019-.011-.021-.017z"/><path d="m10.012 28.659-.857 1.807c.16.076.321.149.484.22.006.002.011.005.017.007h.001c.005.002.011.005.016.007h.001c.005.002.011.005.016.007l.001.001c.003.001.005.002.008.003 0 0 .001 0 .001.001.002.001.005.002.007.003h.001c.003.001.005.002.008.003.001 0 .001 0 .002.001.002.001.004.002.007.003h.001c.003.001.005.002.008.003 0 0 .002.001.002.001.002.001.004.002.006.003.001 0 .001 0 .002.001.002.001.005.002.007.003 0 0 .001.001.002.001.002.001.004.002.007.003h.001c.003.001.005.002.008.003.001 0 .001.001.002.001.002.001.004.002.007.003h.001c.002.001.005.002.007.003.001 0 .002.001.003.001l.006.003c.001 0 .002.001.003.001.002.001.004.002.005.002s.002.001.003.001c.002.001.004.002.006.002.001.001.002.001.003.001.002.001.003.001.005.002.001.001.002.001.003.001.002.001.004.002.005.002.002.001.003.001.005.002.001 0 .002.001.003.001.001.001.003.001.004.002.002.001.004.002.006.002.001.001.002.001.004.002.001 0 .002.001.003.001.001.001.002.001.004.002l.006.003c.001.001.003.001.004.002.001 0 .002.001.003.001.002.001.005.002.007.003 0 0 .002.001.002.001.001.001.003.001.004.002.001 0 .002.001.003.001.003.001.006.002.009.004 0 0 .001 0 .001.001.002.001.003.001.005.002l.001.001c.003.001.006.003.01.004h.001c.002.001.004.001.005.002.004.002.007.003.011.004h.001c.006.002.011.005.017.007.433.177.874.335 1.325.475h.001c.006.002.011.003.017.005l.002.001c.003.001.006.002.009.003h.001c.003.001.003.001.005.002.001 0 .002.001.003.001.002.001.005.002.007.002.001 0 .002.001.003.001s.003.001.004.001.003.001.004.001c.002.001.004.001.006.002.001 0 .003.001.004.001s.003.001.004.001c.002.001.004.001.007.002.001 0 .002.001.003.001.002 0 .003.001.005.001.001 0 .002.001.003.001.002.001.005.001.007.002.001 0 .001 0 .002.001.002.001.004.001.006.002.001 0 .002.001.002.001.003.001.005.002.008.002h.002c.002.001.005.001.007.002h.001l.575-1.916c-.669-.197-1.327-.45-1.958-.749z"/><path d="m2.337 12.929c.152-.681.358-1.355.611-2.005l-1.864-.725c-.071.182-.138.366-.203.551-.006.018-.012.035-.018.053-.003.009-.006.018-.009.026-.006.018-.012.035-.018.053v.001c-.002.006-.004.011-.006.017v.001c-.002.006-.004.012-.006.017v.001c-.002.006-.004.011-.006.017v.001c-.002.006-.004.011-.006.017v.001c-.002.006-.004.011-.005.017v.001c-.002.006-.004.011-.006.017v.001c-.001.003-.002.005-.003.008-.001.001-.002.004-.003.006v.001c-.001.003-.002.005-.003.008v.001c-.001.002-.002.005-.002.007v.002c-.001.003-.002.005-.003.008v.001c-.001.002-.001.005-.002.007v.001c-.001.003-.002.006-.003.008v.001c-.001.002-.002.005-.002.007v.001c-.001.003-.002.006-.003.008 0 0 0 .001-.001.002-.001.002-.001.005-.002.007v.001c-.001.003-.002.005-.003.008 0 0 0 .001-.001.002-.001.002-.002.005-.002.007v.001c-.001.003-.002.005-.003.008v.001c-.001.003-.002.005-.002.008v.001c-.001.003-.002.006-.003.008 0 .001 0 .001-.001.002-.001.003-.002.005-.002.007v.001c-.001.003-.002.005-.002.007 0 .001 0 .001-.001.002-.001.003-.002.005-.003.008-.001.002-.001.005-.002.007 0 .001 0 .001-.001.002-.001.002-.002.005-.002.007 0 0 0 .001-.001.002-.001.002-.001.004-.002.006 0 .001 0 .002-.001.003-.001.002-.002.005-.002.007 0 .001 0 .001-.001.002-.001.002-.001.004-.002.006 0 0-.001.002-.001.002-.001.003-.002.005-.002.007 0 .001 0 .001-.001.002-.001.002-.001.004-.002.005 0 .001-.001.002-.001.003-.001.002-.001.005-.002.007 0 .001 0 .001-.001.002-.001.002-.001.004-.002.006 0 0-.001.002-.001.002-.001.002-.002.005-.002.007 0 0-.001.002-.001.002-.001.003-.001.004-.002.006 0 .001 0 .001-.001.002-.001.002-.001.005-.002.007 0 .001 0 .002-.001.003-.001.002-.001.004-.002.005v.001c-.001.003-.002.006-.003.008 0 .001-.001.002-.001.003 0 .002-.001.003-.002.005 0 .001-.001.002-.001.003-.001.002-.001.004-.002.006 0 .001-.001.003-.001.003 0 .002-.001.003-.001.004s-.001.003-.002.005c0 .002-.001.003-.001.005 0 .001-.001.003-.001.004s-.001.003-.001.004c-.001.002-.001.004-.002.006 0 .001-.001.003-.001.004s-.001.003-.001.004-.001.002-.001.004c-.001.002-.001.004-.002.006 0 .001-.001.002-.001.003s-.001.003-.001.004-.001.002-.001.003c-.001.002-.001.005-.002.007 0 .001-.001.002-.001.003s-.001.003-.001.004-.001.002-.001.003c-.001.002-.001.005-.002.007 0 .001-.001.002-.001.003s-.001.003-.001.004-.001.003-.001.004c-.001.002-.001.004-.002.006 0 0-.001.002-.001.003 0 .002-.001.003-.001.005-.001.003-.002.007-.003.01 0 .001-.001.002-.001.003s-.001.003-.001.005c-.001.002-.001.004-.002.006 0 .001-.001.003-.001.005 0 .001-.001.002-.001.003-.001.003-.002.006-.003.009v.001c0 .002-.001.003-.001.005 0 .001 0 .001-.001.002-.002.005-.003.011-.005.016v.001c-.001.004-.002.007-.003.011-.001.002-.001.004-.002.006v.001c-.002.006-.003.011-.005.017-.001.004-.002.007-.003.011-.001.002-.001.004-.002.006-.003.01-.006.019-.008.029-.09.311-.17.625-.242.944z"/><path d="m20.246 29.345c-.664.211-1.35.373-2.04.482l.312 1.975c.087-.014.174-.028.261-.044l.018-.003h.001c.006-.001.012-.002.017-.003h.001c.006-.001.012-.002.017-.003h.002c.003 0 .005-.001.008-.001.003 0 .005-.001.007-.001h.003c.003 0 .005-.001.008-.001h.002c.002 0 .004-.001.006-.001h.003c.003 0 .005-.001.008-.001h.003c.002 0 .003-.001.005-.001s.002 0 .004-.001c.002 0 .005-.001.007-.001.001 0 .002 0 .003-.001.002 0 .003-.001.005-.001s.002 0 .004-.001c.002 0 .004-.001.006-.001s.003-.001.005-.001c.001 0 .002 0 .004-.001.002 0 .003 0 .004-.001.001 0 .003 0 .004-.001.003 0 .005-.001.007-.001h.003c.005-.001.011-.002.016-.003h.001c.006-.001.012-.002.017-.003h.002c.006-.001.011-.002.017-.003h.001c.006-.001.011-.002.017-.003h.001c.006-.001.011-.002.018-.003.619-.119 1.225-.273 1.817-.461z"/><path d="m24.823 29.35c.005-.003.01-.007.015-.01h.001c.005-.003.01-.007.015-.01.003-.002.005-.003.008-.005.002-.002.005-.003.007-.005.002-.002.005-.003.007-.005 0 0 0 0 .001-.001.002-.002.005-.003.007-.005.002-.002.005-.003.007-.005 0 0 .001-.001.002-.001.002-.001.004-.003.007-.004.002-.002.005-.003.007-.005 0 0 .001-.001.001-.001.002-.002.005-.003.007-.005.002-.001.004-.003.007-.004 0 0 .001-.001.002-.001.002-.002.005-.003.007-.005h.001c.003-.002.005-.003.007-.005 0 0 .001 0 .001-.001.002-.002.005-.003.007-.005 0 0 .001 0 .001-.001.002-.001.004-.003.006-.004.001-.001.001 0 .002-.001.002-.001.004-.003.007-.004 0 0 .001-.001.002-.001.002-.001.004-.003.006-.004 0 0 .001 0 .001-.001.002-.001.004-.003.006-.004.001-.001.001-.001.002-.001.002-.001.004-.003.006-.004 0 0 .002-.001.002-.001.002-.001.004-.002.005-.003s.002-.001.003-.002c.002-.001.003-.002.005-.003.001-.001.003-.002.004-.002.001-.001.002-.002.004-.002.001-.001.002-.001.003-.002.002-.001.003-.002.005-.004.001-.001.002-.002.004-.002.001-.001.002-.001.003-.002s.002-.001.003-.002c.002-.001.003-.002.005-.004.001-.001.002-.002.004-.003.001-.001.002-.001.003-.002.002-.001.004-.003.006-.004.001 0 .002-.001.002-.002.002-.001.003-.002.004-.003 0 0 .001-.001.001-.001.003-.002.006-.004.008-.006 0 0 .001-.001.001-.001.002-.001.003-.002.004-.003h.001c.003-.002.006-.004.009-.006.005-.003.01-.007.014-.01.005-.003.009-.007.014-.01.012-.008.023-.016.035-.024l-1.144-1.641c-.573.4-1.181.759-1.806 1.068l.886 1.793c.585-.289 1.15-.613 1.693-.969.019-.015.038-.027.056-.039z"/><path d="m16.007 32h.002.005.003.005.002.007.001.007.002.006.001.007.001.072l-.016-2h-.112c-.664 0-1.332-.047-1.984-.139l-.28 1.98c.3.043.603.077.909.102h.001c.015.001.029.002.044.004.009.001.017.001.026.002.006 0 .012.001.017.001h.001c.009.001.017.001.026.002.006 0 .011.001.017.001.003 0 .006 0 .008.001h.001c.006 0 .011.001.017.001h.001c.005 0 .011.001.017.001h.001c.003 0 .005 0 .008.001h.001c.003 0 .006 0 .008.001.003 0 .005 0 .008.001h.002.007c.003 0 .006 0 .009.001h.001.007.001c.006 0 .011.001.017.001h.002.007.001c.003 0 .005 0 .008.001h.002.006.002c.005 0 .011.001.016.001h.002.007.001.008.001.007.001c.006 0 .011.001.017.001h.001.007.002.008.001.007.002.007c.003 0 .006 0 .008.001h.001.007.001.009.001.007.002.007.001.008.002.007.002.008.008.002.007.002.008.002.006.002.008.001.007.003.006.002.008.001.007.002c.005 0 .011.001.016.001h.002.007.002.008.001.006.003.007.009.001.007.001.008.001.007.003.006.002.008.002.006.003.008.002.006.003.006.002.008.002.006.002.008.008.002.006.002.008.002.006.003.008.008.003.006.003.008.002.006.003.005.003.007.003.006.003.008.001.007.003.006.002.008.003.006.002.008.002.007.003.006.002.008.002.006.002.008.002.006.003.006.002.008.002.006.002.016.002.007.001.009.001.006.003.007.002.008.003.006.002.008.001.007.003.006.002.008.002.006.002.008.002.006.003.006.002.008.003.005.003.008.001.007.003.006.002.008.002.006.002.016.002.007.002.008.002.007.002.007.009.002.007.002.008.001.007.003.007.009.002.007.002.008.001.007.002.006.002.008.001.007.002.008.008.003.006.002.008.002.006.002.008c-.007.034-.004.034-.002.034z"/><path d="m.731 20.795.006.018v.001c.002.006.004.011.005.017v.001c.002.006.004.012.005.017.002.006.004.012.006.017v.001c.002.006.004.012.006.017.002.006.004.012.006.018.001.003.002.006.003.009s.002.006.003.009c.001.003.002.006.003.009.001.003.002.005.003.008v.001c.001.003.002.006.003.009.002.006.004.012.006.017v.001c.001.003.002.005.003.008.001.003.002.005.003.008v.001c.001.007.003.012.005.018 0 0 0 .001.001.002.001.003.002.005.003.008.001.003.002.005.003.008v.001c.002.005.004.011.005.016v.001c.001.003.002.006.003.008v.001c.001.002.002.004.002.007 0 0 0 .001.001.002.001.003.002.005.003.008 0 .001 0 .001.001.002.001.002.001.004.002.006 0 0 .001.002.001.003.001.002.002.005.002.007 0 .001 0 .001.001.002.001.002.001.004.002.006 0 0 .001.002.001.002.001.003.002.005.003.008 0 .001 0 .001.001.002.001.002.001.004.002.006 0 0 0 .001.001.002.001.002.002.005.002.007 0 0 .001.002.001.003.001.002.001.004.002.006 0 .001 0 .001.001.002.001.003.002.005.003.007l.001.002c.001.002.001.004.002.006 0 .001 0 .001.001.002.001.002.002.005.002.007 0 .001.001.002.001.003.001.002.001.003.002.005 0 .001.001.002.001.003.001.002.001.004.002.006 0 .001.001.002.001.003.001.002.001.003.002.005 0 .001.001.003.001.003.001.002.001.004.002.005 0 .001.001.003.001.004.001.001.001.003.002.004.001.002.001.003.002.005 0 .001.001.003.001.004s.001.003.001.004.001.003.001.004c.001.002.001.004.002.006 0 .001.001.002.001.003s.001.003.001.004.001.002.001.004c.001.002.002.004.002.007 0 0 .001.002.001.003s.001.003.002.005c0 .001 0 .001.001.002.001.003.002.006.003.009 0 .001 0 .001.001.002 0 .001.001.003.002.005.001.003.002.007.003.01 0 0 .001.002.001.003.002.005.004.01.005.015v.001c.002.005.004.011.006.016 0 .001 0 .001.001.002.001.003.002.007.003.01v.001c.001.002.001.004.002.006v.001c.002.006.004.011.006.017.069.195.142.389.218.581l1.858-.74c-.258-.648-.469-1.321-.627-2l-1.948.452c.091.393.196.781.316 1.162z"/><path d="m3.91 23.064-1.726 1.011c.253.433.527.852.818 1.258.009.013.018.025.027.038.004.005.007.01.011.015v.001c.004.005.007.01.011.015.004.005.007.01.011.015.002.002.004.005.005.007v.001c.002.002.003.005.005.007v.001c.002.002.003.005.005.007v.001c.002.003.003.005.005.007v.001c.002.002.003.004.005.007.001.001.001.001.001.002.002.002.003.004.005.007.002.002.003.004.005.006 0 0 .001.001.001.002.002.002.003.004.005.007.002.002.003.004.005.006 0 0 .001.001.001.002.002.002.003.004.005.007 0 0 .001.001.001.001.002.002.003.004.005.006.001.001 0 .001 0 .001.002.003.004.005.005.007 0 0 .001.002.001.002.001.002.002.003.004.005 0 0 .001.002.002.002.001.002.003.004.004.006.001.001.001.002.002.003.001.002.002.003.004.005.001.001.002.002.002.003.001.002.002.003.003.005.001.001.001.002.002.002.001.002.003.004.004.005s.002.002.002.003c.001.001.002.002.003.004s.001.002.002.003c.001.002.003.004.004.005s.001.002.002.003.002.002.003.004c.001.001.001.002.002.003.001.002.003.004.004.005s.002.002.003.003.001.002.002.003c.001.002.003.004.004.005 0 0 .001.002.002.003s.002.002.003.004c.001.001.001.002.002.003.002.002.003.004.005.006.003-.004.003-.003.004-.002s.002.003.003.004.001.002.002.003c.001.002.003.004.004.006.001.001.001.002.002.003s.002.003.003.004c.001.002.002.003.004.005.001.001.002.003.003.004 0 .001.001.001.002.002.002.002.004.005.006.008 0 0 0 .001.001.001.001.001.002.003.003.004 0 .001.001.001.001.002.002.002.004.005.005.007 0 0 .001.001.001.001.002.002.002.003.004.005v.001c.002.003.005.006.006.009 0 0 0 .001.001.001.004.005.007.009.011.014.093.123.189.244.286.364l1.556-1.257c-.441-.547-.842-1.128-1.195-1.73z"/><path d="m28.202 22.869 1.742.983c.001-.001.001-.002.002-.003 0 0 0-.001.001-.001.002-.003.003-.006.005-.009 0 0 .001-.001.001-.001.001-.002.002-.003.003-.005l.001-.001c.001-.003.003-.006.005-.009 0 0 0-.001.001-.001.001-.002.002-.003.003-.005 0-.001.001-.001.001-.002.002-.003.003-.005.004-.007 0 0 .001-.002.001-.002.001-.001.002-.003.002-.004.001-.001.001-.002.002-.003.001-.002.002-.004.003-.006 0-.001.001-.002.002-.003s.002-.003.002-.004.001-.003.002-.004c.001-.002.002-.003.003-.005.001-.001.001-.002.002-.003.001-.002.002-.003.003-.005s.002-.003.003-.005c.001-.001.001-.002.002-.003s.001-.002.002-.004c.001-.001.001-.003.002-.004.001-.002.002-.003.003-.005.001-.001.001-.002.002-.003s.001-.002.002-.003c.001-.002.002-.004.003-.005s.001-.003.002-.004c0-.001.001-.002.002-.003s.002-.003.002-.004c.001-.002.002-.003.003-.005.001-.001.002-.003.002-.004s.001-.002.002-.003c.001-.002.002-.004.004-.006 0-.001.001-.002.001-.002.001-.002.002-.003.003-.005 0-.001.001-.002.001-.003.001-.002.002-.004.004-.006 0-.001.001-.002.001-.002.001-.002.002-.003.003-.005 0-.001.001-.001.001-.002.001-.002.002-.004.004-.007 0 0 .001-.002.001-.002.001-.002.002-.004.003-.006 0-.001.001-.001.001-.002.001-.002.002-.004.004-.007 0-.001.001-.002.001-.002.001-.002.002-.004.004-.007.001-.003.003-.005.004-.007 0 0 .001-.001.001-.002.001-.003.003-.005.004-.007.001-.003.003-.005.004-.007 0 0 .001-.001.001-.001.001-.002.003-.005.004-.007 0 0 0 0 0-.001.001-.002.003-.005.004-.007 0 0 0-.001.001-.001.001-.002.003-.005.004-.007l.001-.001c.001-.002.002-.004.003-.006 0 0 .001-.001.001-.002.001-.002.003-.005.004-.007l.001-.001c.001-.002.002-.005.004-.007v-.001c.001-.002.003-.005.004-.007 0 0 .001-.001.001-.002.001-.002.002-.004.004-.007.002-.003.003-.005.004-.008l.001-.001c.003-.005.005-.01.008-.015 0 0 .001-.001.001-.002.001-.002.003-.005.004-.007 0 0 0-.001.001-.001.001-.002.002-.004.003-.007 0 0 .001-.001.001-.001.001-.002.003-.005.004-.007l.001-.001c.001-.002.003-.005.004-.007v-.001c.001-.003.003-.005.004-.008 0 0 0-.001.001-.001.001-.002.002-.005.004-.007v-.001c.001-.003.003-.005.004-.008l.001-.001c.001-.002.003-.005.004-.007.001-.003.003-.005.004-.008v-.001c.003-.006.006-.011.008-.016v-.001c.003-.005.005-.01.008-.016v-.001c.003-.006.006-.011.009-.016.001-.003.003-.005.004-.008.001-.003.003-.005.004-.008.001-.003.003-.005.004-.008 0 0 0 0 0-.001.003-.005.006-.011.008-.016.003-.005.006-.011.008-.016v-.001c.003-.005.005-.011.008-.016 0 0 0 0 0-.001.001-.003.003-.005.004-.008.001-.003.003-.005.004-.008.001-.003.003-.005.004-.008.003-.005.006-.011.008-.016.003-.005.006-.011.008-.016.003-.005.006-.011.008-.016.003-.005.006-.011.008-.016.013-.025.025-.05.038-.075.018-.036.036-.072.054-.109v-.001c.221-.448.421-.907.599-1.378l-1.87-.71c-.246.646-.546 1.285-.889 1.893z"/><path d="m18.483.192c-.006-.001-.012-.002-.018-.003h-.001c-.006-.001-.012-.002-.018-.003h-.001c-.006-.001-.011-.002-.017-.003-.001 0-.001 0-.002 0-.003 0-.005-.001-.008-.001h-.001c-.003 0-.005-.001-.008-.001-.001 0-.001 0-.002 0-.002 0-.005-.001-.007-.001-.001 0-.001 0-.002 0-.002 0-.004-.001-.006-.001-.001 0-.002 0-.003 0-.002 0-.004-.001-.006-.001s-.002 0-.004-.001c-.002 0-.004-.001-.005-.001s-.003 0-.004-.001c-.001 0-.003 0-.004-.001-.002 0-.004-.001-.006-.001-.001 0-.003 0-.004-.001-.001 0-.003 0-.004-.001-.001 0-.002 0-.004-.001-.002 0-.005-.001-.007-.001-.001 0-.002 0-.004-.001-.002 0-.003 0-.005-.001 0 0-.001 0-.002 0-.004 0-.007-.001-.01-.001h-.001c-.061-.009-.121-.017-.182-.025l-.265 1.982c.692.092 1.383.238 2.051.433l.559-1.92c-.65-.189-1.317-.338-1.999-.444z"/><path d="m9.04 1.589.871 1.8c.628-.304 1.284-.562 1.95-.768l-.59-1.911c-.77.238-1.515.533-2.231.879z"/><path d="m15.525.007c-.003 0-.006 0-.009 0-.003 0-.006 0-.008 0-.001 0-.001 0-.002 0-.006 0-.012 0-.017.001h-.001c-.006 0-.012 0-.018.001h-.002c-.003 0-.005 0-.008 0-.001 0 0 0 0 0-.003 0-.006 0-.009 0h-.001c-.003 0-.006 0-.008 0h-.001c-.003 0-.006 0-.009 0h-.001c-.003 0-.005 0-.008 0h-.001c-.003 0-.006 0-.009 0h-.001c-.003 0-.005 0-.008 0h-.001c-.003 0-.006 0-.009 0h-.001c-.003 0-.006 0-.008 0h-.001c-.006 0-.012 0-.018.001h-.001c-.006 0-.012 0-.018.001h-.001c-.006 0-.012 0-.018.001h-.001c-.006 0-.012 0-.018.001-.001 0 0 0 0 0-.007 0-.013.001-.019.001-.016.001-.031.001-.047.002-.552.026-1.097.08-1.634.16l.296 1.978c.688-.102 1.393-.154 2.095-.154v-2c-.003 0-.006 0-.009 0-.001 0-.001 0-.002 0-.003 0-.005 0-.008 0-.001 0-.001 0-.001 0-.003 0-.006 0-.009 0h-.002c-.002 0-.005 0-.007 0h-.001c-.003 0-.006 0-.008 0 0 0-.001 0-.002 0-.003 0-.005 0-.007 0-.001 0-.001 0-.002 0-.003 0-.006 0-.008 0 0 0-.001 0-.002 0-.002 0-.005 0-.007 0 0 0-.001 0-.002 0-.003 0-.006 0-.008 0-.001 0-.001 0-.002 0-.002 0-.005 0-.007 0-.001 0-.001 0-.002 0-.003 0-.006 0-.009 0h-.001c-.002 0-.005 0-.008 0-.001 0-.001 0-.002 0-.003 0-.006 0-.008 0-.001 0-.001 0-.001 0-.003 0-.005 0-.008 0-.001 0-.001 0-.001 0-.003 0-.006 0-.009 0h-.001c-.003 0-.005 0-.008 0-.001 0-.001 0-.002 0-.003 0-.006 0-.008 0-.003 0-.005 0-.008 0-.001 0-.001 0-.002 0-.006 0-.011 0-.017 0-.001 0-.002 0-.002 0-.003 0-.006 0-.009 0-.001 0 0 0 0 0-.003 0-.006 0-.009 0h-.001c-.003 0-.006 0-.008 0h-.001c-.003 0-.006 0-.009 0h-.002c-.003 0-.005 0-.008 0h-.001c-.003 0-.006 0-.008 0h-.002c-.002 0-.005 0-.007 0h-.001c-.003 0-.006 0-.008 0-.001 0-.001 0-.002 0-.002 0-.005 0-.007 0-.001 0-.001 0-.001 0-.003 0-.006 0-.009 0h-.002c-.002 0-.005 0-.007 0-.001 0-.002 0-.002 0-.003 0-.005 0-.008 0h-.001c-.002 0-.005 0-.007 0h-.002c-.003 0-.006 0-.009 0-.003 0-.005 0-.008 0-.001 0-.001 0-.002 0-.003 0-.005 0-.008 0h-.001c-.003 0-.006 0-.008 0h-.002c-.003 0-.005 0-.008 0-.001 0 0 0 0 0-.003 0-.006 0-.009 0-.001 0-.002 0-.002 0-.002 0-.005 0-.007 0h-.002c-.003 0-.006 0-.008 0h-.002c-.003 0-.005 0-.008 0h-.001c-.003 0-.006 0-.009 0h-.001c-.003 0-.005 0-.008 0h-.001c-.003 0-.006 0-.009 0h-.001c-.003 0-.005 0-.008 0h-.001c-.003 0-.006 0-.009 0h-.001c-.002 0-.005 0-.007 0-.001 0-.002 0-.002 0-.003 0-.006 0-.008 0-.001 0 0 0 0 0-.003 0-.006 0-.009 0-.002.007-.003.007-.003.007z"/><path d="m29.687 18.961 1.955.421c.166-.772.277-1.566.327-2.375l-1.996-.124c-.044.698-.14 1.398-.286 2.078z"/><path d="m6.541 26.321-1.352 1.474c.043.039.085.078.128.116.004.004.009.008.013.011.001.001.001.001.001.001.002.002.005.004.006.006.001.001.002.001.002.002.001.001.002.002.003.003s.003.002.004.003l.003.002c.001.001.003.003.004.004s.002.002.003.002c.002.002.004.003.006.005 0 0 .001.001.001.001.002.002.004.003.005.005l.001.001c.002.002.004.004.006.006.492.437 1.012.845 1.555 1.219.005.003.01.007.015.01 0 0 .001.001.001.001.002.002.005.003.007.005l.001.001c.002.001.004.003.006.004l.001.001c.002.002.005.003.007.005l.001.001c.002.001.004.003.006.004 0 0 .001.001.001.001.002.001.004.003.006.004.001.001.002.001.003.002.002.001.003.002.005.003.001.001.003.002.004.003.004.002.005.003.006.004s.002.002.004.002c.001.001.002.001.003.002.002.001.004.003.006.004.001.001.002.001.003.002s.002.002.004.003c.003.002.006.004.009.006.001 0 .001.001.001.001.005.003.01.007.014.01.01.006.018.012.028.019l1.117-1.659c-.578-.39-1.133-.827-1.648-1.3z"/><path d="m6.644 3.019c-.005.004-.01.008-.015.011 0 0-.001.001-.001.001-.005.004-.01.007-.014.01 0 0-.001.001-.001.001-.003.002-.005.003-.007.005-.003.002-.005.003-.007.005l-.002.001c-.002.002-.004.003-.006.005-.001 0-.001 0-.002.001-.002.001-.003.002-.005.004-.001 0-.001 0-.002.001-.002.001-.004.003-.006.004l-.002.002c-.002.001-.003.002-.005.003 0 0-.002.002-.003.002-.001.002-.003.003-.005.004-.001.001-.002.002-.002.002-.002.001-.003.002-.005.003-.001.001-.002.002-.004.003-.001.001-.002.002-.003.003s-.003.002-.003.002c-.002.001-.003.002-.005.003-.001.001-.003.002-.004.004-.001 0-.002.001-.003.002s-.002.001-.004.002c-.001.002-.003.003-.005.004-.001.001-.002.002-.003.003-.001 0-.002.001-.003.002-.002.001-.004.003-.006.004-.001.001-.001.001-.002.002s-.003.002-.004.003c-.001 0-.002.001-.003.002-.002.001-.004.003-.006.004-.001 0-.001.001-.002.001-.002.002-.003.003-.004.004 0 0 0 0-.001 0-.003.003-.006.005-.009.007-.004.003-.009.007-.014.01 0 0-.001.001-.001.001-.005.004-.009.007-.014.01h-.001c-.005.004-.009.007-.014.01-.003.004-.005.006-.008.008 0 0-.001.001-.001.001-.005.004-.01.007-.014.011-.005.003-.01.007-.015.01-.195.147-.387.298-.575.453-.022.019-.044.036-.065.054-.005.004-.009.008-.014.012-.005.004-.009.007-.013.011 0 0-.001.001-.001.001-.005.004-.009.007-.013.011-.004.003-.006.005-.01.007-.001.002-.003.003-.004.004-.003.003-.006.005-.009.008l-.001.001c-.004.003-.008.007-.013.01 0 0-.001.001-.001.001-.003.003-.006.005-.008.008-.002.001-.003.002-.004.003-.001 0-.001.001-.002.002-.002.001-.005.004-.007.006 0 0-.001.001-.001.001-.002.001-.003.002-.005.003v.001c-.003.002-.005.004-.008.006 0 0-.001.001-.001.001-.002.002-.003.002-.004.004-.001 0-.001.001-.001.001-.003.002-.005.004-.008.006l-.001.001c-.002.002-.005.004-.007.006 0 0-.001.001-.002.002-.001 0-.002.001-.003.002s-.002.002-.003.002c-.002.002-.003.004-.005.005-.001.001-.002.002-.003.002-.001.001-.002.002-.003.003s-.002.002-.003.002c-.002.002-.003.003-.006.005 0 0-.001.001-.002.002-.001.002-.002.002-.003.003s-.002.002-.002.002c-.003.002-.004.003-.006.005-.001.001-.002.002-.003.002-.001.001-.002.002-.003.003s-.002.002-.003.002c-.001.002-.003.003-.005.005-.001.001-.002.002-.003.003-.001 0-.002.001-.003.002-.002.002-.003.003-.005.004-.001.001-.002.002-.003.003s-.002.002-.003.003-.003.002-.004.003-.002.002-.004.003c-.001.001-.002.002-.003.003s-.002.002-.003.003c-.002.001-.002.002-.004.003-.001.001-.003.003-.004.004-.001 0-.002.001-.003.002s-.003.003-.005.005c-.001 0-.001.001-.002.001-.001.001-.003.003-.004.004s-.001.001-.002.002c-.002.001-.004.003-.006.004 0 0-.002.002-.003.002 0 .002-.002.003-.003.004-.001 0-.002.002-.003.002-.001.002-.003.003-.005.005 0 0-.002.001-.002.001-.001.002-.003.003-.004.004s-.003.002-.004.003c-.001.002-.002.003-.003.004-.001 0-.002.001-.003.002-.002.001-.003.003-.005.004 0 .001-.001.002-.002.002-.002.002-.003.003-.005.004 0 .001-.001.001-.002.002-.002.002-.004.003-.005.005-.001.001-.001.001-.002.002-.002.001-.003.002-.005.003 0 0-.001.001-.002.002-.002.002-.003.003-.005.005-.001.001-.002.001-.002.002-.002.001-.003.002-.005.004 0 0-.001.001-.002.001-.001.002-.003.004-.005.005-.001.001-.002.002-.002.002-.002.002-.004.003-.005.005 0 0-.001.001-.001.001-.002.001-.004.003-.006.004-.001.001-.001.002-.002.002-.002.002-.004.004-.006.005 0 0-.001.001-.001.001-.002.002-.003.003-.005.005 0 0-.001.001-.002.002-.002.001-.004.003-.006.005l-.001.001c-.002.001-.004.003-.005.005 0 0-.001.001-.001.001-.003.001-.005.003-.007.005 0 0-.001.001-.002.001-.001.002-.002.003-.004.005 0 0-.001.001-.001.001-.003.002-.005.004-.007.005l-.001.002c-.002.001-.004.003-.006.005l-.001.001c-.002.001-.003.003-.005.005 0 0-.001.001-.001.001-.003.002-.005.004-.007.005 0 0-.001.001-.001.001-.002.002-.004.004-.005.005 0 0-.001.001-.002.001-.002.002-.004.004-.006.006l-.001.001c-.002.002-.003.003-.005.004-.001.001-.001.001-.001.002-.002.001-.004.003-.006.005-.001.001-.001.001-.002.002-.002.001-.004.003-.005.004h-.001c-.002.003-.004.005-.006.006-.001.001-.001.001-.002.002-.002.002-.004.004-.006.005-.002.002-.004.004-.006.006 0 0-.001.001-.002.001-.002.002-.004.004-.006.006 0 0-.001 0-.001.001-.001.001-.003.003-.005.005l-.001.001c-.002.001-.004.003-.006.005 0 0-.001.001-.001.001-.002.002-.004.003-.006.005 0 0-.001.001-.001.001-.002.002-.004.004-.006.006l-.001.001c-.005.004-.009.008-.013.011l-.001.001c-.002.002-.004.004-.006.006 0 0 0 0-.001.001-.002.001-.004.003-.006.005 0 0-.001.001-.001.001-.002.002-.004.003-.006.005 0 0-.001.001-.001.001-.002.002-.004.004-.005.005s0 0-.001.001c-.003.002-.004.004-.006.006 0 0-.001.001-.001.001-.003.002-.005.003-.006.005-.003.003-.005.004-.007.006-.001.001-.001.001-.002.002-.002.002-.004.003-.006.005-.002.002-.004.004-.006.006l-.001.001c-.002.002-.004.004-.006.006-.003.002-.005.004-.007.006l-.001.001c-.002.002-.004.003-.006.005 0 0-.001.001-.002.001-.001.002-.003.004-.004.005s-.001.001-.002.001c-.002.002-.003.004-.005.006-.001 0-.001.001-.002.001-.002.002-.004.004-.006.005-.002.003-.004.004-.006.006-.001.001-.001.001-.002.002-.002.002-.004.003-.005.005 0 0-.001.001-.001.001-.002.002-.004.003-.006.005 0 0-.001.001-.002.001-.001.002-.003.004-.005.006-.001 0-.001.001-.002.001-.001.002-.003.003-.004.004s-.001.001-.002.002c-.002.002-.004.003-.005.005l-.001.001 1.364 1.463c.511-.476 1.062-.918 1.638-1.313l-1.131-1.65c-.108.075-.216.151-.322.227z"/><path d="m25.624 26.168 1.375 1.452c.051-.048.102-.097.152-.146.009-.008.017-.016.025-.025l.001-.001c.003-.002.005-.005.008-.007.004-.004.008-.008.012-.012.004-.004.008-.008.012-.012.004-.004.008-.008.013-.012 0 0 0 0 .001-.001l.008-.008.004-.004s.001-.001.001-.001l.006-.006.002-.002.003-.003c.001 0 .001-.001.002-.002l.006-.006.002-.002c.004-.003.008-.008.011-.011l.002-.002.005-.005.003-.003.003-.003.003-.003.004-.004.003-.003.003-.003.003-.003.004-.004.003-.003.003-.003.005-.005.003-.003.003-.003.003-.003.004-.004.003-.003.003-.003.004-.004.004-.004c.001-.001.002-.002.002-.002l.004-.004c.001-.001.002-.002.002-.002l.004-.004.002-.002.005-.005.002-.002.004-.004.002-.002.005-.005c.001-.001.002-.002.002-.002l.004-.004c.001-.001.001-.001.001-.002l.005-.005.002-.002.005-.005.001-.001.005-.005c.001-.001.001-.001.001-.001.002-.003.004-.004.006-.006 0 0 .001-.001.001-.001l.005-.005.002-.002c.002-.002.004-.004.005-.006.001-.001.001-.001.001-.001.002-.002.003-.003.005-.005.001-.001.001-.001.002-.002.002-.002.004-.004.006-.006 0 0 .001-.001.001-.001.002-.002.004-.004.006-.006.002-.002.004-.004.006-.006l.001-.001c.004-.004.008-.008.012-.013 0 0 0 0 .001-.001.004-.004.008-.009.013-.013l.006-.006c.004-.004.008-.009.013-.013.005-.005.009-.009.013-.014.391-.404.76-.829 1.107-1.273l-1.576-1.232c-.426.549-.902 1.071-1.409 1.552z"/><path d="m0 16.031v.009.002.007.002.009.001.008.002.008.002.008.002.008.002.008.001.009.003.008.001.008.003.008.001.007.003.008.002.007.002.008.003.006.003.008.003.006.002.008.003.006.005.005.004.005.006.005.004.005.006.004.004.005.007.004.005.004.008.003.011.006.002.011.001.006.002.011.001.006.001.012.001.018.002.018c.007.279.022.556.043.831l1.994-.156c-.022-.367-.037-.74-.037-1.109 0-.331.012-.666.035-.995l-1.995-.14c-.021.293-.033.588-.038.885 0 .018 0 .036-.001.053v.018.001.008.017.001.008.009.001.007.002.017.002.007.001.008.001.007.002.007.001.008.002.006.001.008.001.006.003.006.002.008.002.006.002c-.001.006-.001.008-.001.011v.009.002.009.001.008z"/><path d="m23.828 2.042c-.011-.006-.021-.012-.032-.018-.003-.002-.006-.003-.009-.005 0 0-.001-.001-.001-.001-.005-.003-.01-.005-.015-.008l-.001-.001c-.005-.003-.009-.005-.014-.008-.001 0-.002-.001-.003-.001-.003-.001-.005-.003-.008-.004l-.001-.001c-.002-.001-.003-.002-.005-.003h-.001c-.003-.002-.006-.003-.009-.005-.001 0-.001-.001-.002-.001-.002-.001-.002-.001-.004-.002-.001-.001-.002-.001-.003-.002-.002-.001-.004-.002-.006-.003-.001-.001-.002-.001-.004-.002-.001-.001-.002-.001-.004-.002-.001-.001-.003-.001-.004-.002-.002-.001-.004-.002-.006-.003-.001-.001-.002-.001-.003-.002s-.002-.001-.004-.002-.004-.002-.006-.003c-.001-.001-.002-.001-.004-.002.001-.001 0-.001-.001-.002-.002-.001-.003-.002-.005-.003s-.003-.002-.005-.003c-.001-.001-.002-.001-.004-.002-.001-.001-.002-.001-.003-.002s-.003-.002-.005-.003-.003-.002-.004-.002-.002-.001-.003-.002c-.002-.001-.004-.002-.005-.003-.001 0-.002-.001-.003-.002-.002-.001-.003-.002-.005-.003-.001 0-.002-.001-.003-.001-.002-.001-.004-.002-.007-.004 0 0-.001-.001-.002-.001-.002-.001-.004-.002-.005-.003l-.003-.001c-.002-.001-.004-.002-.007-.003-.001 0-.001-.001-.002-.001-.002-.001-.003-.002-.005-.003-.001 0-.002-.001-.003-.001-.002-.001-.004-.002-.006-.003 0 0-.002-.001-.002-.001-.002-.001-.004-.002-.006-.003 0 0-.001-.001-.001-.001-.002-.001-.005-.003-.007-.004-.001 0-.001-.001-.002-.001-.002-.001-.004-.002-.005-.003-.001 0-.002-.001-.003-.002-.002-.001-.003-.002-.005-.003-.001 0-.002-.001-.003-.001-.002-.001-.004-.002-.006-.003-.001 0-.002-.001-.003-.001-.002-.001-.003-.002-.005-.003-.001 0-.002-.001-.003-.001-.002-.001-.004-.002-.006-.003-.001 0-.002-.001-.003-.002s-.003-.001-.004-.002c-.001 0-.002-.001-.003-.002-.002-.001-.004-.002-.006-.003-.001 0-.002-.001-.003-.001-.002-.001-.003-.002-.005-.003-.001 0-.001-.001-.002-.001-.002-.001-.004-.002-.007-.004-.001 0-.002-.001-.002-.001-.003-.002-.005-.003-.007-.004 0 0-.001 0-.001-.001-.002-.001-.005-.002-.007-.004 0 0-.001-.001-.002-.001-.002-.001-.005-.002-.007-.004l-.001 0c-.002-.001-.004-.002-.006-.003-.001 0-.002-.001-.003-.001-.002-.001-.005-.002-.007-.004 0 0-.001 0-.001-.001-.002-.001-.004-.002-.006-.003 0 0-.001-.001-.002-.001-.002-.001-.005-.003-.007-.004l-.001-.001c-.002-.001-.004-.002-.006-.003-.001 0-.001 0-.002-.001-.002-.001-.005-.002-.007-.004l-.002-.001c-.002-.001-.004-.002-.006-.003 0 0-.001-.001-.002-.001-.002-.001-.005-.002-.007-.004-.001 0-.001-.001-.002-.001-.002-.001-.004-.002-.006-.003-.001 0-.002-.001-.002-.001-.003-.001-.004-.002-.006-.003-.001 0-.001-.001-.002-.001-.002-.001-.005-.002-.007-.004-.001 0-.001-.001-.002-.001-.002 0-.004-.001-.006-.002 0 0-.001-.001-.002-.001-.002-.001-.005-.002-.007-.004 0 0-.001-.001-.001-.001-.002-.001-.004-.002-.006-.003-.001 0-.001 0-.002-.001-.002-.001-.005-.002-.007-.004l-.002-.001c-.002-.001-.004-.002-.005-.003 0 0-.001-.001-.002-.001-.002-.001-.004-.002-.007-.003-.001 0-.002-.001-.003-.001-.002-.001-.004-.002-.006-.003-.003-.001-.005-.003-.007-.004-.001 0-.001-.001-.002-.001-.002-.001-.005-.002-.007-.004 0 0-.001 0-.001-.001-.002-.001-.004-.002-.006-.003-.001 0-.002-.001-.003-.001-.002-.001-.004-.002-.007-.003-.001 0-.001-.001-.002-.001-.002-.001-.004-.002-.006-.003 0 0-.001-.001-.001-.001-.003-.001-.005-.003-.007-.004 0 0-.002-.001-.002-.001-.002-.001-.003-.002-.005-.003-.001 0-.002-.001-.003-.001-.002-.001-.004-.002-.006-.003 0 0-.002-.001-.003-.001-.002-.001-.003-.002-.005-.003 0 0-.002-.001-.003-.001-.002-.001-.004-.002-.006-.003-.001 0-.002-.001-.002-.001-.002-.001-.004-.002-.006-.003-.001 0-.002-.001-.002-.001-.003-.001-.004-.002-.006-.003-.001 0-.002-.001-.003-.001-.002-.001-.004-.002-.007-.003-.001 0-.001-.001-.002-.001-.002-.001-.003-.002-.005-.003 0 0-.002-.001-.003-.001-.002-.001-.004-.002-.006-.003-.001 0-.002-.001-.003-.001-.002-.001-.003-.002-.005-.002-.001 0-.002-.001-.003-.001-.002-.001-.004-.002-.006-.003-.001 0-.002-.001-.003-.002-.002-.001-.003-.002-.005-.002 0 0-.002-.001-.003-.001-.002-.001-.004-.002-.006-.003-.001 0-.003-.001-.003-.002-.002-.001-.003-.002-.005-.002-.001-.001-.003-.001-.004-.002-.002-.001-.003-.002-.005-.002-.001 0-.002-.001-.003-.002-.002-.001-.003-.001-.004-.002s-.004-.002-.005-.003-.002-.001-.003-.002-.003-.001-.004-.002c-.002-.001-.004-.002-.006-.003-.001-.001-.002-.001-.004-.002-.001-.001-.002-.001-.004-.002-.001-.001-.002-.001-.004-.002s-.004-.002-.006-.003c-.001-.001-.002-.001-.003-.002s-.002-.001-.004-.002-.003-.002-.006-.003c-.001-.001-.002-.001-.004-.002-.001-.001-.003-.001-.004-.002s-.002-.001-.003-.002c-.002-.001-.004-.002-.006-.003-.001-.001-.002-.001-.003-.002s-.003-.001-.004-.002-.002-.001-.003-.002c-.002-.001-.005-.002-.007-.003-.001 0-.002-.001-.002-.001-.001-.001-.003-.002-.005-.002 0 0-.001 0-.001-.001-.003-.001-.006-.003-.008-.004-.001 0-.002-.001-.002-.001-.005-.003-.01-.005-.015-.007-.001 0-.002-.001-.002-.001-.003-.001-.005-.003-.008-.004-.001 0-.001-.001-.002-.001-.001-.001-.003-.002-.005-.002-.001 0-.001-.001-.002-.001-.003-.001-.006-.003-.009-.004h-.001c-.001-.002-.002-.003-.004-.004h-.001c-.003-.002-.006-.003-.009-.005 0 0-.001 0-.001-.001-.002-.001-.004-.001-.005-.002 0 0-.001 0-.001-.001-.003-.001-.006-.003-.009-.004l-.002-.001c-.005-.002-.01-.005-.015-.007-.001 0-.001-.001-.002-.001-.005-.002-.01-.005-.015-.007l-.002-.001c-.005-.002-.01-.005-.015-.007-.009-.004-.018-.008-.027-.013-.055-.026-.11-.052-.165-.078l-.842 1.814c.632.293 1.248.638 1.831 1.023l1.104-1.668c-.318-.211-.644-.41-.977-.598-.006-.002-.011-.005-.016-.008z"/><path d="m30.821 9.96c-.001-.001-.001-.001 0 0-.001-.004-.002-.006-.003-.008 0-.001-.001-.002-.001-.003-.001-.002-.001-.003-.002-.005 0 0-.001-.002-.001-.003-.001-.002-.002-.004-.003-.007 0-.001-.001-.002-.001-.003-.001-.002-.001-.003-.002-.005 0-.001-.001-.003-.001-.003-.001-.002-.002-.004-.003-.006 0-.001-.001-.002-.001-.003-.001-.002-.001-.003-.002-.005 0-.001-.001-.002-.001-.003-.001-.002-.002-.004-.003-.006 0-.001-.001-.002-.001-.003-.001-.002-.001-.003-.002-.005s-.001-.003-.002-.005-.001-.003-.002-.005c0-.001-.001-.002-.001-.003-.001-.002-.002-.004-.002-.006-.001-.001-.001-.002-.002-.004s-.001-.003-.002-.005c0-.001-.001-.002-.001-.003-.001-.002-.002-.004-.003-.006-.001-.001-.001-.002-.002-.004 0-.001-.001-.003-.002-.004s-.001-.002-.002-.004-.002-.004-.003-.006c-.001-.001-.001-.003-.002-.004 0-.001-.001-.002-.001-.003-.001-.002-.002-.005-.003-.007 0-.001-.001-.002-.001-.002-.001-.002-.002-.004-.002-.005s-.001-.002-.001-.003c-.001-.002-.002-.005-.003-.007 0-.001-.001-.002-.001-.003-.001-.002-.001-.002-.002-.004 0-.001-.001-.002-.001-.003-.001-.002-.002-.005-.003-.007 0-.001-.001-.002-.001-.003-.001-.001-.001-.003-.002-.004-.001-.002-.001-.003-.002-.005-.001-.001-.001-.003-.002-.004s-.001-.003-.002-.004-.001-.002-.002-.004-.002-.004-.002-.006c-.001-.001-.001-.003-.002-.004 0-.001-.001-.002-.001-.003-.002-.005-.004-.01-.006-.015 0-.001-.001-.001-.001-.002-.001-.003-.002-.005-.004-.008 0-.001-.001-.001-.001-.002-.001-.002-.001-.003-.002-.005l-.001-.001c-.001-.003-.003-.006-.004-.01v-.001c-.001-.002-.001-.003-.002-.005v-.001c-.002-.004-.003-.006-.004-.01v-.001c-.002-.006-.005-.01-.007-.016-.002-.006-.005-.011-.007-.016v-.001c-.276-.638-.592-1.254-.944-1.846l-1.718 1.025c.358.6.673 1.231.936 1.876z"/><path d="m26.826 7.122 1.546-1.269c-.37-.451-.764-.881-1.181-1.289-.004-.004-.008-.008-.013-.012l-.001-.001c-.004-.004-.008-.008-.012-.012-.007-.007-.014-.013-.021-.02 0 0-.001-.001-.001-.001-.004-.004-.008-.007-.012-.012 0 0-.001-.001-.001-.001-.004-.004-.008-.008-.012-.012 0 0-.001-.001-.001-.001-.002-.002-.004-.004-.006-.006-.001-.001-.001-.001-.002-.002s-.002-.002-.004-.003c0 0-.001-.001-.001-.001-.003-.003-.005-.005-.007-.007l-.002-.002c-.001-.001-.002-.002-.003-.003 0 0-.001-.001-.002-.002-.002-.002-.004-.004-.006-.005-.001-.001-.002-.001-.002-.002-.001-.001-.002-.002-.003-.003-.002-.001-.003-.003-.005-.004-.001-.001-.002-.002-.003-.003s-.002-.002-.003-.003-.002-.002-.003-.003-.003-.003-.004-.004-.002-.002-.003-.003-.002-.002-.004-.004c-.001-.001-.002-.002-.003-.003s-.002-.002-.004-.003c-.001-.001-.002-.002-.003-.003-.002-.002-.003-.003-.005-.005l-.001-.001c-.002-.001-.003-.003-.005-.004l-.002-.002c-.002-.002-.004-.004-.005-.005s-.001-.001-.002-.002c-.002-.002-.003-.003-.004-.004s-.001-.001-.002-.002c-.002-.002-.004-.003-.005-.005 0 0-.002-.001-.002-.002-.002-.002-.003-.003-.005-.005 0 0 0 0-.001-.001-.002-.002-.004-.004-.006-.005-.001-.001-.001-.001-.002-.002-.002-.002-.004-.003-.005-.005l-.002-.001c-.002-.002-.003-.003-.005-.005l-.002-.001c-.002-.002-.004-.004-.006-.006 0 0-.001-.001-.001-.001-.002-.002-.004-.004-.006-.005v-.001c-.002-.002-.004-.004-.006-.006 0 0-.001-.001-.001-.001-.002-.002-.004-.004-.006-.005 0 0 0 0-.001-.001-.002-.002-.004-.004-.006-.006 0 0-.001-.001-.001-.001-.004-.004-.008-.008-.012-.012 0 0-.001-.001-.001-.001-.005-.004-.009-.008-.013-.013-.068-.064-.137-.127-.207-.19l-1.34 1.485c.518.469 1.006.98 1.45 1.52z"/></svg>