<svg width="30" height="30" viewBox="0 0 30 30" fill="none" xmlns="http://www.w3.org/2000/svg">
<path fill-rule="evenodd" clip-rule="evenodd" d="M21.0609 2.48683C19.4535 0.894539 17.2733 0 15 0C12.7267 0 10.5465 0.894539 8.93909 2.48683C7.33163 4.07912 6.42857 6.23873 6.42857 8.49057C6.42857 10.7424 7.33163 12.902 8.93909 14.4943C10.5465 16.0866 12.7267 16.9811 15 16.9811C17.2733 16.9811 19.4535 16.0866 21.0609 14.4943C22.6684 12.902 23.5714 10.7424 23.5714 8.49057C23.5714 6.23873 22.6684 4.07912 21.0609 2.48683ZM27.4895 23.7132C25.882 22.121 23.7019 21.2264 21.4286 21.2264H8.57143C6.29815 21.2264 4.11797 22.121 2.51051 23.7132C0.903064 25.3055 0 27.4651 0 29.717V30H30V29.717C30 27.4651 29.0969 25.3055 27.4895 23.7132Z" fill="#AAD4D3"/>
</svg>
