<svg width="21" height="22" viewBox="0 0 21 22" fill="none" xmlns="http://www.w3.org/2000/svg">
<path fill-rule="evenodd" clip-rule="evenodd" d="M0.807692 6.51852L0 4.88889L10.5 0L21 4.88889L20.1923 6.51852L0.807692 6.51852ZM1.61538 7.33333H3.23077V18.7407H1.61538V7.33333ZM20.1923 19.5556L21 22H0L0.807692 19.5556H20.1923ZM19.3846 7.33333H17.7692V18.7407H19.3846V7.33333ZM8.13566 17.9259L7.12238 17.6999L12.8643 8.14815L13.8923 8.36009L8.13566 17.9259ZM8.25315 9.6459C8.09161 9.47634 7.81259 9.32092 7.41608 9.32092C7.01958 9.32092 6.74056 9.47634 6.57902 9.6459C6.38811 9.82959 6.25594 10.1263 6.25594 10.4654C6.25594 10.8045 6.38811 11.1013 6.57902 11.285C6.74056 11.4545 7.01958 11.6099 7.41608 11.6099C7.81259 11.6099 8.09161 11.4545 8.25315 11.285C8.44406 11.1013 8.57622 10.8045 8.57622 10.4654C8.57622 10.1263 8.44406 9.82959 8.25315 9.6459ZM9.35454 8.88289C9.60419 9.1231 9.98601 9.63177 9.98601 10.4654C9.98601 11.2991 9.60419 11.8078 9.35454 12.048C8.8993 12.5001 8.19441 12.7544 7.41608 12.7544C6.63776 12.7544 5.93287 12.5001 5.47762 12.048C5.22797 11.8078 4.84615 11.2991 4.84615 10.4654C4.84615 9.63177 5.22797 9.1231 5.47762 8.88289C5.93287 8.43074 6.63776 8.17641 7.41608 8.17641C8.19441 8.17641 8.8993 8.43074 9.35454 8.88289ZM14.421 14.7467C14.2594 14.5772 13.9804 14.4218 13.5839 14.4218C13.1874 14.4218 12.9084 14.5772 12.7469 14.7467C12.5559 14.9304 12.4238 15.2271 12.4238 15.5663C12.4238 15.9054 12.5559 16.2021 12.7469 16.3858C12.9084 16.5553 13.1874 16.7108 13.5839 16.7108C13.9804 16.7108 14.2594 16.5553 14.421 16.3858C14.6119 16.2021 14.7441 15.9054 14.7441 15.5663C14.7441 15.2271 14.6119 14.9304 14.421 14.7467ZM15.5224 13.9837C15.772 14.2239 16.1538 14.7326 16.1538 15.5663C16.1538 16.3999 15.772 16.9086 15.5224 17.1488C15.0671 17.6009 14.3622 17.8553 13.5839 17.8553C12.8056 17.8553 12.1007 17.6009 11.6455 17.1488C11.3958 16.9086 11.014 16.3999 11.014 15.5663C11.014 14.7326 11.3958 14.2239 11.6455 13.9837C12.1007 13.5316 12.8056 13.2772 13.5839 13.2772C14.3622 13.2772 15.0671 13.5316 15.5224 13.9837Z" fill="#AAD4D3"/>
</svg>
