<svg width="20" height="22" viewBox="0 0 20 22" fill="none" xmlns="http://www.w3.org/2000/svg">
<path d="M6.39999 7.46902C6.39999 8.89338 5.52642 9.95034 4.15963 10.2861V11.4074H2.72004V10.3717C1.29738 10.2082 0.439044 9.32947 0 8.71186L1.17718 7.62765C1.35227 7.98193 1.627 8.28149 1.96998 8.4921C2.31296 8.70272 2.71035 8.8159 3.11676 8.8187C3.9339 8.8187 4.54337 8.33683 4.54337 7.58786C4.54765 7.43675 4.51764 7.28657 4.45544 7.14786C4.39325 7.00915 4.30037 6.88527 4.18333 6.78492C3.83683 6.47693 3.28041 6.30305 2.75672 6.13079C2.27197 5.97053 1.69015 5.75631 1.21894 5.35456C0.914204 5.10054 0.485318 4.60559 0.485318 3.69581C0.485318 2.55109 1.18113 1.40637 2.7206 1.13382V0H4.16019V1.13218C4.88742 1.25642 5.55475 1.60125 6.06535 2.11664L5.12518 3.30497C4.58513 2.60887 3.94801 2.54182 3.61562 2.54182C2.64555 2.54182 2.34081 3.13054 2.34081 3.58515C2.33877 3.69994 2.36394 3.81365 2.41442 3.91758C2.46489 4.02152 2.53932 4.11291 2.632 4.18477C2.85378 4.38537 3.15852 4.49221 3.74034 4.69335C4.46041 4.93374 5.13929 5.17468 5.60994 5.5895C6.02584 5.9569 6.39999 6.55924 6.39999 7.46902Z" fill="#AAD4D3"/>
<path fill-rule="evenodd" clip-rule="evenodd" d="M13.6 0H7.19999V1.62963H9.59999V2.47791C8.7601 2.54849 7.95087 2.72918 7.18624 3.00579C8.19022 4.15685 8.8 5.67256 8.8 7.33333C8.8 10.9334 5.93463 13.8519 2.40001 13.8519C1.88521 13.8519 1.3846 13.7899 0.904979 13.673C1.59313 18.3851 5.5821 22 10.4 22C15.7019 22 20 17.6223 20 12.2222C20 9.14965 18.6085 6.4081 16.4324 4.61559L17.2314 3.55427L15.9617 2.56267L15.1068 3.69831C13.9351 3.0257 12.6108 2.59645 11.2 2.47791V1.62963H13.6V0ZM9.59999 6.51852H11.6571V11.7566H16.8V13.8519H9.59999V6.51852Z" fill="#AAD4D3"/>
</svg>
