<svg enable-background="new 0 0 32 32" viewBox="0 0 32 32" xmlns="http://www.w3.org/2000/svg"><path d="m9.848 24.849 6.152-6.178 6.152 6.178 4.242-4.076-2.8-2.812 2.8-2.69-10.394-10.438-10.395 10.437 2.8 2.69-2.8 2.812zm12.336-2.803-6.184-6.209-6.184 6.209-1.357-1.305 7.541-7.572 7.541 7.572zm-6.184-14.379 7.541 7.572-1.357 1.304-6.184-6.209-6.184 6.208-1.357-1.304z"/><path d="m24.768 29.386c.018-.012.036-.024.055-.036.005-.003.01-.007.015-.01h.001c.005-.003.01-.007.015-.01.003-.002.005-.003.008-.005.002-.002.005-.003.007-.005.002-.002.005-.003.007-.005 0 0 0 0 .001-.001.002-.002.005-.003.007-.005.002-.002.005-.003.007-.005 0 0 .001-.001.002-.001.002-.001.004-.003.007-.004.002-.002.005-.003.007-.005l.001-.001c.002-.002.005-.003.007-.005.002-.002.004-.003.007-.005 0 0 .001-.001.002-.001.002-.002.005-.003.007-.005 0 0 .001 0 .001-.001.002-.001.004-.003.006-.004 0 0 .001 0 .001-.001.002-.002.005-.003.007-.005 0 0 .001 0 .001-.001.002-.001.004-.003.006-.004.001-.001.001 0 .002-.001.002-.001.004-.003.007-.004 0 0 .001-.001.002-.001.002-.001.004-.003.006-.004 0 0 .001 0 .001-.001.002-.001.004-.003.006-.004.001-.001.001-.001.002-.001.002-.001.004-.003.006-.004 0 0 .002-.001.002-.001.002-.001.003-.002.005-.003.001-.001.002-.001.003-.002.002-.001.003-.002.005-.003.001-.001.003-.002.004-.002.001-.001.002-.002.004-.003.001-.001.002-.001.003-.002.002-.001.003-.002.005-.004.001-.001.002-.002.004-.002.001-.001.002-.001.003-.002s.002-.001.003-.002c.002-.001.003-.002.005-.004.001-.001.002-.002.004-.002.001-.001.002-.001.003-.002.002-.001.004-.003.006-.004.001-.001.002-.001.002-.002.002-.001.003-.002.004-.003 0 0 .001-.001.001-.001.003-.002.006-.004.008-.006 0 0 .001-.001.001-.001.002-.001.003-.002.005-.003h.001c.003-.002.006-.004.009-.006.005-.003.01-.007.014-.01.005-.003.009-.007.014-.01.012-.008.023-.016.035-.024l-1.144-1.641c-.573.4-1.181.759-1.806 1.068l.886 1.793c.587-.292 1.152-.615 1.694-.971z"/><path d="m26.826 7.122 1.546-1.269c-.37-.451-.764-.881-1.181-1.289-.004-.004-.008-.008-.013-.012-.005-.004-.008-.008-.013-.012-.007-.007-.014-.013-.021-.02 0 0-.001-.001-.001-.001-.004-.004-.008-.007-.012-.012 0 0-.001-.001-.001-.001-.004-.004-.008-.008-.012-.012 0 0-.001-.001-.001-.001-.002-.002-.004-.004-.006-.006-.001-.001-.001-.001-.002-.002s-.002-.002-.004-.003c0 0-.001-.001-.001-.001-.002-.002-.004-.004-.007-.006 0 0-.001-.001-.002-.002s-.002-.002-.003-.003-.001-.001-.002-.002c-.002-.002-.004-.004-.006-.005-.001-.001-.002-.002-.002-.002-.001-.001-.002-.002-.003-.003-.002-.002-.003-.003-.005-.005-.001-.001-.002-.002-.003-.003s-.002-.002-.003-.003-.002-.002-.003-.003-.003-.003-.004-.004-.002-.002-.003-.003-.002-.002-.004-.003c-.001-.001-.002-.002-.003-.003s-.002-.002-.004-.003c-.001-.001-.002-.002-.003-.003-.002-.002-.003-.003-.005-.005l-.001-.001c-.002-.001-.003-.003-.005-.004 0 0-.002-.001-.002-.002-.002-.002-.004-.003-.005-.005-.001-.001-.001-.001-.002-.002s-.003-.003-.004-.004-.001-.001-.001-.001c-.003-.002-.004-.004-.006-.006 0 0-.002-.001-.002-.002-.002-.002-.003-.003-.005-.005 0 0 0 0-.001-.001-.002-.002-.004-.004-.006-.005-.001-.001-.001-.001-.002-.002-.002-.002-.004-.003-.005-.005 0 0-.001-.001-.001-.001-.002-.002-.004-.004-.005-.005 0 0-.001-.001-.002-.001-.002-.002-.004-.004-.006-.005 0 0-.001-.001-.001-.001-.002-.002-.004-.004-.006-.006l-.001-.003c-.002-.002-.004-.004-.006-.006l-.001-.001c-.002-.002-.004-.004-.006-.005-.002-.002-.004-.004-.006-.006 0 0-.001-.001-.001-.001-.004-.004-.008-.008-.012-.012 0 0-.001-.001-.001-.001-.005-.004-.009-.008-.013-.013-.068-.064-.137-.127-.207-.19l-1.34 1.485c.517.468 1.005.979 1.449 1.519z"/><path d="m2.184 24.075c.253.433.527.852.818 1.258.009.013.018.025.027.038.004.005.007.01.011.015v.001c.004.005.007.01.011.015.004.005.007.01.011.015.002.002.004.005.005.007v.001c.002.002.003.005.005.007v.001c.002.002.003.005.005.007v.001c.002.003.003.005.005.007v.001c.002.002.003.004.005.007.001.001.001.001.001.002.002.002.003.004.005.007.002.002.003.004.005.006 0 0 .001.001.001.002.002.002.003.004.005.007 0 0 0 0 .001.001.001.002.003.004.004.006 0 0 .001.001.001.001.002.003.003.005.005.007 0 0 .001.001.001.001.002.002.003.004.005.006.001.001 0 .001.001.001.002.002.003.004.005.006 0 0 .001.002.001.002.001.002.002.003.004.005 0 0 .001.002.002.002.001.002.003.004.004.006.001.001.001.002.002.003.001.002.002.003.004.005.001.001.002.002.002.003.001.002.002.003.003.005.001.001.001.002.002.002.001.002.003.004.004.005s.002.002.002.003c.001.001.002.002.003.004.001.001.001.002.002.003.001.002.003.004.004.005s.001.002.002.003.002.002.003.004c.001.001.001.002.002.003.001.002.003.004.004.005s.002.002.003.003.001.002.002.003c.001.002.003.004.004.005s.001.002.002.003.002.002.003.004c.001.001.001.002.002.003.002.002.003.004.005.006.002-.003.002-.002.003-.001s.002.003.003.004c0 0 .001.002.002.003.001.002.003.004.004.006.001.001.001.002.002.002.001.001.002.003.003.004.001.002.002.003.004.005.001.001.002.003.003.004 0 .001.001.001.002.002.002.002.004.005.006.008l.001.001c.001.001.002.003.003.004 0 .001.001.001.001.002.002.002.004.005.005.007 0 0 .001.001.001.001.002.002.002.003.004.005v.001c.002.003.005.006.006.009v.001c.004.005.007.009.011.014.093.123.189.244.286.364l1.556-1.257c-.439-.544-.841-1.125-1.193-1.727z"/><path d="m0 16.031v.009.001.008.002.009.001.008.002.008.002.007.001.009.002.008.001.009.003.008.001.008.003.008.002.007.003.008.002.007.003.008.003.006.003.008.003.006.002.008.003.006.005.005.004.005.006.005.004.005.006.004.004.005.007.004.005.004.008.003.011.001.006.001.012.006.002.011.001.006.001.012.001.018.002.018c.007.279.022.556.043.831l1.994-.156c-.022-.368-.037-.741-.037-1.11 0-.331.012-.666.035-.995l-1.995-.14c-.021.293-.033.588-.038.885 0 .018 0 .036-.001.053v.018.001.008.017.001.008.008.001.007.002.017.002.007.001.008.001.007.002.007.001.008.002.006.002.008.001.007.003.006.002.008.002.006.002c-.001.005-.001.007-.001.01v.009.002.009.001.008z"/><path d="m24.821 2.649c-.318-.211-.644-.41-.977-.598-.005-.003-.01-.006-.016-.009-.011-.006-.021-.012-.031-.018-.003-.002-.006-.004-.01-.005 0 0-.001-.001-.001-.001-.005-.003-.01-.005-.015-.008 0 0-.001-.001-.001-.001-.005-.003-.009-.005-.014-.008-.001 0-.002-.001-.003-.001-.003-.001-.005-.003-.008-.004h-.001c-.002-.001-.003-.002-.005-.003l-.001-.001c-.003-.001-.006-.003-.008-.005-.001 0-.001-.001-.001-.001-.003-.001-.003-.002-.005-.003-.001-.001-.002-.001-.003-.002-.002-.001-.004-.002-.006-.003-.001-.001-.002-.001-.004-.002-.001-.001-.002-.001-.004-.002-.001-.001-.003-.001-.004-.002-.002-.001-.004-.002-.006-.003-.001-.001-.002-.001-.003-.002s-.002-.001-.004-.002-.004-.002-.006-.003c-.001-.001-.002-.001-.004-.002 0 0-.001 0-.002-.001-.002-.001-.003-.002-.005-.003s-.003-.002-.005-.003c-.001-.001-.002-.001-.004-.002-.001-.001-.002-.001-.003-.002s-.003-.002-.005-.003-.003-.002-.004-.002-.002-.001-.003-.002c-.002-.001-.004-.002-.005-.003-.001 0-.002-.001-.003-.002-.002-.001-.003-.002-.005-.003-.001 0-.002-.001-.003-.001-.002-.001-.004-.002-.007-.004l-.001.001c-.002-.001-.004-.002-.005-.003l-.003-.001c-.002-.001-.004-.002-.007-.004-.001 0-.001-.001-.002-.001-.002-.001-.003-.002-.005-.003-.001 0-.002-.001-.003-.001-.002-.001-.004-.002-.006-.003 0 0-.002-.001-.002-.001-.002-.001-.004-.002-.006-.003 0 0-.001 0-.001-.001-.002-.001-.005-.003-.007-.004-.001 0-.001-.001-.002-.001-.003-.002-.005-.003-.006-.004-.001 0-.002-.001-.003-.002-.002-.001-.003-.002-.005-.003-.001 0-.002-.001-.003-.001-.002-.001-.004-.002-.006-.003-.001 0-.002-.001-.003-.001-.002-.001-.003-.002-.005-.003-.001 0-.002-.001-.003-.001-.002-.001-.004-.002-.006-.003-.001 0-.002-.001-.003-.002s-.003-.001-.004-.002c-.001 0-.002-.001-.003-.002-.002-.001-.004-.002-.006-.003 0 0-.002-.001-.003-.001-.002-.001-.003-.002-.005-.003-.001 0-.001-.001-.002-.001-.002-.001-.004-.002-.007-.003-.001 0-.002-.001-.002-.001-.002-.001-.004-.002-.006-.003 0 0-.001 0-.001-.001-.002-.001-.005-.002-.007-.004-.001 0-.001-.001-.002-.001-.002-.001-.005-.002-.007-.004 0 0-.001 0-.001-.001-.002-.001-.004-.002-.006-.003-.001 0-.002-.001-.003-.001-.002-.001-.005-.002-.007-.004 0 0-.001 0-.001-.001-.002-.001-.004-.002-.006-.003 0 0-.001-.001-.002-.001-.002-.001-.005-.003-.007-.004h-.001c-.002-.001-.005-.002-.007-.003-.001 0-.001 0-.002-.001-.002-.001-.005-.002-.007-.004l-.002-.001c-.002-.001-.004-.002-.006-.003 0 0-.001-.001-.002-.001-.002-.001-.005-.002-.007-.004 0 0-.001-.001-.002-.001-.002-.001-.004-.002-.006-.003-.001 0-.002-.001-.002-.001-.003-.001-.004-.002-.006-.003-.001 0-.001-.001-.002-.001-.002-.001-.005-.002-.007-.004-.001 0-.001 0-.002-.001-.002-.002-.004-.003-.006-.004l-.002-.001c-.002-.001-.005-.002-.007-.004l-.002-.001c-.002-.001-.004-.002-.006-.003-.001 0-.001 0-.002-.001-.002-.001-.005-.002-.007-.004l-.002-.001c-.002-.001-.004-.002-.005-.003 0 0-.001-.001-.002-.001-.002-.001-.004-.002-.007-.003-.001 0-.002-.001-.003-.001-.002-.001-.004-.002-.006-.003 0 0 0 0-.001 0-.002-.001-.005-.002-.007-.004-.001 0-.001-.001-.002-.001-.002-.001-.005-.002-.007-.004 0 0-.001-.001-.001-.001-.002-.001-.004-.002-.006-.003-.001 0-.002-.001-.003-.001-.002-.001-.004-.002-.007-.003-.001 0-.001 0-.002-.001-.002-.001-.004-.002-.006-.003 0 0-.001-.001-.001-.001-.003-.001-.005-.003-.007-.004 0 0-.002-.001-.002-.001-.002-.001-.004-.002-.005-.003-.001 0-.002-.001-.003-.001-.002-.001-.004-.002-.006-.003-.001 0-.002-.001-.003-.001-.002-.001-.003-.002-.005-.003 0 0-.002-.001-.003-.001-.002-.001-.004-.002-.006-.003-.001 0-.002-.001-.002-.001-.002-.001-.004-.002-.006-.003-.001 0-.002-.001-.002-.001-.003-.001-.004-.002-.006-.003-.001 0-.002-.001-.003-.001-.002-.001-.004-.002-.007-.003-.001 0-.001-.001-.002-.001-.002-.001-.003-.002-.005-.003 0 0-.002-.001-.003-.001-.002-.001-.004-.002-.006-.003-.001 0-.002-.001-.003-.001-.002-.001-.003-.002-.005-.002-.001 0-.002-.001-.003-.001-.002-.001-.004-.002-.006-.003-.001 0-.002-.001-.003-.002-.002-.001-.003-.002-.005-.002-.001 0-.002-.001-.003-.001-.002-.001-.004-.002-.006-.003-.001 0-.003-.001-.003-.002-.002-.001-.003-.002-.005-.002-.001-.001-.003-.001-.004-.002-.002-.001-.003-.002-.005-.002-.001 0-.002-.001-.003-.002-.002-.001-.003-.001-.004-.002s-.004-.002-.005-.003-.002-.001-.003-.002-.003-.001-.004-.002c-.002-.001-.004-.002-.006-.003-.001-.001-.002-.001-.004-.002-.001-.001-.002-.001-.004-.002-.001-.001-.002-.001-.004-.002s-.004-.002-.006-.003c-.001-.001-.002-.001-.003-.002s-.002-.001-.004-.002-.003-.002-.006-.003c-.001-.001-.002-.001-.004-.002-.001-.001-.003-.001-.004-.002s-.002-.001-.003-.002c-.002-.001-.004-.002-.006-.003-.001-.001-.002-.001-.003-.002s-.003-.001-.004-.002c-.001 0-.002-.001-.003-.001-.002-.001-.005-.002-.007-.003-.001 0-.002-.001-.002-.001-.001-.001-.003-.002-.005-.002 0 0-.001 0-.001-.001-.003-.001-.006-.003-.008-.004-.001 0-.002-.001-.002-.001-.005-.002-.01-.005-.014-.007 0 0-.002-.001-.002-.001-.003-.001-.005-.003-.008-.004 0 0-.001-.001-.002-.001-.001-.001-.003-.002-.005-.002-.001 0-.001-.001-.002-.001-.003-.001-.006-.003-.009-.004h-.001c0-.003-.001-.004-.003-.005h-.001c-.003-.002-.006-.003-.009-.005 0 0-.001 0-.001-.001-.002-.001-.004-.001-.005-.002 0 0-.001 0-.001-.001-.003-.001-.006-.003-.009-.004 0 0-.001 0-.002-.001-.005-.002-.01-.005-.015-.007-.001 0-.001-.001-.002-.001-.005-.002-.01-.005-.015-.007 0 0-.001 0-.002-.001-.005-.002-.01-.005-.015-.007-.009-.004-.018-.008-.027-.013-.055-.026-.11-.052-.165-.078l-.842 1.814c.632.293 1.248.638 1.831 1.023z"/><path d="m20.483.636c-.65-.189-1.318-.339-1.999-.445-.006-.001-.012-.002-.018-.003h-.001c-.006-.001-.012-.002-.018-.003h-.001c-.006-.001-.011-.002-.017-.003-.001 0-.001 0-.002 0-.003 0-.005-.001-.008-.001h-.001c-.003 0-.005-.001-.008-.001-.001 0-.001 0-.002 0-.002 0-.005-.001-.007-.001-.001 0-.001 0-.002 0-.002 0-.004-.001-.006-.001-.001 0-.002 0-.003 0-.002 0-.004-.001-.006-.001s-.002 0-.004-.001c-.002 0-.004-.001-.005-.001s-.003 0-.004-.001c-.001 0-.003 0-.004-.001-.002 0-.004-.001-.006-.001-.001 0-.003 0-.004-.001-.001 0-.003 0-.004-.001-.001 0-.002 0-.004 0s-.005-.001-.007-.001c-.001 0-.002 0-.004 0s-.003 0-.005-.001c0 0-.001 0-.002 0-.004-.001-.007-.001-.01-.002h-.001c-.061-.009-.121-.017-.182-.025l-.265 1.982c.692.092 1.383.238 2.051.433z"/><path d="m9.657 30.694c.005.002.011.005.016.007h.001c.005.002.011.005.016.007 0 0 .001 0 .001.001.003.001.005.002.008.003l.001.001c.002.001.005.002.007.003l.001.001c.003.001.005.002.008.003.001 0 .001 0 .002.001.002.001.004.002.007.003l.001.001c.003.001.005.002.008.003 0 0 .002.001.002.001l.006.003c.001 0 .001 0 .002.001.002.001.005.002.007.003 0 0 .001.001.002.001.002.001.004.002.007.003h.001c.003.001.005.002.008.003.001 0 .001.001.002.001.002.001.004.002.007.003h.001c.002.001.005.002.007.003.001 0 .002.001.003.001l.006.003c.001 0 .002.001.003.001.002.001.004.002.005.002s.002.001.003.001c.002.001.004.002.006.002.001.001.002.001.003.001.002.001.003.001.005.002.001.001.002.001.003.001.002.001.004.002.005.002.002.001.003.001.005.002.001 0 .002.001.003.001.001.001.003.001.004.002.002.001.004.002.006.003.001.001.002.001.004.002.001 0 .002.001.003.001.001.001.002.001.004.002l.006.003c.001.001.003.001.004.002.001 0 .002.001.003.001.002.001.005.002.007.003.001 0 .002.001.002.001.001.001.003.001.004.002.001 0 .002.001.003.001.003.001.006.002.009.004 0 0 .001 0 .001.001.002.001.003.001.005.002h.001c.004.002.007.003.01.004h.001c.002.001.004.001.005.002.004.002.007.003.011.004h.001c.006.002.011.005.017.007.433.177.874.335 1.325.474h.001c.006.002.011.003.017.005 0 0 .001 0 .002.001.003.001.006.002.009.003h.001c.003.001.003.001.005.002.001 0 .002.001.003.001.002.001.005.001.007.002.001 0 .002.001.003.001s.003.001.004.001.003.001.004.001c.002.001.004.001.006.002.001 0 .003.001.004.001s.003.001.004.001c.002.001.004.001.007.002.001 0 .002.001.003.001.002 0 .003.001.005.001.001 0 .002.001.003.001.002.001.005.001.007.002h.001c.003.001.005.001.007.002.001 0 .002.001.002.001.003.001.005.002.008.002h.002c.002.001.005.001.007.002h.001l.575-1.916c-.667-.2-1.326-.453-1.956-.752l-.857 1.807c.16.076.321.149.484.22.005.004.01.007.016.01z"/><path d="m.414 19.633c.091.393.197.781.317 1.162.002.006.004.012.005.017v.001c.002.006.004.012.005.017v.001c.002.006.004.012.005.017.002.006.004.012.006.017v.001c.002.006.004.011.006.017.002.006.004.012.006.017l.003.009.003.009.003.009c.001.003.002.005.003.008v.001l.003.009c.002.006.004.012.006.017v.001c.001.003.002.005.003.008.001.003.002.005.003.008v.001c.002.009.004.014.006.02l.001.002c.001.003.002.005.003.008v.001c.001.003.002.005.003.008v.001c.002.005.004.011.005.016v.001c.001.003.002.005.003.008v.001c.001.002.002.004.002.007 0 0 0 .002.001.002.001.003.002.005.003.008 0 .001 0 .001.001.002.001.002.001.004.002.006 0 0 .001.002.001.003.001.002.002.005.002.007 0 .001 0 .001.001.002.001.002.001.004.002.006l.001.002c.001.002.002.005.002.007 0 .001 0 .001.001.002.001.002.001.004.002.006 0 0 0 .001.001.002.001.002.002.005.002.007 0 0 .001.002.001.003.001.002.001.004.002.006 0 0 0 .001.001.002.001.003.002.005.003.007l.001.002c.001.002.001.004.002.006 0 .001 0 .001.001.002.001.002.002.005.002.007 0 .001.001.002.001.003.001.002.001.003.002.005 0 .001.001.002.001.003.001.002.001.004.002.006 0 .001.001.002.001.003.001.002.001.003.002.005 0 .001.001.002.001.003.001.002.001.004.002.005 0 .001.001.003.001.004.001.001.001.003.002.004.001.002.001.003.002.005 0 .001.001.003.001.004s.001.002.001.004c0 .001.001.003.001.004.001.002.001.004.002.006 0 .001.001.002.001.003s.001.003.001.004.001.002.001.003c.001.002.002.004.002.007 0 .001.001.002.001.003s.001.003.002.005c0 .001 0 .001.001.002.001.003.002.006.003.009 0 .001 0 .001.001.002 0 .001.001.003.002.005.001.003.002.007.003.01 0 .001.001.002.001.003.002.005.004.01.005.015v.001c.002.005.004.011.006.016v.001c.001.003.003.007.004.01v.001c.001.002.001.004.002.006v.001c.002.006.004.011.006.017.069.195.142.389.218.581l1.858-.74c-.258-.648-.469-1.321-.627-2z"/><path d="m29.948 14.78 1.993-.172c-.012-.141-.026-.281-.042-.421-.001-.006-.001-.012-.002-.019 0-.002 0-.004-.001-.006v-.001c0-.004-.001-.007-.001-.011v-.001c0-.002 0-.004-.001-.006 0-.004-.001-.007-.001-.011 0-.001 0-.001 0-.001 0-.003 0-.004-.001-.006v-.002c0-.003-.001-.006-.001-.009 0-.001 0-.002 0-.003 0-.002 0-.003-.001-.005 0-.001 0-.001 0-.001 0-.004-.001-.007-.001-.01v-.002c0-.002 0-.003-.001-.005 0-.001 0-.002 0-.003 0-.003-.001-.005-.001-.008 0-.001 0-.002 0-.003s0-.003 0-.004 0-.003-.001-.004c0-.002 0-.004-.001-.006 0-.001 0-.003 0-.004s0-.003 0-.004c0-.002 0-.003-.001-.005 0-.002 0-.004-.001-.006 0-.002 0-.003-.001-.005 0-.001 0-.003 0-.004 0-.002 0-.003-.001-.005 0-.002 0-.003-.001-.006 0-.002 0-.003-.001-.005 0-.001 0-.003 0-.004 0-.002 0-.003-.001-.005 0-.002 0-.004-.001-.006 0-.001 0-.003-.001-.004 0-.001 0-.003 0-.004 0-.002 0-.004-.001-.005 0-.001 0-.002 0-.003 0-.002-.001-.004-.001-.006 0-.001 0-.002 0-.003 0-.002-.001-.004-.001-.006v-.002c0-.003-.001-.005-.001-.008 0-.001 0-.001 0-.002 0-.002-.001-.005-.001-.007 0 0 0-.001 0-.002 0-.003-.001-.005-.001-.007 0-.001 0-.002 0-.003 0-.002-.001-.004-.001-.006 0-.001 0-.002 0-.003 0-.002-.001-.005-.001-.007 0-.001 0-.002 0-.003 0-.002-.001-.004-.001-.007 0-.001 0-.001 0-.001 0-.003-.001-.005-.001-.008 0-.001 0-.001 0-.002 0-.002-.001-.005-.001-.007v-.002c0-.003-.001-.005-.001-.008 0-.001 0-.001 0-.002 0-.002-.001-.005-.001-.007v-.001c0-.003-.001-.005-.001-.008v-.002c0-.003-.001-.005-.001-.008 0 0 0-.001 0-.002 0-.003-.001-.005-.001-.008 0-.001 0-.002 0-.002 0-.003-.001-.005-.001-.007 0-.003-.001-.006-.001-.009v-.002c0-.002-.001-.005-.001-.007v-.002c0-.003-.001-.005-.001-.008v-.001c0-.003-.001-.006-.001-.008 0 0 0 0 0-.001 0-.003-.001-.006-.001-.008 0-.001 0-.001 0-.002 0-.002-.001-.005-.001-.007v-.001c0-.003-.001-.005-.001-.008v-.002c0-.003-.001-.005-.001-.008 0-.003-.001-.006-.001-.008 0-.001 0-.001 0-.002 0-.003-.001-.005-.001-.007 0-.001 0-.001 0-.001 0-.003-.001-.005-.001-.008 0 0 0-.001 0-.002 0-.002-.001-.005-.001-.007v-.001c0-.003-.001-.006-.001-.009v-.002c0-.002-.001-.004-.001-.007 0-.001 0-.001 0-.002 0-.003-.001-.005-.001-.008 0-.001 0-.002 0-.002 0-.002-.001-.005-.001-.007 0-.001 0-.001 0-.001 0-.003-.001-.005-.001-.008 0 0 0-.001 0-.002 0-.002-.001-.005-.001-.007v-.002c0-.003-.001-.006-.001-.008v-.001c0-.002-.001-.005-.001-.008v-.001c0-.003-.001-.005-.001-.008 0-.001 0-.001 0-.002 0-.002-.001-.005-.001-.007 0-.001 0-.001 0-.002 0-.003-.001-.005-.001-.008v-.002c0-.002-.001-.005-.001-.007v-.001c0-.003-.001-.006-.001-.008 0-.001 0-.001 0-.001 0-.002-.001-.005-.001-.007 0 0 0-.001 0-.002 0-.003-.001-.005-.001-.008v-.002c0-.002-.001-.005-.001-.007v-.002c0-.003-.001-.005-.001-.008 0-.001 0-.001 0-.001 0-.002-.001-.005-.001-.007v-.002c0-.003-.001-.005-.001-.008 0 0 0-.001 0-.002 0-.002-.001-.004-.001-.007 0-.001 0-.002 0-.002 0-.003-.001-.006-.001-.008 0-.001 0-.001 0-.002 0-.002-.001-.004-.001-.006v-.002c0-.003-.001-.005-.001-.008 0-.001 0-.001 0-.002 0-.002-.001-.004-.001-.006 0-.001 0-.002 0-.003 0-.003-.001-.005-.001-.008 0-.001 0-.001 0-.002 0-.002-.001-.004-.001-.006 0-.001 0-.002 0-.003 0-.002-.001-.005-.001-.007 0-.001 0-.002 0-.003 0-.002-.001-.004-.001-.006 0-.001 0-.002 0-.003 0-.003-.001-.005-.001-.008 0-.001 0-.002 0-.003 0-.002-.001-.004-.001-.005 0-.002 0-.002-.001-.003 0-.002-.001-.005-.001-.007 0-.001 0-.002 0-.003 0-.002 0-.003-.001-.005 0-.002 0-.002-.001-.004 0-.002-.001-.005-.001-.007 0-.001 0-.002-.001-.003 0-.002 0-.003-.001-.005 0-.002 0-.002-.001-.004 0-.002-.001-.005-.001-.007 0-.001 0-.003-.001-.004 0-.001 0-.003-.001-.004 0-.002 0-.002-.001-.004 0-.002-.001-.004-.001-.007 0-.001 0-.003-.001-.004 0-.001 0-.003-.001-.004 0-.002 0-.002-.001-.004 0-.002-.001-.005-.001-.007 0-.001 0-.002 0-.003 0-.002-.001-.003-.001-.005s0-.002-.001-.004c0-.002-.001-.004-.001-.005 0-.002-.001-.004-.001-.005s0-.003-.001-.004c0-.002 0-.003-.001-.004 0-.001-.001-.003-.001-.005s-.001-.004-.001-.006c0-.001 0-.003-.001-.004 0-.002 0-.002-.001-.004s0-.003-.001-.004c0-.003-.001-.004-.001-.007 0-.001 0-.002 0-.003 0-.002-.001-.003-.001-.005v-.002c-.001-.003-.001-.005-.001-.008 0-.001 0-.002-.001-.003 0-.002-.001-.003-.001-.005 0-.001 0-.002-.001-.003 0-.003-.001-.005-.001-.008 0-.001 0-.002-.001-.003 0-.002-.001-.003-.001-.005v-.002c-.001-.003-.001-.006-.002-.009 0-.001 0-.002 0-.002 0-.002 0-.003-.001-.005 0-.001 0-.002-.001-.003 0-.003-.001-.005-.001-.008 0-.001 0-.002 0-.002 0-.003-.001-.004-.001-.006 0-.001 0-.002 0-.002-.001-.003-.001-.005-.001-.008 0-.001 0-.002 0-.003 0-.002-.001-.003-.001-.005 0-.001 0-.002 0-.002-.001-.004-.001-.006-.002-.009 0-.001 0-.002 0-.002 0-.002-.001-.003-.001-.005 0-.001 0-.001 0-.001-.001-.004-.001-.006-.002-.009 0-.001 0-.002 0-.003 0-.002 0-.003-.001-.005 0-.001 0-.002-.001-.003-.001-.003-.001-.005-.001-.008 0-.001 0-.002 0-.002 0-.002-.001-.003-.001-.005v-.001c-.001-.004-.001-.007-.002-.011 0-.002-.001-.004-.001-.006v-.001c-.001-.003-.001-.007-.002-.01v-.001c0-.002-.001-.004-.001-.006-.001-.004-.001-.008-.002-.012 0-.002-.001-.004-.001-.006v-.001c-.001-.006-.002-.012-.003-.017-.001-.006-.002-.012-.003-.018v-.001c-.001-.006-.002-.012-.003-.018-.001-.006-.002-.012-.003-.018v-.001c-.002-.013-.005-.024-.007-.036-.004-.018-.007-.037-.011-.055-.001-.006-.002-.012-.004-.018-.002-.012-.005-.024-.007-.037-.006-.031-.012-.061-.018-.091-.001-.006-.002-.012-.004-.018-.003-.012-.005-.024-.008-.036 0 0 0 0 0-.001-.001-.006-.002-.012-.004-.018-.001-.006-.003-.012-.004-.018-.001-.006-.003-.012-.004-.018s-.003-.012-.004-.018v-.001c-.001-.006-.002-.012-.004-.018-.001-.006-.003-.012-.004-.018-.001-.006-.003-.012-.004-.018-.001-.006-.002-.011-.004-.017 0-.001 0-.001 0-.001-.001-.006-.003-.012-.004-.017v-.002c-.001-.006-.002-.011-.004-.017v-.001c-.001-.006-.003-.011-.004-.017v-.001c-.001-.006-.002-.011-.004-.016 0-.001 0-.002 0-.002-.001-.002-.001-.004-.001-.006 0-.001 0-.001 0-.002-.001-.003-.001-.006-.002-.009 0-.001 0-.002-.001-.003 0-.002-.001-.003-.001-.005 0-.001 0-.002-.001-.003-.001-.003-.001-.005-.002-.007 0-.001 0-.002-.001-.003 0-.002-.001-.003-.001-.005 0-.001 0-.002-.001-.003-.001-.003-.001-.005-.002-.008 0-.001 0-.002-.001-.003 0-.002-.001-.003-.001-.004s-.001-.003-.001-.004c0-.002-.001-.004-.001-.006 0-.001-.001-.003-.001-.004 0-.002 0-.002-.001-.004 0-.002-.001-.003-.001-.005s-.001-.004-.001-.005-.001-.003-.001-.004-.001-.002-.001-.003c0-.002-.001-.004-.001-.006s-.001-.002-.001-.004-.001-.003-.001-.005c0-.001-.001-.002-.001-.003-.001-.002-.001-.005-.002-.007v-.002c-.001-.003-.001-.005-.002-.007 0-.001 0-.002-.001-.003-.001-.003-.001-.005-.002-.008v-.001c-.001-.002-.001-.005-.002-.007 0-.001 0-.001 0-.002-.001-.003-.001-.005-.002-.008 0 0 0 0 0-.001-.001-.002-.001-.005-.002-.007 0-.001 0-.001 0-.002-.001-.003-.001-.005-.002-.008 0 0 0 0 0-.001-.001-.003-.001-.005-.002-.007 0-.001 0-.001 0-.002-.001-.005-.003-.011-.004-.016v-.001c-.001-.006-.003-.011-.004-.017v-.001c-.001-.006-.003-.012-.004-.018-.002-.009-.004-.018-.006-.027l-1.944.468c.146.673.259 1.369.319 2.066z"/><path d="m14.689 31.947c.009.001.018.001.026.002.006 0 .012.001.017.001h.001c.009.001.017.001.026.002.006 0 .011.001.017.001.003 0 .006 0 .008.001h.001c.006 0 .011.001.017.001h.001c.005 0 .011.001.017.001h.001c.003 0 .005 0 .008.001h.001c.003 0 .006 0 .008.001.003 0 .005 0 .008.001h.002.007c.003 0 .006 0 .009.001h.001c.002 0 .005 0 .007.001h.001c.006 0 .011.001.017.001h.002.007.001c.003 0 .005 0 .008.001h.002.006.002c.005 0 .011.001.016.001h.002.007.001c.003 0 .005 0 .008.001h.001.007.001c.006 0 .011.001.017.001h.001.007.002.008.001.007.002.007.008.001.007.001.009.001.007.002.007.001.008.002.007.002.008.008.002.007.002.008.002.006.002.008.001.007.003.006.002.008.001.007.002c.005 0 .011.001.016.001h.002.007.002.008.001.007.003.007.009.001.007.001.008.001.007.003.006.002.008.002.006.003.008.002.006.003.006.002.008.002.006.002.008.008.002.006.002.008.002.006.003.008.008.003.006.003.008.002.006.003.005.003.007.003.006.003.008.001.007.003.006.002.008.003.006.002.008.002.007.003.006.002.008.002.006.003.007.002.006.003.006.002.008.002.006.002.016.002.007.001.009.001.006.003.007.002.008.003.006.002.008.001.007.003.006.002.008.002.006.002.008.002.006.003.006.002.008.003.005.003.008.001.007.003.006.002.008.002.006.002.016.002.007.002.008.002.007.002.007.009.002.007.002.008.001.007.003.007.009.002.007.002.008.001.007.002.006.002.008.001.007.002.008.008.003.006.002.008.002.006.002.008.007.002.005.003.005.002.007.001.007.002.006.001.007.001.072l-.016-2-.121.033c-.664 0-1.332-.047-1.984-.139l-.28 1.98c.3.043.603.077.909.102h.001c.014.002.029.003.043.004z"/><path d="m29.687 18.961 1.955.421c.166-.772.277-1.566.327-2.375l-1.996-.124c-.044.698-.14 1.398-.286 2.078z"/><path d="m18.78 31.759c.006-.001.012-.002.018-.003h.001c.006-.001.012-.002.017-.003h.001c.006-.001.012-.002.017-.003h.002c.003 0 .005-.001.008-.001.003 0 .005-.001.007-.001h.003c.003 0 .005-.001.008-.001h.002c.002 0 .004-.001.006-.001h.003c.003 0 .005-.001.008-.001h.003c.002 0 .003-.001.005-.001s.002 0 .004-.001c.002 0 .005-.001.007-.001.001 0 .002 0 .003-.001.002 0 .003-.001.005-.001s.002 0 .004-.001c.002 0 .004-.001.006-.001s.003-.001.005-.001c.001 0 .002 0 .004-.001.002 0 .003 0 .004-.001.001 0 .003 0 .004-.001.003 0 .005-.001.007-.001h.003c.005-.001.011-.002.016-.003h.001c.006-.001.012-.002.017-.003h.002c.006-.001.011-.002.017-.003h.001c.006-.001.011-.002.017-.003h.001c.006-.001.011-.002.018-.003.619-.119 1.225-.273 1.817-.461l-.606-1.906c-.664.211-1.35.373-2.04.482l.312 1.975c.088-.019.175-.033.262-.049z"/><path d="m28.969 10.715 1.852-.755s0-.001-.001-.001c-.001-.002-.002-.005-.003-.007 0-.001-.001-.002-.001-.003-.001-.002-.001-.003-.002-.005 0-.001-.001-.002-.001-.003-.001-.002-.002-.004-.003-.007 0-.001-.001-.002-.001-.003-.001-.002-.001-.003-.002-.005 0-.001-.001-.003-.001-.004-.001-.002-.002-.004-.003-.006 0-.001-.001-.002-.001-.003-.001-.002-.001-.003-.002-.005 0-.001-.001-.002-.001-.003-.001-.002-.002-.004-.003-.006 0-.001-.001-.002-.001-.003-.001-.002-.001-.003-.002-.005s-.001-.003-.002-.005-.001-.003-.002-.005c0-.001-.001-.002-.001-.003-.001-.002-.002-.004-.002-.006-.001-.001-.001-.002-.002-.004s-.001-.003-.002-.005c0-.001-.001-.002-.001-.003-.001-.002-.002-.004-.003-.006-.001-.001-.001-.002-.002-.004 0-.001-.001-.003-.002-.004s-.001-.002-.002-.004-.002-.004-.003-.006c-.001-.001-.001-.003-.002-.004 0-.001-.001-.002-.001-.003-.001-.002-.002-.005-.003-.007 0-.001-.001-.002-.001-.003-.001-.001-.001-.003-.002-.004 0-.001-.001-.002-.001-.003-.001-.002-.002-.005-.003-.007 0-.001-.001-.002-.001-.003-.001-.002-.001-.002-.002-.004 0-.001-.001-.002-.001-.003-.001-.002-.002-.005-.003-.007 0-.001-.001-.002-.001-.003-.001-.001-.001-.003-.002-.004-.001-.002-.001-.003-.002-.005-.001-.001-.001-.003-.002-.004s-.001-.003-.002-.004-.001-.002-.002-.004-.002-.004-.002-.006c-.001-.001-.001-.003-.002-.004 0-.001-.001-.002-.001-.003-.002-.005-.004-.01-.006-.015 0-.001-.001-.001-.001-.002-.001-.003-.002-.005-.004-.008 0-.001-.001-.001-.001-.002-.001-.002-.001-.003-.002-.005l-.001-.001c-.001-.003-.003-.006-.004-.01v-.001c-.001-.002-.001-.003-.002-.005v-.001c-.002-.004-.003-.006-.004-.01v-.001c-.002-.006-.005-.011-.007-.016v-.001c-.002-.006-.005-.01-.007-.016v-.001c-.276-.638-.591-1.254-.944-1.846l-1.718 1.025c.359.604.674 1.235.937 1.88z"/><path d="m16 2v-2c-.003 0-.006 0-.009 0-.001 0-.001 0-.002 0-.003 0-.005 0-.008 0-.001 0-.001 0-.001 0-.003 0-.006 0-.009 0h-.002c-.002 0-.005 0-.007 0h-.001c-.003 0-.006 0-.008 0 0 0-.001 0-.002 0-.003 0-.005 0-.007 0-.001 0-.001 0-.002 0-.003 0-.006 0-.008 0 0 0-.001 0-.002 0-.002 0-.005 0-.007 0 0 0-.001 0-.002 0-.003 0-.006 0-.008 0-.001 0-.001 0-.002 0-.002 0-.005 0-.007 0-.001 0-.001 0-.002 0-.003 0-.006 0-.009 0h-.001c-.002 0-.005 0-.008 0-.001 0-.001 0-.002 0-.003 0-.006 0-.008 0-.001 0-.001 0-.001 0-.003 0-.005 0-.008 0-.001 0-.001 0-.001 0-.003 0-.006 0-.009 0h-.001c-.003 0-.005 0-.008 0-.001 0-.001 0-.002 0-.003 0-.006 0-.008 0-.003 0-.005 0-.008 0-.001 0-.001 0-.002 0-.006 0-.011 0-.017 0-.001 0-.002 0-.002 0-.003 0-.006 0-.009 0-.001 0 0 0 0 0-.003 0-.006 0-.009 0h-.001c-.003 0-.006 0-.008 0h-.001c-.003 0-.006 0-.009 0h-.002c-.003 0-.005 0-.008 0h-.001c-.003 0-.006 0-.008 0h-.002c-.002 0-.005 0-.007 0h-.001c-.003 0-.006 0-.008 0-.001 0-.001 0-.002 0-.002 0-.005 0-.007 0-.001 0-.001 0-.001 0-.003 0-.006 0-.009 0 0 0-.001 0-.002 0-.002 0-.005 0-.007 0-.001 0-.002 0-.002 0-.003 0-.005 0-.008 0h-.001c-.002 0-.005 0-.007 0h-.002c-.003 0-.006 0-.009 0-.003 0-.005 0-.008 0-.001 0-.001 0-.002 0-.003 0-.005 0-.008 0h-.001c-.003 0-.006 0-.008 0h-.002c-.003 0-.005 0-.008 0-.001 0 0 0 0 0-.003 0-.006 0-.009 0-.001 0-.002 0-.002 0-.002 0-.005 0-.007 0h-.003c-.003 0-.006 0-.008 0h-.002c-.003 0-.005 0-.008 0h-.001c-.003 0-.006 0-.009 0h-.001c-.003 0-.005 0-.008 0h-.001c-.003 0-.006 0-.009 0h-.001c-.003 0-.005 0-.008 0h-.001c-.003 0-.006 0-.009 0h-.001c-.002 0-.005 0-.007 0-.001 0-.002 0-.002 0-.003 0-.006 0-.008 0-.001 0 0 0 0 0-.003 0-.006 0-.009 0h-.001c-.003 0-.006 0-.009 0-.003 0-.006 0-.008 0-.001 0-.001 0-.002 0-.006 0-.012 0-.017.001h-.001c-.006 0-.012 0-.018.001h-.002c-.003 0-.005 0-.008 0-.001 0 0 0 0 0-.003 0-.006 0-.009 0h-.001c-.003 0-.006 0-.008 0h-.003c-.003 0-.006 0-.009 0h-.001c-.003 0-.005 0-.008 0h-.001c-.003 0-.006 0-.009 0h-.001c-.003 0-.005 0-.008 0h-.001c-.003 0-.006 0-.009 0h-.001c-.003 0-.006 0-.008 0h-.001c-.006 0-.012 0-.018.001h-.001c-.006 0-.012 0-.018.001h-.001c-.006 0-.012 0-.018.001h-.001c-.006 0-.012 0-.018.001-.001 0 0 0 0 0-.007 0-.013.001-.019.001-.016.001-.031.001-.047.002-.552.026-1.097.08-1.634.16l.296 1.978c.689-.095 1.394-.147 2.096-.147z"/><path d="m11.861 2.621-.59-1.911c-.77.238-1.515.532-2.231.879l.871 1.8c.628-.304 1.284-.562 1.95-.768z"/><path d="m28.202 22.869 1.742.983c.001-.001.001-.002.002-.003l.001-.001c.002-.003.003-.006.005-.009l.001-.001c.001-.002.002-.003.003-.005l.001-.001c.001-.003.003-.006.005-.009l.001-.001c.001-.002.002-.003.003-.005 0-.001.001-.001.001-.002.002-.003.003-.005.004-.007 0-.001.001-.002.001-.002.001-.002.002-.004.003-.005s.001-.002.002-.003c.001-.002.002-.004.003-.006 0-.001.001-.002.002-.003s.002-.003.002-.004.001-.003.002-.004c.001-.002.002-.003.003-.005.001-.001.001-.002.002-.003.001-.002.002-.003.003-.005s.002-.003.003-.005c.001-.001.001-.002.002-.003s.001-.002.002-.004c.001-.001.001-.003.002-.004.001-.002.002-.003.003-.005.001-.001.001-.002.002-.003s.001-.002.002-.004.002-.004.003-.005.001-.003.002-.004c0-.001.001-.002.002-.003s.002-.003.002-.004c.001-.002.002-.003.003-.005.001-.001.002-.003.002-.004s.001-.002.002-.003c.001-.002.002-.004.004-.006 0-.001.001-.001.001-.002.001-.002.002-.003.003-.005 0-.001.001-.002.001-.003.001-.002.002-.004.004-.006 0-.001.001-.002.001-.002.001-.002.002-.003.003-.005 0-.001.001-.001.001-.002.001-.002.002-.004.004-.007 0 0 .001-.002.001-.002.001-.002.002-.004.003-.006 0-.001.001-.001.001-.002.001-.002.002-.004.004-.007 0-.001.001-.002.001-.002.001-.002.002-.004.004-.007.001-.003.003-.005.004-.007 0 0 .001-.001.001-.002.001-.003.003-.005.004-.007s.003-.005.004-.007l.001-.001c.001-.003.003-.005.004-.007v-.001c.001-.002.003-.005.004-.007 0 0 0-.001.001-.001.001-.002.003-.005.004-.007l.001-.001c.001-.002.002-.004.003-.006 0 0 .001-.001.001-.002.001-.002.003-.005.004-.007v-.001c.001-.003.003-.005.004-.007v-.001c.001-.002.003-.005.004-.007 0 0 .001-.001.001-.002.001-.002.002-.004.004-.007v-.001c.002-.003.003-.005.004-.008l.001-.001c.003-.005.005-.01.008-.015 0 0 .001-.001.001-.002.001-.002.003-.005.004-.007v-.001c.001-.003.003-.005.004-.007l.001-.001c.001-.002.003-.005.004-.007l.001-.001c.001-.002.003-.005.004-.007v-.001c.001-.003.003-.005.004-.008 0 0 0-.001.001-.001.001-.002.002-.005.004-.007v-.001c.001-.003.003-.005.004-.008v-.001c.002-.003.003-.005.004-.008.001-.003.003-.005.004-.008 0 0 0-.001.001-.001.003-.005.005-.01.008-.016v-.001c.003-.005.005-.01.008-.016 0 0 0 0 .001-.001.003-.005.006-.011.008-.016.001-.003.003-.005.004-.008.001-.003.003-.005.004-.008.001-.003.003-.005.004-.008 0 0 0 0 0-.001.003-.005.006-.011.008-.016.003-.005.006-.011.008-.016v-.001c.003-.005.005-.011.008-.016 0 0 0 0 0-.001.001-.003.003-.005.004-.008.001-.003.003-.005.004-.008.001-.003.003-.005.004-.008.003-.005.006-.011.008-.016.003-.006.006-.011.008-.016.003-.005.006-.011.008-.016v-.001c.003-.005.006-.011.008-.016.013-.025.025-.05.038-.075.018-.036.036-.072.054-.109.221-.448.421-.907.599-1.378l-1.87-.71c-.246.65-.546 1.289-.889 1.897z"/><path d="m25.624 26.168 1.375 1.452c.051-.048.102-.097.152-.146.009-.008.017-.016.025-.025l.001-.001c.003-.002.005-.005.008-.007.004-.004.008-.008.012-.012.004-.004.008-.008.012-.012l.001-.001c.004-.004.008-.008.012-.012h.001l.008-.008.004-.004.001-.001.006-.006c.001-.001.001-.001.001-.001l.004-.004.002-.002.006-.006.002-.002.011-.011.002-.002.005-.005.003-.003.003-.003.003-.003.004-.004.003-.003.003-.003.003-.003.004-.004.003-.003.003-.003.005-.005.003-.003.003-.003.003-.003.004-.004.003-.003.003-.003s.003-.003.004-.004l.004-.004c.001-.001.002-.002.002-.002l.004-.004c.001-.001.002-.002.002-.002l.004-.004.002-.002.005-.005.002-.002.004-.004.002-.002.005-.005c.001-.001.002-.002.002-.002l.004-.004s.001-.001.001-.001l.005-.005c.001-.001.001-.001.001-.001l.005-.005s.001-.001.001-.001l.005-.005.002-.002.005-.005s.001-.001.001-.001l.005-.005s.001-.001.002-.002c.002-.002.004-.004.005-.006.001-.001.001-.001.001-.001.002-.002.003-.003.005-.005.001-.001.001-.001.002-.002.002-.002.004-.004.006-.006 0 0 .001-.001.001-.001.002-.002.004-.004.006-.006.002-.002.004-.004.006-.006l.001-.001c.004-.004.008-.008.012-.013 0 0 0 0 .001-.001.004-.004.008-.009.013-.013l.006-.006v-.001c.004-.004.008-.009.013-.013.004-.004.008-.009.013-.013.391-.404.76-.829 1.107-1.273l-1.576-1.232c-.425.547-.901 1.069-1.408 1.55z"/><path d="m5.318 27.912c.004.004.009.008.013.011.001.001.001.001.002.002.002.002.004.003.006.005.001.001.002.001.002.001.002.002.003.003.004.004s.003.002.004.003c0 0 .002.002.003.002.001.001.003.003.004.004s.002.002.003.002c.002.002.004.003.006.005 0 0 .001.001.001.001.002.002.004.003.005.005l.001.001c.002.002.004.004.006.006.492.437 1.012.845 1.555 1.219.005.003.01.007.015.01 0 0 .001.001.001.001.002.002.005.003.007.005l.001.001c.002.001.004.003.006.004l.001.001c.002.002.005.003.007.005 0 0 .001.001.001.001.002.001.004.003.006.004 0 0 .001.001.001.001.002.001.004.003.006.004.001.001.002.001.003.002.002.001.003.002.005.003.001.001.003.002.004.003s.002.002.003.003.002.002.004.002c.001.001.002.001.003.002.002.001.004.003.006.004.001.001.002.001.003.002s.002.002.004.003c.003.002.006.004.009.006l.002.001c.005.003.009.006.014.009.01.006.018.012.028.019l1.117-1.659c-.579-.39-1.134-.827-1.649-1.3l-1.352 1.474c.043.041.085.079.129.118z"/><path d="m5.033 7.297-1.566-1.244c-.22.277-.431.561-.632.852-.01.014-.019.027-.028.04-.003.005-.007.01-.01.015-.003.005-.007.01-.01.015 0 0 0 .001-.001.001-.009.012-.017.025-.026.038-.003.005-.007.01-.01.015-.003.005-.006.01-.01.015v.001c-.003.003-.005.006-.007.008 0 0 0 .001-.001.001-.001.002-.002.003-.003.005v.001c-.002.003-.004.006-.006.009-.003.005-.006.009-.01.014v.001c-.003.005-.006.009-.01.014v.001c-.003.005-.006.01-.01.015-.01.014-.018.027-.027.04-.003.005-.006.01-.01.015v.001c-.003.005-.006.01-.01.015-.003.003-.005.006-.007.009-.003.006-.006.01-.01.015-.001.002-.002.004-.003.005-.003.004-.004.007-.007.01v.001c-.004.005-.006.009-.01.014-.003.005-.006.01-.01.015v.001c-.006.009-.011.016-.016.025-.004.005-.006.009-.01.015 0 0 0 .001-.001.001-.003.005-.006.009-.009.014-.003.006-.006.01-.01.015-.002.003-.004.006-.006.01-.003.005-.006.01-.01.015-.003.005-.006.01-.01.015v.001c-.003.005-.006.01-.009.015-.138.215-.271.433-.398.655l1.734.997c.347-.605.744-1.189 1.179-1.736z"/><path d="m8.097 4.442-1.131-1.65c-.108.075-.216.151-.322.227-.005.004-.01.007-.015.01 0 0-.001.001-.001.001-.005.004-.01.007-.014.01 0 0-.001.001-.001.001-.003.003-.005.004-.007.006-.003.002-.005.003-.007.005l-.002.001c-.002.002-.004.003-.006.005-.001 0-.001 0-.002.001-.002.001-.003.002-.005.004-.001 0-.001 0-.002.001-.002.001-.004.003-.006.004 0 0-.002.001-.002.001-.002.002-.003.003-.005.004 0 .001-.002.002-.002.002-.002.002-.004.003-.006.004-.001.001-.002.002-.002.002-.002.001-.003.002-.005.003-.001.001-.002.002-.004.003-.001.001-.002.002-.003.003s-.003.002-.003.002c-.002.001-.003.002-.005.003-.001.001-.003.002-.004.004-.001 0-.002.001-.003.002s-.002.001-.004.002c-.001.002-.003.003-.005.004-.001.001-.002.002-.003.003-.001 0-.002.001-.003.002-.002.001-.004.003-.006.004-.001.001-.001.001-.002.002s-.003.002-.004.003c-.001 0-.002.001-.003.001-.002.002-.004.004-.006.005-.001 0-.001.001-.002.001-.002.002-.003.003-.004.004h-.001c-.003.003-.006.005-.009.007-.004.003-.009.007-.014.01 0 0-.001.001-.001.001-.005.004-.009.007-.014.01-.005.004-.009.008-.014.011-.004.003-.006.005-.009.007h-.001c-.005.004-.01.007-.014.011-.005.004-.01.008-.015.011-.195.147-.387.298-.575.453-.022.019-.044.036-.065.054-.005.004-.009.008-.014.012-.005.004-.009.007-.013.011 0 0-.001.001-.001.001-.005.004-.009.007-.013.011-.004.003-.006.005-.01.007-.001.002-.003.003-.004.004-.003.003-.006.005-.009.008 0 0-.001.001-.001.001-.004.003-.008.007-.013.01 0 0-.001.001-.001.001-.003.003-.006.005-.008.008-.002.001-.003.002-.004.003-.001 0-.002.001-.002.001-.002.002-.005.005-.007.007h-.001c-.002.002-.003.003-.005.004 0 0 0 0-.001.001-.002.002-.004.004-.007.006l-.001.001c-.002.002-.003.002-.004.004-.001 0-.001.001-.001.001-.003.002-.005.004-.008.006l-.001.001c-.002.002-.005.004-.007.006 0 0-.001.001-.002.002-.001 0-.002.001-.003.002s-.002.002-.003.002c-.002.002-.003.004-.005.005-.001.001-.002.002-.003.002-.001.001-.002.002-.003.003s-.002.002-.003.002c-.002.002-.003.003-.006.005 0 .001-.001.002-.002.002-.001.002-.002.002-.003.003s-.002.002-.002.002c-.003.002-.004.003-.006.005-.001.001-.002.002-.003.002-.001.001-.002.002-.003.003s-.002.002-.003.002c-.001.002-.003.003-.005.005-.001.001-.002.002-.003.002-.001.001-.002.002-.003.003-.002.001-.003.003-.005.004-.001.001-.002.002-.003.003s-.002.002-.003.002c-.001.001-.003.003-.004.004s-.002.002-.004.003c-.001.001-.002.002-.003.003s-.002.002-.003.003c-.002.001-.002.002-.004.003-.001.001-.003.002-.004.004-.001 0-.002.001-.003.002s-.003.003-.005.004c-.001.001-.001.002-.002.002-.001.001-.003.003-.004.004s-.001.001-.002.002c-.002.001-.004.003-.006.005 0 0-.001.001-.002.002s-.003.002-.004.003c-.001 0-.002.001-.003.002-.001.002-.003.003-.005.005 0 0-.002.002-.003.002 0 .001-.002.002-.003.003s-.003.002-.004.003-.002.003-.003.004c-.001 0-.002.001-.003.002-.002.001-.003.003-.005.004 0 .001-.001.002-.002.002-.002.002-.003.003-.005.004 0 .001-.001.001-.002.002-.002.002-.004.003-.005.005-.001.001-.001.001-.002.001-.002.002-.003.003-.005.004 0 .001-.001.001-.002.002-.002.002-.003.003-.005.005-.001.001-.002.001-.002.002-.002.001-.003.002-.005.004 0 0-.001.001-.002.002s-.003.003-.005.004c-.001.001-.002.002-.002.002-.002.002-.004.003-.005.004 0 0-.001.001-.001.001-.002.002-.004.004-.006.005-.001.001-.001.002-.002.002-.002.002-.004.004-.006.005 0 0-.001.001-.001.001-.002.002-.003.004-.005.005 0 0-.001.001-.002.002-.002.001-.004.003-.006.005l-.001.001c-.002.001-.004.003-.005.005 0 0-.001.001-.001.001-.003.001-.005.003-.007.005l-.001.001c-.002.002-.003.003-.005.005 0 0-.001.001-.001.001-.003.002-.005.004-.007.005 0 0-.001.001-.001.001-.002.002-.004.004-.006.006h-.001c-.002.002-.003.004-.005.006 0 0-.001.001-.001.001-.003.002-.005.004-.007.005 0 0-.001.001-.001.001-.002.002-.004.004-.005.005 0 0-.001.001-.002.001-.002.002-.004.004-.006.006l-.001.001c-.002.002-.003.003-.005.004-.001.001-.001.001-.001.002-.002.002-.004.003-.006.005-.001.001-.001.001-.002.002-.002.001-.004.003-.005.004h-.001c-.002.003-.004.005-.006.006-.001.001-.001.001-.002.002-.002.002-.004.004-.006.005-.002.002-.004.004-.006.006 0 0-.001.001-.002.002-.002.001-.004.003-.006.005 0 0-.001 0-.001.001-.001.001-.003.003-.005.005 0 0-.001.001-.001.001-.002.002-.004.003-.006.005 0 0-.001.001-.001.001-.002.002-.004.003-.006.005l-.001.001c-.002.002-.004.004-.006.006 0 0-.001.001-.001.001-.005.004-.009.008-.013.011-.003.003-.005.005-.007.007-.003.002-.005.004-.007.006 0 0-.001.001-.001.001-.002.002-.004.003-.006.005 0 0-.001.001-.001.001-.002.002-.004.004-.005.005s0 0-.001.001c-.003.002-.004.004-.006.006 0 0-.001.001-.001.001-.003.002-.005.003-.006.005 0 0 0 0-.001.001-.002.002-.004.003-.006.005-.001.001-.001.001-.002.002-.002.002-.004.003-.006.005-.002.002-.004.004-.006.006l-.001.001c-.002.002-.004.004-.006.006-.003.002-.005.004-.007.005 0 0-.001.001-.001.001-.002.003-.004.004-.006.006 0 0-.001.001-.002.001-.001.002-.003.003-.004.005-.001.001-.001.001-.002.001-.002.002-.003.004-.005.006-.001 0-.001.001-.002.001-.002.002-.004.004-.006.005-.002.003-.004.004-.006.006-.001.001-.001.001-.002.002-.002.002-.004.003-.005.005 0 0-.001.001-.001.001-.002.002-.004.003-.006.005l-.001.001c-.002.002-.004.004-.006.006-.001 0-.001.001-.002.001-.001.002-.003.003-.004.004s-.001.001-.002.002c-.002.002-.004.003-.005.005l-.001.001 1.364 1.463c.511-.476 1.062-.918 1.638-1.313z"/><path d="m2.948 10.924-1.864-.725c-.071.182-.138.366-.203.551-.006.018-.012.035-.018.053-.003.009-.006.018-.009.027-.006.018-.012.035-.018.053-.002.006-.004.011-.006.017v.001c-.002.006-.004.012-.006.017v.001c-.002.006-.004.011-.006.017v.001c-.002.006-.004.011-.006.017v.001c-.002.005-.004.011-.005.017v.001c-.002.006-.004.011-.005.017v.001c-.001.003-.002.005-.003.008v.001c-.002 0-.003.003-.004.005v.001c-.001.003-.002.005-.003.008v.001c-.001.002-.002.005-.002.007v.002c-.001.003-.002.005-.003.008v.001c-.001.002-.001.005-.002.007v.001c-.001.003-.002.006-.003.008v.001c-.001.003-.002.005-.003.008v.001c-.001.003-.002.005-.003.008l-.001.002c-.001.002-.001.005-.002.007v.001c-.001.003-.002.006-.003.008 0 0 0 .001-.001.002-.001.002-.002.005-.002.007-.001.003-.002.006-.003.008 0 0 0 .001-.001.002-.001.002-.002.005-.002.007v.001c-.001.003-.002.005-.003.008 0 .001 0 .001-.001.002-.001.002-.002.005-.002.007v.001c-.001.003-.002.005-.002.008 0 .001 0 .001-.001.002-.001.003-.002.005-.003.008v.001c-.001.002-.001.005-.002.007v.001c-.001.003-.002.006-.003.008 0 0 0 .001-.001.002-.001.002-.001.004-.002.006 0 .001 0 .001-.001.002-.001.002-.002.005-.002.007 0 .001 0 .001-.001.002-.001.002-.001.004-.002.006 0 0-.001.002-.001.002-.001.002-.002.005-.002.007 0 .001 0 .001-.001.002-.001.002-.001.004-.002.005 0 .001-.001.002-.001.003-.001.002-.001.005-.002.007 0 .001 0 .001-.001.002-.001.002-.001.004-.002.006 0 0-.001.002-.001.002-.001.003-.002.005-.002.007v.006c-.001.002-.001.004-.002.006 0 .001 0 .001-.001.002-.001.002-.001.005-.002.007 0 .001 0 .002-.001.003-.001.002-.001.003-.002.005 0 .001 0 .001-.001.002-.001.002-.001.005-.002.007 0 .001-.001.002-.001.002-.001.003-.001.004-.002.006 0 .001-.001.002-.001.003-.001.002-.001.004-.002.006 0 .001-.001.003-.001.003 0 .002-.001.003-.001.004s-.001.003-.002.005c0 .002-.001.003-.001.005 0 .001-.001.003-.001.004s-.001.003-.001.004c-.001.002-.001.004-.002.006 0 .001-.001.002-.001.004 0 .001-.001.003-.001.004s-.001.002-.001.004c-.001.002-.001.004-.002.006 0 .001-.001.002-.001.003 0 .002-.001.003-.001.004s-.001.002-.001.003c-.001.003-.001.005-.002.007 0 .001-.001.002-.001.003s-.001.003-.001.004-.001.002-.001.003c-.001.002-.001.005-.002.007 0 .001-.001.002-.001.003s-.001.003-.001.004-.001.003-.001.004c-.001.002-.001.004-.002.006 0 .001-.001.002-.001.003s-.001.003-.001.005c-.001.003-.002.007-.003.01 0 .001-.001.002-.001.003s-.001.003-.001.005c-.001.002-.001.004-.002.005 0 .001-.001.003-.001.005 0 .001-.001.002-.001.003-.001.003-.002.006-.003.009v.001c0 .001-.001.003-.001.005 0 .001 0 .001-.001.002-.002.005-.003.011-.005.016v.001c-.001.004-.002.007-.003.011-.001.002-.001.004-.002.006-.002.006-.003.011-.005.017v.001c-.001.004-.002.007-.003.011-.001.002-.001.004-.002.006-.003.01-.006.019-.008.029-.09.311-.17.625-.242.944l1.952.437c.15-.675.355-1.349.608-1.999z"/></svg>