<svg width="102" height="70" viewBox="0 0 102 70" fill="none" xmlns="http://www.w3.org/2000/svg">
<path d="M11.6797 18.4624C11.7681 15.0499 14.6866 11.8124 18.1358 11.4624C22.5579 10.9374 27.0683 11.4624 31.5788 11.3749C35.3818 11.3749 39.0963 11.0249 42.8992 11.4624C46.26 11.8124 49.0901 14.8749 49.1785 18.1999C49.4438 21.6999 49.4438 25.2874 49.1785 28.7874C48.9132 31.3249 46.6137 33.4249 44.049 33.5124C38.9194 33.8624 33.8783 33.3374 28.7487 33.6874C22.4694 34.2124 16.7208 38.0624 13.8022 43.5749C10.7952 49.1749 10.9721 56.2623 14.3329 61.5998C16.6323 65.4498 20.3468 68.3373 24.592 69.8248H6.28477C3.27778 65.7123 1.33209 60.8998 0.62456 55.9123L0.447678 54.2498C0.359237 53.0248 0.359237 51.8874 0.447678 50.6624L0.62456 48.5624C1.50897 40.8624 5.84256 33.9499 11.6797 28.9624C11.6797 25.4624 11.5028 21.9624 11.6797 18.4624ZM28.3949 19.4249C26.1839 20.6499 26.007 23.9749 28.0412 25.4624C30.2522 27.4749 34.232 25.7249 34.232 22.7499C34.5858 19.8624 30.7828 17.5874 28.3949 19.4249Z" fill="#C75C48"/>
<path d="M53.0692 25.3749C53.423 21.6124 56.9606 18.6374 60.7636 18.8124C67.2197 18.7249 73.7643 18.8999 80.2205 18.7249C83.0506 18.7249 86.2345 18.6374 88.2686 20.8249C91.8947 24.2374 90.3028 29.6624 90.6565 34.0374C91.0103 36.9249 89.4184 40.1624 86.4114 40.7749C80.309 41.5624 74.1181 40.3374 68.0157 41.4749C59.9676 43.1374 53.423 50.4873 53.0692 58.6248C52.7154 62.6498 54.0421 66.5873 56.0762 69.9998H43.606C39.0071 58.2748 43.1638 44.2749 52.9808 36.4874C53.1576 32.8124 52.8039 29.0499 53.0692 25.3749ZM69.9614 26.7749C67.4851 28.0874 67.3966 31.8499 69.7845 33.1624C72.2608 34.9124 75.8869 32.5499 75.6216 29.7499C75.5332 27.1249 72.2609 25.2874 69.9614 26.7749Z" fill="#C75C48"/>
<path d="M93.7531 39.3749C101.271 47.4249 104.278 59.6749 100.121 69.9999H87.6507C89.4195 66.7624 90.8345 63.2624 90.6577 59.4999C90.6577 53.7249 87.6507 48.3874 83.2286 44.8874C87.5622 45.4124 91.7189 43.1374 93.7531 39.3749Z" fill="#C75C48"/>
<path d="M74.1179 1.225H65.0085C64.8316 1.225 64.7432 1.225 64.5663 1.225C64.6548 0.874999 64.6548 0.437499 64.6548 0H61.6478C61.6478 1.05 61.2056 2.0125 60.498 2.7125C59.7905 3.41249 58.8177 3.84999 57.7564 3.84999H48.5585C47.6741 3.84999 46.8782 3.58749 46.1707 3.0625C45.5516 2.625 45.1094 2.0125 44.844 1.3125C44.7556 0.874999 44.6672 0.437499 44.6672 0H41.6602C41.6602 1.3125 42.0139 2.5375 42.7215 3.58749C42.5446 3.76249 42.4561 3.93749 42.2793 4.11249C41.5717 4.81249 40.5104 5.24999 39.4492 5.24999H30.3398C28.2172 5.24999 26.4484 3.49999 26.4484 1.4C26.4484 0.962499 26.5368 0.437499 26.7137 0.0874999H23.6183C23.5298 0.524999 23.5298 0.962499 23.5298 1.4C23.5298 5.16249 26.6253 8.22499 30.4282 8.22499H39.626C41.7486 8.22499 43.6943 7.26249 44.9325 5.77499C45.9938 6.47499 47.3204 6.91249 48.7354 6.91249H57.7564C57.9333 6.91249 58.0217 6.91249 58.1986 6.91249C58.1101 7.34999 58.1101 7.69999 58.1101 8.13749C58.1101 11.9 61.2056 14.9625 65.0085 14.9625H74.2064C78.0093 14.9625 81.1047 11.9 81.1047 8.13749C81.0163 4.28749 77.9209 1.225 74.1179 1.225ZM76.8596 10.7625C76.1521 11.4625 75.1792 11.9 74.1179 11.9H65.0085C62.8859 11.9 61.1171 10.15 61.1171 8.04999C61.1171 6.99999 61.5593 6.03749 62.2669 5.33749C62.9744 4.63749 63.9472 4.19999 65.0085 4.19999H74.2064C76.3289 4.19999 78.0977 5.94999 78.0977 8.04999C78.0093 9.09999 77.5671 10.0625 76.8596 10.7625Z" fill="#C75C48"/>
</svg>
