<svg width="152" height="62" viewBox="0 0 152 62" fill="none" xmlns="http://www.w3.org/2000/svg">
<path d="M108.486 51.4014L105.312 49.0271L104.273 47.3253L125.32 36.5098C127.495 35.4304 130.985 28.1793 130.985 28.1793L149.107 24.6699L151.566 29.6049L137.809 41.8359C137.809 41.8359 129.959 40.3796 127.774 41.454L108.486 51.4014Z" fill="#54A7C7"/>
<path d="M103.627 49.5825C101.967 48.3977 100.338 47.3476 98.545 46.1926C98.834 48.1084 99.0929 49.8895 99.219 51.7003C100.753 51.0742 102.124 50.3432 103.627 49.5825Z" fill="#54A7C7"/>
<path d="M116.948 58.627C115.531 55.4075 114.113 52.1881 111.753 49.7452C110.448 52.0176 109.174 54.4247 107.736 56.7268C110.682 58.0483 113.815 58.3377 116.948 58.627Z" fill="#54A7C7"/>
<path d="M104.996 55.0759C104.387 54.222 103.644 53.3978 103.035 52.5439C100.529 53.8118 98.0528 55.2145 95.6371 56.8865C98.0338 57.6236 98.92 60.9619 101.329 61.1303C102.694 59.1274 103.764 57.0492 104.996 55.0759Z" fill="#54A7C7"/>
<path fill-rule="evenodd" clip-rule="evenodd" d="M70.7074 41.5404L95.3674 54.2448L93.3871 56.0039L92.7719 59.1103L68.3052 46.4959C62.6468 56.4233 57.9697 54.1583 57.9697 54.1583C57.9697 54.1583 56.4506 53.5587 53.9123 52.5267C53.3444 52.2931 53.0554 51.4465 52.7452 50.538C52.3863 49.4866 51.9991 48.3523 51.1186 47.9888C50.3404 47.6662 49.1747 47.9507 47.9574 48.2478C46.6153 48.5753 45.2106 48.9181 44.1938 48.4794C44.1938 48.4794 2.89271 30.3021 1.26354 25.3312C0.0500285 21.6337 1.44807 15.9462 4.03065 10.8851C6.59919 5.83673 10.2685 1.30997 13.953 0.0899574C18.9012 -1.53476 57.9587 21.1184 57.9535 21.1192L57.9587 21.1184C58.9017 21.6873 59.3947 22.9853 59.8678 24.2311C60.3009 25.3714 60.7173 26.4679 61.447 26.9214C62.2582 27.4146 63.4632 27.09 64.5788 26.7894C65.5428 26.5298 66.4401 26.288 66.959 26.6074L70.6754 28.9201C70.6754 28.9201 74.6014 31.8454 70.7074 41.5404ZM55.4277 27.7513C56.0048 26.6194 55.5551 25.2339 54.4231 24.6568L22.4506 8.35471C21.3187 7.77757 19.9332 8.2273 19.3561 9.35922C18.7789 10.4911 19.2287 11.8766 20.3606 12.4537L52.3331 28.7558C53.465 29.333 54.8505 28.8832 55.4277 27.7513ZM55.0011 33.901C56.133 34.4782 56.5828 35.8636 56.0056 36.9956C55.4285 38.1275 54.043 38.5772 52.9111 38.0001L20.9386 21.698C19.8066 21.1209 19.3569 19.7354 19.934 18.6035C20.5112 17.4716 21.8966 17.0218 23.0286 17.599L55.0011 33.901ZM48.9699 42.4903C49.5471 41.3584 49.0973 39.9729 47.9654 39.3958L15.9929 23.0937C14.8609 22.5166 13.4755 22.9663 12.8983 24.0982C12.3212 25.2301 12.7709 26.6156 13.9028 27.1927L45.8754 43.4948C47.0073 44.0719 48.3928 43.6222 48.9699 42.4903Z" fill="#54A7C7"/>
</svg>
