<svg width="192" height="71" viewBox="0 0 192 71" fill="none" xmlns="http://www.w3.org/2000/svg">
<path d="M171.749 26.1291C170.676 26.6757 169.711 27.2223 168.638 27.7689C165.097 22.1933 162.844 15.1964 157.157 11.4793C148.895 4.81043 135.591 5.68504 128.402 13.5565C128.402 14.9778 128.509 16.399 128.509 17.8203C129.367 18.2576 130.333 18.6949 131.191 19.2415C136.342 13.0099 146.106 10.8234 152.758 15.8524C158.23 19.1322 160.269 25.6917 163.595 30.8301C154.367 36.2964 144.925 41.5441 135.698 47.1197C134.732 45.4798 133.767 43.8399 132.694 42.2C130.655 42.6373 128.509 43.0746 126.47 43.4026C127.865 45.6985 129.153 47.9943 130.44 50.2902C129.367 50.9461 128.295 51.6021 127.114 52.1487C130.548 58.0523 133.767 64.1746 137.415 69.9689H175.612C180.869 67.0171 186.02 63.7373 191.384 61.0041V60.5668C184.839 48.9782 178.187 37.6083 171.749 26.1291ZM163.058 62.8627C161.985 63.5186 160.59 63.0813 159.947 61.9881L156.621 55.8658C155.333 55.7565 154.26 54.9912 153.616 53.7886C152.543 51.8207 153.294 49.4155 155.118 48.3223C157.05 47.229 159.41 47.885 160.483 49.8528C161.127 51.0554 161.127 52.4767 160.59 53.5699L163.917 59.6922C164.453 60.8948 164.131 62.316 163.058 62.8627Z" fill="#A6EEC3"/>
<path d="M121.536 17.1642C122.609 15.9616 123.682 14.8684 124.862 13.6658C124.969 15.1963 125.077 16.6176 125.291 18.0388C124.004 17.8202 122.823 17.4922 121.536 17.1642Z" fill="#A6EEC3"/>
<path d="M112.844 26.457C113.381 23.7238 113.917 20.9906 115.312 18.6948C116.707 20.2254 118.102 21.8652 119.604 23.3958C117.673 24.9264 115.205 25.6917 112.844 26.457Z" fill="#A6EEC3"/>
<path d="M121.536 21.6466C121.858 20.8813 122.287 20.116 122.609 19.3507C124.755 19.8974 126.901 20.5533 129.046 21.4279C127.33 22.4119 127.222 25.145 125.398 25.6917C123.896 24.3798 122.716 22.9585 121.536 21.6466Z" fill="#A6EEC3"/>
<path d="M115.956 32.7979C117.351 30.7207 119.819 29.7367 121.75 28.0968C121.857 30.0647 122.072 31.9233 122.179 33.8911C123.252 36.515 124.54 38.9201 126.256 41.1067C124.325 41.872 122.286 42.5279 120.248 43.0745C117.78 40.1227 116.6 36.4056 115.956 32.7979Z" fill="#A6EEC3"/>
<path d="M110.806 0H77.9734C82.1579 0.655957 86.3424 1.31191 90.5269 1.85855C93.102 2.29585 95.999 2.18652 98.1449 4.1544C102.115 7.43418 106.192 10.714 110.162 13.9938C112.737 14.1031 115.42 14.1031 117.995 14.2124C115.634 9.40206 113.381 4.70103 110.806 0Z" fill="#A6EEC3"/>
<path d="M89.3471 6.55957C83.875 5.35699 78.403 3.60777 72.8236 2.73316C67.6734 3.38911 62.6305 4.48238 57.4803 5.35699C54.6906 6.01294 51.5791 5.90362 48.8967 7.21553C64.2399 10.8233 79.6905 14.6497 95.0338 18.2575C97.9307 18.9134 100.291 20.8813 103.081 21.8652C105.656 21.8652 108.231 21.2093 110.914 20.9906C106.3 17.0549 101.686 13.2285 97.0724 9.1834C94.9265 7.32486 91.9222 7.21553 89.3471 6.55957Z" fill="#A6EEC3"/>
<path d="M34.3042 13.1192C28.5102 13.1192 22.7163 14.2124 16.9223 14.6497C12.8451 15.3057 8.66055 15.087 4.69061 16.1803C12.2013 18.6948 19.2828 23.7238 27.5446 23.3958C53.4028 24.9264 79.1537 26.457 105.012 27.8782C100.613 25.9103 96.5356 22.9585 91.8146 21.6466C72.6087 18.9134 53.4028 15.9616 34.3042 13.1192Z" fill="#A6EEC3"/>
<path d="M-2.60497 18.4761C-3.99981 17.9295 -5.50193 18.1482 -7.00407 18.2575C-18.0555 19.5694 -29.2143 20.5533 -40.2657 21.9746C-30.0726 23.1772 -19.8795 23.8331 -9.68647 24.8171C-1.6393 25.145 6.51517 25.0357 14.6696 24.9264C8.87567 22.8492 3.189 20.6627 -2.60497 18.4761Z" fill="#A6EEC3"/>
<path d="M103.187 31.3766C76.6853 31.2673 50.076 31.158 23.574 31.0486C15.8487 31.158 8.23073 30.6113 0.61274 31.2673C14.5612 34.3284 28.295 38.0455 42.2434 41.4346C45.2477 42.0906 48.1447 43.4025 51.149 43.0745C67.9944 40.6693 84.8398 38.2642 101.685 35.7497C102.114 34.2191 102.651 32.7978 103.187 31.3766Z" fill="#A6EEC3"/>
<path d="M114.025 42.1998C111.986 40.6692 109.411 39.6853 106.836 40.2319C89.7757 42.6371 72.6085 44.3863 55.6558 47.1195C59.1965 48.4314 62.9519 49.0873 66.3853 50.3993C69.2823 53.1324 71.5355 56.6309 74.2179 59.5827C87.5226 53.679 100.827 47.8848 114.025 42.1998Z" fill="#A6EEC3"/>
<path d="M114.239 48.6502C97.9298 55.4284 81.8355 62.7533 65.7411 70.0781H104.904C105.119 67.345 105.333 64.3932 106.835 61.988C109.41 57.5056 111.878 53.0232 114.239 48.6502Z" fill="#A6EEC3"/>
<path d="M54.0465 52.0392C48.789 50.9459 43.5315 49.5247 38.1668 50.3993C-0.888824 57.0682 -39.9444 63.1905 -79 69.9687H44.9264C52.2225 67.0169 59.4113 63.9558 66.7074 60.8946C62.6302 57.7242 59.304 53.1325 54.0465 52.0392Z" fill="#A6EEC3"/>
<path d="M130.227 69.9688C126.579 63.4092 123.253 56.631 119.712 49.9621C117.673 53.5699 115.635 57.1776 113.596 60.8947C112.094 63.7372 112.845 67.017 112.845 69.9688H130.227Z" fill="#A6EEC3"/>
</svg>
